<?xml version="1.0" encoding="utf-8"?>
<!-- Generator: Adobe Illustrator 27.0.0, SVG Export Plug-In . SVG Version: 6.00 Build 0)  -->
<svg version="1.1" id="Layer_1" xmlns="http://www.w3.org/2000/svg" xmlns:xlink="http://www.w3.org/1999/xlink" x="0px" y="0px"
	 viewBox="0 0 85.05 32" style="enable-background:new 0 0 85.05 32;" xml:space="preserve">
<style type="text/css">
	.st0{fill-rule:evenodd;clip-rule:evenodd;fill:#F05A22;}
	.st1{fill:#F05A22;}
</style>
<g>
	<path class="st0" d="M49.21,25.8h3.29c0.78,0,1.42-0.6,1.42-1.33V0.74c-0.99,0-1.98,0-2.97,0c-2.16,0.06-3.12,1.65-3.15,3.17v20.56
		C47.79,25.2,48.43,25.8,49.21,25.8"/>
	<path class="st1" d="M30.29,24.75c0.62-2.2,2.55-3.68,6.81-5.52c5.77-2.5,7.96-4.78,7.96-9.87c0-6.25-3.92-9.31-10.06-9.31
		c-3.59,0-7.26,1.21-9.4,2.41c-0.58,0.34,1.32,5.13,1.94,4.83c2.52-1.25,5.03-2.07,7.42-2.07c2.97,0,4.54,1.72,4.54,4.14
		c0,2.41-1.11,3.49-6.68,6.03c-5.19,2.36-7.53,4.93-8.31,9.29c0.12,0.61,0.67,1.08,1.33,1.08h3.15
		C29.61,25.76,30.14,25.33,30.29,24.75"/>
	<path class="st1" d="M16.56,9.13v13.61c0,3.37-1.75,3.96-5.3,3.96c-3.54,0-5.34-0.59-5.34-3.96V9.13c0-3.41,1.79-3.93,5.34-3.93
		C14.81,5.2,16.56,5.72,16.56,9.13 M11.27,31.86c6.46,0,11.13-1.88,11.13-8.33V8.38c0-6.45-4.63-8.34-11.13-8.34
		C4.77,0.05,0.1,1.94,0.1,8.38v15.15C0.1,29.98,4.77,31.86,11.27,31.86"/>
	<path class="st0" d="M25.61,26.85h3.29c0.78,0,1.42,0.6,1.42,1.33v3.66H24.2v-3.66C24.2,27.45,24.84,26.85,25.61,26.85"/>
	<path class="st0" d="M40.12,26.85h3.29c0.78,0,1.42,0.6,1.42,1.33v3.66H38.7v-3.66C38.7,27.45,39.34,26.85,40.12,26.85"/>
	<path class="st0" d="M32.84,26.85h3.29c0.78,0,1.42,0.6,1.42,1.33v3.66h-6.12v-3.66C31.42,27.45,32.06,26.85,32.84,26.85"/>
	<path class="st0" d="M49.21,26.85h3.29c0.78,0,1.42,0.6,1.42,1.33v3.66h-6.12v-3.66C47.79,27.45,48.43,26.85,49.21,26.85"/>
	<path class="st0" d="M57.66,26.85h3.29c0.78,0,1.42,0.6,1.42,1.33v3.66h-6.12v-3.66C56.25,27.45,56.88,26.85,57.66,26.85"/>
	<g>
		<path class="st1" d="M70.64,20.65c-0.26,0-0.52,0-0.78,0c-0.26,0-0.45,0.02-0.58,0.06c-0.42,0.11-0.64,0.41-0.64,0.89v10.36h-3.93
			V20.82c0-1.02,0.24-1.84,0.71-2.48c0.47-0.64,1.15-1.05,2.04-1.23c0.33-0.07,0.8-0.12,1.41-0.14c0.61-0.02,1.2-0.03,1.77-0.03
			h2.41v3.71H70.64z"/>
		<path class="st1" d="M82.28,22.81c0.53,0.13,0.99,0.35,1.38,0.65c0.4,0.3,0.71,0.7,0.94,1.19c0.23,0.49,0.35,1.09,0.35,1.81v1.3
			c0,1.11-0.23,1.98-0.68,2.6c-0.45,0.63-1.1,1.06-1.95,1.3c-0.26,0.07-0.58,0.13-0.96,0.17c-0.38,0.04-0.78,0.06-1.19,0.08
			c-0.42,0.02-0.82,0.03-1.22,0.03c-0.4,0-0.73,0-1.01,0h-3.52v-3.68h4.6c0.28,0,0.57,0,0.87-0.01c0.3-0.01,0.53-0.04,0.68-0.1
			c0.3-0.09,0.44-0.36,0.44-0.8v-0.47c0-0.52-0.28-0.78-0.83-0.78h-2.08c-0.55,0-1.07-0.07-1.55-0.21c-0.48-0.14-0.9-0.36-1.26-0.66
			c-0.36-0.3-0.64-0.7-0.84-1.18c-0.2-0.48-0.3-1.05-0.3-1.72v-1.14c0-1.37,0.35-2.42,1.05-3.16c0.7-0.74,1.86-1.11,3.49-1.11h5.21
			v3.68H80c-0.2,0-0.44,0-0.72,0s-0.49,0.02-0.64,0.06c-0.37,0.06-0.55,0.3-0.55,0.72v0.53c0,0.46,0.29,0.69,0.86,0.69h1.69
			C81.21,22.62,81.76,22.68,82.28,22.81z"/>
	</g>
</g>
</svg>
