<svg width="64" height="64" viewBox="0 0 64 64" fill="none" xmlns="http://www.w3.org/2000/svg">
<g clip-path="url(#clip0_830_496)">
<path d="M12 29.1011H23.1851L26.0598 33.9312H39.7653L42.8085 29.1011H52V57.1011H12V29.1011Z" stroke="#3D74AC" stroke-width="3"/>
<path d="M22.6517 44.1565C24.1115 44.1565 25.2939 42.974 25.2939 41.5142C25.2939 40.0544 24.1115 38.8719 22.6517 38.8719C21.1918 38.8719 20.0094 40.0544 20.0094 41.5142C20.0094 42.974 21.1918 44.1565 22.6517 44.1565ZM22.6517 45.4776C20.888 45.4776 17.3672 46.3627 17.3672 48.1198V49.441H27.9362V48.1198C27.9362 46.3627 24.4154 45.4776 22.6517 45.4776Z" fill="#3D74AC"/>
<path d="M32.0527 42.8309H46.6328" stroke="#3D74AC" stroke-width="2"/>
<path d="M32.0527 46.3153H46.6328" stroke="#3D74AC" stroke-width="2"/>
<path d="M42.366 9.59155H49.9284L37.5639 30.0781H36.0318L33.1309 24.8931L42.366 9.59155Z" stroke="#3D74AC" stroke-width="3"/>
<path d="M23.4617 9.59155H15.8993L28.2637 30.0781H35.8262L23.4617 9.59155Z" stroke="#3D74AC" stroke-width="3"/>
</g>
<defs>
<clipPath id="clip0_830_496">
<rect width="64" height="64" fill="white"/>
</clipPath>
</defs>
</svg>
