<?xml version="1.0" encoding="utf-8"?>
<!-- Generator: Adobe Illustrator 25.2.3, SVG Export Plug-In . SVG Version: 6.00 Build 0)  -->
<svg version="1.1" id="Layer_1" xmlns="http://www.w3.org/2000/svg" xmlns:xlink="http://www.w3.org/1999/xlink" x="0px" y="0px"
	 width="516.19px" height="80px" viewBox="0 0 516.19 80" style="enable-background:new 0 0 516.19 80;" xml:space="preserve">
<style type="text/css">
	.st0{fill:#F9B816;}
	.st1{fill:#E54125;}
</style>
<g>
	<path class="st0" d="M76.23,38.09c-0.14-1.2-0.88-1.8-2.23-1.8c0,0-44.26,0-49.08,0c-5.33,0-6.62,2.06-8.07,4.92
		c-0.7,1.37-1.61,3.31-2.38,4.97c-0.83,1.8,0.4,3.25,3.03,3.25c5.43,0,14.04,0.01,15.72,0.01c1.68,0,4.24-0.16,4.24-0.16l2.93-5.76
		c0.47-1.02,1.22-1.87,2.23-2.57c1.02-0.71,2.01-1.06,3-1.06c0.07,0,1.42,0,1.48,0c1.22,0.06,1.89,0.66,2.03,1.81
		c0.06,0.56,0.02,1.18-0.27,1.81l-4.23,9.25c-0.46,1.01-1.24,1.83-2.27,2.54c-1.02,0.7-2.04,1.05-3.04,1.05h-0.3H13.59
		c-1,0-2.01,0.35-3.03,1.05c-1.02,0.7-1.79,1.54-2.25,2.55L0.34,76.4c-0.3,0.64-0.38,1.25-0.32,1.8C0.16,79.4,0.93,80,2.32,80h51.16
		c0.95,0,1.95-0.35,2.99-1.05c1.04-0.7,1.76-1.56,2.22-2.55l17.23-36.51C76.21,39.25,76.3,38.64,76.23,38.09z M36.36,59.94
		c0.08,0,1.44,0,1.52,0.01c1.24,0.07,1.93,0.67,2.06,1.79c0.06,0.55-0.03,1.14-0.33,1.79l-4.37,8.74c-0.46,0.99-1.17,1.85-2.22,2.55
		c-1.04,0.7-2.06,1.05-3.06,1.05c-0.15,0-1.56-0.01-1.7-0.02c-1.08-0.12-1.69-0.71-1.81-1.78c-0.06-0.55,0.02-1.16,0.32-1.8
		l4.38-8.73c0.46-0.99,1.16-1.85,2.18-2.55C34.35,60.29,35.36,59.94,36.36,59.94z"/>
	<path class="st0" d="M153.92,12.94c-0.81-0.48-16.08-12.62-16.08-12.62S136.99,0,136.57,0c-0.81,0-1.5,0.62-2.08,1.86l-15.07,31
		c-0.45,0.96-1.18,1.77-2.14,2.43c-0.97,0.67-1.94,1-2.89,1H90.33c-0.95,0-1.92,0.33-2.89,1c-0.97,0.67-1.69,1.48-2.15,2.43
		L67.86,76.56c-0.31,0.62-0.44,1.19-0.37,1.72c0.13,1.15,0.87,1.72,2.2,1.72h52.56c0.95,0,1.92-0.33,2.89-1
		c0.97-0.67,1.71-1.47,2.15-2.43l27.11-58.23C156.09,14.59,154.73,13.42,153.92,12.94z M116.48,43.15l-13.94,29.66
		c-0.46,0.95-1.18,1.77-2.15,2.43c-0.73,0.5-1.87,0.71-2.97,0.7c-0.12,0-1.45-0.01-1.56-0.02c-0.84-0.1-1.5-0.57-1.63-1.68
		c-0.06-0.52,0.09-1.09,0.45-1.69l13.97-29.74c0.46-0.97,1.17-1.79,2.13-2.46c0.97-0.68,1.74-0.62,2.69-0.62
		c0.08,0,1.38,0,1.45,0.01c1.19,0.06,1.85,0.63,1.97,1.71C116.94,41.96,116.8,42.53,116.48,43.15z"/>
	<path class="st1" d="M516.17,38.09c-0.14-1.2-0.91-1.8-2.3-1.8h-51.63c-0.95,0-1.94,0.35-2.99,1.05c-1.04,0.7-1.76,1.56-2.22,2.55
		L439.81,76.4c-0.3,0.64-0.38,1.25-0.32,1.8c0.14,1.2,0.91,1.8,2.3,1.8h51.63c0.95,0,1.95-0.35,2.99-1.05
		c1.04-0.7,1.76-1.56,2.22-2.55l17.23-36.51C516.15,39.25,516.24,38.64,516.17,38.09z M466.98,72.26l13.56-28.77
		c0.46-0.99,1.17-1.85,2.2-2.55c1.04-0.7,2.06-1.05,3.06-1.05c0.08,0,1.44,0,1.51,0.01c1.2,0.07,1.87,0.67,2,1.79
		c0.06,0.55-0.02,1.16-0.32,1.8l-13.56,28.77c-0.46,0.99-1.17,1.85-2.22,2.55c-1.04,0.7-2.06,1.05-3.06,1.05
		c-0.1,0-1.48,0-1.57-0.01c-1.16-0.08-1.81-0.68-1.93-1.79C466.59,73.51,466.68,72.9,466.98,72.26z"/>
	<path class="st1" d="M279.82,38.09c-0.14-1.2-0.91-1.8-2.3-1.8h-51.63c-0.95,0-1.94,0.35-2.99,1.05c-1.04,0.7-1.76,1.56-2.22,2.55
		L203.46,76.4c-0.3,0.64-0.38,1.25-0.32,1.8c0.14,1.2,0.91,1.8,2.3,1.8h51.63c0.95,0,1.95-0.35,2.99-1.05
		c1.04-0.7,1.76-1.56,2.22-2.55l17.23-36.51C279.8,39.25,279.88,38.64,279.82,38.09z M230.63,72.26l13.56-28.77
		c0.46-0.99,1.17-1.85,2.2-2.55c1.04-0.7,2.06-1.05,3.06-1.05c0.08,0,1.44,0,1.51,0.01c1.2,0.07,1.87,0.67,2,1.79
		c0.06,0.55-0.02,1.16-0.32,1.8l-13.56,28.77c-0.46,0.99-1.17,1.85-2.22,2.55c-1.04,0.7-2.06,1.05-3.06,1.05
		c-0.1,0-1.48,0-1.57-0.01c-1.16-0.08-1.81-0.68-1.93-1.79C230.24,73.51,230.33,72.9,230.63,72.26z"/>
	<path class="st1" d="M203.12,58.15h-24.78l-7.11,14.11c-0.43,1-1.17,1.85-2.22,2.55c-1.04,0.7-2.06,1.05-3.06,1.05
		c-0.1,0-1.48,0-1.57-0.01c-1.16-0.08-1.81-0.68-1.93-1.79c-0.06-0.55,0.04-1.15,0.33-1.8l13.56-28.77c0.48-1,1.24-1.85,2.24-2.55
		c1.02-0.7,2.03-1.05,3.03-1.05c0.09,0,1.46,0,1.54,0.01c1.18,0.08,1.83,0.67,1.96,1.79c0.06,0.55-0.04,1.15-0.32,1.8l-3.11,7.01
		c0,0,15.12-0.03,20.02-0.03c4.9,0,6.52-3.95,6.52-3.95l3.07-6.62c0.28-0.65,0.38-1.25,0.32-1.8c-0.14-1.2-0.88-1.8-2.23-1.8h-50.35
		c-1,0-2.02,0.35-3.06,1.05c-1.04,0.7-1.78,1.55-2.22,2.55L136.52,76.4c-0.27,0.65-0.38,1.25-0.32,1.8c0.14,1.2,0.91,1.8,2.31,1.8
		c0,0,43.25,0,47.49,0c6.75,0,8.73-4.94,8.73-4.94L203.12,58.15z"/>
	<path class="st1" d="M379.2,38.09c-0.14-1.2-0.91-1.8-2.31-1.8h-82.72c-1,0-2.01,0.35-3.03,1.05c-1.02,0.7-1.79,1.54-2.25,2.55
		L271.75,76.4c-0.3,0.66-0.46,1.25-0.39,1.8c0.14,1.2,0.91,1.8,2.31,1.8h17.12c1,0,2.01-0.35,3.03-1.05
		c1.02-0.7,1.79-1.54,2.25-2.55l15.47-32.92c0.46-1.01,1.24-1.85,2.25-2.55c1.02-0.7,2.03-1.05,3.03-1.05c0.08,0,1.44,0,1.52,0.01
		c1.24,0.07,1.93,0.67,2.06,1.79c0.06,0.55-0.1,1.14-0.4,1.8l-15.47,32.9c-0.31,0.66-0.44,1.26-0.38,1.81
		c0.14,1.2,0.91,1.8,2.31,1.8h16.63c1.01,0,2.02-0.35,3.04-1.05c1.02-0.7,1.79-1.54,2.25-2.55l15.54-32.92
		c0.46-0.99,1.15-1.85,2.17-2.55c1.02-0.7,2.03-1.05,3.03-1.05c0.08,0,1.44,0,1.52,0.01c1.24,0.07,1.93,0.67,2.06,1.79
		c0.06,0.55-0.02,1.16-0.32,1.8l-14.38,31.02c-0.47,1.01-0.65,2.12-0.51,3.37c0.1,0.85,0.74,2.12,2.87,2.12c0.86,0,15.8,0,17.17,0
		c1.36,0,2.63,0,3.62-1.88l17.67-38.23C379.11,39.23,379.26,38.64,379.2,38.09z"/>
	<path class="st1" d="M448.27,38.01c-0.13-1.15-0.87-1.72-2.21-1.72h-26.15c-1.39,0-2.14-0.55-2.27-1.65
		c-0.05-0.43,6.61-14.97,6.82-15.44c0.88-1.96,1.47-3.73-0.17-5.23c-1.64-1.51-15.63-13.48-15.63-13.48
		c-1.11-0.89-2.32-0.64-3.16,1.22l-34.78,74.84c-0.28,0.61-0.36,1.2-0.3,1.72c0.13,1.15,0.84,1.72,2.14,1.72h52.87
		c0.96,0,1.93-0.34,2.93-1c1-0.67,1.68-1.49,2.12-2.44l17.42-36.82C448.19,39.1,448.33,38.54,448.27,38.01z M399.44,72.62
		l13.92-29.42c0.44-0.95,1.13-1.77,2.12-2.44c0.99-0.67,1.94-1,2.85-1c0.08,0,1.38,0,1.46,0.01c1.19,0.07,1.85,0.64,1.97,1.72
		c0.06,0.53-0.02,1.11-0.3,1.72l-13.92,29.42c-0.45,0.96-1.18,1.77-2.16,2.44c-0.97,0.67-1.94,1-2.9,1c-0.14,0-1.49-0.01-1.61-0.02
		c-1.09-0.1-1.7-0.67-1.82-1.7C398.99,73.82,399.15,73.26,399.44,72.62z"/>
</g>
</svg>
