<?xml version="1.0" encoding="utf-8"?>
<!-- Generator: Adobe Illustrator 23.0.1, SVG Export Plug-In . SVG Version: 6.00 Build 0)  -->
<svg version="1.1" id="Layer_1" xmlns="http://www.w3.org/2000/svg" xmlns:xlink="http://www.w3.org/1999/xlink" x="0px" y="0px"
	 width="500.5px" height="120px" viewBox="0 0 500.5 120" style="enable-background:new 0 0 500.5 120;" xml:space="preserve">
<style type="text/css">
	.st0{fill-rule:evenodd;clip-rule:evenodd;fill:#F05323;}
	.st1{fill-rule:evenodd;clip-rule:evenodd;fill:#7FC343;}
</style>
<g>
	<g>
		<g>
			<path class="st0" d="M70.2,117.4c1.1,0,1.8-0.7,1.8-1.8V59.7c0-20.9-9.6-29.8-35.7-29.8c-14,0-23.4,3.4-30.3,8.3
				c-0.7,0.5-0.9,1.4-0.4,2.3l6.6,11.7c0.5,0.9,1.6,1.1,2.5,0.4c4.1-3.2,9.9-5.8,19.5-5.8c14.4,0,19,4.4,19,14.2v4.1
				c0,0.7-0.4,1.1-1.1,1.1H34.8c-21.1,0-34.2,8.5-34.2,27.1c0,17.9,13.1,26.1,28.7,26.1c12.1,0,20.1-4.1,24.1-9.9h0.2v6.2
				c0,1.1,0.7,1.8,1.8,1.8L70.2,117.4L70.2,117.4z M34.2,103.2c-9.6,0-14.7-3.6-14.7-10.6c0-8,5.7-11.5,18.5-11.5h14.2
				c0.7,0,1.1,0.3,1.1,1.1v6.6C53.2,98.4,46.5,103.2,34.2,103.2z"/>
			<path class="st0" d="M158.7,117.4c1.1,0,1.8-0.7,1.8-1.8V61.7c0-18.3-11.4-31.8-29.6-31.8c-11.3,0-18.8,4.6-22.5,9.9h-0.2v-6.2
				c0-1.1-0.7-1.8-1.8-1.8H90c-1.1,0-1.8,0.7-1.8,1.8v82c0,1.1,0.7,1.8,1.8,1.8h16.3c1.1,0,1.8-0.7,1.8-1.8V66.3
				c0-11,6-18.6,16.3-18.6c10.6,0,16.1,7.6,16.1,18.6v49.3c0,1.1,0.7,1.8,1.8,1.8C142.4,117.4,158.7,117.4,158.7,117.4z"/>
			<path class="st0" d="M242.4,117.4c1.1,0,1.8-0.7,1.8-1.8V59.7c0-20.9-9.6-29.8-35.7-29.8c-14,0-23.4,3.4-30.3,8.3
				c-0.7,0.5-0.9,1.4-0.4,2.3l6.6,11.7c0.5,0.9,1.6,1.1,2.5,0.4c4.1-3.2,9.9-5.8,19.5-5.8c14.4,0,19,4.4,19,14.2v4.1
				c0,0.7-0.4,1.1-1.1,1.1h-17.4c-21.1,0-34.2,8.5-34.2,27.1c0,17.9,13.1,26.1,28.7,26.1c12.1,0,20.1-4.1,24.1-9.9h0.2v6.2
				c0,1.1,0.7,1.8,1.8,1.8L242.4,117.4L242.4,117.4z M206.4,103.2c-9.6,0-14.7-3.6-14.7-10.6c0-8,5.7-11.5,18.4-11.5h14.2
				c0.7,0,1.1,0.3,1.1,1.1v6.6C225.3,98.4,218.6,103.2,206.4,103.2z"/>
			<path class="st0" d="M330.8,117.4c1.1,0,1.8-0.7,1.8-1.8V61.7c0-18.3-11.4-31.8-29.6-31.8c-11.4,0-18.8,4.6-22.5,9.9h-0.2v-6.2
				c0-1.1-0.7-1.8-1.8-1.8h-16.3c-1.1,0-1.8,0.7-1.8,1.8v82c0,1.1,0.7,1.8,1.8,1.8h16.3c1.1,0,1.8-0.7,1.8-1.8V66.3
				c0-11,6-18.6,16.3-18.6c10.6,0,16.1,7.6,16.1,18.6v49.3c0,1.1,0.7,1.8,1.8,1.8C314.5,117.4,330.8,117.4,330.8,117.4z"/>
			<path class="st0" d="M414.5,117.4c1.1,0,1.8-0.7,1.8-1.8V59.7c0-20.9-9.6-29.8-35.7-29.8c-14,0-23.4,3.4-30.3,8.3
				c-0.7,0.5-0.9,1.4-0.4,2.3l6.6,11.7c0.5,0.9,1.6,1.1,2.5,0.4c4.1-3.2,9.9-5.8,19.5-5.8c14.4,0,19,4.4,19,14.2v4.1
				c0,0.7-0.4,1.1-1.1,1.1H379c-21.1,0-34.2,8.5-34.2,27.1c0,17.9,13.1,26.1,28.7,26.1c12.1,0,20-4.1,24.1-9.9h0.2v6.2
				c0,1.1,0.7,1.8,1.8,1.8L414.5,117.4L414.5,117.4z M378.5,103.2c-9.6,0-14.7-3.6-14.7-10.6c0-8,5.7-11.5,18.5-11.5h14.2
				c0.7,0,1.1,0.3,1.1,1.1v6.6C397.5,98.4,390.7,103.2,378.5,103.2z"/>
			<path class="st0" d="M464.1,119.3c23.4,0,35.8-11.9,35.8-28.9c0-14-8.5-23.2-26.4-25l-9.2-0.9c-11-1.1-14-4.1-14-9
				c0-5.1,4.4-8.9,13-8.9c8.5,0,17,3.4,22.4,7.1c0.9,0.5,1.8,0.5,2.5-0.4l8.7-10.5c0.5-0.7,0.5-1.8-0.4-2.5
				c-7.6-6-18.8-10.5-32.1-10.5c-21.3,0-33.2,10.5-33.2,27c0,14.6,8.9,23.4,26.3,25.2l9.2,0.9c11.2,1.1,14.2,4.3,14.2,9.4
				c0,5.8-5.3,10.1-15.8,10.1c-8.9,0-18.8-4.1-25-9.8c-0.7-0.7-1.8-0.7-2.5,0l-10.1,10.6c-0.7,0.7-0.7,1.8,0,2.5
				C434.5,112.4,446.5,119.3,464.1,119.3z"/>
			<path class="st1" d="M7,18.2h63.3c1.1,0,1.8-0.7,1.8-1.8v-14c0-1.1-0.7-1.8-1.8-1.8H7c-1.1,0-1.8,0.7-1.8,1.8v14
				C5.2,17.5,5.9,18.2,7,18.2z"/>
		</g>
	</g>
</g>
</svg>
