<?xml version="1.0" encoding="utf-8"?>
<!-- Generator: Adobe Illustrator 25.2.3, SVG Export Plug-In . SVG Version: 6.00 Build 0)  -->
<svg version="1.1" id="Layer_1" xmlns="http://www.w3.org/2000/svg" xmlns:xlink="http://www.w3.org/1999/xlink" x="0px" y="0px"
	 width="465px" height="80px" viewBox="0 0 677.28 120" style="enable-background:new 0 0 465 80;" xml:space="preserve">
<style type="text/css">
	.st0{fill-rule:evenodd;clip-rule:evenodd;fill:#F05323;}
	.st1{fill-rule:evenodd;clip-rule:evenodd;fill:#7FC343;}
	.st2{fill:#F05323;}
</style>
<g>
	<g>
		<g>
			<path class="st0" d="M69.72,116.73c1.06,0,1.77-0.71,1.77-1.77V59.08c0-20.93-9.58-29.8-35.66-29.8
				c-14.02,0-23.42,3.37-30.34,8.34c-0.71,0.53-0.89,1.42-0.36,2.31l6.56,11.71c0.53,0.89,1.6,1.06,2.48,0.36
				c4.08-3.19,9.94-5.85,19.52-5.85c14.37,0,18.98,4.43,18.98,14.19v4.08c0,0.71-0.36,1.07-1.06,1.07H34.24
				C13.13,65.46,0,73.98,0,92.6c0,17.92,13.13,26.08,28.74,26.08c12.06,0,20.05-4.08,24.13-9.94h0.18v6.21
				c0,1.06,0.71,1.77,1.77,1.77H69.72L69.72,116.73z M33.71,102.54c-9.58,0-14.72-3.55-14.72-10.64c0-7.98,5.68-11.53,18.45-11.53
				h14.19c0.71,0,1.06,0.35,1.06,1.06v6.56C52.69,97.75,45.95,102.54,33.71,102.54z"/>
			<path class="st0" d="M158.18,116.73c1.06,0,1.77-0.71,1.77-1.77V61.03c0-18.27-11.35-31.76-29.63-31.76
				c-11.35,0-18.8,4.61-22.53,9.93h-0.18V33c0-1.06-0.71-1.77-1.77-1.77H89.52c-1.06,0-1.77,0.71-1.77,1.77v81.96
				c0,1.06,0.71,1.77,1.77,1.77h16.32c1.06,0,1.77-0.71,1.77-1.77V65.64c0-11,6.03-18.63,16.32-18.63
				c10.64,0,16.14,7.63,16.14,18.63v49.32c0,1.06,0.71,1.77,1.77,1.77H158.18z"/>
			<path class="st0" d="M241.84,116.73c1.06,0,1.77-0.71,1.77-1.77V59.08c0-20.93-9.58-29.8-35.66-29.8
				c-14.02,0-23.42,3.37-30.34,8.34c-0.71,0.53-0.89,1.42-0.36,2.31l6.56,11.71c0.53,0.89,1.6,1.06,2.48,0.36
				c4.08-3.19,9.94-5.85,19.51-5.85c14.37,0,18.98,4.43,18.98,14.19v4.08c0,0.71-0.36,1.07-1.06,1.07h-17.38
				c-21.11,0-34.24,8.52-34.24,27.14c0,17.92,13.13,26.08,28.74,26.08c12.06,0,20.05-4.08,24.13-9.94h0.18v6.21
				c0,1.06,0.71,1.77,1.77,1.77H241.84L241.84,116.73z M205.83,102.54c-9.58,0-14.72-3.55-14.72-10.64
				c0-7.98,5.68-11.53,18.45-11.53h14.19c0.71,0,1.06,0.35,1.06,1.06v6.56C224.81,97.75,218.07,102.54,205.83,102.54z"/>
			<path class="st0" d="M330.3,116.73c1.06,0,1.77-0.71,1.77-1.77V61.03c0-18.27-11.35-31.76-29.63-31.76
				c-11.35,0-18.8,4.61-22.53,9.93h-0.18V33c0-1.06-0.71-1.77-1.77-1.77h-16.32c-1.06,0-1.77,0.71-1.77,1.77v81.96
				c0,1.06,0.71,1.77,1.77,1.77h16.32c1.06,0,1.77-0.71,1.77-1.77V65.64c0-11,6.03-18.63,16.32-18.63
				c10.64,0,16.14,7.63,16.14,18.63v49.32c0,1.06,0.71,1.77,1.77,1.77H330.3z"/>
			<path class="st0" d="M413.97,116.73c1.06,0,1.77-0.71,1.77-1.77V59.08c0-20.93-9.58-29.8-35.66-29.8
				c-14.02,0-23.42,3.37-30.34,8.34c-0.71,0.53-0.89,1.42-0.36,2.31l6.56,11.71c0.53,0.89,1.6,1.06,2.48,0.36
				c4.08-3.19,9.93-5.85,19.51-5.85c14.37,0,18.98,4.43,18.98,14.19v4.08c0,0.71-0.36,1.07-1.06,1.07h-17.38
				c-21.11,0-34.24,8.52-34.24,27.14c0,17.92,13.13,26.08,28.74,26.08c12.06,0,20.05-4.08,24.13-9.94h0.18v6.21
				c0,1.06,0.71,1.77,1.77,1.77H413.97L413.97,116.73z M377.96,102.54c-9.58,0-14.72-3.55-14.72-10.64
				c0-7.98,5.68-11.53,18.45-11.53h14.19c0.71,0,1.06,0.35,1.06,1.06v6.56C396.94,97.75,390.2,102.54,377.96,102.54z"/>
			<path class="st0" d="M463.57,118.68c23.42,0,35.84-11.89,35.84-28.92c0-14.01-8.52-23.24-26.43-25.01l-9.22-0.89
				c-11-1.07-14.02-4.08-14.02-9.05c0-5.14,4.43-8.87,12.95-8.87c8.52,0,17.03,3.37,22.35,7.1c0.89,0.53,1.77,0.53,2.48-0.36
				l8.69-10.47c0.53-0.71,0.53-1.77-0.36-2.48c-7.63-6.03-18.8-10.47-32.11-10.47c-21.29,0-33.18,10.47-33.18,26.97
				c0,14.55,8.87,23.42,26.26,25.19l9.23,0.89c11.18,1.06,14.19,4.26,14.19,9.4c0,5.85-5.32,10.11-15.79,10.11
				c-8.87,0-18.8-4.08-25.01-9.76c-0.71-0.71-1.77-0.71-2.48,0l-10.11,10.64c-0.71,0.71-0.71,1.77,0,2.48
				C433.95,111.76,446.01,118.68,463.57,118.68z"/>
			<path class="st1" d="M6.48,17.56h63.34c1.06,0,1.77-0.71,1.77-1.77V1.77c0-1.06-0.71-1.77-1.77-1.77H6.48
				C5.42,0,4.7,0.71,4.7,1.77v14.01C4.7,16.85,5.41,17.56,6.48,17.56z"/>
		</g>
		<path class="st2" d="M511.47,119.45h15.81c1,0,1.82-0.81,1.82-1.82v-16.32c0-1-0.81-1.82-1.82-1.82h-15.81
			c-1,0-1.82,0.81-1.82,1.82v16.32C509.65,118.63,510.47,119.45,511.47,119.45z"/>
		<g>
			<path class="st0" d="M641.44,118.68c23.42,0,35.84-11.89,35.84-28.92c0-14.01-8.52-23.24-26.43-25.01l-9.22-0.89
				c-11-1.07-14.02-4.08-14.02-9.05c0-5.14,4.43-8.87,12.95-8.87c8.52,0,17.03,3.37,22.35,7.1c0.89,0.53,1.77,0.53,2.48-0.36
				l8.69-10.47c0.53-0.71,0.53-1.77-0.36-2.48c-7.63-6.03-18.8-10.47-32.11-10.47c-21.29,0-33.18,10.47-33.18,26.97
				c0,14.55,8.87,23.42,26.26,25.19l9.23,0.89c11.18,1.06,14.19,4.26,14.19,9.4c0,5.85-5.32,10.11-15.79,10.11
				c-8.87,0-18.8-4.08-25.01-9.76c-0.71-0.71-1.77-0.71-2.48,0l-10.11,10.64c-0.71,0.71-0.71,1.77,0,2.48
				C611.82,111.76,623.88,118.68,641.44,118.68z"/>
			<path class="st2" d="M605.01,36.2c-5.25-4.53-11.49-6.88-18.56-7c-8.45,0-15.53,2.92-21.1,8.7v-7.61h-19.44V120h19.44V66.19
				c0.1-5.98,1.76-10.34,4.93-12.94l0.06-0.05c2.88-2.72,6.26-4.04,10.31-4.04c3.54,0,7.03,1.38,10.38,4.1l0.96,0.78l13.94-17.05
				L605.01,36.2z"/>
		</g>
	</g>
</g>
</svg>
