<svg width="64" height="64" viewBox="0 0 64 64" fill="none" xmlns="http://www.w3.org/2000/svg">
<path d="M21.0496 31.0501C20.7496 30.7501 20.5996 30.4001 20.5996 30.0001C20.5996 29.6001 20.7496 29.2501 21.0496 28.9501L30.9496 19.0501C31.1163 18.8834 31.2829 18.7668 31.4496 18.7001C31.6163 18.6334 31.7996 18.6001 31.9996 18.6001C32.1996 18.6001 32.3829 18.6334 32.5496 18.7001C32.7163 18.7668 32.8829 18.8834 33.0496 19.0501L42.9496 28.9501C43.2496 29.2501 43.3996 29.6001 43.3996 30.0001C43.3996 30.4001 43.2496 30.7501 42.9496 31.0501C42.6496 31.3501 42.2996 31.5001 41.8996 31.5001C41.4996 31.5001 41.1496 31.3501 40.8496 31.0501L31.9996 22.2001L23.1496 31.0501C22.8496 31.3501 22.4996 31.5001 22.0996 31.5001C21.6996 31.5001 21.3496 31.3501 21.0496 31.0501ZM21.0496 43.7001C20.7496 43.4001 20.5996 43.0501 20.5996 42.6501C20.5996 42.2501 20.7496 41.9001 21.0496 41.6001L30.9496 31.7001C31.1163 31.5334 31.2829 31.4168 31.4496 31.3501C31.6163 31.2834 31.7996 31.2501 31.9996 31.2501C32.1996 31.2501 32.3829 31.2834 32.5496 31.3501C32.7163 31.4168 32.8829 31.5334 33.0496 31.7001L42.9496 41.6001C43.2496 41.9001 43.3996 42.2501 43.3996 42.6501C43.3996 43.0501 43.2496 43.4001 42.9496 43.7001C42.6496 44.0001 42.2996 44.1501 41.8996 44.1501C41.4996 44.1501 41.1496 44.0001 40.8496 43.7001L31.9996 34.8501L23.1496 43.7001C22.8496 44.0001 22.4996 44.1501 22.0996 44.1501C21.6996 44.1501 21.3496 44.0001 21.0496 43.7001Z" fill="#B1C7DE"/>
<rect x="1" y="1" width="62" height="62" rx="3" stroke="#B1C7DE" stroke-width="2"/>
</svg>
