<?xml version="1.0" encoding="utf-8"?>
<!-- Generator: Adobe Illustrator 25.2.3, SVG Export Plug-In . SVG Version: 6.00 Build 0)  -->
<svg version="1.1" id="Layer_1" xmlns="http://www.w3.org/2000/svg" xmlns:xlink="http://www.w3.org/1999/xlink" x="0px" y="0px"
	 width="291px" height="42px" viewBox="0 0 291 42" style="enable-background:new 0 0 291 42;" xml:space="preserve">
<style type="text/css">
	.st0{display:none;}
	.st1{display:inline;fill:#0A515A;}
	.st2{display:inline;}
	.st3{fill:#FFFFFF;}
	.st4{fill:#050505;}
	.st5{fill:#163598;}
	.st6{fill:#F2F2F2;}
</style>
<g>
	<path class="st4" d="M45.2,13.3L45.2,13.3c-1.4-2.4-4-3.9-7.1-3.9c-6.4,0-10.9,4.4-10.9,12.2c0,7,5,11.2,10.4,11.2
		c4,0,6.1-1.6,7.6-3.8v3.1h6.6V10h-6.7V13.3z M39.6,27.7c-3.1,0-5.4-1.8-5.4-6.6c0-4.3,2.2-6.5,5.4-6.5c3.5,0,5.6,2.4,5.6,6.7h0
		C45.2,25.9,42.7,27.7,39.6,27.7z"/>
	<path class="st4" d="M205.8,12.7c-2.1-2.5-4-3.4-7.4-3.4c-5.8,0-10.4,3.9-10.4,11.9c0,7.1,4.4,11.3,10.5,11.3
		c3.3,0,5.6-1.2,7.2-3.4l6.8,11.9V9.9h-6.7V12.7z M200.5,27.3c-3.5,0-5.4-2-5.4-6.7v0c0-4.3,2.3-6.3,5.2-6.3c3.5,0,5.6,2.5,5.6,6.4
		C205.9,24.8,204.1,27.3,200.5,27.3z"/>
	<path class="st4" d="M14.9,9.5L14.9,9.5c-3.3,0-5.6,1.2-7.2,3.4L0.8,1v31.1h6.7v-2.8c2.1,2.5,4,3.4,7.4,3.4
		c5.8,0,10.4-3.9,10.4-11.9C25.4,13.7,21,9.5,14.9,9.5z M13.1,27.7c-3.5,0-5.7-2.4-5.6-6.4c0-4.2,1.8-6.6,5.4-6.6
		c3.5,0,5.4,2,5.4,6.7C18.2,25.7,15.9,27.7,13.1,27.7z"/>
	<path class="st4" d="M84.8,25.5c0,1.6-0.8,2-1.8,2c-0.3,0-0.8,0-1.3-0.1v4.8c0.8,0,1.7,0,2.4,0c7.4,0,7.4-3.7,7.4-6.6V10h-6.8V25.5
		z"/>
	<path class="st4" d="M70.8,9.4c-3.2,0-5.6,1.2-7.5,3.8V10l0,0h-6.5v22.1h6.8V20.2c0-4.9,2.5-5.8,5-5.8c2.8,0,4.2,1.2,4.2,4.3v13.4
		h7V17.1C79.7,11.8,76.2,9.4,70.8,9.4z"/>
	<path class="st4" d="M113.1,13.3c-1.3-2.4-4-3.9-7.1-3.9c-6.4,0-10.9,4.4-10.9,12.2c0,7,5,11.2,10.4,11.2c4,0,6.1-1.6,7.6-3.8v3.1
		h6.6V10h-6.7V13.3z M107.5,27.7c-3.1,0-5.4-1.8-5.4-6.6c0-4.3,2.2-6.5,5.4-6.5c3.5,0,5.6,2.4,5.6,6.7
		C113,25.9,110.5,27.7,107.5,27.7z"/>
	<path class="st4" d="M133.3,27.9c-1.1,0-1.8-0.7-1.8-2.1v-16h-6.8v16.8c0,3,1.6,5.7,6.8,5.7c1,0,2.1,0,3.1,0v-4.5
		C134.1,27.9,133.7,27.9,133.3,27.9L133.3,27.9z"/>
	<polygon class="st4" points="187.7,10 179.3,10 171.3,19 171.3,9.9 164.7,9.9 164.7,32.1 171.3,32.1 171.3,20.7 179.6,32.1 
		188,32.1 178.5,19.7 	"/>
	<path class="st4" d="M153.1,23.2c0,3-1.6,4.4-4.6,4.4c-3,0-4.5-1.4-4.5-4.4V10h-7v14.2c0,5.6,4.6,8.4,11.2,8.4
		c6.7,0,11.7-2.6,11.7-9.2V10h-6.9V23.2z"/>
	<path class="st5" d="M241.4,9.8c-3.4,0-5.9,1.2-8,3.6v-3.1h-4.3v21.8h4.5V19.4c0-3.9,3.3-6.1,6.8-6.1c3.1,0,4.6,1.8,4.6,5.1v13.7
		h4.5V18.1C249.6,12.1,246.6,9.8,241.4,9.8z"/>
	<rect x="218.2" y="27.4" class="st5" width="5.1" height="4.7"/>
	<path class="st5" d="M264.7,9.8c-7.2,0-11.7,5-11.7,11.8c0,7.7,5.5,11.3,11.8,11.3c5.4,0,9.8-2.6,10.5-7.6H271
		c-0.7,2.9-3.1,4.2-6.4,4.2c-4.1,0-6.5-2.2-6.7-7h17.9l0,0C276,14,271.5,9.8,264.7,9.8z M257.9,19.4c0.2-4.4,3.6-6.2,6.6-6.2
		c4,0,6.2,2.1,6.6,6.2L257.9,19.4z"/>
	<polygon class="st5" points="285,10.3 285,4.3 280.5,4.3 280.5,10.3 277.2,10.3 277.2,13.5 280.5,13.5 280.5,32.1 285,32.1 
		285,13.5 289,13.5 289,10.3 	"/>
</g>
</svg>
