<?xml version="1.0" encoding="utf-8"?>
<!-- Generator: Adobe Illustrator 23.0.1, SVG Export Plug-In . SVG Version: 6.00 Build 0)  -->
<svg version="1.1" id="Layer_1" xmlns="http://www.w3.org/2000/svg" xmlns:xlink="http://www.w3.org/1999/xlink" x="0px" y="0px"
	 viewBox="0 0 311.2 132" style="enable-background:new 0 0 311.2 132;" xml:space="preserve">
<style type="text/css">
	.st0{fill:#4D4D4F;}
	.st1{fill:#77B5DD;}
</style>
<g>
	<path class="st0" d="M33.5,40c2,1.3,3.1,3.4,3.1,6.1c0,3-0.4,5-0.4,7.5c0,2.2,1.4,4.2,4.2,4.2h1.9v7.5h-1.4
		c-10.4,0-14.1-3.9-14.1-10.4c0-2.9,0.7-6.3,0.7-8.9c0-2.1-1.3-3.5-3-4v-4c1.7-0.5,3-1.9,3-4c0-2.6-0.7-6-0.7-8.9
		c0-6.5,3.7-10.4,14.1-10.4h1.4v7.5h-1.9c-2.8,0-4.2,2-4.2,4.2c0,2.5,0.4,4.5,0.4,7.4C36.6,36.5,35.5,38.7,33.5,40z"/>
	<path class="st0" d="M277.7,92c-2-1.3-3.1-3.5-3.1-6.2c0-2.9,0.5-5,0.5-7.4c0-2.2-1.4-4.2-4.2-4.2h-2v-7.5h1.4
		c10.5,0,14.1,3.9,14.1,10.4c0,2.9-0.7,6.3-0.7,8.9c0,2.1,1.3,3.5,3,4v4c-1.7,0.5-3,1.9-3,4c0,2.6,0.7,6,0.7,8.9
		c0,6.5-3.6,10.4-14.1,10.4h-1.4v-7.5h2c2.8,0,4.2-2,4.2-4.2c0-2.5-0.5-4.5-0.5-7.5C274.6,95.4,275.7,93.3,277.7,92z"/>
	<g>
		<g>
			<path class="st0" d="M65.3,60.7H47.7v-41h17.6c9.5,0,14.2,4.2,14.2,10.7c0,4.4-2.1,7.2-5.4,8.6v0.1c4.4,1.4,6.7,4.6,6.7,9.5
				C80.8,56,76.2,60.7,65.3,60.7z"/>
			<path class="st0" d="M112.2,50.8l-0.2,9.8H85.2v-41h11.5v31.2H112.2z"/>
			<path class="st0" d="M133.2,61.5c-13,0-18.8-6.8-18.8-21.3c0-14.4,5.6-21.2,18.8-21.2c13.2,0,18.8,6.7,18.8,21.2
				C151.9,54.9,146.4,61.5,133.2,61.5z"/>
			<path class="st0" d="M187.9,59.2c-3.2,1.4-8.2,2.2-12.6,2.2c-14.7,0-20.1-7.5-20.1-21.3c0-13.9,6.1-21.2,20.5-21.2
				c3.9,0,8.4,0.7,11.7,1.8l-1.1,9.5c-2.9-1-6.7-1.6-9.9-1.6c-7.4,0-9.1,2.5-9.1,11.4c0,9.4,1.7,11.6,7.7,11.6
				c0.9,0,1.9-0.1,2.7-0.2v-13h10.2V59.2z"/>
			<path class="st0" d="M210.5,61.5c-13,0-18.8-6.8-18.8-21.3c0-14.4,5.6-21.2,18.8-21.2c13.2,0,18.8,6.7,18.8,21.2
				C229.3,54.9,223.7,61.5,210.5,61.5z"/>
		</g>
	</g>
	<path class="st1" d="M85.8,100.7c0-13.8,17.9-11.5,17.9-16.6c0-1.6-0.9-2.8-5.3-2.8c-2.9,0-6.4,0.5-10,1.6l-1.3-9.2
		c3.3-1.3,7.8-2.1,11.9-2.1c11,0,15.6,5.9,15.6,13.1c0,13.8-18,11.7-18,16.7c0,2,1.4,3.1,5.1,3.1c4,0,7.8-1.1,11.5-3l1.4,9.5
		c-3.7,1.9-8.3,3-13.1,3C91.8,114,85.8,108.9,85.8,100.7z"/>
	<path class="st0" d="M130.1,82.1V89h14l-0.1,9.4h-13.9v14.9h-11.4v-41h28.2l0.2,9.9H130.1z"/>
	<path class="st0" d="M179.6,103.7l-0.2,9.6h-28.9v-41h28.2l0.2,9.7h-17v6h14v8.8h-14v7H179.6z"/>
	<path class="st0" d="M210,96.7l8.9,16.5h-13.3l-6-14.3h-4.2v14.3h-11.4v-41h15.6c11,0,16.6,4.1,16.6,13.3
		C216.1,91,213.9,95.1,210,96.7z"/>
	<path class="st0" d="M246.8,106.2h-12.7l-1.8,7.1h-12.1l13.6-41h13.7l13.8,41h-12.7L246.8,106.2z"/>
</g>
</svg>
