<?xml version="1.0" encoding="utf-8"?>
<!-- Generator: Adobe Illustrator 23.0.1, SVG Export Plug-In . SVG Version: 6.00 Build 0)  -->
<svg version="1.1" id="Layer_1" xmlns="http://www.w3.org/2000/svg" xmlns:xlink="http://www.w3.org/1999/xlink" x="0px" y="0px"
	 width="208.25px" height="48px" viewBox="0 0 208.25 48" style="enable-background:new 0 0 208.25 48;" xml:space="preserve">
<style type="text/css">
	.st0{fill:#F98506;}
</style>
<g>
	<g>
		<g>
			<polygon class="st0" points="17.67,38.27 21.01,36.35 1.24,24.95 1.24,37.31 17.35,46.61 33.46,37.31 33.46,35.39 3.75,18.23 
				1.24,16.76 1.24,20.63 28.46,36.35 17.35,42.76 4.58,35.38 4.58,30.73 			"/>
			<polygon class="st0" points="17.03,9.73 13.69,11.65 33.46,23.05 33.46,10.69 17.35,1.39 1.24,10.69 1.24,12.61 30.96,29.77 
				33.46,31.24 33.46,27.37 6.25,11.65 17.35,5.24 30.12,12.62 30.12,17.27 			"/>
		</g>
	</g>
	<g>
		<path d="M45.58,29.46c-1.23-0.67-2.2-1.59-2.89-2.77c-0.69-1.17-1.05-2.51-1.05-3.99c0-1.48,0.35-2.81,1.05-3.99
			c0.7-1.17,1.67-2.1,2.9-2.77c1.23-0.67,2.6-1,4.13-1c1.24,0,2.36,0.22,3.39,0.65c1.03,0.43,1.89,1.05,2.59,1.88l-1.81,1.7
			c-1.09-1.19-2.44-1.78-4.03-1.78c-1.04,0-1.97,0.23-2.78,0.67c-0.82,0.46-1.46,1.08-1.92,1.89s-0.69,1.71-0.69,2.74
			c0,1.03,0.23,1.93,0.69,2.74c0.46,0.81,1.11,1.43,1.92,1.89c0.82,0.45,1.74,0.67,2.78,0.67c1.59,0,2.94-0.59,4.03-1.79l1.81,1.73
			c-0.7,0.82-1.58,1.44-2.6,1.88c-1.03,0.43-2.16,0.65-3.4,0.65C48.19,30.46,46.81,30.12,45.58,29.46z"/>
		<path d="M68.17,19.87c0.88,0.85,1.32,2.1,1.32,3.78v6.6h-2.7v-6.26c0-1.01-0.24-1.77-0.71-2.28c-0.47-0.51-1.15-0.77-2.02-0.77
			c-1,0-1.78,0.3-2.35,0.89c-0.57,0.59-0.86,1.46-0.86,2.58v5.83h-2.7V14.24h2.7v5.83c0.45-0.47,1-0.84,1.65-1.09
			c0.65-0.26,1.39-0.38,2.19-0.38C66.13,18.6,67.29,19.02,68.17,19.87z"/>
		<path d="M83.82,25.34h-9.04c0.16,0.85,0.57,1.52,1.24,2.02s1.5,0.74,2.5,0.74c1.27,0,2.31-0.42,3.13-1.25l1.44,1.66
			c-0.51,0.62-1.17,1.08-1.97,1.4c-0.8,0.32-1.69,0.47-2.67,0.47c-1.27,0-2.37-0.26-3.35-0.76c-0.96-0.5-1.71-1.2-2.23-2.1
			c-0.53-0.9-0.78-1.92-0.78-3.05c0-1.12,0.26-2.13,0.77-3.04c0.51-0.9,1.21-1.61,2.12-2.1c0.9-0.5,1.93-0.76,3.06-0.76
			c1.12,0,2.12,0.24,3.01,0.74c0.89,0.5,1.58,1.2,2.06,2.09c0.5,0.9,0.74,1.94,0.74,3.12C83.86,24.74,83.84,25.01,83.82,25.34z
			 M75.84,21.51c-0.59,0.51-0.96,1.19-1.09,2.04h6.53c-0.12-0.84-0.47-1.51-1.05-2.02c-0.58-0.51-1.32-0.78-2.2-0.78
			C77.17,20.76,76.44,21.01,75.84,21.51z"/>
		<path d="M94.41,19.81c0.9,0.81,1.35,2.04,1.35,3.68v6.75h-2.55v-1.4c-0.34,0.5-0.8,0.89-1.42,1.16c-0.62,0.27-1.35,0.4-2.21,0.4
			c-0.86,0-1.62-0.15-2.27-0.45c-0.65-0.3-1.15-0.7-1.5-1.23s-0.53-1.12-0.53-1.78c0-1.04,0.39-1.86,1.16-2.5
			c0.77-0.62,1.98-0.94,3.63-0.94h2.98v-0.18c0-0.81-0.24-1.43-0.73-1.86s-1.2-0.65-2.14-0.65c-0.65,0-1.28,0.11-1.92,0.3
			c-0.63,0.19-1.16,0.49-1.59,0.84l-1.05-1.97c0.61-0.46,1.34-0.81,2.17-1.05c0.84-0.24,1.74-0.36,2.7-0.36
			C92.22,18.6,93.52,19,94.41,19.81z M91.95,27.96c0.53-0.31,0.89-0.76,1.11-1.32V25.3h-2.78c-1.55,0-2.33,0.51-2.33,1.52
			c0,0.49,0.19,0.88,0.58,1.16c0.39,0.28,0.93,0.43,1.62,0.43C90.83,28.43,91.42,28.27,91.95,27.96z"/>
		<path d="M108.61,19.33c0.89,0.49,1.58,1.17,2.08,2.08c0.5,0.9,0.76,1.92,0.76,3.09c0,1.16-0.26,2.2-0.76,3.09
			c-0.5,0.89-1.2,1.59-2.08,2.08c-0.89,0.49-1.89,0.73-3.01,0.73c-1.55,0-2.78-0.51-3.68-1.55v5.59h-2.7v-15.7h2.56v1.51
			c0.45-0.55,1-0.96,1.65-1.23s1.38-0.4,2.17-0.4C106.72,18.6,107.72,18.84,108.61,19.33z M107.75,27.1
			c0.63-0.66,0.96-1.54,0.96-2.6c0-1.08-0.32-1.96-0.96-2.62c-0.63-0.66-1.46-1-2.44-1c-0.65,0-1.23,0.15-1.74,0.45
			s-0.93,0.71-1.23,1.27c-0.3,0.54-0.46,1.17-0.46,1.9c0,0.71,0.15,1.35,0.46,1.9c0.3,0.55,0.71,0.97,1.23,1.27
			c0.51,0.3,1.11,0.45,1.74,0.45C106.29,28.08,107.1,27.76,107.75,27.1z"/>
		<path d="M123.07,29.46c-1.23-0.67-2.2-1.59-2.89-2.77c-0.69-1.17-1.05-2.51-1.05-3.99c0-1.48,0.35-2.81,1.05-3.99
			c0.7-1.17,1.67-2.1,2.9-2.77c1.23-0.67,2.6-1,4.13-1c1.24,0,2.36,0.22,3.39,0.65c1.03,0.43,1.89,1.05,2.59,1.88l-1.81,1.7
			c-1.09-1.17-2.44-1.77-4.03-1.77c-1.04,0-1.97,0.23-2.78,0.67c-0.82,0.46-1.46,1.08-1.92,1.89s-0.69,1.71-0.69,2.74
			s0.23,1.93,0.69,2.74c0.46,0.81,1.11,1.43,1.92,1.89c0.82,0.45,1.74,0.67,2.78,0.67c1.59,0,2.94-0.59,4.03-1.79l1.81,1.73
			c-0.7,0.82-1.58,1.44-2.6,1.88c-1.03,0.43-2.16,0.65-3.4,0.65C125.68,30.46,124.3,30.12,123.07,29.46z"/>
		<path d="M143.82,19.81c0.9,0.81,1.35,2.04,1.35,3.68v6.75h-2.55v-1.4c-0.34,0.5-0.8,0.89-1.42,1.16c-0.62,0.27-1.35,0.4-2.21,0.4
			c-0.86,0-1.62-0.15-2.27-0.45c-0.65-0.3-1.15-0.7-1.5-1.23s-0.53-1.12-0.53-1.78c0-1.04,0.39-1.86,1.16-2.5
			c0.77-0.62,1.98-0.94,3.63-0.94h2.98v-0.18c0-0.81-0.24-1.43-0.73-1.86s-1.2-0.65-2.14-0.65c-0.65,0-1.28,0.11-1.92,0.3
			c-0.63,0.19-1.16,0.49-1.59,0.84l-1.05-1.97c0.61-0.46,1.34-0.81,2.17-1.05c0.84-0.24,1.74-0.36,2.7-0.36
			C141.64,18.6,142.93,19,143.82,19.81z M141.37,27.96c0.53-0.31,0.89-0.76,1.11-1.32V25.3h-2.78c-1.55,0-2.33,0.51-2.33,1.52
			c0,0.49,0.19,0.88,0.58,1.16c0.39,0.28,0.93,0.43,1.62,0.43C140.25,28.43,140.84,28.27,141.37,27.96z"/>
		<path d="M155.29,18.6v2.56c-0.23-0.04-0.45-0.07-0.62-0.07c-1.05,0-1.88,0.31-2.46,0.92c-0.59,0.61-0.89,1.5-0.89,2.64v5.59h-2.7
			V18.72h2.56v1.69C151.97,19.19,153.33,18.6,155.29,18.6z"/>
		<path class="st0" d="M177.32,15.14v15.1h-2.81v-6.48h-7.81v6.48h-2.81v-15.1h2.81v6.23h7.81v-6.23H177.32z"/>
		<path class="st0" d="M181.24,16.36c-0.34-0.31-0.5-0.69-0.5-1.16c0-0.46,0.16-0.85,0.5-1.16c0.32-0.31,0.74-0.46,1.23-0.46
			s0.9,0.15,1.23,0.45c0.32,0.3,0.5,0.66,0.5,1.11c0,0.47-0.16,0.88-0.49,1.2s-0.74,0.49-1.24,0.49
			C181.99,16.83,181.57,16.67,181.24,16.36z M181.11,18.72h2.7v11.52h-2.7V18.72z"/>
		<path class="st0" d="M194.01,18.6v2.56c-0.23-0.04-0.45-0.07-0.62-0.07c-1.05,0-1.88,0.31-2.46,0.92
			c-0.59,0.61-0.89,1.5-0.89,2.64v5.59h-2.7V18.72h2.56v1.69C190.69,19.19,192.05,18.6,194.01,18.6z"/>
		<path class="st0" d="M206.97,25.34h-9.04c0.16,0.85,0.57,1.52,1.24,2.02c0.67,0.5,1.5,0.74,2.5,0.74c1.27,0,2.31-0.42,3.13-1.25
			l1.44,1.66c-0.51,0.62-1.17,1.08-1.97,1.4c-0.8,0.32-1.69,0.47-2.67,0.47c-1.27,0-2.37-0.26-3.35-0.76
			c-0.96-0.5-1.71-1.2-2.23-2.1c-0.53-0.9-0.78-1.92-0.78-3.05c0-1.12,0.26-2.13,0.77-3.04c0.51-0.9,1.21-1.61,2.12-2.1
			c0.9-0.5,1.93-0.76,3.06-0.76c1.12,0,2.12,0.24,3.01,0.74c0.89,0.5,1.58,1.2,2.06,2.09c0.5,0.9,0.74,1.94,0.74,3.12
			C207.01,24.74,207,25.01,206.97,25.34z M199,21.51c-0.59,0.51-0.96,1.19-1.09,2.04h6.53c-0.12-0.84-0.47-1.51-1.05-2.02
			c-0.58-0.51-1.32-0.78-2.2-0.78C200.33,20.76,199.6,21.01,199,21.51z"/>
	</g>
</g>
</svg>
