<?xml version="1.0" encoding="utf-8"?>
<!-- Generator: Adobe Illustrator 27.0.0, SVG Export Plug-In . SVG Version: 6.00 Build 0)  -->
<svg version="1.1" id="Layer_1" xmlns="http://www.w3.org/2000/svg" xmlns:xlink="http://www.w3.org/1999/xlink" x="0px" y="0px"
	 viewBox="0 0 111.86 32" style="enable-background:new 0 0 111.86 32;" xml:space="preserve">
<style type="text/css">
	.st0{fill-rule:evenodd;clip-rule:evenodd;fill:#076CB4;}
	.st1{fill-rule:evenodd;clip-rule:evenodd;fill:#F89A1F;}
	.st2{fill-rule:evenodd;clip-rule:evenodd;fill:#231F20;}
	.st3{fill:#F89A1F;stroke:#F89A1F;stroke-width:0.1765;stroke-miterlimit:2.6131;}
</style>
<g>
	<path class="st0" d="M0.23,16.05V4.39c0.02-2.43,2.26-4.24,4.08-4.23h11.82v6.36H8.87C7.85,6.55,6.62,7.6,6.59,8.87v7.79v6.52
		c0.03,1.27,1.26,2.32,2.27,2.34h7.26v6.36H4.31c-1.82,0.02-4.06-1.8-4.08-4.23V16.05L0.23,16.05z M16.13,16v4.72
		c-2.61,0-4.72-2.12-4.72-4.72c0-2.61,2.12-4.72,4.72-4.72V16L16.13,16z"/>
	<path class="st1" d="M18.52,16c0,0.84,0,1.68,0,2.52c0.53,0.1,1.04-0.11,1.44-0.55c0.42-0.47,0.7-1.18,0.7-1.99
		c0-0.81-0.28-1.51-0.7-1.97c-0.4-0.43-0.91-0.64-1.44-0.53C18.52,14.33,18.52,15.16,18.52,16L18.52,16z M32.01,15.98
		C32,13.71,32,11.45,32,9.18c0-2.26-0.01-4.52-0.01-6.78c-0.02-1.4-0.91-2.12-2.06-2.26c-1.06-0.13-2.3,0.21-3.31,0.89
		c-1.92,1.27-3.54,2.34-4.93,3.26c-1.2,0.79-2.25,1.49-3.17,2.1c0,1.29,0,3.54,0,4.83l4.11-2.3c0.76-0.29,1.78,0.3,1.8,1.38
		c0,2.21,0,4.02,0,6.23c0,1.85,0,3.3,0,5.15c-0.02,1.08-1.04,1.78-1.8,1.5l-4.11-2.31c0,1.29,0,3.5,0,4.79
		c0.93,0.6,1.98,1.29,3.18,2.07c1.39,0.91,3.02,1.96,4.95,3.22c1.01,0.67,2.26,1.01,3.32,0.87c1.15-0.16,2.04-0.89,2.06-2.31
		c0-2.26-0.01-4.52-0.01-6.78C32.01,20.49,32.01,18.23,32.01,15.98L32.01,15.98z"/>
	<path class="st2" d="M97.13,5.66c0.68,0,1.23-0.55,1.23-1.23c0-0.68-0.55-1.23-1.23-1.23c-0.68,0-1.23,0.55-1.23,1.23
		C95.9,5.11,96.45,5.66,97.13,5.66L97.13,5.66z M92.22,5.66c0.68,0,1.23-0.55,1.23-1.23c0-0.68-0.55-1.23-1.23-1.23
		c-0.68,0-1.23,0.55-1.23,1.23C90.99,5.11,91.54,5.66,92.22,5.66L92.22,5.66z M60.05,13.62l4.46,4.55h-3.39l-4.19-4.19
		c-0.49-0.47-0.49-1.9,0-2.37l4.19-4.19h3.39l-4.46,4.55C59.75,12.23,59.75,13.35,60.05,13.62L60.05,13.62z M46.89,18.17h-3.02
		c-2.32,0-4.22-1.9-4.22-4.22v-2.42c0-2.32,1.9-4.22,4.22-4.22h2.42c2.32,0,4.22,1.9,4.22,4.22v2.4l-5.39-0.03v-2.33l2.97,0.01
		c0-1.02-0.83-1.85-1.85-1.85h-2.31c-1.02,0-1.85,0.83-1.85,1.85v2.31c0,1.02,0.83,1.85,1.85,1.85h2.96V18.17L46.89,18.17z
		 M52.96,22.22h2.42V3.24h-2.42V22.22L52.96,22.22z M91.01,18.17h2.42V7.48h-2.42V18.17L91.01,18.17z M94.18,22.29
		c2.32,0,4.18-1.9,4.18-4.22V7.39h-2.42v10.63c0,1.02-0.74,1.85-1.76,1.85V22.29L94.18,22.29z M81.47,18.24h3.02
		c2.32,0,4.22-1.9,4.22-4.22v-2.42c0-2.32-1.9-4.22-4.22-4.22h-2.42c-2.32,0-4.22,1.9-4.22,4.22v10.68h2.42V11.66
		c0-1.02,0.83-1.85,1.85-1.85h2.31c1.02,0,1.85,0.83,1.85,1.85v2.31c0,1.02-0.83,1.85-1.85,1.85h-2.96V18.24L81.47,18.24z
		 M108.01,18.17h-3.02c-2.32,0-4.22-1.9-4.22-4.22v-2.42c0-2.32,1.9-4.22,4.22-4.22h2.42c2.32,0,4.22,1.9,4.22,4.22v6.64h-2.42
		v-6.58c0-1.02-0.83-1.85-1.85-1.85h-2.31c-1.02,0-1.85,0.83-1.85,1.85v2.31c0,1.02,0.83,1.85,1.85,1.85h2.96V18.17L108.01,18.17z
		 M71.78,18.17h-3.02c-2.32,0-4.22-1.9-4.22-4.22v-2.42c0-2.32,1.9-4.22,4.22-4.22h2.42c2.32,0,4.22,1.9,4.22,4.22v6.64h-2.42v-6.58
		c0-1.02-0.83-1.85-1.85-1.85h-2.31c-1.02,0-1.85,0.83-1.85,1.85v2.31c0,1.02,0.83,1.85,1.85,1.85h2.96V18.17L71.78,18.17z"/>
	<path class="st3" d="M40.78,29.78v-4.74h1.31c1.67,0,2.51,0.77,2.51,2.31c0,0.73-0.23,1.32-0.7,1.76
		c-0.46,0.44-1.08,0.67-1.86,0.67H40.78L40.78,29.78z M41.33,25.54v3.74h0.71c0.62,0,1.1-0.17,1.45-0.5
		c0.35-0.33,0.52-0.8,0.52-1.42c0-1.21-0.65-1.82-1.94-1.82H41.33L41.33,25.54z M48.26,29.78h-0.54v-1.93
		c0-0.72-0.26-1.08-0.79-1.08c-0.27,0-0.5,0.1-0.67,0.31c-0.18,0.21-0.27,0.46-0.27,0.77v1.93h-0.54v-3.38h0.54v0.56H46
		c0.26-0.43,0.63-0.64,1.11-0.64c0.37,0,0.65,0.12,0.85,0.36c0.2,0.24,0.29,0.58,0.29,1.04V29.78L48.26,29.78z M52,28.22h-2.39
		c0.01,0.38,0.11,0.67,0.3,0.87c0.19,0.2,0.46,0.31,0.8,0.31c0.38,0,0.73-0.13,1.05-0.38v0.51c-0.3,0.22-0.69,0.32-1.18,0.32
		c-0.48,0-0.85-0.15-1.13-0.46c-0.27-0.31-0.41-0.74-0.41-1.3c0-0.53,0.15-0.96,0.45-1.29c0.3-0.33,0.67-0.5,1.11-0.5
		c0.44,0,0.79,0.14,1.03,0.43c0.24,0.28,0.36,0.68,0.36,1.19V28.22L52,28.22z M51.44,27.76c0-0.31-0.08-0.56-0.23-0.73
		c-0.15-0.17-0.36-0.26-0.62-0.26c-0.25,0-0.47,0.09-0.65,0.27c-0.18,0.18-0.29,0.42-0.33,0.72H51.44L51.44,27.76z M55.48,26.39
		l-1.35,3.38H53.6l-1.28-3.38h0.59l0.86,2.46c0.06,0.18,0.1,0.34,0.12,0.47h0.01c0.02-0.17,0.06-0.32,0.11-0.46l0.9-2.47H55.48
		L55.48,26.39z M58.87,29.78h-0.54v-1.93c0-0.72-0.26-1.08-0.79-1.08c-0.27,0-0.5,0.1-0.67,0.31c-0.18,0.21-0.27,0.46-0.27,0.77
		v1.93h-0.54v-3.38h0.54v0.56h0.01c0.26-0.43,0.62-0.64,1.11-0.64c0.37,0,0.65,0.12,0.85,0.36c0.2,0.24,0.29,0.58,0.29,1.04V29.78
		L58.87,29.78z M62.32,29.78h-0.54v-0.53h-0.01c-0.24,0.41-0.58,0.61-1.04,0.61c-0.34,0-0.6-0.09-0.79-0.27
		c-0.19-0.18-0.29-0.41-0.29-0.71c0-0.63,0.37-1,1.12-1.1l1.02-0.14c0-0.58-0.23-0.86-0.7-0.86c-0.41,0-0.78,0.14-1.1,0.42v-0.56
		c0.33-0.21,0.72-0.32,1.15-0.32c0.79,0,1.19,0.42,1.19,1.26V29.78L62.32,29.78z M61.77,28.07l-0.82,0.11
		c-0.25,0.03-0.44,0.1-0.57,0.19c-0.13,0.09-0.19,0.25-0.19,0.47c0,0.16,0.06,0.3,0.18,0.4c0.12,0.11,0.27,0.16,0.47,0.16
		c0.27,0,0.49-0.09,0.67-0.28c0.18-0.19,0.26-0.43,0.26-0.72V28.07L61.77,28.07z M68,29.78h-0.54v-1.93c0-0.72-0.26-1.08-0.79-1.08
		c-0.27,0-0.49,0.1-0.67,0.31c-0.18,0.21-0.27,0.46-0.27,0.77v1.93h-0.54v-3.38h0.54v0.56h0.01c0.25-0.43,0.62-0.64,1.11-0.64
		c0.37,0,0.65,0.12,0.85,0.36c0.2,0.24,0.3,0.58,0.3,1.04V29.78L68,29.78z M71.44,29.78H70.9v-0.53h-0.01
		c-0.24,0.41-0.58,0.61-1.04,0.61c-0.34,0-0.6-0.09-0.79-0.27c-0.19-0.18-0.29-0.41-0.29-0.71c0-0.63,0.37-1,1.12-1.1l1.01-0.14
		c0-0.58-0.23-0.86-0.7-0.86c-0.41,0-0.78,0.14-1.1,0.42v-0.56c0.33-0.21,0.72-0.32,1.15-0.32c0.79,0,1.19,0.42,1.19,1.26V29.78
		L71.44,29.78z M70.9,28.07l-0.81,0.11c-0.25,0.03-0.44,0.1-0.57,0.19c-0.13,0.09-0.19,0.25-0.19,0.47c0,0.16,0.06,0.3,0.18,0.4
		c0.12,0.11,0.27,0.16,0.47,0.16c0.27,0,0.49-0.09,0.67-0.28c0.18-0.19,0.26-0.43,0.26-0.72V28.07L70.9,28.07z M75.13,26.39
		l-1.35,3.38h-0.53l-1.28-3.38h0.59l0.86,2.46c0.06,0.18,0.1,0.34,0.12,0.47h0.01c0.02-0.17,0.06-0.32,0.11-0.46l0.9-2.47H75.13
		L75.13,26.39z M75.99,25.53c-0.1,0-0.18-0.03-0.25-0.1c-0.07-0.07-0.1-0.15-0.1-0.25c0-0.1,0.03-0.19,0.1-0.25
		c0.07-0.07,0.15-0.1,0.25-0.1c0.1,0,0.18,0.03,0.25,0.1c0.07,0.07,0.1,0.15,0.1,0.25c0,0.1-0.04,0.18-0.1,0.25
		C76.17,25.5,76.08,25.53,75.99,25.53L75.99,25.53z M76.25,29.78h-0.54v-3.38h0.54V29.78L76.25,29.78z M80.16,29.78H79.4l-1.49-1.63
		h-0.01v1.63h-0.54v-5.01h0.54v3.18h0.01l1.42-1.55h0.71l-1.57,1.63L80.16,29.78L80.16,29.78z M83.13,29.78h-0.54v-0.53h-0.01
		c-0.24,0.41-0.58,0.61-1.04,0.61c-0.34,0-0.6-0.09-0.79-0.27c-0.19-0.18-0.29-0.41-0.29-0.71c0-0.63,0.37-1,1.12-1.1l1.02-0.14
		c0-0.58-0.23-0.86-0.7-0.86c-0.41,0-0.78,0.14-1.1,0.42v-0.56c0.33-0.21,0.72-0.32,1.15-0.32c0.79,0,1.19,0.42,1.19,1.26V29.78
		L83.13,29.78z M82.59,28.07l-0.82,0.11c-0.25,0.03-0.44,0.1-0.57,0.19c-0.13,0.09-0.19,0.25-0.19,0.47c0,0.16,0.06,0.3,0.18,0.4
		c0.12,0.11,0.27,0.16,0.47,0.16c0.27,0,0.49-0.09,0.67-0.28c0.18-0.19,0.26-0.43,0.26-0.72V28.07L82.59,28.07z M88.75,29.78h-0.54
		v-0.54h-0.01c-0.22,0.41-0.57,0.61-1.04,0.61c-0.81,0-1.21-0.48-1.21-1.44v-2.02h0.54v1.94c0,0.71,0.27,1.07,0.82,1.07
		c0.26,0,0.48-0.1,0.65-0.29c0.17-0.2,0.26-0.45,0.26-0.77v-1.95h0.54V29.78L88.75,29.78z M89.64,29.66v-0.58
		c0.3,0.22,0.62,0.33,0.98,0.33c0.48,0,0.71-0.16,0.71-0.48c0-0.09-0.02-0.17-0.06-0.23c-0.04-0.06-0.1-0.12-0.17-0.17
		c-0.07-0.05-0.15-0.09-0.24-0.13c-0.09-0.04-0.19-0.08-0.3-0.12c-0.15-0.06-0.28-0.12-0.4-0.18c-0.11-0.06-0.21-0.13-0.28-0.2
		c-0.08-0.08-0.13-0.16-0.17-0.26c-0.04-0.1-0.06-0.21-0.06-0.34c0-0.16,0.04-0.3,0.11-0.42c0.07-0.12,0.17-0.22,0.29-0.31
		c0.12-0.08,0.26-0.15,0.42-0.19c0.15-0.04,0.32-0.06,0.48-0.06c0.29,0,0.56,0.05,0.79,0.15v0.55c-0.25-0.16-0.53-0.25-0.86-0.25
		c-0.1,0-0.19,0.01-0.28,0.04c-0.08,0.02-0.15,0.06-0.21,0.1c-0.06,0.04-0.1,0.09-0.14,0.15c-0.03,0.06-0.05,0.12-0.05,0.19
		c0,0.09,0.02,0.16,0.05,0.22c0.03,0.06,0.08,0.11,0.14,0.16c0.06,0.05,0.14,0.09,0.23,0.13c0.09,0.04,0.19,0.08,0.3,0.12
		c0.15,0.06,0.28,0.12,0.4,0.18c0.12,0.06,0.22,0.13,0.3,0.21c0.08,0.08,0.15,0.16,0.19,0.26c0.04,0.1,0.07,0.22,0.07,0.35
		c0,0.17-0.04,0.31-0.11,0.44c-0.08,0.12-0.17,0.23-0.3,0.31c-0.12,0.08-0.27,0.14-0.43,0.18c-0.16,0.04-0.33,0.06-0.51,0.06
		C90.19,29.86,89.89,29.79,89.64,29.66L89.64,29.66z M93.27,29.29h-0.01v2.05h-0.54v-4.94h0.54v0.59h0.01
		c0.27-0.45,0.66-0.67,1.17-0.67c0.44,0,0.78,0.15,1.02,0.45c0.24,0.3,0.37,0.71,0.37,1.22c0,0.57-0.14,1.02-0.41,1.36
		c-0.28,0.34-0.65,0.51-1.13,0.51C93.84,29.86,93.51,29.67,93.27,29.29L93.27,29.29z M93.26,27.92v0.47c0,0.28,0.09,0.52,0.27,0.71
		c0.18,0.19,0.41,0.29,0.69,0.29c0.33,0,0.59-0.13,0.77-0.38c0.19-0.25,0.28-0.6,0.28-1.05c0-0.38-0.09-0.67-0.26-0.89
		c-0.17-0.21-0.41-0.32-0.71-0.32c-0.32,0-0.57,0.11-0.76,0.33C93.35,27.32,93.26,27.59,93.26,27.92L93.26,27.92z M99.41,28.22
		h-2.39c0.01,0.38,0.11,0.67,0.3,0.87c0.19,0.2,0.46,0.31,0.8,0.31c0.38,0,0.73-0.13,1.05-0.38v0.51c-0.3,0.22-0.69,0.32-1.18,0.32
		c-0.48,0-0.85-0.15-1.13-0.46c-0.27-0.31-0.41-0.74-0.41-1.3c0-0.53,0.15-0.96,0.45-1.29c0.3-0.33,0.67-0.5,1.11-0.5
		c0.44,0,0.79,0.14,1.03,0.43c0.24,0.28,0.36,0.68,0.36,1.19V28.22L99.41,28.22z M98.86,27.76c0-0.31-0.08-0.56-0.23-0.73
		c-0.15-0.17-0.35-0.26-0.62-0.26c-0.26,0-0.47,0.09-0.65,0.27c-0.18,0.18-0.29,0.42-0.33,0.72H98.86L98.86,27.76z M100.03,29.66
		v-0.58c0.3,0.22,0.62,0.33,0.98,0.33c0.48,0,0.71-0.16,0.71-0.48c0-0.09-0.02-0.17-0.06-0.23c-0.04-0.06-0.1-0.12-0.17-0.17
		c-0.07-0.05-0.15-0.09-0.24-0.13c-0.09-0.04-0.19-0.08-0.3-0.12c-0.15-0.06-0.28-0.12-0.4-0.18c-0.11-0.06-0.21-0.13-0.28-0.2
		c-0.08-0.08-0.13-0.16-0.17-0.26c-0.04-0.1-0.06-0.21-0.06-0.34c0-0.16,0.04-0.3,0.11-0.42c0.07-0.12,0.17-0.22,0.29-0.31
		c0.12-0.08,0.26-0.15,0.41-0.19c0.15-0.04,0.32-0.06,0.48-0.06c0.29,0,0.56,0.05,0.79,0.15v0.55c-0.25-0.16-0.53-0.25-0.86-0.25
		c-0.1,0-0.19,0.01-0.28,0.04c-0.08,0.02-0.15,0.06-0.21,0.1c-0.06,0.04-0.1,0.09-0.14,0.15c-0.03,0.06-0.05,0.12-0.05,0.19
		c0,0.09,0.02,0.16,0.05,0.22c0.03,0.06,0.08,0.11,0.14,0.16c0.06,0.05,0.14,0.09,0.23,0.13c0.09,0.04,0.19,0.08,0.3,0.12
		c0.15,0.06,0.28,0.12,0.4,0.18c0.12,0.06,0.22,0.13,0.3,0.21c0.08,0.08,0.15,0.16,0.19,0.26c0.04,0.1,0.07,0.22,0.07,0.35
		c0,0.17-0.04,0.31-0.11,0.44c-0.08,0.12-0.17,0.23-0.3,0.31c-0.12,0.08-0.27,0.14-0.43,0.18c-0.16,0.04-0.33,0.06-0.51,0.06
		C100.58,29.86,100.28,29.79,100.03,29.66L100.03,29.66z M101.94,24.66l-0.71,1.09h-0.44l-0.72-1.09h0.38l0.54,0.76l0.54-0.76
		H101.94L101.94,24.66z M105.91,29.78h-0.54v-1.93c0-0.72-0.26-1.08-0.79-1.08c-0.27,0-0.5,0.1-0.67,0.31
		c-0.18,0.21-0.26,0.46-0.26,0.77v1.93h-0.54v-3.38h0.54v0.56h0.01c0.26-0.43,0.63-0.64,1.11-0.64c0.37,0,0.65,0.12,0.85,0.36
		c0.2,0.24,0.29,0.58,0.29,1.04V29.78L105.91,29.78z M107.21,25.53c-0.1,0-0.18-0.03-0.25-0.1c-0.07-0.07-0.1-0.15-0.1-0.25
		c0-0.1,0.04-0.19,0.1-0.25c0.07-0.07,0.15-0.1,0.25-0.1c0.1,0,0.18,0.03,0.25,0.1c0.07,0.07,0.11,0.15,0.11,0.25
		c0,0.1-0.04,0.18-0.11,0.25C107.4,25.5,107.31,25.53,107.21,25.53L107.21,25.53z M107.48,29.78h-0.54v-3.38h0.54V29.78
		L107.48,29.78z M111.38,29.78h-0.54v-1.95c0-0.7-0.26-1.06-0.79-1.06c-0.27,0-0.49,0.1-0.67,0.31c-0.18,0.21-0.27,0.47-0.27,0.79
		v1.92h-0.54v-5.01h0.54v2.19h0.01c0.26-0.43,0.63-0.64,1.11-0.64c0.76,0,1.14,0.46,1.14,1.38V29.78L111.38,29.78z"/>
</g>
</svg>
