<?xml version="1.0" encoding="utf-8"?>
<!-- Generator: Adobe Illustrator 27.0.0, SVG Export Plug-In . SVG Version: 6.00 Build 0)  -->
<svg version="1.1" id="Layer_1" xmlns="http://www.w3.org/2000/svg" xmlns:xlink="http://www.w3.org/1999/xlink" x="0px" y="0px"
	 viewBox="0 0 179.98 48" style="enable-background:new 0 0 179.98 48;" xml:space="preserve">
<style type="text/css">
	.st0{fill:#00498F;}
	.st1{fill:#EC1C24;}
	.st2{fill-rule:evenodd;clip-rule:evenodd;fill:#EC1C24;}
	.st3{fill-rule:evenodd;clip-rule:evenodd;fill:#E5E6E7;}
	.st4{fill-rule:evenodd;clip-rule:evenodd;fill:#00498F;}
	.st5{fill:#231F20;}
	.st6{fill-rule:evenodd;clip-rule:evenodd;fill:#231F20;}
</style>
<g>
	<g>
		<g>
			<path class="st0" d="M60.53,13.63h7.22v2.22h-0.22c-0.1-0.55-0.22-0.93-0.37-1.16c-0.15-0.23-0.33-0.37-0.55-0.43
				c-0.22-0.06-0.65-0.1-1.29-0.1h-1.67v6.36c0,0.46,0.07,0.75,0.2,0.88c0.13,0.13,0.38,0.19,0.74,0.19h0.21v0.22h-4.27v-0.22h0.23
				c0.35,0,0.6-0.07,0.72-0.2c0.13-0.13,0.19-0.42,0.19-0.87v-5.65c0-0.37-0.05-0.63-0.16-0.79s-0.35-0.23-0.73-0.23h-0.26V13.63z"
				/>
			<path class="st0" d="M71.49,18.11v2.27c0,0.44,0.03,0.72,0.08,0.84c0.05,0.11,0.15,0.21,0.29,0.27c0.14,0.07,0.39,0.1,0.76,0.1
				v0.22h-4.16v-0.22c0.38,0,0.63-0.04,0.77-0.11s0.23-0.16,0.28-0.27c0.05-0.11,0.08-0.39,0.08-0.83v-5.31
				c0-0.44-0.03-0.72-0.08-0.84s-0.15-0.21-0.29-0.27c-0.14-0.07-0.39-0.1-0.77-0.1v-0.22h3.57c1.17,0,2.02,0.21,2.53,0.63
				c0.51,0.42,0.77,0.94,0.77,1.57c0,0.53-0.17,0.99-0.5,1.36c-0.33,0.38-0.78,0.64-1.36,0.77C73.08,18.06,72.42,18.11,71.49,18.11z
				 M71.49,14.1v3.54c0.13,0.01,0.23,0.01,0.3,0.01c0.49,0,0.87-0.15,1.13-0.44c0.27-0.29,0.4-0.74,0.4-1.36
				c0-0.61-0.13-1.05-0.4-1.33c-0.27-0.28-0.66-0.42-1.19-0.42H71.49z"/>
			<path class="st0" d="M79.26,19.48h-2.89l-0.34,0.8c-0.11,0.27-0.17,0.49-0.17,0.66c0,0.23,0.09,0.4,0.28,0.51
				c0.11,0.06,0.38,0.11,0.8,0.14v0.22h-2.72v-0.22c0.29-0.04,0.54-0.17,0.72-0.37c0.19-0.2,0.42-0.61,0.7-1.23l2.93-6.53h0.11
				l2.95,6.71c0.28,0.64,0.51,1.04,0.69,1.2c0.14,0.12,0.33,0.2,0.58,0.22v0.22h-3.96v-0.22h0.16c0.32,0,0.54-0.04,0.67-0.13
				c0.09-0.06,0.13-0.16,0.13-0.28c0-0.07-0.01-0.15-0.04-0.22c-0.01-0.04-0.07-0.19-0.18-0.45L79.26,19.48z M79.06,19.03
				l-1.22-2.82l-1.26,2.82H79.06z"/>
			<path class="st0" d="M84.55,13.63h6.77v0.22c-0.5,0.02-0.82,0.09-0.96,0.22c-0.14,0.13-0.21,0.42-0.21,0.86v5.47
				c0,0.35,0.03,0.59,0.08,0.72c0.05,0.14,0.17,0.25,0.35,0.34c0.18,0.09,0.43,0.13,0.74,0.13v2.61H91.1
				c-0.05-0.71-0.31-1.28-0.77-1.73c-0.47-0.44-1.11-0.66-1.92-0.66h-2.23c-0.84,0-1.52,0.21-2.03,0.62c-0.51,0.41-0.8,1-0.88,1.77
				h-0.22v-2.61c0.99-0.2,1.71-0.87,2.13-2.01c0.43-1.15,0.64-2.68,0.64-4.6c0-0.46-0.08-0.77-0.24-0.91
				c-0.16-0.14-0.5-0.22-1.03-0.22V13.63z M88.41,14.16h-2.06v0.7c0,0.98-0.07,1.94-0.2,2.87c-0.13,0.93-0.31,1.67-0.54,2.2
				c-0.23,0.53-0.54,0.98-0.92,1.35h2.92c0.39,0,0.63-0.03,0.7-0.08c0.07-0.05,0.11-0.23,0.11-0.53V14.16z"/>
			<path class="st0" d="M94.85,13.63h7.06v2.22h-0.23c-0.08-0.41-0.21-0.75-0.39-1.01c-0.18-0.26-0.4-0.44-0.65-0.54
				c-0.25-0.1-0.63-0.15-1.15-0.15H98v3.19h1.08c1.17,0,2.01,0.21,2.54,0.62c0.53,0.41,0.79,0.96,0.79,1.64
				c0,0.47-0.13,0.87-0.4,1.21c-0.27,0.34-0.6,0.59-1.01,0.75c-0.4,0.17-1,0.25-1.77,0.25h-4.39v-0.22c0.51-0.01,0.83-0.08,0.97-0.2
				c0.14-0.13,0.21-0.4,0.21-0.83v-5.6c0-0.46-0.07-0.76-0.22-0.9c-0.14-0.14-0.47-0.21-0.97-0.21V13.63z M98,17.88v2.47
				c0,0.39,0.05,0.67,0.16,0.82s0.31,0.24,0.6,0.24c0.47,0,0.83-0.16,1.07-0.48c0.24-0.32,0.36-0.71,0.36-1.19
				c0-0.46-0.11-0.84-0.33-1.16c-0.22-0.31-0.46-0.51-0.73-0.59C98.87,17.92,98.5,17.88,98,17.88z"/>
			<path class="st0" d="M107.3,19.48h-2.89l-0.34,0.8c-0.11,0.27-0.17,0.49-0.17,0.66c0,0.23,0.09,0.4,0.28,0.51
				c0.11,0.06,0.38,0.11,0.8,0.14v0.22h-2.72v-0.22c0.29-0.04,0.54-0.17,0.72-0.37c0.19-0.2,0.42-0.61,0.7-1.23l2.93-6.53h0.11
				l2.95,6.71c0.28,0.64,0.51,1.04,0.69,1.2c0.14,0.12,0.33,0.2,0.58,0.22v0.22h-3.96v-0.22h0.16c0.32,0,0.54-0.04,0.67-0.13
				c0.09-0.06,0.13-0.16,0.13-0.28c0-0.07-0.01-0.15-0.04-0.22c-0.01-0.04-0.07-0.19-0.18-0.45L107.3,19.48z M107.1,19.03
				l-1.22-2.82l-1.26,2.82H107.1z"/>
			<path class="st0" d="M116.7,17.88h-2.25v2.57c0,0.44,0.06,0.74,0.18,0.9c0.12,0.16,0.36,0.24,0.71,0.24v0.22h-4.01v-0.22
				c0.09,0,0.15-0.01,0.17-0.01c0.39,0,0.65-0.07,0.79-0.2c0.14-0.13,0.21-0.45,0.21-0.97v-5.46c0-0.46-0.08-0.76-0.23-0.89
				c-0.15-0.14-0.46-0.21-0.94-0.22v-0.22h4.01v0.22c-0.32,0.01-0.55,0.08-0.68,0.21c-0.14,0.13-0.2,0.38-0.2,0.72v2.56h2.25v-2.23
				c0-0.58-0.06-0.94-0.17-1.07c-0.11-0.13-0.4-0.19-0.88-0.2v-0.22h4.14v0.22c-0.39,0-0.64,0.04-0.77,0.11
				c-0.13,0.07-0.22,0.15-0.27,0.25c-0.05,0.1-0.08,0.35-0.08,0.75v2.38h1.09c1.16,0,2.01,0.21,2.54,0.62
				c0.53,0.41,0.79,0.96,0.79,1.64c0,0.47-0.13,0.87-0.4,1.21c-0.27,0.34-0.6,0.59-1.01,0.75c-0.4,0.17-1,0.25-1.77,0.25h-4.24
				v-0.22c0.44-0.01,0.73-0.07,0.85-0.2s0.19-0.4,0.19-0.83V17.88z M118.66,17.88v2.47c0,0.47,0.07,0.76,0.21,0.88
				s0.33,0.18,0.55,0.18c0.32,0,0.58-0.07,0.78-0.21c0.2-0.14,0.35-0.33,0.47-0.57c0.12-0.24,0.18-0.53,0.18-0.88
				c0-0.46-0.11-0.84-0.33-1.16c-0.22-0.31-0.46-0.51-0.73-0.59C119.54,17.92,119.16,17.88,118.66,17.88z"/>
			<path class="st0" d="M127.88,19.48h-2.89l-0.34,0.8c-0.11,0.27-0.17,0.49-0.17,0.66c0,0.23,0.09,0.4,0.28,0.51
				c0.11,0.06,0.38,0.11,0.8,0.14v0.22h-2.72v-0.22c0.29-0.04,0.54-0.17,0.72-0.37c0.19-0.2,0.42-0.61,0.7-1.23l2.93-6.53h0.11
				l2.95,6.71c0.28,0.64,0.51,1.04,0.69,1.2c0.14,0.12,0.33,0.2,0.58,0.22v0.22h-3.96v-0.22h0.16c0.32,0,0.54-0.04,0.67-0.13
				c0.09-0.06,0.13-0.16,0.13-0.28c0-0.07-0.01-0.15-0.04-0.22c-0.01-0.04-0.07-0.19-0.18-0.45L127.88,19.48z M127.67,19.03
				l-1.22-2.82l-1.26,2.82H127.67z"/>
			<path class="st0" d="M142.87,13.85c-0.44,0-0.73,0.07-0.86,0.21c-0.13,0.14-0.19,0.4-0.19,0.78v5.69c0,0.43,0.06,0.72,0.19,0.85
				c0.13,0.13,0.42,0.2,0.89,0.21v0.22h-4.13v-0.22c0.33,0,0.56-0.03,0.7-0.08c0.13-0.05,0.23-0.14,0.29-0.27
				c0.06-0.12,0.09-0.35,0.09-0.66v-6.42h-1.97v2.45c0,1.02-0.02,1.8-0.08,2.34c-0.05,0.54-0.19,1.04-0.42,1.52
				c-0.23,0.48-0.52,0.84-0.88,1.08c-0.36,0.24-0.75,0.36-1.19,0.36c-0.39,0-0.7-0.1-0.92-0.31c-0.22-0.21-0.33-0.46-0.33-0.77
				c0-0.25,0.07-0.46,0.2-0.62s0.32-0.24,0.57-0.24c0.46,0,0.72,0.29,0.77,0.86c0.02,0.26,0.12,0.39,0.3,0.39
				c0.25,0,0.52-0.17,0.81-0.51c0.29-0.34,0.47-0.81,0.57-1.4c0.09-0.6,0.14-1.46,0.14-2.59v-1.55c0-0.44-0.03-0.73-0.08-0.88
				c-0.05-0.15-0.16-0.25-0.31-0.32c-0.16-0.07-0.43-0.1-0.83-0.11v-0.22h6.66V13.85z"/>
			<path class="st0" d="M149.2,13.63h2.74v0.22c-0.28,0.02-0.51,0.13-0.69,0.31c-0.18,0.18-0.41,0.55-0.7,1.12l-2.55,5
				c-0.4,0.78-0.74,1.26-1.03,1.45c-0.29,0.18-0.64,0.28-1.04,0.28c-0.44,0-0.77-0.12-0.99-0.36c-0.22-0.24-0.33-0.5-0.33-0.8
				c0-0.24,0.08-0.43,0.24-0.59c0.16-0.16,0.35-0.23,0.58-0.23c0.22,0,0.38,0.06,0.48,0.17c0.1,0.11,0.17,0.32,0.21,0.61
				c0.05,0.35,0.19,0.52,0.43,0.52c0.28,0,0.55-0.27,0.81-0.81l0.11-0.24l-2.93-5.32c-0.25-0.45-0.47-0.74-0.65-0.87
				c-0.18-0.13-0.45-0.21-0.8-0.24v-0.22h4.08v0.22h-0.16c-0.47,0-0.71,0.11-0.71,0.34c0,0.08,0.04,0.21,0.13,0.37l2.05,3.73
				l1.55-3.05c0.21-0.42,0.32-0.72,0.32-0.9c0-0.14-0.06-0.25-0.19-0.34c-0.12-0.09-0.44-0.14-0.96-0.15V13.63z"/>
			<path class="st0" d="M152.3,13.63h4.26v0.22h-0.14c-0.4,0-0.67,0.07-0.81,0.22c-0.13,0.15-0.2,0.43-0.2,0.84v2.45
				c0.56,0,0.93-0.02,1.1-0.06c0.17-0.04,0.33-0.15,0.47-0.33c0.14-0.18,0.28-0.54,0.42-1.06c0.16-0.61,0.31-1.07,0.46-1.38
				c0.15-0.31,0.35-0.55,0.61-0.73c0.26-0.18,0.58-0.27,0.98-0.27c0.39,0,0.7,0.11,0.93,0.33c0.23,0.22,0.35,0.49,0.35,0.81
				c0,0.25-0.08,0.45-0.23,0.59c-0.16,0.14-0.35,0.22-0.59,0.22c-0.46,0-0.71-0.27-0.74-0.8c-0.02-0.27-0.11-0.4-0.28-0.4
				c-0.18,0-0.34,0.1-0.46,0.31c-0.13,0.21-0.27,0.57-0.42,1.1c-0.14,0.52-0.27,0.91-0.37,1.17c-0.1,0.26-0.25,0.48-0.45,0.66
				c0.26,0.06,0.46,0.15,0.59,0.25c0.14,0.1,0.27,0.24,0.38,0.41c0.11,0.17,0.35,0.59,0.72,1.27l0.83,1.49
				c0.13,0.22,0.28,0.39,0.46,0.49c0.18,0.11,0.4,0.16,0.65,0.16v0.22h-2.74l-1.68-3.14c-0.19-0.35-0.33-0.57-0.43-0.64
				c-0.09-0.07-0.27-0.12-0.55-0.13v2.77c0,0.39,0.08,0.65,0.24,0.75c0.16,0.11,0.46,0.16,0.9,0.16v0.22h-4.26v-0.22
				c0.47-0.01,0.78-0.08,0.93-0.21c0.15-0.13,0.22-0.41,0.22-0.84v-5.47c0-0.48-0.06-0.8-0.17-0.97c-0.12-0.17-0.38-0.25-0.8-0.25
				h-0.17V13.63z"/>
			<path class="st0" d="M166.16,19.48h-2.89l-0.34,0.8c-0.11,0.27-0.17,0.49-0.17,0.66c0,0.23,0.09,0.4,0.28,0.51
				c0.11,0.06,0.38,0.11,0.8,0.14v0.22h-2.72v-0.22c0.29-0.04,0.54-0.17,0.72-0.37s0.42-0.61,0.7-1.23l2.93-6.53h0.11l2.95,6.71
				c0.28,0.64,0.51,1.04,0.69,1.2c0.14,0.12,0.33,0.2,0.58,0.22v0.22h-3.96v-0.22h0.16c0.32,0,0.54-0.04,0.67-0.13
				c0.09-0.06,0.13-0.16,0.13-0.28c0-0.07-0.01-0.15-0.04-0.22c-0.01-0.04-0.07-0.19-0.18-0.45L166.16,19.48z M165.95,19.03
				l-1.22-2.82l-1.26,2.82H165.95z"/>
		</g>
		<g>
			<rect x="51.32" y="24.49" class="st1" width="127.58" height="0.89"/>
		</g>
		<g>
			<path class="st0" d="M59.17,27.87v2.81h-0.23c-0.18-0.73-0.5-1.3-0.98-1.69c-0.48-0.39-1.02-0.59-1.63-0.59
				c-0.51,0-0.97,0.15-1.4,0.44c-0.42,0.29-0.73,0.67-0.93,1.14c-0.25,0.6-0.38,1.27-0.38,2.01c0,0.73,0.09,1.39,0.28,1.98
				c0.18,0.6,0.47,1.05,0.86,1.35c0.39,0.31,0.9,0.46,1.52,0.46c0.51,0,0.98-0.11,1.4-0.34c0.42-0.22,0.87-0.61,1.34-1.16v0.7
				c-0.45,0.48-0.93,0.82-1.42,1.03c-0.49,0.21-1.07,0.32-1.73,0.32c-0.87,0-1.64-0.17-2.31-0.52c-0.67-0.35-1.19-0.85-1.56-1.5
				c-0.37-0.65-0.55-1.34-0.55-2.08c0-0.77,0.2-1.51,0.61-2.2c0.41-0.7,0.95-1.23,1.64-1.62c0.69-0.38,1.42-0.57,2.19-0.57
				c0.57,0,1.17,0.12,1.81,0.37c0.37,0.14,0.6,0.22,0.7,0.22c0.13,0,0.24-0.05,0.33-0.14c0.09-0.09,0.16-0.24,0.18-0.45H59.17z"/>
			<path class="st0" d="M64.33,35.95v0.22h-4.24v-0.22h0.27c0.24,0,0.43-0.04,0.57-0.13c0.1-0.06,0.18-0.15,0.24-0.29
				c0.04-0.1,0.07-0.35,0.07-0.75v-5.34c0-0.42-0.02-0.67-0.07-0.78c-0.04-0.1-0.13-0.19-0.27-0.27c-0.13-0.08-0.31-0.12-0.54-0.12
				h-0.27v-0.22h4.24v0.22h-0.27c-0.24,0-0.42,0.04-0.57,0.13c-0.1,0.06-0.19,0.15-0.25,0.29c-0.04,0.1-0.07,0.35-0.07,0.75v5.34
				c0,0.41,0.02,0.67,0.07,0.78c0.05,0.1,0.14,0.19,0.27,0.27c0.13,0.08,0.31,0.12,0.54,0.12H64.33z"/>
			<path class="st0" d="M72.35,28.06v2.2h-0.22c-0.13-0.51-0.27-0.87-0.43-1.09c-0.16-0.22-0.37-0.4-0.64-0.53
				c-0.15-0.07-0.42-0.11-0.8-0.11h-0.61v6.26c0,0.41,0.02,0.67,0.07,0.78c0.05,0.1,0.14,0.19,0.27,0.27
				c0.13,0.08,0.32,0.12,0.55,0.12h0.27v0.22h-4.25v-0.22h0.27c0.24,0,0.42-0.04,0.57-0.13c0.1-0.06,0.19-0.15,0.25-0.29
				c0.04-0.1,0.07-0.35,0.07-0.75v-6.26h-0.59c-0.55,0-0.94,0.12-1.19,0.35c-0.35,0.32-0.57,0.78-0.66,1.38h-0.23v-2.2H72.35z"/>
			<path class="st0" d="M81.5,28.06v0.22c-0.27,0.04-0.47,0.11-0.62,0.23c-0.2,0.17-0.52,0.62-0.95,1.37l-1.76,2.94v1.96
				c0,0.42,0.02,0.68,0.07,0.78c0.04,0.1,0.13,0.19,0.26,0.27c0.13,0.08,0.3,0.12,0.52,0.12h0.46v0.22h-4.56v-0.22h0.42
				c0.24,0,0.43-0.04,0.57-0.13c0.1-0.06,0.19-0.15,0.25-0.29c0.04-0.1,0.07-0.35,0.07-0.75v-1.63l-1.91-3.48
				c-0.38-0.69-0.65-1.09-0.8-1.21c-0.16-0.12-0.36-0.18-0.62-0.19v-0.22h3.89v0.22h-0.17c-0.24,0-0.4,0.03-0.49,0.1
				c-0.09,0.07-0.14,0.14-0.14,0.22c0,0.14,0.16,0.51,0.48,1.08l1.47,2.69l1.46-2.45c0.36-0.6,0.55-1,0.55-1.19
				c0-0.11-0.05-0.2-0.16-0.27c-0.14-0.1-0.38-0.16-0.75-0.18v-0.22H81.5z"/>
			<path class="st0" d="M88.99,27.94c1.29-0.05,2.34,0.33,3.15,1.13c0.81,0.8,1.21,1.81,1.21,3.01c0,1.03-0.3,1.94-0.9,2.72
				c-0.8,1.04-1.93,1.56-3.38,1.56c-1.46,0-2.59-0.5-3.39-1.48c-0.63-0.78-0.95-1.71-0.95-2.78c0-1.21,0.41-2.21,1.23-3.01
				C86.78,28.27,87.79,27.89,88.99,27.94z M89.06,28.33c-0.74,0-1.31,0.38-1.69,1.14c-0.32,0.62-0.47,1.52-0.47,2.68
				c0,1.38,0.24,2.41,0.73,3.07c0.34,0.46,0.81,0.7,1.42,0.7c0.41,0,0.75-0.1,1.03-0.3c0.35-0.26,0.62-0.66,0.82-1.22
				c0.19-0.56,0.29-1.29,0.29-2.19c0-1.07-0.1-1.88-0.3-2.41c-0.2-0.53-0.45-0.91-0.76-1.13C89.82,28.44,89.46,28.33,89.06,28.33z"
				/>
			<path class="st0" d="M97.16,28.52v3.33h0.23c0.36,0,0.65-0.05,0.88-0.16c0.23-0.11,0.42-0.29,0.58-0.55
				c0.16-0.26,0.26-0.6,0.31-1.04h0.21v4.08h-0.21c-0.08-0.77-0.28-1.28-0.62-1.52c-0.34-0.25-0.72-0.37-1.15-0.37h-0.23v2.48
				c0,0.41,0.02,0.67,0.07,0.78c0.05,0.1,0.14,0.19,0.27,0.27c0.13,0.08,0.31,0.12,0.54,0.12h0.27v0.22h-4.24v-0.22h0.27
				c0.24,0,0.42-0.04,0.57-0.13c0.1-0.06,0.18-0.15,0.24-0.29c0.04-0.1,0.07-0.35,0.07-0.75v-5.34c0-0.42-0.02-0.67-0.07-0.78
				c-0.04-0.1-0.13-0.19-0.27-0.27c-0.13-0.08-0.31-0.12-0.54-0.12h-0.27v-0.22h6.85v2.33h-0.24c-0.06-0.55-0.2-0.95-0.43-1.22
				c-0.23-0.26-0.56-0.45-1-0.56c-0.24-0.06-0.68-0.09-1.33-0.09H97.16z"/>
			<path class="st0" d="M109.34,31.87c0.77,0.18,1.31,0.4,1.62,0.65c0.45,0.36,0.67,0.83,0.67,1.41c0,0.61-0.24,1.12-0.74,1.51
				c-0.6,0.48-1.48,0.72-2.63,0.72h-4.12v-0.22c0.38,0,0.63-0.03,0.76-0.1c0.13-0.07,0.23-0.16,0.28-0.27
				c0.05-0.11,0.08-0.39,0.08-0.83v-5.27c0-0.44-0.03-0.72-0.08-0.83c-0.05-0.11-0.15-0.2-0.28-0.27c-0.14-0.07-0.39-0.1-0.76-0.1
				v-0.22h3.89c0.93,0,1.59,0.08,1.98,0.25c0.39,0.17,0.69,0.41,0.92,0.74c0.22,0.33,0.33,0.68,0.33,1.05
				c0,0.39-0.14,0.74-0.42,1.04C110.55,31.45,110.05,31.69,109.34,31.87z M107.16,32.17v2.6l-0.01,0.3c0,0.22,0.06,0.38,0.16,0.49
				c0.11,0.11,0.27,0.16,0.49,0.16c0.32,0,0.61-0.07,0.88-0.21c0.27-0.14,0.48-0.35,0.62-0.62c0.14-0.27,0.22-0.57,0.22-0.9
				c0-0.38-0.09-0.72-0.26-1.02c-0.18-0.3-0.42-0.51-0.72-0.63C108.23,32.23,107.77,32.17,107.16,32.17z M107.16,31.71
				c0.57,0,0.98-0.06,1.25-0.19c0.27-0.13,0.48-0.31,0.62-0.54c0.14-0.23,0.22-0.53,0.22-0.89c0-0.36-0.07-0.65-0.21-0.88
				c-0.14-0.23-0.34-0.4-0.61-0.52c-0.26-0.12-0.69-0.18-1.27-0.17V31.71z"/>
			<path class="st0" d="M116.18,33.86h-2.87l-0.34,0.79c-0.11,0.26-0.17,0.48-0.17,0.65c0,0.23,0.09,0.39,0.28,0.5
				c0.11,0.06,0.37,0.11,0.8,0.14v0.22h-2.7v-0.22c0.29-0.04,0.53-0.16,0.72-0.36c0.19-0.2,0.42-0.61,0.7-1.22l2.9-6.48h0.11
				l2.93,6.66c0.28,0.63,0.51,1.03,0.69,1.19c0.14,0.12,0.33,0.2,0.57,0.22v0.22h-3.93v-0.22h0.16c0.32,0,0.54-0.04,0.66-0.13
				c0.09-0.06,0.13-0.16,0.13-0.28c0-0.07-0.01-0.15-0.04-0.22c-0.01-0.04-0.07-0.19-0.18-0.45L116.18,33.86z M115.98,33.42
				l-1.21-2.8l-1.25,2.8H115.98z"/>
			<path class="st0" d="M122.75,28.06l4,5.03V29.6c0-0.49-0.07-0.82-0.21-0.99c-0.19-0.23-0.51-0.34-0.96-0.34v-0.22h2.68v0.22
				c-0.34,0.04-0.57,0.1-0.69,0.17c-0.12,0.07-0.21,0.18-0.28,0.34c-0.07,0.16-0.1,0.43-0.1,0.81v6.76h-0.2l-5.49-6.76v5.16
				c0,0.47,0.11,0.78,0.32,0.95c0.21,0.16,0.46,0.24,0.73,0.24h0.19v0.22h-2.88v-0.22c0.45,0,0.76-0.1,0.93-0.28
				c0.18-0.18,0.26-0.48,0.26-0.92v-5.73l-0.17-0.22c-0.17-0.22-0.32-0.36-0.46-0.42c-0.13-0.07-0.32-0.11-0.57-0.11v-0.22H122.75z"
				/>
			<path class="st0" d="M129.8,28.28v-0.22h4.32v0.22h-0.26c-0.24,0-0.43,0.04-0.57,0.13c-0.1,0.06-0.18,0.15-0.24,0.29
				c-0.04,0.1-0.07,0.35-0.07,0.75v3.97c0,0.78-0.08,1.34-0.23,1.7c-0.16,0.35-0.43,0.65-0.83,0.89c-0.4,0.24-0.87,0.36-1.43,0.36
				c-0.68,0-1.23-0.18-1.66-0.54c-0.42-0.36-0.63-0.76-0.63-1.19c0-0.28,0.09-0.51,0.26-0.68c0.17-0.17,0.38-0.26,0.63-0.26
				c0.24,0,0.45,0.08,0.61,0.23c0.17,0.16,0.25,0.35,0.25,0.57c0,0.11-0.01,0.21-0.04,0.29c-0.02,0.04-0.08,0.14-0.19,0.3
				c-0.11,0.16-0.17,0.28-0.17,0.34c0,0.1,0.05,0.19,0.16,0.27c0.15,0.11,0.35,0.17,0.59,0.17c0.17,0,0.31-0.04,0.42-0.13
				c0.11-0.09,0.19-0.22,0.24-0.41c0.05-0.19,0.07-0.7,0.07-1.55v-4.34c0-0.42-0.02-0.67-0.07-0.78c-0.05-0.1-0.14-0.19-0.27-0.27
				c-0.13-0.08-0.31-0.12-0.54-0.12H129.8z"/>
			<path class="st0" d="M138.55,33.86h-2.87l-0.34,0.79c-0.11,0.26-0.17,0.48-0.17,0.65c0,0.23,0.09,0.39,0.28,0.5
				c0.11,0.06,0.37,0.11,0.8,0.14v0.22h-2.7v-0.22c0.29-0.04,0.53-0.16,0.72-0.36c0.19-0.2,0.42-0.61,0.7-1.22l2.9-6.48h0.11
				l2.93,6.66c0.28,0.63,0.51,1.03,0.69,1.19c0.14,0.12,0.33,0.2,0.57,0.22v0.22h-3.93v-0.22h0.16c0.32,0,0.54-0.04,0.66-0.13
				c0.09-0.06,0.13-0.16,0.13-0.28c0-0.07-0.01-0.15-0.04-0.22c-0.01-0.04-0.07-0.19-0.18-0.45L138.55,33.86z M138.35,33.42
				l-1.21-2.8l-1.25,2.8H138.35z"/>
			<path class="st0" d="M152.43,33.32l-0.31,2.85h-7.21v-0.22h0.27c0.23,0,0.42-0.04,0.57-0.13c0.1-0.06,0.18-0.15,0.24-0.29
				c0.04-0.1,0.07-0.35,0.07-0.75v-5.34c0-0.42-0.02-0.67-0.07-0.78c-0.04-0.1-0.13-0.19-0.27-0.27c-0.13-0.08-0.31-0.12-0.54-0.12
				h-0.27v-0.22h4.33v0.22h-0.35c-0.23,0-0.42,0.04-0.57,0.13c-0.1,0.06-0.19,0.15-0.25,0.29c-0.04,0.1-0.07,0.35-0.07,0.75v5.17
				c0,0.42,0.02,0.68,0.07,0.79c0.05,0.11,0.14,0.2,0.28,0.25c0.1,0.04,0.34,0.05,0.72,0.05h0.68c0.43,0,0.79-0.08,1.08-0.23
				c0.29-0.15,0.54-0.39,0.75-0.72c0.21-0.33,0.41-0.81,0.6-1.45H152.43z"/>
			<path class="st0" d="M152.42,28.06h4.19v0.22h-0.21c-0.32,0-0.53,0.03-0.65,0.1c-0.12,0.07-0.2,0.16-0.25,0.27
				c-0.05,0.12-0.07,0.41-0.07,0.87v3.98c0,0.73,0.06,1.21,0.16,1.44c0.11,0.24,0.29,0.43,0.54,0.59c0.25,0.16,0.57,0.23,0.95,0.23
				c0.44,0,0.81-0.1,1.12-0.3c0.31-0.2,0.54-0.47,0.69-0.82c0.15-0.35,0.23-0.95,0.23-1.81v-3.31c0-0.36-0.04-0.62-0.11-0.78
				s-0.17-0.26-0.29-0.32c-0.18-0.09-0.43-0.14-0.76-0.14v-0.22h2.81v0.22h-0.17c-0.23,0-0.42,0.05-0.57,0.14
				c-0.15,0.09-0.26,0.23-0.33,0.41c-0.05,0.13-0.08,0.36-0.08,0.69v3.08c0,0.95-0.06,1.64-0.19,2.06
				c-0.13,0.42-0.43,0.81-0.92,1.17c-0.49,0.36-1.15,0.53-1.99,0.53c-0.7,0-1.25-0.09-1.63-0.28c-0.52-0.26-0.89-0.58-1.11-0.98
				c-0.22-0.4-0.32-0.94-0.32-1.61v-3.98c0-0.47-0.03-0.76-0.08-0.87c-0.05-0.11-0.14-0.2-0.27-0.27c-0.13-0.07-0.36-0.1-0.71-0.1
				V28.06z"/>
			<path class="st0" d="M166.1,31.16l2.86,3.57c0.4,0.5,0.75,0.84,1.04,1.02c0.21,0.13,0.43,0.19,0.67,0.19v0.22h-4.23v-0.22
				c0.27-0.02,0.44-0.07,0.52-0.13s0.12-0.13,0.12-0.22c0-0.17-0.18-0.48-0.55-0.95l-1.86-2.34l-0.3,0.25v2.22
				c0,0.42,0.02,0.69,0.07,0.79c0.05,0.1,0.14,0.19,0.28,0.27c0.14,0.07,0.35,0.11,0.65,0.11v0.22h-4.09v-0.22h0.27
				c0.24,0,0.42-0.04,0.57-0.13c0.1-0.06,0.18-0.15,0.24-0.29c0.04-0.1,0.07-0.35,0.07-0.75v-5.34c0-0.42-0.02-0.67-0.07-0.78
				c-0.04-0.1-0.13-0.19-0.27-0.27c-0.13-0.08-0.31-0.12-0.54-0.12h-0.27v-0.22h4.04v0.22c-0.28,0-0.48,0.04-0.63,0.12
				c-0.1,0.06-0.19,0.15-0.25,0.28c-0.05,0.1-0.07,0.36-0.07,0.77v2.53l3.01-2.44c0.42-0.34,0.63-0.61,0.63-0.81
				c0-0.15-0.09-0.27-0.26-0.36c-0.09-0.04-0.31-0.07-0.65-0.08v-0.22h3.17v0.22c-0.28,0.02-0.51,0.07-0.67,0.15
				c-0.16,0.08-0.53,0.36-1.12,0.83L166.1,31.16z"/>
			<path class="st0" d="M175.63,33.86h-2.87l-0.34,0.79c-0.11,0.26-0.17,0.48-0.17,0.65c0,0.23,0.09,0.39,0.28,0.5
				c0.11,0.06,0.37,0.11,0.8,0.14v0.22h-2.7v-0.22c0.29-0.04,0.53-0.16,0.72-0.36c0.19-0.2,0.42-0.61,0.7-1.22l2.9-6.48h0.11
				l2.93,6.66c0.28,0.63,0.51,1.03,0.69,1.19c0.14,0.12,0.33,0.2,0.57,0.22v0.22h-3.93v-0.22h0.16c0.32,0,0.54-0.04,0.66-0.13
				c0.09-0.06,0.13-0.16,0.13-0.28c0-0.07-0.01-0.15-0.04-0.22c-0.01-0.04-0.07-0.19-0.18-0.45L175.63,33.86z M175.42,33.42
				l-1.21-2.8l-1.25,2.8H175.42z"/>
		</g>
	</g>
	<g>
		<path class="st2" d="M5.86,3.01c-0.19,2-0.54,3.79-1.04,5.3C5,8.95,5.62,9.47,6.58,9.71c0.68,0.17,0.5,0.7-0.25,0.47
			c-0.86-0.25-1.66-0.25-2.29-0.07c-0.62,1.65-2.91,4.59-3.06,5.6C0.84,16.34,1,16.87,1.34,17.4c0.5,0.77,1.47,1.46,2.35,1.68
			c1.25,0.31,2.11-0.63,1.7-1.75c0,0,0-0.01,0-0.01c-0.09-0.48-0.19-0.89-0.16-1.22l0.36,0.36c0.62,0.67,1.2,1.69,1.42,2.58
			c0.15,0.6,0.05,1.17-0.49,1.67l0.01,0.04c0.03,0.05,0.39,0.31,0.51,0.82c0.15,0.6-0.13,1.29-0.38,1.83
			c-0.37,0.79-0.9,1.52-1.56,2.09c-0.01-0.28,0.05-0.6,0.12-0.98c0.02-0.06,0.13-0.2,0.2-0.44c0.37-1.17-0.61-2.13-2.04-1.59
			c-1.24,0.47-2.67,1.74-2.42,3.17l0,0c0.05,0.12,0.03,0.19,0.15,0.44l0.04,0.08c0.41,1.16,0.63,2.1,0.72,3.41
			c0.35,5.46,1.29,8.36,5.33,9.24c0.21,3.02,4.86,5.31,9.13,5.97c3.16,0.49,4.84,1.43,5.38,2.64l0.07,0.16l0.07-0.16
			c0.54-1.21,2.22-2.15,5.38-2.64c4.27-0.66,8.92-2.95,9.13-5.97c4.04-0.88,4.98-3.77,5.33-9.24c0.08-1.31,0.3-2.25,0.72-3.41
			c0.08-0.19,0.14-0.27,0.18-0.5l0.01-0.02l0,0c0.24-1.39-1.12-2.64-2.31-3.12c-0.61-0.25-1.34-0.34-1.86,0.15
			c-0.5,0.47-0.46,1.2-0.13,1.78c0.01,0.02,0.02,0.04,0.04,0.06c0.07,0.38,0.14,0.7,0.12,0.98c-0.87-0.74-1.59-1.87-1.9-2.97
			c-0.11-0.41-0.13-0.8,0.05-1.19c0.09-0.19,0.23-0.38,0.42-0.56l0.01-0.04c-0.86-0.78-0.55-1.73-0.16-2.59
			c0.27-0.6,0.64-1.17,1.09-1.66l0.36-0.36c0.02,0.33-0.07,0.74-0.16,1.22c-0.06,0.22-0.11,0.3-0.11,0.57c0,0.97,0.9,1.45,1.86,1.19
			c1.34-0.36,3.01-1.83,2.67-3.32l0-0.01c-0.16-1.01-2.44-3.95-3.06-5.6c-0.63-0.18-1.43-0.19-2.29,0.07
			c-0.76,0.22-0.93-0.3-0.25-0.47c0.96-0.25,1.58-0.76,1.76-1.4c-0.5-1.51-0.85-3.3-1.04-5.3c0.01-0.03,0.01-0.06,0.02-0.1
			c0.42-2.23-2.18-2.96-4.18-2.17C32.5,1.14,32.19,2,32.54,2.67l-0.04,0.5c-0.04,0.34-0.11,0.64-0.21,0.88
			c-3.53-0.47-6.92-2.56-10.26-3.54c-0.12-0.03-0.4-0.03-0.52,0c-3.34,0.98-6.73,3.08-10.26,3.54C11.1,3.69,11.02,3.23,11,2.67
			c0.34-0.67,0.04-1.52-0.98-1.93c-2-0.79-4.6-0.06-4.18,2.17C5.84,2.94,5.85,2.98,5.86,3.01L5.86,3.01z M6.97,21.36
			c0,0.01,0.01,0.01,0.01,0.02L6.97,21.36L6.97,21.36z"/>
		<path class="st3" d="M36.36,23.9c0.43,0.92,1.04,1.75,1.84,2.25c0.95,0.59,2.89,0.22,4.38-0.53c-0.54,1.41-0.81,2.43-0.91,3.93
			c-0.35,5.46-1.29,8.36-5.33,9.24c-0.21,3.02-4.86,5.31-9.13,5.97c-3.16,0.49-4.84,1.43-5.38,2.64l-0.07,0.16l-0.07-0.16
			c-0.54-1.21-2.22-2.15-5.38-2.64c-4.27-0.66-8.92-2.95-9.13-5.97c-4.04-0.88-4.98-3.77-5.33-9.24c-0.1-1.5-0.37-2.51-0.91-3.93
			c1.49,0.74,3.43,1.12,4.38,0.53c0.8-0.5,1.41-1.33,1.84-2.25H36.36L36.36,23.9z"/>
		<path class="st4" d="M35.02,20.53c-0.36-0.08-0.8-0.13-1.36-0.13c-3.65,0-2.41,1.88-5.95,1.88c-3.53,0-2.45-1.88-5.95-1.88
			c-3.53,0-2.45,1.88-5.95,1.88c-3.49,0-2.44-1.88-5.95-1.88c-0.88,0-1.48,0.12-1.93,0.29v0c-0.42,0.17-0.71,0.38-1,0.6
			c0.19,0.42,0.15,0.87,0.01,1.31c-0.34,1.08-0.98,2.1-1.86,2.85c-0.01-0.28,0.05-0.6,0.12-0.98c0.8-1.32-0.2-2.61-1.75-2.06
			c-1.52,0.54-2.74,1.94-2.5,3.2l0,0l0.01,0.02c0.03,0.17,0.09,0.34,0.18,0.5c0.41,1.16,0.63,2.1,0.72,3.41
			c0,0.07,0.01,0.13,0.01,0.2c0.46,0.21,1.08,0.35,2.05,0.35c3.5,0,2.42-1.88,5.95-1.88c3.5,0,2.46,1.88,5.95,1.88
			c3.5,0,2.42-1.88,5.95-1.88c3.5,0,2.42,1.88,5.95,1.88c3.54,0,2.3-1.88,5.95-1.88c3.5,0,2.42,1.88,5.95,1.88
			c0.97,0,1.59-0.15,2.05-0.36c0-0.06,0.01-0.13,0.01-0.19c0.08-1.31,0.3-2.25,0.72-3.41c0.09-0.16,0.15-0.33,0.18-0.5l0.01-0.02
			l0,0c0.24-1.26-0.98-2.66-2.5-3.2c-1.55-0.55-2.56,0.74-1.75,2.06c0.07,0.38,0.14,0.7,0.12,0.98c-0.88-0.75-1.52-1.78-1.86-2.85
			c-0.14-0.44-0.18-0.89,0.01-1.31C36.19,21,35.78,20.7,35.02,20.53L35.02,20.53L35.02,20.53z"/>
		<path class="st5" d="M35.01,20.6c-0.42-0.09-0.88-0.13-1.35-0.13c-3.62,0-2.38,1.88-5.95,1.88c-3.56,0-2.47-1.88-5.95-1.88
			c-3.5,0-2.42,1.88-5.95,1.88c-3.51,0-2.47-1.88-5.95-1.88c-0.91,0-1.72,0.11-2.44,0.57c-0.14,0.09-0.28,0.19-0.4,0.29
			c0.18,0.43,0.13,0.88-0.01,1.31c-0.35,1.09-1,2.13-1.88,2.88l-0.1,0.08c-0.02-0.45,0.03-0.66,0.12-1.12
			c0.01-0.03,0.62-0.94,0.03-1.67c-0.39-0.48-1.07-0.54-1.7-0.32c-0.77,0.27-1.46,0.76-1.92,1.35c-0.43,0.55-0.66,1.18-0.54,1.78
			c0.03,0.17,0.09,0.34,0.18,0.5l0,0.01c0.45,1.28,0.64,2.16,0.73,3.53l0,0.06c0.58,0.25,1.26,0.33,1.99,0.33
			c3.47,0,2.39-1.88,5.95-1.88c3.53,0,2.49,1.88,5.95,1.88c3.47,0,2.39-1.88,5.95-1.88c3.53,0,2.44,1.88,5.95,1.88
			c3.51,0,2.27-1.88,5.95-1.88c3.53,0,2.44,1.88,5.95,1.88c0.73,0,1.41-0.08,1.99-0.33l0-0.06c0.09-1.37,0.28-2.25,0.73-3.52
			l0.11-0.24c0.25-0.68,0.01-1.42-0.47-2.04c-0.46-0.58-1.15-1.08-1.92-1.35c-1.5-0.53-2.45,0.7-1.68,1.97l0.1,0.55
			c0.04,0.26,0.03,0.36,0.02,0.59c-0.5-0.43-0.86-0.81-1.22-1.37c-0.37-0.57-0.87-1.58-0.88-2.28c0-0.21,0.03-0.42,0.12-0.63
			c-0.45-0.34-0.82-0.57-1.43-0.71l0,0L35.01,20.6L35.01,20.6z M34.42,20.38c0.2,0.02,0.38,0.05,0.54,0.08l0,0
			c0.78,0.17,1.13,0.39,1.7,0.83c-0.2,0.45-0.18,0.85-0.03,1.32c0.33,1.03,0.93,2,1.74,2.73c0-0.09-0.01-0.2-0.03-0.3
			c-0.02-0.16-0.06-0.33-0.09-0.51c-0.22-0.36-0.3-0.72-0.28-1.05c0.04-0.57,0.4-1.02,0.96-1.17c0.33-0.09,0.72-0.08,1.16,0.08
			c0.79,0.28,1.5,0.79,1.98,1.39c0.42,0.54,0.66,1.16,0.59,1.75l0.04-0.02l-0.06,0.17c-0.02,0.09-0.04,0.17-0.07,0.26
			c-0.03,0.08-0.07,0.17-0.11,0.25c-0.2,0.58-0.36,1.1-0.48,1.64c-0.15,0.68-0.2,1.24-0.25,1.98c-0.64,0.29-1.31,0.38-2.11,0.38
			c-3.56,0-2.47-1.88-5.95-1.88c-3.62,0-2.38,1.88-5.95,1.88c-3.56,0-2.47-1.88-5.95-1.88c-3.5,0-2.42,1.88-5.95,1.88
			c-3.51,0-2.47-1.88-5.95-1.88c-3.5,0-2.42,1.88-5.95,1.88c-0.8,0-1.47-0.08-2.11-0.37c-0.05-0.74-0.1-1.3-0.25-1.99
			c-0.12-0.54-0.27-1.06-0.48-1.64c-0.04-0.08-0.08-0.16-0.11-0.25L0.9,25.65L0.84,25.5l0.04,0.02c-0.07-0.6,0.16-1.21,0.59-1.75
			c0.47-0.6,1.18-1.11,1.98-1.39c0.68-0.24,1.41-0.17,1.84,0.36c0.17,0.2,0.27,0.46,0.28,0.74c0.02,0.32-0.07,0.68-0.28,1.05
			c-0.04,0.18-0.07,0.36-0.09,0.51c-0.01,0.11-0.03,0.21-0.03,0.3c0.81-0.73,1.41-1.7,1.74-2.73c0.15-0.47,0.17-0.87-0.03-1.32
			c0.33-0.25,0.61-0.46,1.02-0.63v0c0.62-0.24,1.24-0.32,1.99-0.32c3.53,0,2.49,1.88,5.95,1.88c3.47,0,2.39-1.88,5.95-1.88
			c3.53,0,2.44,1.88,5.95,1.88c3.51,0,2.27-1.88,5.95-1.88C33.94,20.34,34.19,20.35,34.42,20.38L34.42,20.38z"/>
		<path class="st4" d="M2.56,34.38c0.36,0.08,0.81,0.13,1.37,0.13c3.5,0,2.42-1.88,5.95-1.88c3.5,0,2.46,1.88,5.95,1.88
			c3.5,0,2.42-1.88,5.95-1.88c3.5,0,2.42,1.88,5.95,1.88c3.54,0,2.3-1.88,5.95-1.88c3.5,0,2.42,1.88,5.95,1.88
			c0.56,0,1.01-0.05,1.37-0.13c0.2-0.69,0.35-1.45,0.46-2.31c-0.44,0.16-1.01,0.26-1.83,0.26c-3.53,0-2.45-1.88-5.95-1.88
			c-3.65,0-2.41,1.88-5.95,1.88c-3.53,0-2.45-1.88-5.95-1.88c-3.53,0-2.45,1.88-5.95,1.88c-3.49,0-2.44-1.88-5.95-1.88
			c-3.53,0-2.45,1.88-5.95,1.88c-0.82,0-1.39-0.1-1.83-0.26C2.21,32.93,2.36,33.7,2.56,34.38L2.56,34.38z"/>
		<path class="st5" d="M2.61,34.33c0.41,0.09,0.86,0.12,1.32,0.12c3.47,0,2.39-1.88,5.95-1.88c3.53,0,2.49,1.88,5.95,1.88
			c3.47,0,2.39-1.88,5.95-1.88c3.53,0,2.44,1.88,5.95,1.88c3.51,0,2.27-1.88,5.95-1.88c3.53,0,2.44,1.88,5.95,1.88
			c0.46,0,0.91-0.03,1.32-0.12c0.19-0.68,0.33-1.42,0.43-2.16c-0.52,0.17-1.12,0.23-1.75,0.23c-3.56,0-2.47-1.88-5.95-1.88
			c-3.62,0-2.38,1.88-5.95,1.88c-3.56,0-2.47-1.88-5.95-1.88c-3.5,0-2.42,1.88-5.95,1.88c-3.51,0-2.47-1.88-5.95-1.88
			c-3.5,0-2.42,1.88-5.95,1.88c-0.63,0-1.23-0.06-1.75-0.23C2.28,32.91,2.42,33.65,2.61,34.33L2.61,34.33z M3.16,34.54
			c-0.23-0.02-0.43-0.05-0.62-0.09l0,0c-0.02,0-0.04-0.02-0.05-0.05c-0.1-0.35-0.19-0.71-0.26-1.1c-0.02-0.11-0.22-1.18-0.2-1.25
			c0.01-0.03,0.05-0.05,0.08-0.04c0.54,0.19,1.15,0.25,1.81,0.25c3.47,0,2.39-1.88,5.95-1.88c3.53,0,2.49,1.88,5.95,1.88
			c3.47,0,2.39-1.88,5.95-1.88c3.53,0,2.44,1.88,5.95,1.88c3.51,0,2.27-1.88,5.95-1.88c3.53,0,2.44,1.88,5.95,1.88
			c0.65,0,1.27-0.06,1.81-0.26l0,0c0.04-0.02,0.09,0.02,0.09,0.07c-0.06,0.43-0.12,0.83-0.2,1.22c-0.08,0.38-0.16,0.75-0.26,1.09
			c-0.01,0.02-0.02,0.04-0.05,0.05c-0.43,0.1-0.9,0.13-1.38,0.13c-3.56,0-2.47-1.88-5.95-1.88c-3.62,0-2.38,1.88-5.95,1.88
			c-3.56,0-2.47-1.88-5.95-1.88c-3.5,0-2.42,1.88-5.95,1.88c-3.51,0-2.47-1.88-5.95-1.88c-3.5,0-2.42,1.88-5.95,1.88
			C3.65,34.58,3.39,34.56,3.16,34.54L3.16,34.54z"/>
		<path class="st4" d="M34.06,42.16c-2.31-0.82-4.48-1.94-5.88-3.11c-1.21-1.02-2.42-1.55-3.87-1.06c-0.18,0.06-0.25,0.09-0.36-0.15
			c-0.43-0.91-0.95-1.64-1.56-2.18c-0.22-0.19-0.17-0.23,0.17-0.13c3.67,0.64,6.87,0.86,9.6,0.64c0.36-0.03,0.22-0.04,0.19,0.29
			c-0.03,0.42,0.33,1.03,0.89,1.47c0.39,0.31,0.35,0.24-0.23,0.25c-0.73,0.01-1.27-0.01-1.6-0.01c-0.33,0.01-0.33,0.04-0.18-0.25
			c0.24-0.46-0.13-0.8-0.85-0.81c-0.84-0.02-1.17,0.29-0.83,0.78c0.66,0.94,2.16,0.84,3.19,0.84h3.83
			c-0.08,0.02-0.16,0.04-0.24,0.05C36.25,40.07,35.37,41.21,34.06,42.16L34.06,42.16z"/>
		<path class="st5" d="M34.04,42.22c-2.02-0.72-4.34-1.82-5.9-3.12c-1.14-0.96-2.34-1.55-3.81-1.05c-0.21,0.07-0.3,0.1-0.44-0.19v0
			c-0.22-0.45-0.45-0.86-0.71-1.22c-0.26-0.36-0.54-0.67-0.84-0.94c-0.15-0.13-0.19-0.22-0.12-0.27c0.04-0.04,0.16-0.02,0.35,0.03
			c1.83,0.32,3.54,0.54,5.14,0.64c1.6,0.11,3.15,0.11,4.51-0.01c0.36-0.03,0.21,0.09,0.19,0.37c-0.04,0.48,0.46,1.09,0.87,1.42
			c0.16,0.13,0.35,0.24,0.26,0.33c-0.06,0.06-0.39,0.03-0.53,0.03c-0.43,0.01-0.79,0-1.08,0l-0.61,0c-0.13,0-0.19,0.01-0.23-0.04
			l0,0c-0.1-0.14,0.3-0.42,0.09-0.73c-0.24-0.35-1.08-0.34-1.42-0.22c-0.33,0.12-0.33,0.34-0.15,0.61c0.63,0.91,2.1,0.82,3.14,0.82
			h4.37l-0.63,0.15l0,0c-0.02,0.01-0.05,0.01-0.07,0.02c-0.12,1.41-1.16,2.54-2.33,3.39L34.04,42.22L34.04,42.22z M30.76,40.65
			c1.01,0.53,2.13,1.02,3.29,1.44c1.12-0.81,2.12-1.93,2.22-3.29l-3.79,0c-1.02,0.01-2.36,0.02-2.98-0.87
			c-0.24-0.34-0.2-0.66,0.21-0.8c0.47-0.17,1.67-0.12,1.65,0.54c0,0.13-0.05,0.22-0.11,0.34c-0.04,0.08-0.08,0.1-0.07,0.11
			l0.22-0.01c0.14,0,0.31,0,0.52,0l1.08,0l0.44,0.01c0.03-0.03-0.07,0-0.16-0.08c-0.33-0.26-0.57-0.5-0.76-0.82
			c-0.23-0.38-0.28-0.66-0.19-0.99c0.01-0.02,0.02-0.01,0.02-0.02c-0.01-0.01-0.02,0.02-0.1,0.02c-3.04,0.26-6.49-0.08-9.69-0.64
			c-0.09-0.02-0.22-0.07-0.24-0.06c-0.01,0.01,0.06,0.01,0.13,0.08c0.67,0.59,1.18,1.36,1.58,2.2l0,0c0.09,0.19,0.15,0.16,0.28,0.12
			c1.51-0.51,2.76,0.08,3.93,1.07C28.91,39.57,29.78,40.13,30.76,40.65L30.76,40.65z"/>
		<path class="st4" d="M9.47,42.16c2.31-0.82,4.48-1.94,5.88-3.11c1.21-1.02,2.42-1.55,3.87-1.06c0.18,0.06,0.25,0.09,0.36-0.15
			c0.43-0.91,0.95-1.64,1.56-2.18c0.22-0.19,0.17-0.23-0.17-0.13c-3.67,0.64-6.87,0.86-9.6,0.64c-0.36-0.03-0.22-0.04-0.19,0.29
			c0.03,0.42-0.33,1.03-0.89,1.47c-0.39,0.31-0.35,0.24,0.23,0.25c0.73,0.01,1.27-0.01,1.6-0.01c0.33,0.01,0.33,0.04,0.18-0.25
			c-0.24-0.46,0.13-0.8,0.85-0.81c0.84-0.02,1.17,0.29,0.83,0.78c-0.66,0.94-2.16,0.84-3.19,0.84H6.96
			c0.08,0.02,0.16,0.04,0.24,0.05C7.28,40.07,8.16,41.21,9.47,42.16L9.47,42.16z"/>
		<path class="st5" d="M9.48,42.09c1.99-0.71,4.29-1.8,5.83-3.09c1.18-0.99,2.42-1.59,3.94-1.07c0.14,0.05,0.19,0.06,0.28-0.12l0,0
			c0.4-0.83,0.91-1.61,1.58-2.2c0.07-0.06,0.14-0.07,0.13-0.08c-0.02-0.02-0.15,0.04-0.24,0.06c-3.2,0.56-6.66,0.9-9.69,0.64
			c-0.08-0.01-0.09-0.04-0.1-0.02c-0.01,0.01,0.01,0,0.02,0.02c0.09,0.33,0.03,0.62-0.19,0.99c-0.2,0.32-0.44,0.57-0.76,0.82
			c-0.09,0.07-0.19,0.05-0.16,0.08l0.44-0.01c0.43,0.01,0.79,0,1.08,0l0.62,0c0.08,0,0.12,0.01,0.12,0.01h0
			c0-0.01-0.48-0.6,0.14-0.92c0.47-0.25,1.82-0.24,1.68,0.45c-0.02,0.09-0.06,0.19-0.14,0.29c-0.67,0.96-2.15,0.87-3.24,0.87H7.26
			C7.36,40.16,8.36,41.27,9.48,42.09L9.48,42.09z M12.83,40.76c-1.04,0.55-2.18,1.04-3.37,1.47c-1.16-0.84-2.21-1.98-2.33-3.39
			c-0.02-0.01-0.05-0.01-0.07-0.02l0,0l-0.63-0.15l4.63,0c0.99,0.01,2.29,0.02,2.88-0.82c0.41-0.58-0.28-0.69-0.77-0.68
			c-0.46,0.01-1.06,0.21-0.79,0.72c0.06,0.12,0.14,0.23,0.09,0.3l0,0c-0.05,0.07-0.2,0.04-0.32,0.04c-0.14,0-0.31,0-0.52,0
			c-0.29,0-0.65,0.01-1.08,0c-0.14,0-0.48,0.03-0.53-0.03c-0.09-0.09,0.1-0.2,0.26-0.33c0.41-0.33,0.91-0.93,0.87-1.42
			c-0.02-0.28-0.17-0.4,0.19-0.37c1.36,0.12,2.92,0.12,4.51,0.01c1.6-0.11,3.31-0.32,5.14-0.64c0.19-0.05,0.3-0.07,0.35-0.03
			c0.07,0.05,0.03,0.14-0.12,0.27c-0.3,0.26-0.58,0.58-0.84,0.94c-0.26,0.36-0.49,0.77-0.71,1.22v0c-0.14,0.29-0.23,0.26-0.44,0.19
			c-1.47-0.5-2.67,0.09-3.81,1.05C14.7,39.67,13.82,40.24,12.83,40.76L12.83,40.76z"/>
		<polygon class="st3" points="8.68,9.6 12.47,9.6 12.47,12.67 8.68,12.67 8.68,9.6 		"/>
		<path class="st5" d="M8.68,9.53h3.79h0.06V9.6v3.08v0.06h-0.06H8.68H8.62v-0.06V9.6V9.53H8.68L8.68,9.53z M12.41,9.66H8.75v2.95
			h3.66V9.66L12.41,9.66z"/>
		<path class="st6" d="M10.09,10.26h0.97c0.04,0,0.06,0.03,0.06,0.06v1.09c0,0.04-0.03,0.06-0.06,0.06h-0.97
			c-0.04,0-0.06-0.03-0.06-0.06v-1.09C10.03,10.29,10.06,10.26,10.09,10.26L10.09,10.26z"/>
		<path class="st3" d="M10.52,9.7h0.04h0.05h0.04h2.61l-0.74-0.52c-1.25-2.06-1.88-3.1-1.88-3.1c-0.02-0.03-0.04-0.04-0.06-0.03
			c-0.03,0-0.04,0.01-0.06,0.03c0,0-0.63,1.03-1.88,3.1L7.9,9.7H10.52L10.52,9.7z"/>
		<path class="st5" d="M10.52,9.63h0.04h0.05h0.04h2.41l-0.57-0.4c-0.01-0.01-0.02-0.01-0.02-0.02l-1.87-3.09
			c0,0-0.01-0.01-0.01-0.01h0v0l0,0l0,0c0,0,0,0.01-0.01,0.01L8.69,9.21c0,0.01-0.01,0.01-0.02,0.02l0,0l-0.57,0.4H10.52L10.52,9.63
			z M10.55,9.76h-0.04H7.9v0c-0.02,0-0.04-0.01-0.05-0.03C7.83,9.7,7.84,9.66,7.87,9.64l0.73-0.51l1.87-3.08c0,0,0-0.01,0.01-0.01
			c0.01-0.02,0.02-0.03,0.04-0.04c0.02-0.01,0.04-0.02,0.07-0.02c0.02,0,0.04,0,0.06,0.01c0,0,0,0,0,0
			c0.02,0.01,0.03,0.02,0.04,0.04c0,0,0.01,0.01,0.01,0.01l1.87,3.08l0.72,0.51c0.02,0.01,0.03,0.03,0.03,0.05
			c0,0.04-0.03,0.06-0.06,0.06h-2.61H10.6H10.55L10.55,9.76z"/>
		<polygon class="st3" points="34.85,9.6 31.06,9.6 31.06,12.67 34.85,12.67 34.85,9.6 		"/>
		<path class="st5" d="M34.79,9.66h-3.66v2.95h3.66V9.66L34.79,9.66z M31.06,9.53h3.79h0.06V9.6v3.08v0.06h-0.06h-3.79H31v-0.06V9.6
			V9.53H31.06L31.06,9.53z"/>
		<path class="st6" d="M32.47,10.26h0.97c0.04,0,0.06,0.03,0.06,0.06v1.09c0,0.04-0.03,0.06-0.06,0.06h-0.97
			c-0.04,0-0.06-0.03-0.06-0.06v-1.09C32.41,10.29,32.44,10.26,32.47,10.26L32.47,10.26z"/>
		<path class="st3" d="M33.02,9.7h-0.04h-0.05H32.9h-2.61l0.74-0.52c1.25-2.06,1.88-3.1,1.88-3.1c0.02-0.03,0.04-0.04,0.06-0.03
			c0.03,0,0.04,0.01,0.06,0.03c0,0,0.63,1.03,1.88,3.1l0.74,0.52H33.02L33.02,9.7z"/>
		<path class="st5" d="M33.02,9.76h-0.04h-0.05H32.9h-2.61c-0.04,0-0.06-0.03-0.06-0.06c0-0.02,0.01-0.04,0.03-0.05l0.72-0.51
			l1.87-3.08c0,0,0-0.01,0.01-0.01C32.87,6.02,32.88,6.01,32.9,6c0,0,0,0,0,0c0.02-0.01,0.04-0.01,0.06-0.01
			c0.03,0,0.05,0.01,0.07,0.02c0.02,0.01,0.03,0.02,0.04,0.04c0,0,0.01,0.01,0.01,0.01l1.87,3.08l0.73,0.51
			c0.03,0.02,0.04,0.06,0.02,0.09c-0.01,0.02-0.03,0.03-0.05,0.03v0H33.02L33.02,9.76z M32.98,9.63h0.04h2.41l-0.57-0.4l0,0
			c-0.01,0-0.01-0.01-0.02-0.02l-1.87-3.09c0,0-0.01-0.01-0.01-0.01l0,0l0,0v0h0c0,0,0,0-0.01,0.01l-1.87,3.09
			c0,0.01-0.01,0.02-0.02,0.02l-0.57,0.4h2.41h0.04H32.98L32.98,9.63z M32.9,5.99c0.02-0.01,0.04-0.01,0.06,0L32.9,5.99L32.9,5.99z
			 M33.08,6.05c0.01,0.03,0.01,0.06-0.02,0.08L33.08,6.05L33.08,6.05z"/>
		<path class="st3" d="M2.8,12.41h15.03l-0.42,6.87L7.06,19.31C7.04,19.15,7,18.98,6.95,18.82c-0.33-1.02-0.92-2-1.73-2.73
			c-0.02,0.33,0.07,0.74,0.16,1.22c0.44,1.18-0.52,2.19-1.93,1.7c-1.57-0.55-2.82-2.03-2.48-3.32C1.14,14.93,2.38,13.08,2.8,12.41
			L2.8,12.41z"/>
		<path class="st5" d="M2.8,12.34h15.03c0.04,0,0.07,0.03,0.06,0.07l-0.42,6.87c0,0.04-0.03,0.06-0.07,0.06L7.06,19.37
			c-0.03,0-0.06-0.03-0.06-0.06l0,0c-0.07-0.61-0.49-1.48-0.8-1.96c-0.26-0.41-0.56-0.79-0.91-1.12c0.01,0.25,0.06,0.53,0.12,0.86
			c0.01,0.06,0.02,0.13,0.04,0.2c0.14,0.38,0.14,0.74,0.03,1.04c-0.29,0.81-1.19,1.04-2.05,0.73c-0.82-0.29-1.56-0.83-2.03-1.46
			c-0.45-0.6-0.66-1.29-0.49-1.94h0c0.16-0.76,1.27-2.39,1.83-3.3C2.76,12.36,2.78,12.35,2.8,12.34L2.8,12.34L2.8,12.34z
			 M17.76,12.47H2.83c-0.55,0.89-1.63,2.51-1.79,3.23l0,0c-0.35,1.43,1.1,2.78,2.43,3.24c0.6,0.21,1.22,0.17,1.62-0.24
			c0.34-0.35,0.42-0.89,0.23-1.38l-0.04-0.22c-0.08-0.4-0.14-0.74-0.12-1.03c0-0.05,0.07-0.08,0.11-0.04
			c0.81,0.74,1.41,1.72,1.74,2.76l0.1,0.45l10.24-0.03L17.76,12.47L17.76,12.47z"/>
		<path class="st3" d="M40.74,12.41H25.7l0.42,6.87l10.35,0.03c0.02-0.16,0.06-0.33,0.11-0.49c0.33-1.02,0.92-2,1.73-2.73
			c0.02,0.33-0.07,0.74-0.16,1.22c-0.44,1.18,0.52,2.19,1.93,1.7c1.57-0.55,2.82-2.03,2.48-3.32
			C42.39,14.93,41.15,13.08,40.74,12.41L40.74,12.41z"/>
		<path class="st5" d="M40.7,12.47H25.77l0.41,6.75l10.24,0.03c0.01-0.06,0.02-0.13,0.04-0.2c0.02-0.08,0.04-0.17,0.07-0.25
			c0.17-0.53,0.41-1.04,0.71-1.51c0.29-0.46,0.64-0.88,1.04-1.25c0.03-0.02,0.07-0.02,0.09,0c0.01,0.01,0.02,0.03,0.02,0.04
			c0.02,0.29-0.05,0.63-0.12,1.03c-0.01,0.07-0.03,0.15-0.04,0.21c0,0,0,0.01,0,0.01c-0.13,0.35-0.13,0.68-0.03,0.96
			c0.06,0.16,0.14,0.3,0.26,0.42c0.12,0.12,0.26,0.21,0.43,0.27c0.32,0.12,0.73,0.12,1.19-0.04c0.8-0.28,1.51-0.8,1.97-1.41
			c0.43-0.57,0.63-1.22,0.47-1.83l0,0l0,0c-0.14-0.62-1.02-2.01-1.55-2.84C40.85,12.71,40.77,12.58,40.7,12.47L40.7,12.47z
			 M25.7,12.34h15.03v0c0.02,0,0.04,0.01,0.05,0.03c0.07,0.11,0.16,0.25,0.26,0.41c0.53,0.84,1.42,2.24,1.57,2.88h0
			c0.17,0.65-0.04,1.33-0.49,1.94c-0.47,0.63-1.21,1.17-2.03,1.46c-0.49,0.17-0.93,0.17-1.28,0.04c-0.19-0.07-0.35-0.17-0.48-0.3
			c-0.13-0.13-0.23-0.29-0.29-0.47c-0.11-0.3-0.11-0.67,0.03-1.04c0.01-0.08,0.03-0.14,0.04-0.2c0.06-0.32,0.12-0.61,0.12-0.86
			c-0.35,0.33-0.65,0.71-0.91,1.12c-0.29,0.47-0.53,0.97-0.69,1.48c-0.03,0.08-0.05,0.16-0.07,0.24c-0.02,0.08-0.03,0.16-0.04,0.24
			l0,0c0,0.03-0.03,0.06-0.06,0.06l-10.35-0.03c-0.04,0-0.07-0.03-0.07-0.06l-0.42-6.87c0,0,0-0.01,0-0.01
			C25.64,12.37,25.67,12.34,25.7,12.34L25.7,12.34z"/>
		<path class="st6" d="M42.58,25.58c0,0,0.04,0.04,0.12,0.12c0.16-0.36-0.04-0.96-0.25-1.32C42.55,24.79,42.64,25.31,42.58,25.58
			L42.58,25.58z"/>
		<path class="st6" d="M0.95,25.58c0,0-0.04,0.04-0.12,0.12c-0.16-0.36,0.04-0.96,0.25-1.32C0.98,24.79,0.9,25.31,0.95,25.58
			L0.95,25.58z"/>
		<path class="st3" d="M21.78,14.17c0.43,0,0.35-0.01,0.31,0.31c0.73,0.2,1.3,0.61,1.7,1.25h0c0.18,0.3,0.32,0.63,0.42,0.99h0
			c0.08,0.31,0.14,0.64,0.17,0.98h0c0.07,0.7,0.14,1.27,0.15,1.97h1.56c-0.23-3.71-0.51-8.31-0.66-10.82h-7.31l-0.66,10.82h1.56
			c0.01-0.7,0.08-1.27,0.15-1.97h0c0.03-0.34,0.09-0.67,0.17-0.98h0c0.1-0.36,0.23-0.69,0.42-0.99h0c0.39-0.64,0.96-1.05,1.7-1.25
			c-0.04-0.32-0.12-0.31,0.31-0.31H21.78L21.78,14.17z"/>
		<path class="st5" d="M21.78,14.1c0.34,0,0.44-0.01,0.4,0.26c0,0.02-0.01,0.04-0.01,0.07c0.93,0.27,1.56,0.86,1.92,1.74
			c0.26,0.62,0.32,1.16,0.39,1.82c0.06,0.55,0.11,1.03,0.12,1.6h1.42L25.36,8.9h-7.19L17.52,19.6h1.42c0.01-0.57,0.06-1.06,0.12-1.6
			c0.07-0.66,0.13-1.19,0.39-1.82c0.37-0.88,1-1.47,1.92-1.74c-0.05-0.31-0.06-0.33,0.39-0.33v0L21.78,14.1L21.78,14.1L21.78,14.1z
			 M21.82,14.23l-0.04,0v0h-0.02v0c-0.34,0-0.29-0.02-0.27,0.11c0.01,0.04,0.01,0.08,0.02,0.13h0c0,0.03-0.02,0.06-0.05,0.07
			c-0.91,0.25-1.53,0.82-1.89,1.68c-0.25,0.61-0.31,1.14-0.38,1.78c-0.05,0.51-0.12,1.12-0.12,1.66c0,0.04-0.03,0.06-0.06,0.06
			h-1.56v0c-0.04,0-0.07-0.03-0.06-0.07l0.66-10.82c0-0.04,0.03-0.06,0.06-0.06h7.31v0c0.03,0,0.06,0.03,0.06,0.06
			c0.07,1.14,0.17,2.71,0.27,4.44c0.13,2.07,0.27,4.36,0.39,6.38c0,0.04-0.03,0.07-0.06,0.07h-1.56v0c-0.04,0-0.06-0.03-0.06-0.06
			c-0.01-0.59-0.06-1.09-0.12-1.66c-0.07-0.64-0.12-1.17-0.38-1.78c-0.35-0.85-0.99-1.45-1.89-1.68c-0.11-0.03,0.01-0.28-0.01-0.3
			C22.05,14.23,21.98,14.23,21.82,14.23L21.82,14.23z M19.27,16.7c0.01-0.03,0.03-0.05,0.06-0.05L19.27,16.7L19.27,16.7z"/>
		<path class="st6" d="M21.22,11.62h1.09c0.04,0,0.06,0.03,0.06,0.06v1.24c0,0.04-0.03,0.06-0.06,0.06h-1.09
			c-0.04,0-0.06-0.03-0.06-0.06v-1.24C21.16,11.65,21.19,11.62,21.22,11.62L21.22,11.62z"/>
		<path class="st6" d="M21.22,9.47h1.09c0.04,0,0.06,0.03,0.06,0.06v1.24c0,0.04-0.03,0.06-0.06,0.06h-1.09
			c-0.04,0-0.06-0.03-0.06-0.06V9.54C21.16,9.5,21.19,9.47,21.22,9.47L21.22,9.47z"/>
		<path class="st5" d="M29.32,12.44c0-0.08,0.13-0.08,0.13,0v2.22h3.52v-2.22c0-0.08,0.13-0.08,0.13,0v2.22h3.52v-2.22
			c0-0.08,0.13-0.08,0.13,0v2.22h3.52v-2.22c0-0.08,0.13-0.08,0.13,0v2.22h1.85c0.08,0,0.08,0.13,0,0.13h-3.86v2.17h3.96
			c0.08,0,0.08,0.13,0,0.13H40.4v1.94c0,0.08-0.13,0.08-0.13,0v-1.94h-2.1c-0.08,0-0.08-0.13,0-0.13h0.09v-2.17h-3.34v2.17h2.66
			c0.08,0,0.08,0.13,0,0.13h-0.83v1.64c0,0.08-0.13,0.08-0.13,0v-1.64H33.1v2.2c0,0.08-0.13,0.08-0.13,0v-2.2h-3.52v2.2
			c0,0.08-0.13,0.08-0.13,0v-2.2h-3.38c-0.08,0-0.08-0.13,0-0.13h1.55v-2.17h-1.58c-0.08,0-0.08-0.13,0-0.13h3.4V12.44L29.32,12.44z
			 M34.8,14.79h-3.52v2.17h3.52V14.79L34.8,14.79z M31.15,14.79h-3.52v2.17h3.52V14.79L31.15,14.79z"/>
		<path class="st5" d="M14.21,17.09v2.2c0,0.04-0.03,0.06-0.06,0.06c-0.04,0-0.06-0.03-0.06-0.06v-2.2h-3.52v2.2
			c0,0.04-0.03,0.06-0.06,0.06c-0.04,0-0.06-0.03-0.06-0.06v-2.2H6.91v1.64c0,0.04-0.03,0.06-0.06,0.06c-0.04,0-0.06-0.03-0.06-0.06
			v-1.64H5.95c-0.04,0-0.06-0.03-0.06-0.06c0-0.04,0.03-0.06,0.06-0.06h2.66v-2.17H5.27v2.17h0.09c0.04,0,0.06,0.03,0.06,0.06
			c0,0.04-0.03,0.06-0.06,0.06h-2.1v1.94c0,0.04-0.03,0.06-0.06,0.06c-0.04,0-0.06-0.03-0.06-0.06v-1.94H1.18
			c-0.04,0-0.06-0.03-0.06-0.06c0-0.04,0.03-0.06,0.06-0.06h3.96v-2.17H1.29c-0.04,0-0.06-0.03-0.06-0.06
			c0-0.04,0.03-0.06,0.06-0.06h1.85v-2.22c0-0.04,0.03-0.06,0.06-0.06c0.04,0,0.06,0.03,0.06,0.06v2.22h3.52v-2.22
			c0-0.04,0.03-0.06,0.06-0.06c0.04,0,0.06,0.03,0.06,0.06v2.22h3.52v-2.22c0-0.04,0.03-0.06,0.06-0.06c0.04,0,0.06,0.03,0.06,0.06
			v2.22h3.52v-2.22c0-0.04,0.03-0.06,0.06-0.06c0.04,0,0.06,0.03,0.06,0.06v2.22h3.4c0.04,0,0.06,0.03,0.06,0.06
			c0,0.04-0.03,0.06-0.06,0.06h-1.58v2.17h1.55c0.04,0,0.06,0.03,0.06,0.06c0,0.04-0.03,0.06-0.06,0.06H14.21L14.21,17.09z
			 M8.74,16.96h3.52v-2.17H8.74V16.96L8.74,16.96z M12.39,16.96h3.52v-2.17h-3.52V16.96L12.39,16.96z"/>
		<path class="st5" d="M23.53,13.41v-2.15h-3.52v2.15H23.53L23.53,13.41z M23.66,11.26v2.15h2.05c0.04,0,0.06,0.03,0.06,0.06
			c0,0.04-0.03,0.06-0.06,0.06h-0.59v2.15h0.73c0.04,0,0.06,0.03,0.06,0.06c0,0.04-0.03,0.06-0.06,0.06h-2.04
			c-0.04,0-0.06-0.03-0.06-0.06c0-0.04,0.03-0.06,0.06-0.06h1.18v-2.15h-3.16v0.81c0,0.04-0.03,0.06-0.06,0.06
			c-0.04,0-0.06-0.03-0.06-0.06v-0.81h-3.16v2.15h1.18c0.04,0,0.06,0.03,0.06,0.06c0,0.04-0.03,0.06-0.06,0.06h-2.04
			c-0.04,0-0.06-0.03-0.06-0.06c0-0.04,0.03-0.06,0.06-0.06h0.73v-2.15h-0.59c-0.04,0-0.06-0.03-0.06-0.06
			c0-0.04,0.03-0.06,0.06-0.06h2.05v-2.15h-1.91c-0.04,0-0.06-0.03-0.06-0.06c0-0.04,0.03-0.06,0.06-0.06h0.81V8.95
			c0-0.04,0.03-0.06,0.06-0.06c0.04,0,0.06,0.03,0.06,0.06v2.18h2.79V8.95c0-0.04,0.03-0.06,0.06-0.06c0.04,0,0.06,0.03,0.06,0.06
			v2.18h2.79V8.95c0-0.04,0.03-0.06,0.06-0.06s0.06,0.03,0.06,0.06v2.18h0.81c0.04,0,0.06,0.03,0.06,0.06
			c0,0.04-0.03,0.06-0.06,0.06H23.66L23.66,11.26z M17.55,18.11c-0.04,0-0.06-0.03-0.06-0.06c0-0.04,0.03-0.06,0.06-0.06h0.01h1.56
			c0.04,0,0.06,0.03,0.06,0.06c0,0.04-0.03,0.06-0.06,0.06h-0.94v1.55c0,0.04-0.03,0.06-0.06,0.06s-0.06-0.03-0.06-0.06v-1.55h-0.49
			H17.55L17.55,18.11z M24.41,18.11c-0.04,0-0.06-0.03-0.06-0.06c0-0.04,0.03-0.06,0.06-0.06h1.57c0.04,0,0.06,0.03,0.06,0.06
			c0,0.04-0.03,0.06-0.06,0.06h-0.5v1.55c0,0.04-0.03,0.06-0.06,0.06c-0.04,0-0.06-0.03-0.06-0.06v-1.55H24.41L24.41,18.11z"/>
		<path class="st3" d="M19.98,19.66h-0.97c0.01-0.74,0.08-1.25,0.15-1.95c0.15-1.51,0.74-2.81,2.29-3.23
			c-0.01-0.07-0.02-0.15-0.03-0.23c-0.01-0.07,0.03-0.07,0.14-0.07c0.14-0.01,0.28-0.01,0.42,0c0.11,0.01,0.15,0,0.14,0.07
			c-0.01,0.08-0.02,0.16-0.03,0.23c1.55,0.42,2.14,1.73,2.29,3.23c0.07,0.7,0.14,1.21,0.15,1.95h-0.97
			c0.01-0.92-0.04-2.14-0.29-2.92c-0.24-0.74-0.59-1.22-1.28-1.45c-0.06,0.04-0.37,0.04-0.43,0c-0.69,0.22-1.04,0.71-1.28,1.45
			C20.02,17.52,19.97,18.74,19.98,19.66L19.98,19.66z"/>
		<path class="st5" d="M19.98,19.72h-0.97c-0.04,0-0.07-0.03-0.06-0.07c0.01-0.58,0.05-1.02,0.1-1.52c0.01-0.14,0.03-0.29,0.04-0.43
			c0.15-1.5,0.73-2.83,2.28-3.27c-0.04-0.3-0.1-0.33,0.39-0.33c0.49,0,0.43,0.03,0.39,0.33c1.55,0.45,2.14,1.78,2.28,3.27
			c0.06,0.67,0.14,1.22,0.15,1.95c0,0.04-0.03,0.06-0.06,0.06v0h-0.97c-0.04,0-0.07-0.03-0.06-0.07c0-0.46-0.01-0.99-0.05-1.5
			c-0.07-0.8-0.22-1.72-0.7-2.29c-0.19-0.23-0.44-0.4-0.76-0.5c-0.05,0.02-0.14,0.03-0.22,0.03c-0.08,0-0.17-0.01-0.22-0.03
			c-0.32,0.11-0.57,0.28-0.76,0.5c-0.73,0.86-0.75,2.69-0.75,3.8C20.04,19.7,20.02,19.72,19.98,19.72L19.98,19.72L19.98,19.72z
			 M19.07,19.6h0.84c0-1.14,0.03-2.94,0.78-3.82c0.21-0.25,0.48-0.43,0.84-0.55l0,0c0.04-0.01,0.05,0.03,0.24,0.03
			c0.19,0,0.2-0.04,0.24-0.03c0.73,0.24,1.09,0.77,1.32,1.49c0.26,0.8,0.3,2.02,0.29,2.88h0.84c-0.01-0.7-0.08-1.22-0.15-1.88
			c-0.07-0.74-0.25-1.44-0.61-2c-0.35-0.55-0.87-0.98-1.63-1.18c-0.07-0.02-0.05-0.1-0.03-0.18c0.02-0.15,0.04-0.11-0.05-0.12
			l-0.51,0c0,0,0-0.01,0-0.01l0.03,0.23h0c0,0.03-0.02,0.06-0.05,0.07c-1.53,0.41-2.1,1.72-2.24,3.18
			C19.16,18.37,19.08,18.9,19.07,19.6L19.07,19.6z"/>
		<path class="st5" d="M6.05,3.03C5.95,4.04,5.81,5,5.64,5.9C5.47,6.76,5.26,7.57,5.02,8.31C5.11,8.56,5.28,8.8,5.53,8.99
			c0.28,0.22,0.65,0.4,1.1,0.51c0.29,0.08,0.47,0.22,0.53,0.37c0.04,0.1,0.05,0.19,0.02,0.29c-0.03,0.08-0.08,0.16-0.16,0.21
			c-0.14,0.09-0.4,0.13-0.74,0.03c-0.4-0.12-0.79-0.18-1.15-0.19c-0.35-0.01-0.67,0.03-0.96,0.1c-0.32,0.8-0.99,1.86-1.61,2.86
			c-0.68,1.09-1.32,2.12-1.4,2.59c0,0.01,0,0.02-0.01,0.02c-0.05,0.27-0.05,0.52,0.01,0.76c0.06,0.25,0.17,0.49,0.33,0.73
			c0.24,0.36,0.59,0.71,0.98,0.99c0.4,0.28,0.84,0.5,1.26,0.6c0.34,0.08,0.64,0.07,0.89-0.02c0.17-0.06,0.31-0.16,0.42-0.28
			c0.11-0.12,0.19-0.26,0.23-0.42l0,0l0,0c0.05-0.22,0.04-0.47-0.06-0.74c0-0.01,0-0.01-0.01-0.02c0-0.01-0.01-0.02-0.01-0.03l0,0
			c-0.01-0.04-0.02-0.12-0.04-0.21c-0.08-0.41-0.15-0.76-0.13-1.08c0.01-0.12,0.1-0.21,0.2-0.2c0.05,0,0.09,0.03,0.12,0.06
			l0.35,0.35c0,0,0,0,0.01,0.01l0,0c0.33,0.35,0.65,0.8,0.91,1.28c0.25,0.46,0.45,0.94,0.56,1.39c0.08,0.34,0.1,0.67,0.01,0.99
			c-0.07,0.27-0.2,0.52-0.42,0.75c0.11,0.11,0.26,0.3,0.36,0.55c0,0,0,0.01,0,0.01l0,0.01l0,0l0,0l0,0.01c0,0,0,0.01,0,0.01
			c0.02,0.06,0.04,0.12,0.06,0.19c0.08,0.34,0.05,0.7-0.04,1.05c-0.09,0.33-0.22,0.65-0.35,0.93c-0.19,0.41-0.43,0.81-0.71,1.18
			c-0.27,0.36-0.57,0.69-0.91,0.98c-0.08,0.07-0.2,0.05-0.27-0.04c-0.02-0.04-0.04-0.08-0.04-0.12l0,0c-0.01-0.15,0-0.32,0.03-0.5
			c0.03-0.18,0.06-0.35,0.09-0.54c0-0.02,0.01-0.04,0.02-0.06c0.01-0.02,0.03-0.05,0.04-0.08c0.04-0.07,0.1-0.17,0.15-0.32
			c0.09-0.3,0.09-0.57,0-0.8C5.19,23.04,5.11,22.92,5,22.82c-0.11-0.1-0.25-0.18-0.41-0.23c-0.31-0.1-0.71-0.09-1.15,0.08
			c-0.58,0.22-1.19,0.61-1.64,1.11c-0.37,0.41-0.63,0.89-0.67,1.41c-0.01,0.07-0.01,0.14,0,0.2c0,0.06,0.01,0.13,0.02,0.2l0,0
			c0.01,0.04,0.02,0.07,0.03,0.1c0.01,0.06,0.03,0.13,0.1,0.27l0,0l0.04,0.08c0.01,0.01,0.01,0.03,0.02,0.04
			c0.21,0.59,0.37,1.12,0.49,1.67c0.12,0.56,0.2,1.13,0.24,1.8c0.17,2.7,0.49,4.76,1.26,6.24c0.75,1.46,1.96,2.37,3.92,2.8
			c0.09,0.02,0.15,0.1,0.15,0.19l0,0c0.09,1.32,1.1,2.51,2.58,3.47c1.74,1.14,4.12,1.96,6.39,2.31c1.55,0.24,2.75,0.59,3.64,1.03
			c0.87,0.43,1.45,0.94,1.77,1.52c0.33-0.58,0.91-1.1,1.77-1.52c0.89-0.44,2.09-0.79,3.64-1.03c2.27-0.35,4.64-1.17,6.39-2.31
			c1.47-0.96,2.48-2.15,2.58-3.47c0.01-0.1,0.08-0.18,0.16-0.2c1.96-0.43,3.16-1.34,3.91-2.79c0.77-1.48,1.08-3.54,1.26-6.24
			c0.04-0.66,0.12-1.24,0.24-1.8c0.12-0.55,0.28-1.09,0.49-1.68c0-0.01,0-0.01,0.01-0.02l0,0c0.02-0.04,0.04-0.08,0.06-0.12
			c0.05-0.1,0.08-0.18,0.11-0.33c0,0,0-0.01,0-0.01l0,0l0,0c0.1-0.55-0.1-1.09-0.44-1.55c-0.44-0.6-1.11-1.07-1.74-1.32
			c-0.31-0.13-0.66-0.21-0.98-0.18c-0.25,0.02-0.49,0.11-0.69,0.29c-0.19,0.18-0.29,0.41-0.31,0.65c-0.02,0.28,0.06,0.58,0.21,0.85
			l0.02,0.03c0.01,0.01,0.01,0.02,0.02,0.03c0.01,0.02,0.02,0.05,0.03,0.08l0,0c0.04,0.19,0.07,0.36,0.09,0.54
			c0.03,0.18,0.04,0.34,0.03,0.5c-0.01,0.12-0.1,0.21-0.2,0.2c-0.04,0-0.07-0.02-0.1-0.04l0,0c-0.45-0.38-0.86-0.87-1.2-1.4
			c-0.34-0.53-0.61-1.11-0.76-1.68c-0.06-0.22-0.1-0.45-0.09-0.67c0-0.23,0.05-0.46,0.15-0.68l0,0l0,0
			c0.05-0.11,0.12-0.22,0.19-0.33c0.04-0.06,0.09-0.11,0.14-0.16c-0.37-0.4-0.49-0.84-0.47-1.29c0.02-0.48,0.2-0.96,0.41-1.42
			c0.14-0.31,0.31-0.62,0.5-0.91c0.19-0.29,0.4-0.56,0.62-0.8c0,0,0.01-0.01,0.01-0.01l0.36-0.35c0.08-0.08,0.2-0.07,0.27,0.02
			c0.03,0.04,0.04,0.08,0.05,0.13l0,0c0.02,0.31-0.05,0.67-0.13,1.08c-0.02,0.08-0.03,0.17-0.04,0.21c0,0.01,0,0.01,0,0.02l0,0l0,0
			c-0.01,0.05-0.02,0.09-0.04,0.12c-0.04,0.12-0.06,0.2-0.06,0.38c0,0.11,0.01,0.21,0.04,0.3c0.06,0.23,0.2,0.41,0.39,0.54
			c0.2,0.13,0.45,0.2,0.73,0.2c0.15,0,0.31-0.02,0.47-0.06c0.7-0.19,1.49-0.69,2.01-1.34c0.41-0.52,0.65-1.12,0.51-1.72l0,0l0,0
			l0-0.01c0-0.01,0-0.01,0-0.02l0,0c-0.07-0.48-0.71-1.5-1.4-2.59c-0.63-1-1.29-2.06-1.61-2.86c-0.29-0.07-0.61-0.11-0.96-0.1
			c-0.36,0.01-0.75,0.07-1.15,0.19c-0.34,0.1-0.59,0.06-0.74-0.03c-0.08-0.05-0.14-0.12-0.16-0.21c-0.03-0.09-0.02-0.19,0.02-0.29
			c0.07-0.15,0.24-0.29,0.53-0.37c0.45-0.12,0.82-0.29,1.1-0.51c0.25-0.2,0.42-0.43,0.51-0.68c-0.24-0.74-0.45-1.55-0.62-2.41
			c-0.18-0.9-0.31-1.86-0.41-2.87c0-0.03,0-0.06,0.01-0.09c0-0.02,0.01-0.04,0.02-0.08c0.08-0.4,0.04-0.75-0.07-1.03
			c-0.12-0.3-0.33-0.54-0.6-0.73c-0.28-0.19-0.63-0.33-1.01-0.4c-0.71-0.13-1.52-0.06-2.26,0.23C33.51,0.97,33.44,1,33.37,1.04l0,0
			c-0.35,0.18-0.58,0.42-0.69,0.68c-0.11,0.24-0.11,0.51-0.02,0.74l0,0l0,0c0.01,0.03,0.03,0.06,0.04,0.09
			c0.02,0.04,0.03,0.08,0.03,0.12c-0.01,0.29-0.04,0.55-0.09,0.8c-0.04,0.25-0.1,0.47-0.18,0.66c-0.03,0.09-0.12,0.14-0.2,0.13l0,0
			C30.1,3.98,28,3.09,25.93,2.21c-1.33-0.56-2.65-1.12-3.95-1.5c-0.04-0.01-0.12-0.02-0.21-0.02c-0.09,0-0.17,0.01-0.21,0.02
			c-1.3,0.38-2.62,0.94-3.95,1.5c-2.07,0.88-4.17,1.76-6.34,2.05c-0.09,0.01-0.17-0.05-0.2-0.14c-0.07-0.19-0.13-0.41-0.17-0.65
			c-0.04-0.24-0.07-0.51-0.09-0.8c0-0.04,0.01-0.08,0.03-0.12l0,0c0.02-0.03,0.03-0.06,0.04-0.09c0-0.01,0-0.01,0.01-0.02
			c0.09-0.23,0.08-0.49-0.02-0.73c-0.11-0.26-0.34-0.5-0.69-0.68c0,0-0.01,0-0.01-0.01C10.09,1,10.03,0.97,9.95,0.94
			C9.22,0.65,8.4,0.57,7.7,0.71c-0.38,0.07-0.73,0.21-1.01,0.4c-0.27,0.19-0.48,0.43-0.6,0.73C5.98,2.12,5.95,2.46,6.02,2.87
			c0.01,0.04,0.01,0.07,0.02,0.09C6.05,2.98,6.05,3.01,6.05,3.03L6.05,3.03L6.05,3.03z M5.26,5.81c0.17-0.87,0.3-1.8,0.4-2.79
			C5.66,3,5.65,2.97,5.65,2.95C5.56,2.46,5.6,2.03,5.74,1.66C5.9,1.28,6.16,0.97,6.49,0.74c0.32-0.22,0.72-0.38,1.15-0.46
			c0.77-0.15,1.65-0.06,2.45,0.25c0.08,0.03,0.16,0.07,0.23,0.1c0,0,0.01,0,0.01,0.01c0.44,0.22,0.73,0.54,0.88,0.89
			c0.16,0.35,0.16,0.74,0.03,1.09c0,0.01,0,0.01-0.01,0.02c-0.01,0.03-0.02,0.05-0.03,0.08c0.01,0.25,0.04,0.47,0.08,0.68
			c0.03,0.15,0.06,0.3,0.1,0.42c2.07-0.3,4.1-1.16,6.1-2c1.34-0.57,2.66-1.12,3.99-1.51c0.08-0.02,0.19-0.03,0.31-0.03
			c0.11,0,0.23,0.01,0.31,0.03c1.33,0.39,2.65,0.95,3.99,1.51c2,0.85,4.03,1.7,6.1,2c0.04-0.13,0.08-0.27,0.1-0.42
			c0.04-0.2,0.06-0.43,0.08-0.68c-0.01-0.03-0.02-0.05-0.03-0.08l0,0c-0.14-0.36-0.14-0.74,0.02-1.11c0.15-0.35,0.44-0.66,0.88-0.89
			l0,0l0,0c0.08-0.04,0.16-0.08,0.24-0.11c0.79-0.31,1.68-0.4,2.45-0.25c0.43,0.08,0.82,0.23,1.15,0.46
			c0.33,0.23,0.59,0.54,0.75,0.92c0.15,0.37,0.19,0.8,0.09,1.29c0,0.02-0.01,0.04-0.01,0.07c0.1,0.98,0.23,1.92,0.4,2.79
			c0.17,0.87,0.38,1.68,0.63,2.43l0,0c0.01,0.04,0.02,0.09,0,0.14c-0.1,0.37-0.33,0.7-0.67,0.97C37.91,9.6,37.5,9.8,37,9.92
			c-0.11,0.03-0.19,0.06-0.23,0.09c0.08,0.02,0.21,0.02,0.4-0.04c0.43-0.13,0.85-0.19,1.24-0.2c0.41-0.01,0.8,0.04,1.14,0.13
			c0.06,0.01,0.11,0.06,0.14,0.13c0.29,0.77,0.97,1.86,1.61,2.88c0.71,1.13,1.37,2.19,1.46,2.76l0,0l0,0l0,0
			c0.17,0.75-0.11,1.49-0.6,2.11c-0.57,0.71-1.44,1.27-2.21,1.47c-0.19,0.05-0.38,0.08-0.56,0.08c-0.35,0-0.67-0.09-0.92-0.26
			C38.2,18.9,38,18.64,37.91,18.3c-0.04-0.13-0.06-0.28-0.06-0.42c0-0.25,0.03-0.35,0.08-0.52c0.01-0.03,0.02-0.07,0.03-0.11
			c0.02-0.09,0.03-0.15,0.04-0.2c0.03-0.16,0.06-0.32,0.08-0.46l0,0c-0.21,0.23-0.41,0.48-0.58,0.75c-0.18,0.27-0.33,0.56-0.47,0.85
			c-0.19,0.41-0.35,0.84-0.37,1.24c-0.02,0.38,0.1,0.74,0.47,1.08c0.06,0.05,0.09,0.13,0.07,0.21l-0.01,0.04l0,0
			c-0.01,0.05-0.03,0.09-0.07,0.12c-0.09,0.08-0.16,0.16-0.23,0.25c-0.06,0.08-0.11,0.16-0.15,0.25c-0.07,0.16-0.11,0.33-0.11,0.5
			c0,0.17,0.03,0.35,0.08,0.53c0.15,0.53,0.39,1.06,0.71,1.56c0.23,0.36,0.49,0.69,0.78,0.98c-0.02-0.12-0.05-0.26-0.07-0.4
			c-0.01-0.02-0.02-0.03-0.02-0.03c-0.19-0.34-0.3-0.74-0.27-1.11c0.03-0.35,0.16-0.68,0.44-0.94c0.27-0.25,0.58-0.37,0.91-0.39
			c0.38-0.03,0.78,0.07,1.14,0.21c0.68,0.28,1.42,0.8,1.9,1.45c0.4,0.55,0.64,1.19,0.53,1.87c0,0.03-0.01,0.05-0.01,0.08l0,0
			c-0.04,0.19-0.08,0.29-0.14,0.42c-0.01,0.03-0.03,0.06-0.05,0.1c-0.2,0.57-0.35,1.08-0.47,1.61c-0.11,0.53-0.19,1.08-0.23,1.73
			c-0.18,2.76-0.51,4.88-1.31,6.43c-0.79,1.54-2.04,2.51-4.04,2.97c-0.17,1.41-1.23,2.65-2.75,3.64c-1.79,1.17-4.21,2-6.53,2.36
			c-1.52,0.23-2.68,0.57-3.54,1c-0.88,0.43-1.42,0.95-1.69,1.52l0,0l-0.07,0.16c-0.02,0.05-0.05,0.09-0.1,0.11
			c-0.1,0.05-0.21,0-0.25-0.11l-0.07-0.16l0,0c-0.26-0.58-0.81-1.09-1.69-1.52c-0.86-0.42-2.03-0.76-3.54-1
			c-2.32-0.36-4.74-1.19-6.53-2.36c-1.52-0.99-2.58-2.23-2.75-3.64c-2-0.47-3.25-1.43-4.04-2.97c-0.8-1.55-1.13-3.67-1.31-6.43
			c-0.04-0.64-0.12-1.19-0.23-1.73c-0.11-0.53-0.27-1.04-0.47-1.6l-0.03-0.07l0,0l0,0c-0.09-0.18-0.11-0.28-0.13-0.37
			c-0.01-0.03-0.01-0.06-0.03-0.09l0,0c-0.01-0.03-0.02-0.05-0.02-0.08c-0.01-0.07-0.02-0.14-0.02-0.22c0-0.09,0-0.17,0-0.26
			c0.05-0.63,0.35-1.2,0.79-1.68c0.49-0.55,1.16-0.97,1.79-1.21c0.52-0.2,1-0.21,1.38-0.09c0.21,0.07,0.4,0.18,0.55,0.32
			c0.15,0.14,0.27,0.32,0.35,0.52c0.12,0.33,0.14,0.71,0.01,1.11c-0.06,0.19-0.14,0.33-0.19,0.41c-0.01,0.01-0.01,0.02-0.02,0.03
			c-0.03,0.15-0.06,0.29-0.08,0.42c0.18-0.18,0.35-0.38,0.51-0.59c0.26-0.34,0.48-0.72,0.66-1.1c0.12-0.26,0.25-0.56,0.32-0.85
			c0.07-0.28,0.1-0.56,0.04-0.82c-0.09-0.35-0.31-0.57-0.41-0.66c-0.04-0.04-0.06-0.06-0.08-0.1l0,0c-0.01-0.02-0.02-0.04-0.02-0.07
			l-0.01-0.04l0,0c-0.01-0.08,0.01-0.16,0.07-0.21c0.24-0.22,0.38-0.45,0.44-0.69c0.06-0.24,0.05-0.49-0.01-0.76
			c-0.1-0.41-0.29-0.86-0.52-1.28c-0.25-0.45-0.54-0.87-0.85-1.2l0,0c0.02,0.14,0.05,0.29,0.08,0.46c0.01,0.05,0.02,0.1,0.04,0.19
			c0.13,0.36,0.15,0.7,0.07,1.01l0,0c-0.06,0.24-0.17,0.45-0.33,0.62c-0.15,0.17-0.35,0.3-0.58,0.38c-0.31,0.11-0.68,0.13-1.09,0.04
			c-0.46-0.11-0.95-0.35-1.38-0.66c-0.43-0.31-0.82-0.69-1.09-1.1C1,17.24,0.87,16.95,0.79,16.65c-0.07-0.3-0.08-0.62-0.01-0.96l0,0
			c0.09-0.57,0.75-1.63,1.46-2.76c0.64-1.03,1.32-2.11,1.61-2.88l0,0c0.02-0.06,0.07-0.11,0.13-0.12c0.34-0.1,0.73-0.15,1.15-0.14
			c0.39,0.01,0.81,0.08,1.24,0.2c0.18,0.05,0.32,0.06,0.4,0.04C6.72,9.99,6.65,9.95,6.54,9.92C6.04,9.8,5.62,9.6,5.3,9.34
			C4.97,9.08,4.74,8.75,4.64,8.38c-0.01-0.05-0.02-0.1,0-0.15C4.88,7.49,5.09,6.68,5.26,5.81L5.26,5.81z"/>
		<path class="st3" d="M17.39,8.92l-0.95-0.01l2.74-1.42c1.08-1.74,1.9-3.12,2.47-4.13c0.05-0.08,0.19-0.08,0.24,0
			c0.57,1.01,1.39,2.38,2.47,4.13l2.74,1.42l-0.95,0.01H17.39L17.39,8.92z"/>
		<path class="st5" d="M17.38,8.98l-0.95-0.01c-0.04,0-0.06-0.03-0.06-0.06c0-0.02,0.01-0.05,0.03-0.06l0,0l2.73-1.41
			c0.53-0.86,1-1.64,1.41-2.32c0.41-0.69,0.76-1.28,1.04-1.78c0,0,0,0,0,0l0,0c0.01-0.02,0.03-0.04,0.05-0.05
			c0.04-0.02,0.08-0.04,0.13-0.04s0.09,0.01,0.13,0.04c0.02,0.01,0.04,0.03,0.05,0.05c0,0,0,0.01,0.01,0.01
			c0.28,0.5,0.63,1.09,1.04,1.78c0.41,0.68,0.88,1.46,1.41,2.32l2.73,1.41c0.03,0.02,0.04,0.05,0.03,0.09
			c-0.01,0.02-0.04,0.04-0.06,0.03l-0.95,0.01h0v0L17.38,8.98C17.39,8.98,17.39,8.98,17.38,8.98L17.38,8.98z M16.7,8.85l0.69,0
			c0,0,0,0,0.01,0h8.75v0l0.69,0l-2.51-1.3l0,0c-0.01-0.01-0.02-0.01-0.03-0.02c-0.54-0.87-1.01-1.65-1.42-2.34
			c-0.41-0.68-0.76-1.28-1.04-1.78l0,0c0-0.01-0.01-0.01-0.01-0.01c-0.01-0.01-0.03-0.01-0.05-0.01c-0.02,0-0.04,0-0.05,0.01
			c-0.01,0-0.01,0.01-0.01,0.01l0,0c-0.29,0.51-0.63,1.1-1.04,1.78c-0.41,0.69-0.88,1.47-1.42,2.34c-0.01,0.01-0.01,0.02-0.03,0.03
			L16.7,8.85L16.7,8.85z"/>
	</g>
</g>
</svg>
