<svg width="26" height="24" viewBox="0 0 26 24" fill="none" xmlns="http://www.w3.org/2000/svg">
<g clip-path="url(#clip0_261_185)">
<path d="M12.6667 0.0151367C9.41174 0.0151367 9.00358 0.0289452 7.72524 0.0872479C6.44957 0.145444 5.57835 0.348076 4.81599 0.644299C4.02787 0.950584 3.3595 1.36042 2.69323 2.02669C2.02692 2.69296 1.61709 3.3614 1.31084 4.14953C1.01454 4.91185 0.811983 5.78307 0.753716 7.05874C0.695413 8.33708 0.681641 8.74523 0.681641 12.0002C0.681641 15.2551 0.695413 15.6632 0.753716 16.9416C0.811983 18.2172 1.01454 19.0885 1.31084 19.8508C1.61712 20.6389 2.02696 21.3073 2.69323 21.9736C3.35953 22.6399 4.02787 23.0497 4.81599 23.356C5.57835 23.6522 6.44957 23.8548 7.72524 23.9131C9.00358 23.9714 9.41174 23.9852 12.6667 23.9852C15.9216 23.9852 16.3297 23.9714 17.6081 23.9131C18.8837 23.8549 19.755 23.6522 20.5173 23.356C21.3054 23.0497 21.9738 22.6399 22.6401 21.9736C23.3064 21.3073 23.7162 20.6389 24.0225 19.8508C24.3187 19.0885 24.5214 18.2172 24.5796 16.9416C24.6379 15.6632 24.6517 15.2551 24.6517 12.0002C24.6517 8.74523 24.6379 8.33708 24.5796 7.05874C24.5214 5.78307 24.3187 4.91185 24.0225 4.14953C23.7162 3.3614 23.3064 2.69296 22.6401 2.02669C21.9738 1.36042 21.3054 0.950584 20.5173 0.644299C19.755 0.348076 18.8837 0.145444 17.6081 0.0872479C16.3297 0.0289452 15.9216 0.0151367 12.6667 0.0151367ZM12.6667 2.17458C15.8668 2.17458 16.2459 2.18682 17.5096 2.24448C18.6782 2.29775 19.3128 2.493 19.7351 2.65713C20.2945 2.87457 20.6938 3.13426 21.1131 3.55365C21.5326 3.97305 21.7922 4.37232 22.0097 4.93172C22.1738 5.35404 22.3691 5.98866 22.4223 7.15718C22.48 8.42096 22.4922 8.80004 22.4922 12.0002C22.4922 15.2003 22.48 15.5793 22.4223 16.8431C22.3691 18.0117 22.1738 18.6463 22.0097 19.0686C21.7922 19.628 21.5326 20.0273 21.1131 20.4466C20.6938 20.8661 20.2945 21.1257 19.7351 21.3432C19.3128 21.5073 18.6782 21.7026 17.5096 21.7558C16.2461 21.8135 15.867 21.8257 12.6667 21.8257C9.46629 21.8257 9.08733 21.8135 7.82368 21.7558C6.65513 21.7026 6.02055 21.5073 5.59826 21.3432C5.03879 21.1257 4.63955 20.8661 4.22019 20.4466C3.8008 20.0273 3.54108 19.628 3.32364 19.0686C3.1595 18.6463 2.96429 18.0116 2.91099 16.8431C2.85333 15.5793 2.84109 15.2003 2.84109 12.0002C2.84109 8.80004 2.85333 8.42096 2.91099 7.15718C2.96429 5.98863 3.1595 5.35404 3.32364 4.93176C3.54108 4.37228 3.8008 3.97305 4.22016 3.55369C4.63955 3.13426 5.03882 2.87457 5.59823 2.65713C6.02055 2.493 6.65517 2.29775 7.82368 2.24448C9.08747 2.18682 9.46654 2.17458 12.6667 2.17458" fill="#232323"/>
<path d="M12.6672 15.9949C10.4608 15.9949 8.67214 14.2063 8.67214 12C8.67214 9.79352 10.4608 8.0049 12.6672 8.0049C14.8736 8.0049 16.6622 9.79352 16.6622 12C16.6622 14.2063 14.8736 15.9949 12.6672 15.9949ZM12.6672 5.84546C9.26812 5.84546 6.5127 8.60088 6.5127 12C6.5127 15.399 9.26812 18.1544 12.6672 18.1544C16.0662 18.1544 18.8216 15.399 18.8216 12C18.8216 8.60088 16.0662 5.84546 12.6672 5.84546ZM20.503 5.60229C20.503 6.39662 19.8591 7.04048 19.0648 7.04048C18.2705 7.04048 17.6266 6.39662 17.6266 5.60229C17.6266 4.808 18.2705 4.16406 19.0648 4.16406C19.8591 4.16406 20.503 4.808 20.503 5.60229Z" fill="#232323"/>
</g>
<defs>
<clipPath id="clip0_261_185">
<rect width="25" height="24" fill="white" transform="translate(0.280273)"/>
</clipPath>
</defs>
</svg>
