<?xml version="1.0" encoding="utf-8"?>
<!-- Generator: Adobe Illustrator 27.0.0, SVG Export Plug-In . SVG Version: 6.00 Build 0)  -->
<svg version="1.1" id="Layer_1" xmlns="http://www.w3.org/2000/svg" xmlns:xlink="http://www.w3.org/1999/xlink" x="0px" y="0px"
	 viewBox="0 0 254.25 48" style="enable-background:new 0 0 254.25 48;" xml:space="preserve">
<style type="text/css">
	.st0{fill:#231F20;}
</style>
<g>
	<polygon class="st0" points="32.86,15.68 21.65,15.68 13.06,24.04 13.06,6.77 0.22,6.77 0.22,13.6 4.88,13.6 4.88,38.87 
		13.06,38.87 13.06,29.42 22.06,38.87 33.54,38.87 21.25,26.39 	"/>
	<path class="st0" d="M49.69,17.98c-1.9-2.02-4.29-3.03-7.19-3.03c-1.72,0-3.28,0.32-4.7,0.97c-1.42,0.65-2.64,1.53-3.66,2.64
		c-1.03,1.11-1.82,2.42-2.4,3.91c-0.57,1.49-0.86,3.07-0.86,4.72c0,1.78,0.29,3.42,0.88,4.93c0.59,1.51,1.41,2.82,2.46,3.93
		c1.06,1.11,2.29,1.98,3.71,2.6c1.42,0.62,2.97,0.93,4.66,0.93c2.98,0,5.35-1.1,7.1-3.3v2.58h8.23V15.68h-8.23V17.98z M49.53,29.33
		c-0.29,0.63-0.66,1.19-1.13,1.67c-0.47,0.48-1.02,0.86-1.67,1.13c-0.65,0.27-1.33,0.41-2.06,0.41c-0.75,0-1.45-0.14-2.1-0.41
		c-0.65-0.27-1.21-0.65-1.67-1.13c-0.47-0.48-0.84-1.05-1.11-1.69c-0.27-0.65-0.41-1.35-0.41-2.1c0-0.72,0.14-1.39,0.41-2.01
		c0.27-0.62,0.64-1.17,1.11-1.65c0.47-0.48,1.02-0.86,1.67-1.13c0.65-0.27,1.35-0.41,2.1-0.41c0.72,0,1.41,0.14,2.06,0.41
		c0.65,0.27,1.21,0.65,1.67,1.13c0.47,0.48,0.84,1.05,1.13,1.7c0.29,0.65,0.43,1.33,0.43,2.06C49.96,28.02,49.82,28.7,49.53,29.33"
		/>
	<path class="st0" d="M85.1,18.55c-1.01-1.1-2.23-1.97-3.66-2.62c-1.43-0.65-3.01-0.97-4.72-0.97c-2.89,0-5.3,1.01-7.23,3.03V6.77
		H61.3v32.1h8.18v-2.58c1.75,2.2,4.13,3.3,7.14,3.3c1.66,0,3.2-0.32,4.63-0.97c1.43-0.65,2.67-1.53,3.73-2.64
		c1.05-1.12,1.88-2.43,2.46-3.93c0.59-1.51,0.88-3.12,0.88-4.84c0-1.69-0.29-3.28-0.86-4.77C86.9,20.95,86.11,19.65,85.1,18.55
		 M79.36,29.33c-0.29,0.63-0.66,1.19-1.13,1.67c-0.47,0.48-1.02,0.86-1.65,1.13c-0.63,0.27-1.31,0.41-2.04,0.41
		c-0.72,0-1.41-0.14-2.06-0.43c-0.65-0.29-1.21-0.66-1.69-1.13c-0.48-0.47-0.86-1.02-1.13-1.65c-0.27-0.63-0.41-1.31-0.41-2.03
		c0-0.72,0.14-1.41,0.43-2.06c0.29-0.65,0.66-1.21,1.13-1.7c0.47-0.48,1.02-0.86,1.65-1.13c0.63-0.27,1.31-0.41,2.03-0.41
		c0.75,0,1.45,0.14,2.08,0.43c0.63,0.29,1.19,0.67,1.67,1.15c0.48,0.48,0.86,1.05,1.13,1.69c0.27,0.65,0.41,1.33,0.41,2.06
		C79.79,28.04,79.64,28.7,79.36,29.33"/>
	<path class="st0" d="M99.08,2.94c-0.5-0.5-1.07-0.89-1.73-1.17c-0.66-0.28-1.36-0.43-2.1-0.43c-0.74,0-1.44,0.14-2.1,0.43
		c-0.66,0.28-1.23,0.67-1.73,1.17c-0.5,0.5-0.89,1.07-1.17,1.73c-0.28,0.66-0.43,1.36-0.43,2.1c0,0.74,0.14,1.44,0.43,2.1
		c0.28,0.66,0.67,1.23,1.17,1.73c0.5,0.5,1.07,0.89,1.73,1.17c0.66,0.28,1.36,0.43,2.1,0.43c0.74,0,1.44-0.14,2.1-0.43
		c0.66-0.28,1.23-0.67,1.73-1.17c0.5-0.5,0.89-1.07,1.17-1.73c0.28-0.66,0.43-1.36,0.43-2.1c0-0.75-0.14-1.45-0.43-2.1
		C99.96,4.02,99.57,3.44,99.08,2.94"/>
	<rect x="91.18" y="15.68" class="st0" width="8.18" height="23.19"/>
	<path class="st0" d="M125.9,18.21c-0.81-0.96-1.8-1.71-2.96-2.24c-1.16-0.53-2.55-0.79-4.18-0.79c-1.54,0-2.88,0.23-4.02,0.7
		c-1.15,0.47-2.28,1.38-3.39,2.74v-2.94h-8.18v23.19h8.18V26.48c0-1.54,0.37-2.72,1.11-3.55c0.74-0.83,1.8-1.24,3.19-1.24
		c0.51,0,0.99,0.08,1.45,0.23c0.45,0.15,0.86,0.41,1.22,0.77c0.42,0.42,0.72,0.99,0.88,1.69c0.17,0.71,0.25,1.64,0.25,2.78v11.71
		h8.18V24.13c0-1.24-0.12-2.34-0.36-3.3C127.01,19.87,126.56,18.99,125.9,18.21"/>
	<path class="st0" d="M152.61,18.26c-1.09-1.11-2.41-1.97-3.98-2.55c-1.57-0.59-3.33-0.88-5.29-0.88c-1.99,0-3.77,0.29-5.36,0.88
		c-1.58,0.59-2.93,1.42-4.05,2.51c-1.11,1.09-1.97,2.4-2.58,3.96c-0.6,1.55-0.9,3.29-0.9,5.22c0,1.87,0.32,3.56,0.95,5.06
		c0.63,1.51,1.53,2.8,2.69,3.89c1.16,1.09,2.55,1.92,4.18,2.51c1.63,0.59,3.42,0.88,5.38,0.88c6.39,0,10.38-2.65,11.98-7.96h-7.91
		c-0.9,1.45-2.25,2.17-4.02,2.17c-3.32,0-4.97-1.76-4.97-5.29h17.22v-0.86c0-2.02-0.29-3.83-0.86-5.45
		C154.53,20.73,153.7,19.37,152.61,18.26 M138.96,23.91c0.21-1.21,0.72-2.14,1.51-2.8c0.8-0.66,1.83-0.99,3.1-0.99
		c1.2,0,2.23,0.35,3.07,1.04c0.84,0.69,1.4,1.61,1.67,2.76H138.96z"/>
	<polygon class="st0" points="166.63,15.68 166.63,6.77 158.45,6.77 158.45,38.87 166.63,38.87 166.63,22.51 171.29,22.51 
		171.29,15.68 	"/>
	<path class="st0" d="M199.22,22.01c-0.6-1.54-1.44-2.88-2.52-4.01c-1.08-1.13-2.38-2.02-3.91-2.68c-1.53-0.65-3.23-0.98-5.12-0.98
		c-1.72,0-3.41,0.4-5.07,1.21c-1.66,0.81-2.99,2-3.99,3.58h-0.15v-3.45h-3.5v32.1h3.5v-12.8h0.15c0.99,1.51,2.32,2.67,3.99,3.47
		c1.66,0.81,3.35,1.21,5.07,1.21c1.89,0,3.59-0.33,5.12-0.98c1.53-0.65,2.83-1.54,3.91-2.68c1.08-1.13,1.92-2.47,2.52-4.01
		c0.6-1.54,0.9-3.21,0.9-4.99C200.12,25.22,199.82,23.55,199.22,22.01 M196.21,30.78c-0.41,1.18-1,2.21-1.78,3.09
		c-0.77,0.87-1.72,1.56-2.86,2.06c-1.13,0.5-2.42,0.75-3.86,0.75c-1.34,0-2.57-0.25-3.71-0.75c-1.13-0.5-2.11-1.17-2.93-2.03
		c-0.82-0.86-1.47-1.88-1.93-3.06c-0.46-1.18-0.69-2.46-0.69-3.83c0-1.37,0.23-2.65,0.69-3.83c0.46-1.18,1.11-2.21,1.93-3.09
		c0.82-0.88,1.8-1.56,2.93-2.06c1.13-0.5,2.37-0.75,3.71-0.75c1.44,0,2.73,0.26,3.86,0.77c1.13,0.51,2.08,1.21,2.86,2.08
		c0.77,0.87,1.37,1.91,1.78,3.09c0.41,1.18,0.62,2.45,0.62,3.78S196.62,29.6,196.21,30.78"/>
	<rect x="202.89" y="0.13" class="st0" width="3.5" height="38.91"/>
	<path class="st0" d="M250.03,20.57c-0.52-0.99-1.45-1.71-2.5-2.35c-1.05-0.63-2.24-0.95-3.58-0.95c-0.62,0-1.24,0.07-1.85,0.21
		c-0.62,0.14-1.17,0.36-1.64,0.67c-0.48,0.31-0.87,0.7-1.16,1.18c-0.29,0.48-0.44,1.05-0.44,1.7c0,1.13,0.46,2,1.39,2.6
		c0.93,0.6,2.38,1.11,4.38,1.52c2.85,0.58,4.95,1.43,6.3,2.55c1.35,1.12,2.03,2.62,2.03,4.5c0,1.37-0.27,2.53-0.8,3.47
		c-0.53,0.94-1.23,1.72-2.08,2.32c-0.86,0.6-1.83,1.03-2.91,1.29c-1.08,0.26-2.17,0.39-3.27,0.39c-1.82,0-3.59-0.38-5.3-1.13
		c-1.72-0.75-3.12-1.94-4.22-3.55l2.6-2.08c0.62,1.06,1.71,1.97,2.91,2.69c1.2,0.72,2.52,1.08,3.96,1.08c0.75,0,1.48-0.07,2.16-0.21
		c0.69-0.14,1.29-0.38,1.8-0.72c0.51-0.34,0.93-0.78,1.23-1.31c0.31-0.53,0.46-1.19,0.46-1.98c0-1.27-0.61-2.22-1.83-2.86
		c-1.22-0.63-2.98-1.23-5.28-1.78c-0.72-0.17-1.48-0.38-2.29-0.64c-0.81-0.26-1.55-0.63-2.24-1.13c-0.69-0.5-1.25-1.12-1.7-1.88
		c-0.45-0.75-0.67-1.7-0.67-2.83c0-1.23,0.24-2.29,0.72-3.16c0.48-0.88,1.12-1.6,1.93-2.16c0.8-0.56,1.72-0.99,2.75-1.26
		c1.03-0.27,2.09-0.41,3.19-0.41c1.68,0,3.31,0.38,4.89,1.13c1.58,0.76,2.76,1.82,3.55,3.19L250.03,20.57z"/>
	<path class="st0" d="M227.57,39.04V34.8l-0.28,0.32c-0.99,1.34-1.83,2.36-3.38,3.23c-1.55,0.88-3.17,1.31-4.89,1.31
		c-3.05,0-5.34-0.91-6.87-2.73c-1.53-1.82-2.29-4.22-2.29-7.2V15.75h3.5v12.53c0,1.27,0.1,2.42,0.31,3.45
		c0.21,1.03,0.56,1.91,1.05,2.65c0.5,0.74,1.17,1.31,2.01,1.72c0.84,0.41,1.9,0.62,3.17,0.62c0.93,0,1.83-0.19,2.7-0.57
		c0.87-0.38,1.66-0.95,2.34-1.72c0.69-0.77,1.23-1.75,1.65-2.93c0.41-1.18,0.62-2.58,0.62-4.19V15.75h3.5v17.99v5.3L227.57,39.04z"
		/>
</g>
</svg>
