<svg width="68" height="57" viewBox="0 0 68 57" fill="none" xmlns="http://www.w3.org/2000/svg">
<path d="M53.0976 56.5C49.2387 56.5 46.0996 53.3633 46.0996 49.5072C46.0996 45.6512 49.2387 42.5144 53.0976 42.5144C56.9565 42.5144 60.0956 45.6512 60.0956 49.5072C60.0956 53.3633 56.9565 56.5 53.0976 56.5ZM53.0976 44.812C50.5084 44.812 48.399 46.9199 48.399 49.5072C48.399 52.0946 50.5084 54.2024 53.0976 54.2024C55.6869 54.2024 57.7963 52.0946 57.7963 49.5072C57.7963 46.9199 55.6869 44.812 53.0976 44.812Z" fill="white"/>
<path d="M14.7675 56.5C10.9086 56.5 7.76953 53.3633 7.76953 49.5072C7.76953 45.6512 10.9086 42.5144 14.7675 42.5144C18.6264 42.5144 21.7655 45.6512 21.7655 49.5072C21.7655 53.3633 18.6264 56.5 14.7675 56.5ZM14.7675 44.812C12.1783 44.812 10.0689 46.9199 10.0689 49.5072C10.0689 52.0946 12.1783 54.2024 14.7675 54.2024C17.3568 54.2024 19.4662 52.0946 19.4662 49.5072C19.4662 46.9199 17.3568 44.812 14.7675 44.812Z" fill="white"/>
<path d="M64.2336 50.656H58.9451C58.3053 50.656 57.7955 50.1365 57.7955 49.5071C57.7955 46.9198 55.6861 44.812 53.0968 44.812C50.5075 44.812 48.3981 46.9198 48.3981 49.5071C48.3981 50.1465 47.8783 50.656 47.2485 50.656H20.6161C19.9762 50.656 19.4664 50.1365 19.4664 49.5071C19.4664 46.9198 17.357 44.812 14.7677 44.812C12.1785 44.812 10.0691 46.9198 10.0691 49.5071C10.0691 50.1465 9.54921 50.656 8.91939 50.656H4.73059C2.54121 50.656 0.761719 48.8778 0.761719 46.69V41.9349C0.761719 41.2956 1.28158 40.7861 1.9114 40.7861C2.55122 40.7861 3.06107 41.3056 3.06107 41.9349V46.69C3.06107 47.6091 3.81086 48.3483 4.7206 48.3483H7.84971C8.39955 45.0417 11.2887 42.5043 14.7577 42.5043C18.2267 42.5043 21.1159 45.0317 21.6658 48.3483H46.1888C46.7386 45.0317 49.6278 42.5043 53.0968 42.5043C56.5658 42.5043 59.455 45.0417 60.0048 48.3483H64.2336C64.5135 48.3483 64.6935 48.1985 64.7735 48.1086C64.8535 48.0187 64.9834 47.8289 64.9534 47.5492C64.9134 47.1995 64.5435 46.9098 64.1336 46.9098C63.4938 46.9098 62.984 46.3903 62.984 45.761C62.984 45.5612 63.034 45.3814 63.1139 45.2215V41.1457C63.1139 39.2377 61.8843 37.5794 60.0548 37.02L59.195 36.7602C57.3956 36.2108 55.906 34.9121 55.1162 33.2039L52.8669 28.3289C52.1671 26.8005 50.6275 25.8115 48.938 25.8115H43.9594C43.3196 25.8115 42.8097 25.292 42.8097 24.6627V21.436C42.8097 20.6468 42.1699 19.9975 41.3701 19.9975H5.36041C4.09078 19.9975 3.06107 21.0264 3.06107 22.2951V25.2321C3.06107 25.7819 3.06107 40.4374 3.06107 44.3125C2.97832 44.9529 0.849985 44.812 0.761802 44.812C0.761719 44.4742 0.761719 25.8614 0.761719 25.2321V22.2951C0.761719 19.7577 2.82114 17.6998 5.36041 17.6998H41.3701C43.4295 17.6998 45.1091 19.3781 45.1091 21.436V23.5139H48.938C51.5172 23.5139 53.8766 25.0223 54.9563 27.3599L57.1956 32.2349C57.7055 33.3537 58.6752 34.2029 59.8549 34.5625L60.7146 34.8222C63.5138 35.6814 65.3933 38.2187 65.3933 41.1457V44.8819C66.383 45.3214 67.1128 46.2405 67.2228 47.3194C67.3127 48.1685 67.0328 49.0176 66.453 49.657C65.9031 50.2963 65.0834 50.656 64.2336 50.656Z" fill="white"/>
<path d="M64.2627 46.9198H57.8645C57.2247 46.9198 56.7148 46.4004 56.7148 45.771C56.7148 45.1317 57.2347 44.6222 57.8645 44.6222H64.2627C64.9025 44.6222 65.4124 45.1417 65.4124 45.771C65.4124 46.4004 64.8925 46.9198 64.2627 46.9198Z" fill="white"/>
<path d="M29.264 43.0937H23.6256C22.9858 43.0937 22.4759 42.5743 22.4759 41.9449V37.5594H18.0872C17.4473 37.5594 16.9375 37.04 16.9375 36.4106V30.7764C16.9375 30.1371 17.4573 29.6276 18.0872 29.6276H22.4759V25.2421C22.4759 24.6027 22.9958 24.0933 23.6256 24.0933H29.264C29.9038 24.0933 30.4136 24.6127 30.4136 25.2421V29.6276H34.8024C35.4422 29.6276 35.9521 30.147 35.9521 30.7764V36.4106C35.9521 37.05 35.4322 37.5594 34.8024 37.5594H30.4136V41.9449C30.4236 42.5743 29.9038 43.0937 29.264 43.0937ZM24.7753 40.7961H28.1143V36.4106C28.1143 35.7713 28.6342 35.2618 29.264 35.2618H33.6527V31.9252H29.264C28.6242 31.9252 28.1143 31.4058 28.1143 30.7764V26.3909H24.7753V30.7764C24.7753 31.4157 24.2554 31.9252 23.6256 31.9252H19.2368V35.2618H23.6256C24.2654 35.2618 24.7753 35.7813 24.7753 36.4106V40.7961Z" fill="white"/>
<path d="M43.97 41.8351C43.3302 41.8351 42.8203 41.3156 42.8203 40.6863V24.6627C42.8203 24.0234 43.3402 23.5139 43.97 23.5139C44.6098 23.5139 45.1197 24.0334 45.1197 24.6627V40.6863C45.1197 41.3256 44.5998 41.8351 43.97 41.8351Z" fill="white"/>
<path d="M57.1462 35.3317H50.5481C49.9083 35.3317 49.3984 34.8122 49.3984 34.1829C49.3984 33.5435 49.9183 33.0341 50.5481 33.0341H57.1462C57.786 33.0341 58.2959 33.5535 58.2959 34.1829C58.2959 34.8122 57.776 35.3317 57.1462 35.3317Z" fill="white"/>
<path d="M35.9718 19.9975H20.3762C19.7364 19.9975 19.2266 19.478 19.2266 18.8486V16.7908C19.2266 15.1425 20.5662 13.8038 22.2157 13.8038H34.1223C35.7718 13.8038 37.1115 15.1425 37.1115 16.7908V18.8486C37.1215 19.488 36.6016 19.9975 35.9718 19.9975ZM21.5259 17.6998H34.8121V16.7908C34.8121 16.4112 34.5022 16.1015 34.1223 16.1015H22.2157C21.8358 16.1015 21.5259 16.4112 21.5259 16.7908V17.6998Z" fill="white"/>
<path d="M33.3524 16.1015H22.9954C22.3556 16.1015 21.8457 15.5821 21.8457 14.9527V12.3054C21.8457 8.81902 24.6849 5.98193 28.1739 5.98193C31.6629 5.98193 34.5021 8.81902 34.5021 12.3054V14.9527C34.5021 15.5821 33.9822 16.1015 33.3524 16.1015ZM24.145 13.7939H32.2027V12.2954C32.2027 10.0777 30.3933 8.26958 28.1739 8.26958C25.9545 8.26958 24.145 10.0777 24.145 12.2954V13.7939Z" fill="white"/>
<path d="M36.3315 9.70813C35.7916 9.70813 35.3118 9.32852 35.2018 8.78907C35.0718 8.16971 35.4817 7.56033 36.1015 7.43047L42.0599 6.2317C42.6797 6.10183 43.2895 6.51141 43.4194 7.13078C43.5494 7.75014 43.1395 8.35951 42.5197 8.48938L36.5614 9.68815C36.4814 9.70813 36.4115 9.70813 36.3315 9.70813Z" fill="white"/>
<path d="M33.8332 6.3515C33.5433 6.3515 33.2534 6.24161 33.0234 6.02184C32.5736 5.58229 32.5636 4.85304 33.0034 4.39351L36.4825 0.847154C36.9223 0.397616 37.6521 0.387626 38.112 0.827174C38.5619 1.26672 38.5719 1.99597 38.132 2.4555L34.653 6.00186C34.423 6.23162 34.1331 6.3515 33.8332 6.3515Z" fill="white"/>
<path d="M20.0066 9.70813C19.9266 9.70813 19.8566 9.69814 19.7766 9.68815L13.8184 8.48938C13.1985 8.35951 12.7886 7.76013 12.9186 7.13078C13.0486 6.51141 13.6484 6.10183 14.2782 6.2317L20.2365 7.43047C20.8563 7.56033 21.2662 8.15972 21.1363 8.78907C21.0263 9.33851 20.5464 9.70813 20.0066 9.70813Z" fill="white"/>
<path d="M22.5149 6.35153C22.215 6.35153 21.9151 6.23165 21.6951 6.00189L18.2161 2.45553C17.7762 2.006 17.7762 1.27674 18.2361 0.827205C18.686 0.387657 19.4158 0.387657 19.8656 0.847185L23.3447 4.39354C23.7845 4.84308 23.7845 5.57233 23.3247 6.02187C23.0947 6.24164 22.8048 6.35153 22.5149 6.35153Z" fill="white"/>
</svg>
