<?xml version="1.0" encoding="utf-8"?>
<!-- Generator: Adobe Illustrator 27.0.0, SVG Export Plug-In . SVG Version: 6.00 Build 0)  -->
<svg version="1.1" id="Layer_1" xmlns="http://www.w3.org/2000/svg" xmlns:xlink="http://www.w3.org/1999/xlink" x="0px" y="0px"
	 viewBox="0 0 500 48" style="enable-background:new 0 0 500 48;" xml:space="preserve">
<style type="text/css">
	.st0{fill:#231F20;}
	.st1{fill:#27A8E0;}
</style>
<g>
	<polygon class="st0" points="54.83,1.89 43.16,44.92 42.01,44.92 29.73,4 17.94,44.92 16.79,44.92 4.64,1.89 5.78,1.89 
		17.34,42.82 29.13,1.89 30.34,1.89 42.55,42.82 53.69,1.89 	"/>
	<polygon class="st0" points="99.46,44.92 111.14,1.89 112.28,1.89 124.56,42.82 136.36,1.89 137.5,1.89 149.66,44.92 148.52,44.92 
		136.96,4 125.16,44.92 123.96,44.92 111.74,4 100.61,44.92 	"/>
	<path class="st0" d="M77.15,44.92c-2.97,0-5.76-0.56-8.37-1.69c-2.61-1.12-4.89-2.66-6.83-4.6c-1.95-1.95-3.48-4.22-4.6-6.83
		c-1.12-2.61-1.69-5.39-1.69-8.37c0-2.97,0.56-5.77,1.69-8.4c1.12-2.63,2.66-4.92,4.6-6.86c1.95-1.95,4.22-3.48,6.83-4.6
		c2.61-1.12,5.39-1.69,8.37-1.69c2.97,0,5.76,0.56,8.37,1.69c2.61,1.12,4.88,2.66,6.83,4.6c1.95,1.95,3.48,4.23,4.6,6.86
		c1.12,2.63,1.69,5.43,1.69,8.4c0,2.97-0.56,5.76-1.69,8.37c-1.12,2.61-2.66,4.89-4.6,6.83c-1.95,1.95-4.22,3.48-6.83,4.6
		C82.91,44.36,80.12,44.92,77.15,44.92 M77.15,3.03c-2.81,0-5.45,0.53-7.91,1.6c-2.47,1.06-4.63,2.52-6.47,4.36
		c-1.85,1.85-3.3,4.01-4.36,6.5c-1.06,2.49-1.6,5.14-1.6,7.94c0,2.81,0.53,5.45,1.6,7.91c1.06,2.47,2.52,4.63,4.36,6.47
		c1.84,1.85,4,3.3,6.47,4.36c2.47,1.06,5.11,1.6,7.91,1.6c2.81,0,5.45-0.53,7.91-1.6c2.47-1.06,4.62-2.52,6.47-4.36
		c1.85-1.84,3.3-4,4.36-6.47c1.06-2.47,1.6-5.11,1.6-7.91c0-2.81-0.53-5.46-1.6-7.94c-1.06-2.49-2.52-4.65-4.36-6.5
		c-1.85-1.84-4-3.3-6.47-4.36C82.59,3.57,79.96,3.03,77.15,3.03"/>
	<path class="st0" d="M185.3,30.54h-23.83l-6.38,14.39h-1.26l18.9-43.03h1.26l18.96,43.03h-1.26L185.3,30.54z M184.82,29.34
		l-11.43-26l-11.44,26H184.82z"/>
	<polygon class="st0" points="232.37,1.89 232.37,44.92 231.16,44.92 199.09,3.94 199.09,44.92 197.94,44.92 197.94,1.89 
		199.09,1.89 231.16,42.94 231.16,1.89 	"/>
	<polygon class="st0" points="390.81,44.92 402.48,1.89 403.63,1.89 415.9,42.82 427.7,1.89 428.85,1.89 441,44.92 439.86,44.92 
		428.3,4 416.51,44.92 415.3,44.92 403.09,4 391.95,44.92 	"/>
	<polygon class="st0" points="445.17,44.92 456.84,1.89 457.99,1.89 470.27,42.82 482.06,1.89 483.21,1.89 495.36,44.92 
		494.22,44.92 482.66,4 470.87,44.92 469.66,44.92 457.45,4 446.31,44.92 	"/>
	<path class="st0" d="M342.84,27.29c-0.44,2.53-1.3,4.87-2.59,7.01c-1.29,2.15-2.86,4-4.72,5.57c-1.87,1.57-3.97,2.8-6.32,3.7
		c-2.35,0.9-4.84,1.36-7.49,1.36c-2.97,0-5.76-0.56-8.37-1.69c-2.61-1.12-4.89-2.66-6.83-4.6c-1.95-1.95-3.48-4.22-4.6-6.83
		c-1.12-2.61-1.69-5.4-1.69-8.37c0-2.97,0.56-5.77,1.69-8.4c1.12-2.63,2.66-4.92,4.6-6.86c1.94-1.95,4.22-3.48,6.83-4.6
		c2.61-1.12,5.39-1.69,8.37-1.69c2.65,0,5.14,0.45,7.49,1.36c2.35,0.9,4.45,2.15,6.32,3.73c1.87,1.59,3.44,3.45,4.72,5.6
		c1.28,2.15,2.15,4.46,2.59,6.95h-1.14c-0.44-2.33-1.27-4.5-2.5-6.53c-1.22-2.03-2.72-3.77-4.48-5.24
		c-1.77-1.46-3.76-2.62-5.99-3.46c-2.23-0.84-4.56-1.26-7.01-1.26c-2.81,0-5.45,0.53-7.91,1.6c-2.47,1.06-4.62,2.52-6.47,4.36
		c-1.85,1.85-3.3,4.01-4.36,6.5c-1.06,2.49-1.59,5.14-1.59,7.94c0,2.81,0.53,5.45,1.59,7.91c1.06,2.47,2.52,4.63,4.36,6.47
		c1.85,1.85,4,3.3,6.47,4.37c2.47,1.06,5.11,1.59,7.91,1.59c2.45,0,4.79-0.42,7.01-1.26c2.23-0.84,4.22-2,5.99-3.46
		c1.77-1.46,3.26-3.2,4.48-5.21c1.22-2.01,2.06-4.19,2.5-6.56H342.84z"/>
	<path class="st0" d="M368.49,44.92c-2.97,0-5.76-0.56-8.37-1.69c-2.61-1.12-4.89-2.66-6.83-4.6c-1.95-1.95-3.48-4.22-4.6-6.83
		c-1.12-2.61-1.69-5.39-1.69-8.37c0-2.97,0.56-5.77,1.69-8.4c1.12-2.63,2.66-4.92,4.6-6.86c1.95-1.95,4.22-3.48,6.83-4.6
		c2.61-1.12,5.4-1.69,8.37-1.69c2.97,0,5.76,0.56,8.37,1.69c2.61,1.12,4.88,2.66,6.83,4.6c1.95,1.95,3.48,4.23,4.6,6.86
		c1.12,2.63,1.69,5.43,1.69,8.4c0,2.97-0.56,5.76-1.69,8.37c-1.12,2.61-2.66,4.89-4.6,6.83c-1.95,1.95-4.22,3.48-6.83,4.6
		C374.25,44.36,371.46,44.92,368.49,44.92 M368.49,3.03c-2.81,0-5.45,0.53-7.91,1.6c-2.47,1.06-4.63,2.52-6.47,4.36
		c-1.85,1.85-3.3,4.01-4.36,6.5c-1.06,2.49-1.59,5.14-1.59,7.94c0,2.81,0.53,5.45,1.59,7.91c1.06,2.47,2.52,4.63,4.36,6.47
		c1.85,1.85,4,3.3,6.47,4.36c2.47,1.06,5.1,1.6,7.91,1.6c2.81,0,5.45-0.53,7.91-1.6c2.47-1.06,4.62-2.52,6.47-4.36
		c1.85-1.84,3.3-4,4.36-6.47c1.06-2.47,1.6-5.11,1.6-7.91c0-2.81-0.53-5.46-1.6-7.94c-1.06-2.49-2.52-4.65-4.36-6.5
		c-1.85-1.84-4-3.3-6.47-4.36C373.94,3.57,371.3,3.03,368.49,3.03"/>
	<path class="st1" d="M263.49,6.96l6.69,7.56c0.66,0.75,1.73,0.98,2.65,0.58l9.1-4.03c2.01-0.89,4,1.29,2.94,3.21l-4.97,8.98
		c-0.47,0.85-0.36,1.9,0.28,2.62l6.79,7.77c1.46,1.67-0.07,4.25-2.24,3.75l-9.64-2.2c-0.99-0.23-2.01,0.23-2.51,1.11l-4.86,8.61
		c-1.09,1.94-4.03,1.34-4.28-0.87l-1.18-10.25c-0.11-0.96-0.81-1.75-1.75-1.97l-9.99-2.36c-2.14-0.51-2.41-3.44-0.4-4.34l9.1-4.03
		c0.91-0.4,1.46-1.36,1.35-2.35l-1.1-10.04C259.25,6.51,262.01,5.29,263.49,6.96z"/>
</g>
</svg>
