<?xml version="1.0" encoding="utf-8"?>
<!-- Generator: Adobe Illustrator 27.0.0, SVG Export Plug-In . SVG Version: 6.00 Build 0)  -->
<svg version="1.1" id="Layer_1" xmlns="http://www.w3.org/2000/svg" xmlns:xlink="http://www.w3.org/1999/xlink" x="0px" y="0px"
	 viewBox="0 0 47.19 48" style="enable-background:new 0 0 47.19 48;" xml:space="preserve">
<style type="text/css">
	.st0{fill:url(#SVGID_1_);}
	.st1{fill:url(#SVGID_00000025401937093663163670000008747861018450835087_);}
	.st2{fill:url(#SVGID_00000050654104324766105050000018079336372791999909_);}
	.st3{fill:url(#SVGID_00000124876686778496811370000012830308268399138209_);}
	.st4{fill:url(#SVGID_00000168838989693498806950000005517240740529687172_);}
</style>
<g>
	<g>
		<linearGradient id="SVGID_1_" gradientUnits="userSpaceOnUse" x1="1.1498" y1="24.4526" x2="59.6934" y2="23.9076">
			<stop  offset="0" style="stop-color:#F27039"/>
			<stop  offset="0.3557" style="stop-color:#99220F"/>
			<stop  offset="0.6769" style="stop-color:#F4823B"/>
			<stop  offset="0.851" style="stop-color:#79080A"/>
			<stop  offset="1" style="stop-color:#D44D23"/>
		</linearGradient>
		<path class="st0" d="M39.25,23.51c0.22-0.47,0.41-0.92,0.59-1.35c0.19-0.43,0.36-0.84,0.53-1.21l0.21-0.43h-0.52l-0.19,0.39
			c-0.13,0.27-0.26,0.55-0.39,0.85c-0.25,0.54-0.51,1.12-0.82,1.74c-0.09,0.18-0.18,0.37-0.28,0.56c-0.17,0.33-0.35,0.67-0.54,1.02
			c-0.31,0.56-0.61,1.08-0.9,1.58c-0.1,0.17-0.21,0.35-0.31,0.51c-0.48,0.79-0.94,1.5-1.4,2.16c-0.11,0.16-0.22,0.32-0.34,0.47
			c-0.03,0.04-0.06,0.09-0.09,0.13c-0.43,0.58-0.87,1.17-1.35,1.75c-0.12,0.15-0.24,0.29-0.36,0.44c-0.52,0.6-1.07,1.18-1.66,1.71
			c-0.05,0.05-0.1,0.1-0.16,0.14c-0.09,0.08-0.18,0.15-0.28,0.22c-0.63,0.5-1.27,0.86-1.92,1.07c-0.19,0.06-0.38,0.12-0.57,0.16
			c-0.33,0.07-0.66,0.1-0.99,0.1c-0.27,0-0.65,0-1.04-0.21c-0.37-0.2-0.56-0.71-0.56-1.53c0-1.24,0.35-2.52,1.03-3.8
			c0.68-1.28,1.54-2.55,2.56-3.77c1.01-1.22,2.15-2.46,3.37-3.68c1.22-1.22,2.35-2.41,3.37-3.55c0.58-0.65,1.12-1.29,1.6-1.92
			c0.23-0.3,0.44-0.59,0.64-0.88c0.11-0.16,0.22-0.32,0.33-0.48c0.69-1.05,1.04-2.04,1.04-2.95c0-0.42-0.06-0.82-0.17-1.18
			c-0.06-0.19-0.13-0.37-0.21-0.54c-0.01-0.02-0.02-0.04-0.03-0.06c-0.28-0.52-0.85-0.79-1.71-0.79c-0.79,0-1.66,0.44-2.59,1.32
			c-0.93,0.87-1.87,2.02-2.79,3.42c-0.92,1.4-1.85,3-2.75,4.77c-0.77,1.52-1.49,3.08-2.12,4.63l-0.09,0.16
			c-0.3,0.53-0.61,1.09-0.93,1.69c-0.66,1.27-1.41,2.6-2.2,3.95c-0.79,1.35-1.66,2.55-2.57,3.76c-0.86,1.16-1.74,2.12-2.6,2.87
			c-0.83,0.72-1.42,1.11-2.14,1.11c-0.64,0-1.02-0.14-1.25-0.47c-0.26-0.38-0.4-0.87-0.4-1.46c0-1.36,0.36-2.78,1.07-4.2
			c0.71-1.43,1.6-2.86,2.65-4.26c1.04-1.4,2.19-2.79,3.41-4.13c1.24-1.37,2.39-2.67,3.42-3.87c1.05-1.23,1.94-2.37,2.66-3.38
			c0.72-1.02,1.09-1.94,1.09-2.72c0-2.24-1.17-3.37-3.46-3.37c-1.62,0-3.25,0.21-4.88,0.62c-0.19,0.05-0.38,0.1-0.56,0.15
			c-0.65,0.18-1.3,0.4-1.95,0.65c-0.18,0.07-0.35,0.14-0.53,0.21c-0.36,0.15-0.73,0.31-1.09,0.48c-0.2,0.09-0.39,0.19-0.58,0.29
			c-0.17,0.08-0.34,0.16-0.51,0.25c-0.54,0.28-1.07,0.58-1.6,0.88c-0.16,0.1-0.33,0.19-0.49,0.29c-0.52,0.32-1.03,0.65-1.53,1
			c-0.16,0.11-0.32,0.22-0.47,0.33c-0.56,0.4-1.1,0.82-1.62,1.25c-0.15,0.12-0.31,0.25-0.46,0.37c-0.29,0.24-0.57,0.49-0.85,0.75
			c-0.26,0.24-0.51,0.48-0.76,0.72c-0.15,0.14-0.29,0.29-0.43,0.43c-0.61,0.62-1.19,1.25-1.74,1.9c-0.14,0.16-0.28,0.33-0.41,0.49
			c-0.64,0.79-1.22,1.6-1.76,2.43c-0.12,0.19-0.24,0.37-0.35,0.56c-0.14,0.22-0.27,0.44-0.4,0.67c-0.51,0.9-0.94,1.78-1.28,2.66
			c-0.08,0.21-0.16,0.41-0.23,0.62c-0.45,1.31-0.69,2.59-0.74,3.83c-0.01,0.14-0.01,0.28-0.01,0.42c0,0.06,0,0.13,0.01,0.19
			c0.03,1,0.25,1.84,0.68,2.49c0.25,0.38,0.58,0.66,0.99,0.83c0.22,0.09,0.46,0.16,0.72,0.19C3.44,35.99,3.58,36,3.74,36
			c1,0,2.36,0,3.98-1.22c1.55-1.16,3.12-2.56,4.68-4.14c1.55-1.58,2.99-3.17,4.27-4.72c0.76-0.92,1.4-1.71,1.9-2.36
			c-0.29,0.44-0.59,0.92-0.9,1.59c-0.57,1.26-1.12,2.55-1.62,3.82c-0.51,1.29-0.93,2.51-1.26,3.65c-0.33,1.14-0.5,2.11-0.5,2.89
			c0,2,0.77,3.01,2.29,3.01c0.36,0,0.79-0.11,1.24-0.31c0.21-0.09,0.41-0.19,0.62-0.31c0.32-0.19,0.64-0.41,0.93-0.65
			c0.9-0.78,1.79-1.76,2.66-2.93c0.81-1.08,1.68-2.3,2.59-3.8c0.53-0.88,1.02-1.72,1.49-2.55c-0.22,0.66-0.41,1.3-0.58,1.92
			c-0.42,1.53-0.63,2.79-0.63,3.74c0,0.61,0.14,1.17,0.41,1.68c0.3,0.56,0.92,0.89,1.66,0.89c0.66,0,1.28-0.08,1.86-0.23
			c0.19-0.05,0.38-0.11,0.56-0.17c0.69-0.25,1.32-0.61,1.88-1.08c0.04-0.03,0.07-0.07,0.11-0.1c0.14-0.12,0.28-0.25,0.42-0.38
			c0.54-0.51,1.1-1.1,1.7-1.81c0.12-0.14,0.24-0.29,0.36-0.44c0.4-0.49,0.81-1.02,1.25-1.61c0.09-0.12,0.17-0.23,0.26-0.35
			c0.11-0.15,0.22-0.31,0.33-0.47c0.48-0.69,0.96-1.44,1.47-2.26c0.1-0.17,0.21-0.34,0.31-0.51c0.27-0.46,0.55-0.95,0.84-1.46
			c0.24-0.43,0.45-0.84,0.65-1.24C39.07,23.88,39.16,23.69,39.25,23.51z M17.28,24.33c-1.19,1.49-2.57,3.06-4.09,4.67
			c-1.53,1.62-3.07,3.05-4.58,4.27c-1.51,1.22-2.76,1.83-3.7,1.83c-0.1,0-0.2-0.01-0.29-0.02c-0.25-0.04-0.46-0.12-0.63-0.26
			c-0.31-0.25-0.47-0.68-0.47-1.29c0-0.72,0.18-1.51,0.54-2.38c0.1-0.25,0.21-0.5,0.34-0.75c0.24-0.49,0.53-0.99,0.87-1.52
			c0.4-0.62,0.85-1.25,1.34-1.87c0.18-0.23,0.36-0.46,0.56-0.69c0.63-0.75,1.31-1.51,2.05-2.25c0.08-0.08,0.17-0.17,0.26-0.25
			c0.09-0.09,0.19-0.19,0.28-0.28c1.81-1.75,3.91-3.39,6.24-4.85c2.29-1.44,4.61-2.53,6.9-3.24c-0.48,0.96-1.03,1.99-1.61,3.05
			c-0.62,1.13-1.18,2.06-1.66,2.78C19.25,21.81,18.46,22.84,17.28,24.33z"/>
		
			<linearGradient id="SVGID_00000012467989893215492990000008613736144244636815_" gradientUnits="userSpaceOnUse" x1="0.9632" y1="4.4111" x2="59.5068" y2="3.8661">
			<stop  offset="0" style="stop-color:#F27039"/>
			<stop  offset="0.3557" style="stop-color:#99220F"/>
			<stop  offset="0.6769" style="stop-color:#F4823B"/>
			<stop  offset="0.851" style="stop-color:#79080A"/>
			<stop  offset="1" style="stop-color:#D44D23"/>
		</linearGradient>
		<path style="fill:url(#SVGID_00000012467989893215492990000008613736144244636815_);" d="M42.46,7.3c0.67,0,1.28-0.19,1.84-0.56
			c0.3-0.2,0.58-0.45,0.85-0.76c0.75-0.87,1.14-1.84,1.14-2.86c0-0.54-0.15-1.08-0.46-1.6l0,0C45.52,1,44.96,0.73,44.17,0.73
			c-1.21,0-2.18,0.48-2.87,1.41c-0.48,0.64-0.79,1.3-0.94,1.97c-0.07,0.3-0.1,0.59-0.1,0.89c0,0.67,0.17,1.22,0.51,1.65
			C41.1,7.08,41.67,7.3,42.46,7.3z"/>
	</g>
	<g>
		<g>
			
				<linearGradient id="SVGID_00000032616179073179092110000016876871826169269923_" gradientUnits="userSpaceOnUse" x1="9.8602" y1="44.3188" x2="37.1572" y2="44.3188">
				<stop  offset="0" style="stop-color:#F27039"/>
				<stop  offset="0.3557" style="stop-color:#99220F"/>
				<stop  offset="0.6769" style="stop-color:#F4823B"/>
				<stop  offset="0.851" style="stop-color:#79080A"/>
				<stop  offset="1" style="stop-color:#D44D23"/>
			</linearGradient>
			<path style="fill:url(#SVGID_00000032616179073179092110000016876871826169269923_);" d="M16.57,44.28H13.6v0.86h2.03
				c0,0.24-0.09,0.46-0.28,0.65c-0.18,0.19-0.43,0.34-0.74,0.45c-0.31,0.11-0.65,0.16-1.02,0.16c-0.41,0-0.8-0.08-1.16-0.25
				c-0.36-0.16-0.65-0.4-0.87-0.72c-0.22-0.31-0.33-0.69-0.33-1.14c0-0.4,0.1-0.75,0.31-1.06c0.21-0.31,0.49-0.56,0.85-0.74
				c0.36-0.18,0.76-0.27,1.21-0.27c0.37,0,0.71,0.07,1.03,0.21c0.32,0.14,0.61,0.32,0.87,0.54l0.58-0.63
				c-0.14-0.17-0.34-0.33-0.58-0.48c-0.24-0.15-0.53-0.27-0.85-0.36c-0.32-0.09-0.67-0.14-1.05-0.14c-0.47,0-0.9,0.07-1.3,0.22
				c-0.4,0.15-0.75,0.36-1.05,0.62c-0.3,0.27-0.53,0.58-0.7,0.93c-0.17,0.35-0.25,0.74-0.25,1.16c0,0.46,0.09,0.87,0.26,1.23
				c0.17,0.37,0.4,0.68,0.7,0.93c0.3,0.26,0.64,0.46,1.03,0.59c0.39,0.14,0.8,0.21,1.24,0.21c0.57,0,1.07-0.09,1.5-0.26
				c0.44-0.18,0.78-0.42,1.03-0.73c0.16-0.2,0.29-0.43,0.39-0.71c0.09-0.27,0.14-0.56,0.14-0.86c0-0.07,0-0.14-0.01-0.21
				C16.59,44.42,16.58,44.35,16.57,44.28z"/>
			
				<linearGradient id="SVGID_00000119807654309998808820000012485192194881239442_" gradientUnits="userSpaceOnUse" x1="9.8602" y1="44.3024" x2="37.1572" y2="44.3024">
				<stop  offset="0" style="stop-color:#F27039"/>
				<stop  offset="0.3557" style="stop-color:#99220F"/>
				<stop  offset="0.6769" style="stop-color:#F4823B"/>
				<stop  offset="0.851" style="stop-color:#79080A"/>
				<stop  offset="1" style="stop-color:#D44D23"/>
			</linearGradient>
			<polygon style="fill:url(#SVGID_00000119807654309998808820000012485192194881239442_);" points="18.45,42.28 19.7,42.28 
				19.7,46.33 18.45,46.33 18.45,47.18 21.84,47.18 21.84,46.33 20.59,46.33 20.59,42.28 21.84,42.28 21.84,41.42 18.45,41.42 			
				"/>
			
				<linearGradient id="SVGID_00000161624285103704450160000003913780343574558891_" gradientUnits="userSpaceOnUse" x1="9.8602" y1="44.3024" x2="37.1572" y2="44.3024">
				<stop  offset="0" style="stop-color:#F27039"/>
				<stop  offset="0.3557" style="stop-color:#99220F"/>
				<stop  offset="0.6769" style="stop-color:#F4823B"/>
				<stop  offset="0.851" style="stop-color:#79080A"/>
				<stop  offset="1" style="stop-color:#D44D23"/>
			</linearGradient>
			<path style="fill:url(#SVGID_00000161624285103704450160000003913780343574558891_);" d="M28.95,41.42v1.89
				c0,0.28,0,0.58,0.01,0.89c0.01,0.31,0.02,0.62,0.04,0.93c0.02,0.31,0.05,0.6,0.08,0.87l-4.05-4.59h-0.85v5.76h0.89v-2.4
				c0-0.35-0.02-0.69-0.05-1.04c-0.03-0.35-0.07-0.69-0.1-1.05l4.05,4.48h0.86v-5.76H28.95z"/>
		</g>
	</g>
</g>
</svg>
