<?xml version="1.0" encoding="utf-8"?>
<!-- Generator: Adobe Illustrator 27.0.0, SVG Export Plug-In . SVG Version: 6.00 Build 0)  -->
<svg version="1.1" id="Layer_1" xmlns="http://www.w3.org/2000/svg" xmlns:xlink="http://www.w3.org/1999/xlink" x="0px" y="0px"
	 viewBox="0 0 104.6 48" style="enable-background:new 0 0 104.6 48;" xml:space="preserve">
<style type="text/css">
	.st0{opacity:0.8;}
	.st1{fill:#231F20;}
</style>
<g>
	<g class="st0">
		<g>
			<path class="st1" d="M38.89,29.3c1.9-0.18,3.63-0.26,5.19-0.25c1.56,0.01,2.88,0.08,3.96,0.19c1.08,0.11,1.91,0.25,2.49,0.42
				c0.58,0.17,0.84,0.32,0.78,0.47c-1.72-0.14-3.4-0.2-5.07-0.17c-1.66,0.02-3.28,0.11-4.85,0.25c-2.65,0.25-5.13,0.63-7.42,1.16
				c-2.3,0.52-4.27,1.11-5.92,1.74c-1.65,0.64-2.92,1.28-3.81,1.93c-0.89,0.65-1.28,1.22-1.18,1.7c-1.06-0.15-1.76-0.43-2.12-0.84
				c-0.36-0.41-0.33-0.88,0.07-1.41c0.41-0.53,1.23-1.1,2.46-1.68c1.23-0.59,2.91-1.14,5.03-1.65c1.91-0.5,3.73-0.9,5.46-1.2
				C35.7,29.66,37.34,29.44,38.89,29.3z"/>
			<path class="st1" d="M33.02,46.82c-0.27,0.02-0.47-0.15-0.6-0.52c-0.13-0.37-0.17-0.88-0.12-1.53c0.05-0.65,0.19-1.44,0.44-2.35
				c0.25-0.92,0.61-1.9,1.08-2.97c0.14-0.35,0.32-0.75,0.54-1.2c0.22-0.45,0.46-0.93,0.72-1.43c0.27-0.5,0.55-1.01,0.85-1.52
				c0.3-0.51,0.6-0.99,0.9-1.44c0.29-0.45,0.58-0.85,0.86-1.21c0.28-0.36,0.53-0.64,0.76-0.84c0.15-0.11,0.38-0.18,0.7-0.21
				c0.24-0.02,0.51-0.01,0.79,0.04c0.28,0.04,0.54,0.1,0.76,0.17c0.23,0.07,0.41,0.16,0.55,0.25c0.14,0.09,0.19,0.18,0.16,0.26
				c-1.15,0.9-2.25,2.03-3.3,3.4c-0.45,0.58-0.91,1.25-1.38,2c-0.47,0.75-0.93,1.59-1.37,2.51c-0.44,0.92-0.85,1.92-1.24,3.02
				c-0.39,1.1-0.72,2.29-0.99,3.57L33.02,46.82z"/>
			<path class="st1" d="M37.58,43.93c-0.3-0.18-0.47-0.45-0.5-0.81c-0.03-0.36,0.03-0.75,0.17-1.18c0.14-0.43,0.35-0.89,0.61-1.36
				c0.27-0.48,0.56-0.93,0.87-1.35c0.31-0.43,0.61-0.81,0.91-1.16c0.3-0.35,0.55-0.61,0.76-0.78c0.31,0.02,0.58,0.05,0.8,0.09
				c0.2,0.04,0.37,0.1,0.51,0.18c0.14,0.08,0.19,0.2,0.14,0.35c-0.2,0.11-0.42,0.29-0.68,0.55c-0.25,0.26-0.51,0.55-0.76,0.87
				c-0.26,0.32-0.5,0.65-0.72,1c-0.23,0.35-0.41,0.67-0.57,0.96c-0.15,0.29-0.26,0.54-0.31,0.75c-0.05,0.21-0.03,0.34,0.08,0.38
				c0.01,0.01,0.05,0.02,0.1,0.01c0.14-0.01,0.34-0.11,0.59-0.3c0.25-0.19,0.53-0.43,0.84-0.71s0.62-0.59,0.95-0.92
				c0.32-0.33,0.62-0.64,0.88-0.95c0.26-0.3,0.48-0.56,0.65-0.79c0.17-0.23,0.26-0.38,0.27-0.44c0.09-0.01,0.17,0.01,0.24,0.04
				c0.05,0.02,0.1,0.06,0.14,0.11c0.04,0.05,0.03,0.14-0.01,0.24c-0.75,0.97-1.48,1.83-2.19,2.59c-0.3,0.33-0.61,0.66-0.93,0.98
				c-0.32,0.32-0.63,0.6-0.93,0.85c-0.3,0.25-0.58,0.46-0.85,0.61c-0.27,0.16-0.5,0.24-0.71,0.26C37.8,44.03,37.68,44,37.58,43.93z
				 M43.08,33.88c0.22-0.02,0.42,0.06,0.62,0.24c0.2,0.18,0.3,0.44,0.32,0.79c-0.15,0.05-0.3,0.15-0.43,0.31
				c-0.14,0.15-0.27,0.32-0.4,0.49c-0.13,0.17-0.25,0.34-0.35,0.51c-0.1,0.17-0.21,0.29-0.3,0.37c-0.09,0.07-0.18,0.11-0.27,0.12
				c-0.1,0.01-0.21-0.01-0.32-0.05c-0.11-0.04-0.22-0.11-0.33-0.19c-0.1-0.08-0.19-0.18-0.25-0.27c-0.07-0.1-0.1-0.2-0.09-0.3
				c0.01-0.13,0.1-0.31,0.26-0.53c0.16-0.22,0.33-0.43,0.52-0.64c0.23-0.25,0.49-0.51,0.78-0.78
				C42.88,33.91,42.96,33.89,43.08,33.88z"/>
			<path class="st1" d="M45.45,43.17c-0.17-0.21-0.25-0.44-0.23-0.68c0.02-0.25,0.09-0.5,0.23-0.76c0.14-0.26,0.31-0.51,0.52-0.75
				c0.22-0.24,0.42-0.46,0.62-0.65c0.2-0.18,0.37-0.33,0.52-0.46c0.15-0.12,0.23-0.18,0.24-0.18c-0.17-0.29-0.32-0.55-0.47-0.8
				c-0.15-0.25-0.24-0.46-0.27-0.64c-0.05-0.27,0.02-0.55,0.2-0.83c0.18-0.29,0.42-0.55,0.72-0.78c0.3-0.23,0.63-0.43,1-0.58
				c0.37-0.16,0.71-0.25,1.03-0.28c0.17-0.01,0.32-0.01,0.47,0.02c0.14,0.03,0.27,0.08,0.38,0.16c0.16,0.12,0.23,0.28,0.21,0.5
				c-0.02,0.22-0.09,0.44-0.22,0.66c-0.13,0.23-0.28,0.43-0.48,0.61c-0.19,0.18-0.38,0.31-0.55,0.38c0.19-0.32,0.28-0.53,0.26-0.64
				c-0.02-0.12-0.11-0.17-0.25-0.16c-0.13,0.01-0.29,0.06-0.47,0.15c-0.19,0.09-0.37,0.21-0.54,0.35c-0.17,0.14-0.32,0.28-0.45,0.44
				c-0.13,0.16-0.2,0.31-0.22,0.45c-0.02,0.12-0.01,0.23,0.03,0.34c0.03,0.11,0.08,0.22,0.14,0.33c0.3-0.18,0.62-0.35,0.96-0.51
				c0.34-0.17,0.68-0.32,1.02-0.45c0.33-0.14,0.65-0.26,0.95-0.36c0.3-0.1,0.55-0.17,0.75-0.2c0.1,0,0.18,0.04,0.23,0.1
				c0.05,0.06,0.05,0.11-0.02,0.14c-0.03,0.02-0.16,0.07-0.41,0.15c-0.25,0.08-0.55,0.2-0.9,0.34c-0.35,0.14-0.73,0.32-1.15,0.52
				c-0.41,0.2-0.8,0.43-1.17,0.7c0.2,0.28,0.37,0.62,0.49,1.02c0.12,0.39,0.19,0.77,0.2,1.13c0.01,0.26-0.03,0.51-0.12,0.74
				c-0.09,0.24-0.22,0.44-0.38,0.62c-0.16,0.17-0.35,0.32-0.57,0.43c-0.22,0.11-0.44,0.17-0.68,0.19c-0.28,0.02-0.57-0.02-0.85-0.14
				C45.96,43.66,45.7,43.46,45.45,43.17z M47.49,40.33c-0.27,0.26-0.49,0.49-0.68,0.72c-0.17,0.19-0.31,0.4-0.43,0.61
				c-0.12,0.21-0.14,0.38-0.07,0.52c0.11,0.19,0.27,0.27,0.49,0.25c0.15-0.01,0.31-0.08,0.46-0.2c0.15-0.12,0.26-0.28,0.31-0.47
				c0.08-0.26,0.14-0.53,0.18-0.8c0.04-0.27,0-0.53-0.11-0.78C47.56,40.24,47.51,40.29,47.49,40.33z"/>
			<path class="st1" d="M50.01,42.94c-0.3-0.18-0.46-0.45-0.49-0.81c-0.03-0.36,0.03-0.75,0.17-1.18c0.14-0.43,0.35-0.89,0.61-1.36
				c0.27-0.48,0.56-0.93,0.87-1.35c0.31-0.43,0.61-0.81,0.91-1.16c0.3-0.35,0.55-0.61,0.76-0.78c0.31,0.02,0.58,0.05,0.8,0.09
				c0.2,0.04,0.37,0.1,0.51,0.18c0.14,0.08,0.19,0.2,0.14,0.35c-0.2,0.11-0.43,0.29-0.68,0.55c-0.25,0.26-0.51,0.55-0.76,0.87
				c-0.25,0.32-0.5,0.66-0.72,1c-0.23,0.35-0.41,0.67-0.57,0.96c-0.15,0.29-0.26,0.54-0.31,0.76c-0.05,0.21-0.03,0.34,0.08,0.38
				c0.01,0.01,0.05,0.02,0.1,0.01c0.14-0.01,0.34-0.11,0.59-0.3c0.25-0.19,0.53-0.43,0.84-0.71s0.63-0.59,0.95-0.92
				c0.32-0.33,0.62-0.65,0.88-0.95c0.26-0.3,0.48-0.56,0.65-0.79c0.17-0.23,0.26-0.38,0.27-0.44c0.09-0.01,0.17,0.01,0.24,0.04
				c0.05,0.02,0.1,0.06,0.14,0.11c0.04,0.05,0.03,0.14-0.01,0.24c-0.75,0.97-1.48,1.83-2.19,2.59c-0.3,0.33-0.61,0.66-0.92,0.98
				c-0.32,0.32-0.63,0.6-0.93,0.85c-0.3,0.25-0.58,0.46-0.85,0.61c-0.27,0.16-0.5,0.24-0.71,0.26
				C50.23,43.04,50.11,43.01,50.01,42.94z M55.51,32.9c0.22-0.02,0.43,0.06,0.62,0.24c0.2,0.18,0.3,0.44,0.32,0.79
				c-0.15,0.05-0.3,0.16-0.43,0.31c-0.14,0.15-0.27,0.32-0.4,0.49c-0.13,0.17-0.25,0.34-0.35,0.51c-0.1,0.17-0.2,0.29-0.3,0.37
				c-0.09,0.07-0.18,0.11-0.27,0.12c-0.1,0.01-0.21-0.01-0.32-0.05c-0.11-0.04-0.22-0.11-0.32-0.19c-0.1-0.09-0.19-0.18-0.26-0.27
				c-0.07-0.1-0.1-0.2-0.09-0.3c0.02-0.13,0.1-0.31,0.26-0.53c0.16-0.22,0.33-0.43,0.52-0.64c0.23-0.25,0.48-0.51,0.78-0.78
				C55.31,32.93,55.39,32.91,55.51,32.9z"/>
			<path class="st1" d="M64.16,28.98c0.18-0.01,0.36,0.01,0.53,0.07c0.17,0.07,0.33,0.15,0.48,0.25c0.14,0.11,0.27,0.23,0.38,0.35
				c0.11,0.13,0.18,0.24,0.21,0.35c-0.14,0.02-0.36,0.18-0.66,0.46c-0.29,0.28-0.64,0.67-1.03,1.15c0.58-0.05,1.12-0.06,1.61-0.03
				c0.5,0.03,0.92,0.07,1.28,0.14c0.36,0.06,0.63,0.14,0.83,0.22c0.2,0.09,0.29,0.17,0.28,0.25c-0.4-0.07-0.79-0.12-1.19-0.14
				c-0.4-0.02-0.79-0.02-1.18,0.01c-0.41,0.03-0.82,0.09-1.21,0.16c-0.39,0.08-0.77,0.17-1.14,0.27c-0.42,0.55-0.85,1.17-1.27,1.84
				c-0.42,0.67-0.81,1.35-1.16,2.05c-0.35,0.7-0.65,1.38-0.89,2.06c-0.24,0.68-0.37,1.31-0.41,1.9c0.03,0.17,0.07,0.26,0.14,0.28
				c0.07,0.02,0.15,0.03,0.25,0.02c0.09-0.01,0.23-0.09,0.42-0.26c0.19-0.16,0.4-0.37,0.63-0.61c0.23-0.24,0.46-0.5,0.71-0.79
				c0.24-0.29,0.47-0.56,0.67-0.82c0.21-0.26,0.38-0.49,0.51-0.69c0.14-0.19,0.21-0.31,0.23-0.37c0.08-0.01,0.15,0,0.22,0.02
				c0.05,0.01,0.1,0.03,0.14,0.06c0.04,0.03,0.05,0.08,0.03,0.14c-0.01,0.04-0.09,0.18-0.26,0.42c-0.16,0.24-0.38,0.53-0.65,0.88
				c-0.27,0.35-0.57,0.72-0.91,1.13c-0.33,0.4-0.67,0.78-1,1.13c-0.33,0.35-0.66,0.66-0.98,0.92c-0.32,0.26-0.59,0.42-0.82,0.48
				c-0.1,0.01-0.2-0.02-0.28-0.08c-0.08-0.06-0.15-0.13-0.21-0.22c-0.06-0.09-0.11-0.18-0.15-0.28c-0.04-0.1-0.07-0.19-0.09-0.28
				c-0.11-0.42-0.13-0.92-0.06-1.48c0.07-0.57,0.21-1.19,0.42-1.86c0.21-0.67,0.47-1.38,0.8-2.12c0.32-0.74,0.7-1.48,1.12-2.23
				c-0.32,0.18-0.58,0.33-0.75,0.45c-0.18,0.12-0.31,0.22-0.4,0.31c-0.08,0.09-0.14,0.16-0.17,0.23c-0.02,0.07-0.05,0.14-0.07,0.2
				c-0.07-0.01-0.13-0.08-0.18-0.21c-0.06-0.13-0.08-0.3-0.08-0.51c0-0.21,0.05-0.43,0.14-0.67c0.09-0.24,0.26-0.48,0.52-0.71
				c0.15-0.09,0.32-0.17,0.51-0.25c0.2-0.08,0.39-0.16,0.58-0.23c0.19-0.07,0.37-0.13,0.53-0.19c0.16-0.05,0.29-0.09,0.38-0.11
				c0.68-1.05,1.4-2.03,2.16-2.92C63.83,29.04,63.98,28.99,64.16,28.98z"/>
			<path class="st1" d="M61.92,42c-0.38-0.22-0.59-0.54-0.63-0.97c-0.04-0.43,0.04-0.91,0.24-1.44c0.21-0.53,0.51-1.08,0.91-1.65
				c0.4-0.57,0.85-1.09,1.35-1.57c0.49-0.48,1.01-0.87,1.55-1.2c0.54-0.32,1.06-0.5,1.55-0.54c0.08-0.01,0.14,0,0.18,0.01
				c0.47,0.04,0.81,0.16,1.02,0.38c0.21,0.21,0.35,0.44,0.42,0.68c0.08,0.28,0.08,0.58,0.01,0.92c-0.06-0.27-0.22-0.46-0.47-0.59
				c-0.26-0.12-0.55-0.17-0.87-0.15c-0.39,0.03-0.74,0.16-1.06,0.38c-0.33,0.23-0.7,0.55-1.1,0.94c-0.4,0.39-0.76,0.79-1.07,1.19
				c-0.32,0.41-0.56,0.79-0.72,1.14c-0.16,0.35-0.18,0.6-0.05,0.75c0.01,0.01,0.04,0.02,0.08,0.01c0.1-0.01,0.27-0.08,0.5-0.22
				c0.23-0.14,0.48-0.3,0.76-0.49c0.28-0.19,0.56-0.39,0.85-0.6c0.29-0.21,0.54-0.4,0.74-0.56c0.06-0.07,0.15-0.19,0.28-0.35
				c0.12-0.16,0.26-0.34,0.42-0.51c0.16-0.17,0.31-0.33,0.46-0.46c0.15-0.14,0.27-0.21,0.36-0.21c0.1-0.01,0.23,0.01,0.37,0.07
				c0.14,0.05,0.27,0.12,0.39,0.21c0.12,0.09,0.22,0.19,0.3,0.3c0.08,0.11,0.11,0.21,0.09,0.3c-0.3,0.14-0.58,0.35-0.85,0.62
				c-0.26,0.27-0.48,0.55-0.65,0.83c-0.17,0.28-0.28,0.54-0.34,0.78c-0.05,0.23-0.03,0.4,0.09,0.48c0.03,0.02,0.05,0.03,0.08,0.03
				c0.12-0.01,0.29-0.11,0.52-0.29c0.23-0.19,0.49-0.42,0.78-0.71c0.29-0.28,0.59-0.59,0.89-0.93c0.31-0.33,0.58-0.65,0.83-0.94
				c0.25-0.29,0.46-0.55,0.61-0.78c0.16-0.23,0.23-0.36,0.23-0.42l0.06,0c0.03,0,0.05,0.01,0.09,0.05c0.04,0.04,0.05,0.14,0.04,0.31
				c-0.04,0.13-0.16,0.34-0.35,0.64c-0.19,0.29-0.43,0.62-0.71,0.99c-0.28,0.37-0.6,0.75-0.95,1.15c-0.35,0.4-0.71,0.76-1.07,1.09
				s-0.72,0.6-1.06,0.83s-0.65,0.34-0.92,0.36c-0.08,0.01-0.15,0-0.23,0c-0.07-0.01-0.14-0.03-0.21-0.08
				c-0.27-0.16-0.44-0.38-0.51-0.64c-0.07-0.27-0.06-0.55,0.02-0.86c-0.21,0.16-0.46,0.34-0.74,0.54c-0.28,0.2-0.57,0.38-0.85,0.56
				c-0.28,0.18-0.55,0.33-0.81,0.46c-0.26,0.13-0.47,0.2-0.64,0.21C62.03,42.05,61.96,42.03,61.92,42z"/>
		</g>
		<g>
			<path class="st1" d="M24.64,25.59v0.18c0,0-1.9,0-3.66,0c-1.52,0-4.21,0-5.52-1.54c-3-3.43-2.31-10.55-5.87-10.76H8.42v8.27
				c0.03,2.56,0.21,3.86,2.18,3.86v0.18h-9.7v-0.18c1.97,0,2.18-1.3,2.18-3.86V5.26c0-2.59-0.21-3.86-2.18-3.86V1.23h10.94
				c3.35,0,7.7,1.51,7.7,6.1c0,4.03-3.25,5.68-6.56,6.06c3.97,0.81,4.97,3.5,6.49,6.94C20.47,22.57,22.23,25.59,24.64,25.59z
				 M11.04,12.62c2.55,0,2.83-2.49,2.83-5.29c0-2.8-0.86-5.92-2.83-5.92h-0.45c-1.97,0-2.14,1.26-2.18,3.86v7.36
				C9.38,12.62,10.38,12.62,11.04,12.62z"/>
			<path class="st1" d="M43.46,19.54l-1.44,6.21H24.64v-0.18c2,0,2.21-1.26,2.21-3.86V5.21c0-2.56-0.21-3.86-2.21-3.86V1.18H40.9
				l1.19,5.09h-0.18c-1.02-2.28-3.02-4.91-6.53-4.91h-0.88c-2,0-2.18,1.3-2.21,3.86v8.21h0.53c2.7,0,4.91-2.14,4.91-4.53h0.18v9.2
				h-0.18c0-2.39-2.21-4.33-4.91-4.33H32.3l0,7.94c0.03,2.6,0.21,3.86,2.21,3.86h1.97c3.55,0,5.79-3.76,6.81-6.04H43.46z"/>
			<path class="st1" d="M51.11,21.71c0,2.6,0.21,3.86,2.21,3.86v0.18h-9.86v-0.18c2,0,2.18-1.26,2.21-3.86V5.21
				c-0.04-2.56-0.21-3.86-2.21-3.86V1.18h9.86v0.18c-2,0-2.21,1.3-2.21,3.86V21.71z"/>
			<path class="st1" d="M81.22,1.19v0.18c-2.39,0-4.32,2.46-4.32,6.63v17.76h-1.02C75.12,24.85,60.39,5.7,60.03,4.93v14.04
				c-0.16,4.18,1.54,6.62,3.92,6.62v0.18h-8.85v-0.18c2.39,0,4.35-2.46,4.35-6.63V4.67c-1.19-1.69-2.6-3.3-4.11-3.3V1.19h8.18
				l12.83,17.15V7.95c0-4.18-1.6-6.58-3.98-6.58V1.19H81.22z"/>
			<g>
				<path class="st1" d="M99.59,20.91c-0.92-2.25-7.82-19.72-7.82-19.72H91c0,0-2.49,6.37-4.62,11.83l-2.96,7.55
					c-1.34,3.23-2.96,4.68-5.13,5.09v0.18h7.5v-0.18c-2.3,0-2.29-3.2-1.27-6.11c0.31-0.84,0.72-1.92,1.18-3.12h6.32
					c0.99,2.61,1.9,5,2.25,5.99c0.99,2.57,0.74,3.24-0.99,3.24v0.18h10.42v-0.18C101.49,25.66,100.54,23.16,99.59,20.91z
					 M86.05,15.52c0.92-2.38,1.98-5.07,2.83-7.22c0.5,1.28,1.57,4.11,2.77,7.22H86.05z"/>
				<g>
					<path class="st1" d="M100.1,3.34c0,1.2-0.94,2.14-2.17,2.14c-1.21,0-2.18-0.94-2.18-2.14c0-1.17,0.97-2.12,2.18-2.12
						C99.16,1.22,100.1,2.16,100.1,3.34z M96.3,3.34c0,0.94,0.7,1.69,1.65,1.69c0.93,0,1.61-0.75,1.61-1.68
						c0-0.94-0.68-1.7-1.63-1.7S96.3,2.41,96.3,3.34z M97.6,4.45h-0.49V2.33c0.19-0.04,0.46-0.06,0.81-0.06
						c0.4,0,0.58,0.06,0.74,0.15c0.12,0.09,0.21,0.26,0.21,0.46c0,0.23-0.18,0.41-0.44,0.49V3.4c0.21,0.08,0.32,0.23,0.39,0.52
						c0.06,0.32,0.1,0.45,0.15,0.53h-0.53c-0.06-0.08-0.1-0.27-0.17-0.52c-0.04-0.23-0.17-0.34-0.44-0.34H97.6V4.45z M97.61,3.24
						h0.23c0.27,0,0.49-0.09,0.49-0.31c0-0.19-0.14-0.32-0.45-0.32c-0.13,0-0.22,0.01-0.27,0.03V3.24z"/>
				</g>
			</g>
		</g>
	</g>
</g>
</svg>
