<?xml version="1.0" encoding="utf-8"?>
<!-- Generator: Adobe Illustrator 27.0.0, SVG Export Plug-In . SVG Version: 6.00 Build 0)  -->
<svg version="1.1" id="Layer_1" xmlns="http://www.w3.org/2000/svg" xmlns:xlink="http://www.w3.org/1999/xlink" x="0px" y="0px"
	 viewBox="0 0 183.91 48" style="enable-background:new 0 0 183.91 48;" xml:space="preserve">
<style type="text/css">
	.st0{fill:#540F19;}
	.st1{fill:#FFFFFF;}
</style>
<g>
	<rect x="0.02" y="0.09" class="st0" width="183.88" height="47.82"/>
	<path class="st1" d="M17.13,26.45l-0.05,0.2c-0.35,1.52-0.93,2.65-1.72,3.35c-0.79,0.7-1.74,1.05-2.84,1.05
		c-1.49,0-2.72-0.56-3.65-1.66c-0.94-1.11-1.42-3.01-1.42-5.66c0-2.49,0.48-4.31,1.44-5.41c0.95-1.09,2.2-1.64,3.72-1.64
		c1.1,0,2.04,0.31,2.81,0.92c0.76,0.61,1.28,1.46,1.52,2.52l0.04,0.19l4.66-1.11L21.59,19c-0.49-1.74-1.25-3.1-2.24-4.03
		c-1.67-1.58-3.86-2.38-6.52-2.38c-3.04,0-5.53,1.02-7.4,3.02c-1.87,2-2.81,4.84-2.81,8.44c0,3.4,0.94,6.13,2.8,8.1
		c1.86,1.97,4.27,2.97,7.15,2.97c2.33,0,4.28-0.59,5.81-1.74c1.52-1.16,2.62-2.94,3.28-5.31l0.05-0.18L17.13,26.45z"/>
	<path class="st1" d="M36.84,13.08l-0.05-0.12h-4.83l-8.49,21.8h5l1.77-4.87h8.3l1.87,4.87h5.12L36.84,13.08z M37,25.9h-5.29
		l2.62-7.2L37,25.9z"/>
	<path class="st1" d="M63.6,15.45c-0.85-1.11-1.92-1.83-3.19-2.17c-0.82-0.22-2.52-0.33-5.19-0.33h-7.13v21.8h4.71v-8.08h2.63
		c1.96,0,3.48-0.1,4.53-0.31c0.78-0.17,1.56-0.52,2.31-1.05c0.76-0.53,1.39-1.26,1.88-2.18c0.49-0.92,0.74-2.07,0.74-3.41
		C64.88,18,64.45,16.55,63.6,15.45z M52.8,16.96h1.9c1.54,0,2.57,0.05,3.08,0.14c0.65,0.12,1.2,0.42,1.63,0.89
		c0.42,0.47,0.64,1.07,0.64,1.8c0,0.59-0.15,1.11-0.46,1.56c-0.3,0.44-0.73,0.77-1.26,0.98c-0.55,0.21-1.68,0.32-3.35,0.32H52.8
		V16.96z"/>
	<rect x="68.66" y="12.96" class="st1" width="4.71" height="21.8"/>
	<polygon class="st1" points="76.32,12.96 76.32,16.96 82.68,16.96 82.68,34.76 87.39,34.76 87.39,16.96 93.73,16.96 93.73,12.96 	
		"/>
	<path class="st1" d="M105.77,13.08l-0.05-0.12h-4.83l-8.49,21.8h5l1.77-4.87h8.3l1.87,4.87h5.12L105.77,13.08z M105.93,25.9h-5.29
		l2.62-7.2L105.93,25.9z"/>
	<polygon class="st1" points="121.84,30.77 121.84,13.13 117.14,13.13 117.14,34.76 132.6,34.76 132.6,30.77 	"/>
	<path class="st1" d="M160.81,20.62c-1.27-1.4-2.9-2.12-4.83-2.12c-1.63,0-3.08,0.63-4.31,1.87v-7.42h-4.49v21.8h4.2v-1.91
		c0.56,0.67,1.22,1.2,1.95,1.58c0.89,0.46,1.8,0.69,2.71,0.69c1.85,0,3.44-0.74,4.74-2.21c1.29-1.46,1.94-3.56,1.94-6.25
		C162.71,24.05,162.07,22.02,160.81,20.62z M158.12,26.85c0,1.61-0.31,2.8-0.91,3.54c-0.61,0.73-1.31,1.09-2.17,1.09
		c-1.12,0-1.99-0.51-2.67-1.55c-0.48-0.73-0.73-1.9-0.73-3.46c0-1.5,0.31-2.63,0.93-3.36c0.62-0.73,1.38-1.08,2.31-1.08
		c0.95,0,1.71,0.36,2.32,1.11C157.81,23.88,158.12,25.13,158.12,26.85z"/>
	<path class="st1" d="M180.23,34.48c-0.35-0.72-0.59-1.41-0.72-2.04c-0.13-0.63-0.19-1.63-0.19-2.98l0.04-4.79
		c0-1.83-0.19-3.06-0.57-3.77c-0.38-0.7-1.05-1.28-1.98-1.73c-0.92-0.44-2.32-0.67-4.17-0.67c-2.05,0-3.62,0.38-4.67,1.12
		c-1.06,0.74-1.81,1.9-2.24,3.44l-0.06,0.2l4.09,0.74l0.05-0.15c0.24-0.68,0.55-1.16,0.92-1.42c0.37-0.26,0.91-0.4,1.6-0.4
		c1.03,0,1.73,0.15,2.08,0.46c0.34,0.3,0.52,0.81,0.52,1.54v0.28c-0.75,0.29-2.03,0.61-3.83,0.95c-1.43,0.27-2.55,0.6-3.31,0.97
		c-0.79,0.38-1.4,0.94-1.84,1.65c-0.44,0.71-0.66,1.54-0.66,2.44c0,1.37,0.49,2.53,1.44,3.43c0.95,0.9,2.27,1.35,3.91,1.35
		c0.93,0,1.81-0.18,2.63-0.53c0.73-0.31,1.43-0.77,2.08-1.36c0.02,0.05,0.03,0.11,0.05,0.19c0.16,0.55,0.29,0.95,0.4,1.23l0.05,0.12
		h4.5L180.23,34.48z M174.94,27.38v0.56c0,0.96-0.05,1.61-0.15,1.95c-0.14,0.49-0.45,0.92-0.91,1.26c-0.64,0.46-1.31,0.69-2.01,0.69
		c-0.62,0-1.11-0.19-1.5-0.57c-0.39-0.38-0.58-0.83-0.58-1.35c0-0.52,0.24-0.95,0.72-1.29c0.33-0.22,1.06-0.45,2.17-0.69
		C173.65,27.72,174.41,27.54,174.94,27.38z"/>
	<g>
		<path class="st1" d="M7.16,37.73c-0.19-0.13-0.43-0.22-0.72-0.27c-0.2-0.04-0.49-0.05-0.87-0.05H3.4v5.75h0.83v-2.31h1.42
			c0.81,0,1.38-0.17,1.69-0.51c0.31-0.34,0.47-0.76,0.47-1.25c0-0.29-0.06-0.55-0.18-0.79C7.51,38.05,7.35,37.86,7.16,37.73z
			 M5.65,40.1H4.22v-1.95h1.41c0.34,0,0.57,0.02,0.69,0.05c0.19,0.05,0.34,0.16,0.45,0.32c0.11,0.16,0.17,0.36,0.17,0.59
			c0,0.31-0.1,0.56-0.29,0.73C6.46,40.01,6.12,40.1,5.65,40.1z"/>
		<path class="st1" d="M12.92,41.5c-0.09,0.25-0.16,0.47-0.22,0.66c-0.07-0.24-0.15-0.48-0.23-0.7l-0.89-2.49h-0.82l0.04,0.11
			c-0.23-0.13-0.46-0.2-0.68-0.2c-0.17,0-0.33,0.05-0.47,0.15c-0.12,0.08-0.25,0.24-0.38,0.46v-0.52h-0.7v4.19h0.77v-2.19
			c0-0.29,0.04-0.56,0.11-0.8c0.05-0.15,0.13-0.28,0.25-0.36c0.24-0.18,0.57-0.17,0.88,0.02l0.04,0.02l0.23-0.63l1.49,3.92
			l0.01,0.02h0.7l1.56-4.13l0.02-0.05h-0.8L12.92,41.5z"/>
		<rect x="15.15" y="38.97" class="st1" width="0.77" height="4.19"/>
		<rect x="15.15" y="37.4" class="st1" width="0.77" height="0.88"/>
		<path class="st1" d="M21.89,39.15c-0.27-0.18-0.59-0.28-0.95-0.28c-0.27,0-0.51,0.05-0.7,0.16c-0.16,0.09-0.31,0.22-0.45,0.39
			v-0.46h-0.71v5.76h0.77v-1.94c0.11,0.12,0.24,0.22,0.4,0.3c0.19,0.1,0.41,0.15,0.64,0.15c0.32,0,0.64-0.09,0.93-0.27
			c0.29-0.18,0.52-0.45,0.67-0.79c0.15-0.34,0.23-0.73,0.23-1.15c0-0.4-0.07-0.76-0.21-1.1C22.37,39.6,22.16,39.34,21.89,39.15z
			 M21.93,41.03c0,0.54-0.11,0.94-0.32,1.19c-0.21,0.25-0.47,0.38-0.77,0.38c-0.29,0-0.54-0.12-0.75-0.37
			c-0.21-0.24-0.31-0.63-0.31-1.15c0-0.52,0.11-0.92,0.33-1.18c0.22-0.27,0.47-0.4,0.76-0.4c0.29,0,0.54,0.13,0.74,0.38
			C21.82,40.13,21.93,40.51,21.93,41.03z"/>
		<path class="st1" d="M25.17,38.87c-0.52,0-0.96,0.16-1.32,0.47c-0.43,0.37-0.65,0.95-0.65,1.72c0,0.7,0.18,1.25,0.54,1.62
			c0.36,0.37,0.84,0.57,1.42,0.57c0.36,0,0.7-0.09,1.01-0.26c0.31-0.17,0.55-0.41,0.71-0.72c0.16-0.31,0.24-0.73,0.24-1.27
			c0-0.66-0.18-1.18-0.55-1.56C26.22,39.07,25.74,38.87,25.17,38.87z M25.17,42.6c-0.34,0-0.62-0.13-0.84-0.38
			C24.11,41.96,24,41.57,24,41.06c0-0.51,0.11-0.9,0.33-1.15c0.22-0.25,0.5-0.38,0.84-0.38c0.33,0,0.61,0.13,0.83,0.38
			c0.22,0.25,0.34,0.63,0.34,1.13c0,0.53-0.11,0.92-0.33,1.18C25.78,42.47,25.5,42.6,25.17,42.6z"/>
		<path class="st1" d="M30.42,40.91c-0.2-0.08-0.55-0.19-1.04-0.32c-0.34-0.09-0.54-0.15-0.61-0.18c-0.11-0.05-0.2-0.1-0.25-0.17
			c-0.05-0.06-0.08-0.14-0.08-0.22c0-0.13,0.06-0.24,0.19-0.34c0.13-0.1,0.35-0.15,0.66-0.15c0.26,0,0.46,0.06,0.6,0.17
			c0.14,0.11,0.23,0.27,0.25,0.47l0.01,0.04l0.76-0.1l-0.01-0.04c-0.04-0.27-0.13-0.49-0.25-0.65c-0.12-0.16-0.31-0.3-0.56-0.39
			c-0.25-0.09-0.54-0.14-0.86-0.14c-0.22,0-0.42,0.03-0.61,0.08c-0.19,0.06-0.34,0.13-0.45,0.21c-0.15,0.11-0.27,0.24-0.35,0.4
			c-0.09,0.16-0.13,0.34-0.13,0.53c0,0.21,0.05,0.4,0.16,0.57c0.1,0.17,0.26,0.31,0.47,0.41c0.2,0.09,0.56,0.21,1.07,0.34
			c0.37,0.09,0.61,0.17,0.7,0.23c0.13,0.08,0.19,0.19,0.19,0.34c0,0.16-0.07,0.31-0.22,0.43c-0.15,0.12-0.38,0.19-0.69,0.19
			c-0.31,0-0.55-0.07-0.72-0.21c-0.17-0.14-0.27-0.35-0.31-0.61l-0.01-0.04l-0.77,0.12l0.01,0.04c0.08,0.44,0.26,0.78,0.55,1.01
			c0.29,0.23,0.7,0.34,1.24,0.34c0.33,0,0.62-0.06,0.88-0.17c0.26-0.11,0.46-0.28,0.6-0.49c0.14-0.21,0.21-0.44,0.21-0.68
			c0-0.24-0.06-0.45-0.17-0.62C30.78,41.12,30.62,41,30.42,40.91z"/>
		<rect x="31.79" y="37.4" class="st1" width="0.77" height="5.75"/>
		<path class="st1" d="M35.25,38.87c-0.52,0-0.96,0.16-1.32,0.47c-0.43,0.37-0.65,0.95-0.65,1.72c0,0.7,0.18,1.25,0.54,1.62
			c0.36,0.37,0.84,0.57,1.42,0.57c0.36,0,0.7-0.09,1.01-0.26c0.31-0.17,0.55-0.41,0.71-0.72c0.16-0.31,0.24-0.73,0.24-1.27
			c0-0.66-0.18-1.18-0.55-1.56C36.3,39.07,35.82,38.87,35.25,38.87z M35.25,42.6c-0.34,0-0.62-0.13-0.84-0.38
			c-0.22-0.25-0.33-0.64-0.33-1.16c0-0.51,0.11-0.9,0.33-1.15c0.22-0.25,0.5-0.38,0.84-0.38c0.33,0,0.61,0.13,0.83,0.38
			c0.22,0.25,0.34,0.63,0.34,1.13c0,0.53-0.11,0.92-0.33,1.18C35.86,42.47,35.58,42.6,35.25,42.6z"/>
		<path class="st1" d="M39.66,41.5c-0.09,0.25-0.16,0.47-0.22,0.66c-0.07-0.24-0.15-0.48-0.23-0.7l-0.89-2.49H37.5l1.58,4.16
			l0.01,0.02h0.7l1.56-4.13l0.02-0.05h-0.8L39.66,41.5z"/>
		<path class="st1" d="M45.04,39.37c-0.11-0.15-0.27-0.27-0.48-0.36c-0.21-0.09-0.45-0.14-0.7-0.14c-0.54,0-0.96,0.2-1.27,0.6v-0.5
			h-0.7v4.19h0.77v-2.28c0-0.51,0.1-0.86,0.31-1.04c0.21-0.18,0.46-0.27,0.74-0.27c0.18,0,0.33,0.04,0.47,0.12
			c0.13,0.08,0.22,0.19,0.27,0.32c0.05,0.14,0.08,0.35,0.08,0.62v2.54h0.77v-2.56c0-0.32-0.01-0.55-0.04-0.68
			C45.22,39.7,45.14,39.52,45.04,39.37z"/>
		<rect x="46.28" y="37.4" class="st1" width="0.77" height="0.88"/>
		<rect x="46.28" y="38.97" class="st1" width="0.77" height="4.19"/>
		<path class="st1" d="M53.02,39.15c-0.27-0.18-0.59-0.28-0.95-0.28c-0.27,0-0.51,0.05-0.7,0.16c-0.16,0.09-0.31,0.22-0.45,0.39
			v-0.46H50.2v5.76h0.77v-1.94c0.11,0.12,0.24,0.22,0.4,0.3c0.19,0.1,0.41,0.15,0.64,0.15c0.32,0,0.64-0.09,0.93-0.27
			c0.29-0.18,0.52-0.45,0.67-0.79c0.15-0.34,0.23-0.73,0.23-1.15c0-0.4-0.07-0.76-0.21-1.1C53.5,39.6,53.29,39.34,53.02,39.15z
			 M53.06,41.03c0,0.54-0.11,0.94-0.32,1.19c-0.21,0.25-0.47,0.38-0.77,0.38c-0.29,0-0.54-0.12-0.75-0.37
			c-0.21-0.24-0.31-0.63-0.31-1.15c0-0.52,0.11-0.92,0.33-1.18c0.22-0.27,0.47-0.4,0.76-0.4c0.29,0,0.54,0.13,0.74,0.38
			C52.95,40.13,53.06,40.51,53.06,41.03z"/>
		<path class="st1" d="M56.3,38.87c-0.52,0-0.96,0.16-1.32,0.47c-0.43,0.37-0.65,0.95-0.65,1.72c0,0.7,0.18,1.25,0.54,1.62
			c0.36,0.37,0.84,0.57,1.42,0.57c0.36,0,0.7-0.09,1.01-0.26c0.31-0.17,0.55-0.41,0.71-0.72c0.16-0.31,0.24-0.73,0.24-1.27
			c0-0.66-0.18-1.18-0.55-1.56C57.35,39.07,56.87,38.87,56.3,38.87z M56.3,42.6c-0.34,0-0.62-0.13-0.84-0.38
			c-0.22-0.25-0.33-0.64-0.33-1.16c0-0.51,0.11-0.9,0.33-1.15c0.22-0.25,0.5-0.38,0.84-0.38c0.33,0,0.61,0.13,0.83,0.38
			c0.22,0.25,0.34,0.63,0.34,1.13c0,0.53-0.11,0.92-0.33,1.18C56.91,42.47,56.63,42.6,56.3,42.6z"/>
		<path class="st1" d="M63.16,42.45c-0.12,0.02-0.23,0.03-0.3,0.03c-0.1,0-0.17-0.01-0.22-0.04c-0.05-0.03-0.08-0.07-0.1-0.12
			c-0.02-0.04-0.03-0.13-0.03-0.37v-2.36h0.7v-0.62h-0.7V37.5l-0.75,0.45l-0.02,0.01v1h-0.51v0.11c-0.23-0.14-0.47-0.21-0.69-0.21
			c-0.17,0-0.33,0.05-0.47,0.15c-0.12,0.08-0.25,0.24-0.38,0.46v-0.52h-0.7v4.19h0.77v-2.19c0-0.29,0.04-0.56,0.11-0.8
			c0.05-0.15,0.13-0.28,0.25-0.36c0.24-0.18,0.57-0.17,0.88,0.02l0.04,0.02l0.2-0.53v0.28h0.51v2.33c0,0.43,0.03,0.7,0.09,0.84
			c0.06,0.14,0.16,0.25,0.31,0.33c0.14,0.08,0.35,0.13,0.61,0.13c0.16,0,0.34-0.02,0.53-0.06l0.04-0.01l-0.11-0.69L63.16,42.45z"/>
		<path class="st1" d="M67.24,42.61c-0.03-0.17-0.04-0.58-0.04-1.22v-0.93c0-0.31-0.01-0.53-0.04-0.65
			c-0.04-0.2-0.12-0.36-0.22-0.49c-0.11-0.13-0.28-0.24-0.5-0.32c-0.22-0.08-0.51-0.13-0.87-0.13c-0.36,0-0.67,0.05-0.95,0.15
			c-0.27,0.1-0.49,0.24-0.63,0.43c-0.14,0.18-0.25,0.43-0.31,0.72l-0.01,0.04l0.76,0.1l0.01-0.03c0.07-0.28,0.18-0.48,0.33-0.59
			c0.15-0.11,0.39-0.16,0.7-0.16c0.34,0,0.6,0.08,0.77,0.23c0.12,0.11,0.18,0.3,0.18,0.57c0,0.02,0,0.07,0,0.15
			c-0.26,0.09-0.67,0.17-1.21,0.23c-0.28,0.03-0.49,0.07-0.62,0.11c-0.19,0.05-0.36,0.13-0.51,0.23c-0.15,0.1-0.28,0.24-0.37,0.41
			c-0.09,0.17-0.14,0.36-0.14,0.57c0,0.35,0.13,0.65,0.38,0.87c0.25,0.23,0.61,0.34,1.07,0.34c0.28,0,0.54-0.05,0.78-0.14
			c0.23-0.09,0.46-0.23,0.7-0.43c0.02,0.17,0.07,0.32,0.13,0.45l0.01,0.02h0.82l-0.03-0.06C67.33,42.94,67.27,42.78,67.24,42.61z
			 M66.42,41.11v0.2c0,0.3-0.04,0.53-0.11,0.68c-0.09,0.2-0.24,0.35-0.44,0.47c-0.2,0.11-0.44,0.17-0.7,0.17
			c-0.26,0-0.46-0.06-0.59-0.18c-0.13-0.12-0.2-0.26-0.2-0.44c0-0.11,0.03-0.22,0.09-0.31c0.06-0.09,0.15-0.16,0.26-0.21
			c0.12-0.05,0.32-0.1,0.6-0.14C65.79,41.29,66.16,41.2,66.42,41.11z"/>
		<rect x="68.17" y="37.4" class="st1" width="0.77" height="5.75"/>
		<rect x="70.12" y="42.28" class="st1" width="0.88" height="0.87"/>
		<polygon class="st1" points="70.09,37.4 70.09,38.7 70.3,41.74 70.82,41.74 71.03,38.7 71.03,37.4 		"/>
	</g>
	<polygon class="st1" points="103.06,10.81 103.88,10.81 105.03,5.3 105.04,5.25 104.22,5.25 	"/>
	<path class="st1" d="M108.03,6.67c-0.25,0-0.49,0.06-0.73,0.19c-0.2,0.11-0.42,0.27-0.65,0.49l0.13-0.6h-0.71l-0.83,4l-0.01,0.06
		h0.77l0.39-1.88c0.12-0.59,0.32-1.01,0.58-1.25c0.26-0.24,0.56-0.36,0.89-0.36c0.16,0,0.28,0.04,0.36,0.11
		c0.08,0.07,0.12,0.17,0.12,0.29c0,0.11-0.03,0.29-0.08,0.53l-0.53,2.51l-0.01,0.06h0.77l0.51-2.44c0.06-0.32,0.1-0.55,0.1-0.7
		c0-0.3-0.1-0.55-0.29-0.73C108.62,6.76,108.36,6.67,108.03,6.67z"/>
	<path class="st1" d="M111.49,6.38c0.06-0.29,0.12-0.4,0.16-0.44c0.13-0.13,0.43-0.1,0.83,0l0.05,0.01l0.14-0.68l-0.04-0.01
		c-0.33-0.07-0.58-0.11-0.76-0.11c-0.25,0-0.46,0.04-0.61,0.13c-0.15,0.08-0.26,0.19-0.33,0.33c-0.07,0.13-0.13,0.34-0.19,0.62
		l-0.11,0.53h-0.6l-0.13,0.61h0.6l-0.71,3.38l-0.01,0.06h0.77l0.72-3.44h0.75l0.13-0.61h-0.75L111.49,6.38z"/>
	<path class="st1" d="M114.38,6.67c-0.62,0-1.13,0.22-1.51,0.64c-0.46,0.51-0.69,1.17-0.69,1.95c0,0.32,0.07,0.61,0.21,0.86
		c0.14,0.25,0.34,0.44,0.6,0.58c0.26,0.13,0.55,0.2,0.86,0.2c0.38,0,0.75-0.11,1.1-0.32c0.35-0.21,0.62-0.52,0.8-0.92
		c0.19-0.4,0.28-0.83,0.28-1.29c0-0.52-0.15-0.93-0.45-1.24C115.27,6.82,114.87,6.67,114.38,6.67z M115.15,9.06
		c-0.05,0.17-0.12,0.34-0.2,0.48c-0.08,0.15-0.18,0.28-0.3,0.4c-0.12,0.11-0.24,0.2-0.38,0.26c-0.14,0.06-0.27,0.08-0.41,0.08
		c-0.26,0-0.48-0.09-0.65-0.27c-0.17-0.18-0.26-0.46-0.26-0.82c0-0.2,0.03-0.43,0.1-0.68c0.06-0.25,0.17-0.47,0.3-0.66
		c0.14-0.19,0.29-0.33,0.46-0.43c0.17-0.1,0.35-0.15,0.55-0.15c0.26,0,0.48,0.09,0.65,0.28c0.17,0.19,0.26,0.46,0.26,0.8
		C115.26,8.58,115.22,8.82,115.15,9.06z"/>
	<path class="st1" d="M119.55,6.82c-0.2-0.1-0.38-0.15-0.52-0.15c-0.21,0-0.42,0.08-0.63,0.23c-0.16,0.12-0.32,0.29-0.48,0.51
		l0.13-0.65h-0.69l-0.83,4l-0.01,0.06h0.73l0.34-1.63c0.14-0.67,0.33-1.14,0.57-1.4c0.24-0.25,0.47-0.38,0.69-0.38
		c0.13,0,0.25,0.04,0.36,0.12l0.05,0.03l0.32-0.72L119.55,6.82z"/>
	<path class="st1" d="M124.31,6.67c-0.25,0-0.5,0.06-0.72,0.19c-0.21,0.11-0.4,0.28-0.59,0.5c-0.06-0.2-0.17-0.36-0.32-0.48
		c-0.17-0.14-0.39-0.21-0.65-0.21c-0.24,0-0.46,0.06-0.66,0.17c-0.17,0.09-0.36,0.25-0.57,0.47l0.11-0.54h-0.77l-0.83,4l-0.01,0.06
		h0.77l0.4-1.91c0.08-0.4,0.19-0.7,0.32-0.92c0.13-0.21,0.29-0.38,0.5-0.49c0.2-0.12,0.4-0.18,0.58-0.18c0.12,0,0.21,0.03,0.28,0.11
		c0.07,0.07,0.11,0.16,0.11,0.28c0,0.07-0.02,0.2-0.06,0.38l-0.56,2.67l-0.01,0.06h0.77l0.41-1.96c0.09-0.4,0.19-0.71,0.3-0.9
		c0.11-0.19,0.27-0.35,0.47-0.46c0.2-0.12,0.4-0.18,0.59-0.18c0.14,0,0.24,0.03,0.32,0.1c0.07,0.07,0.11,0.15,0.11,0.27
		c0,0.09-0.02,0.24-0.07,0.45l-0.54,2.62l-0.01,0.06h0.77l0.54-2.59c0.06-0.28,0.09-0.49,0.09-0.61c0-0.3-0.09-0.53-0.26-0.69
		C124.91,6.75,124.65,6.67,124.31,6.67z"/>
	<path class="st1" d="M129.4,7.03c-0.29-0.24-0.69-0.36-1.19-0.36c-0.47,0-0.86,0.11-1.17,0.32c-0.31,0.21-0.54,0.52-0.68,0.93
		l-0.02,0.06l0.78,0.07L127.13,8c0.08-0.22,0.2-0.39,0.38-0.51c0.17-0.12,0.4-0.18,0.67-0.18c0.29,0,0.51,0.06,0.66,0.18
		c0.1,0.08,0.15,0.19,0.15,0.33c0,0.11-0.02,0.25-0.07,0.42c-0.18,0.07-0.47,0.11-0.88,0.12c-0.43,0.02-0.72,0.04-0.87,0.07
		c-0.25,0.05-0.46,0.12-0.63,0.23c-0.17,0.11-0.31,0.25-0.42,0.43c-0.1,0.18-0.16,0.38-0.16,0.61c0,0.35,0.12,0.64,0.35,0.86
		c0.23,0.22,0.54,0.34,0.92,0.34c0.25,0,0.49-0.05,0.71-0.14c0.2-0.09,0.41-0.22,0.62-0.39c0.02,0.16,0.04,0.3,0.07,0.41l0.01,0.03
		h0.77l-0.01-0.06c-0.05-0.23-0.08-0.41-0.08-0.53c0-0.19,0.03-0.45,0.1-0.75l0.22-0.98c0.06-0.28,0.09-0.53,0.09-0.74
		C129.74,7.45,129.63,7.21,129.4,7.03z M128.53,9.64c-0.11,0.2-0.27,0.36-0.47,0.48c-0.2,0.11-0.41,0.17-0.62,0.17
		c-0.23,0-0.41-0.06-0.53-0.17c-0.12-0.11-0.18-0.26-0.18-0.43c0-0.13,0.04-0.25,0.11-0.36c0.08-0.11,0.19-0.19,0.34-0.24
		c0.16-0.05,0.43-0.1,0.82-0.13c0.26-0.02,0.44-0.04,0.55-0.06c0.08-0.02,0.16-0.04,0.24-0.06C128.73,9.17,128.64,9.44,128.53,9.64z
		"/>
	<path class="st1" d="M132.67,6.67c-0.42,0-0.79,0.11-1.12,0.33c-0.33,0.22-0.58,0.55-0.75,0.97c-0.17,0.42-0.26,0.86-0.26,1.29
		c0,0.51,0.14,0.91,0.41,1.2c0.27,0.29,0.64,0.43,1.08,0.43c0.41,0,0.77-0.12,1.09-0.37c0.32-0.24,0.57-0.62,0.74-1.12l0.02-0.05
		l-0.77-0.08L133.1,9.3c-0.11,0.33-0.26,0.58-0.46,0.74c-0.19,0.16-0.39,0.24-0.6,0.24c-0.21,0-0.38-0.08-0.52-0.24
		c-0.14-0.16-0.21-0.41-0.21-0.73c0-0.32,0.06-0.65,0.17-0.99c0.11-0.34,0.26-0.6,0.45-0.76c0.19-0.16,0.42-0.25,0.67-0.25
		c0.22,0,0.4,0.07,0.53,0.2s0.2,0.32,0.2,0.56l0,0.05l0.75-0.05V8.02c0-0.41-0.13-0.74-0.39-0.99
		C133.46,6.79,133.11,6.67,132.67,6.67z"/>
	<polygon class="st1" points="135.99,6.75 135.22,6.75 134.38,10.75 134.37,10.81 135.14,10.81 135.97,6.81 	"/>
	<polygon class="st1" points="136.3,5.25 135.53,5.25 135.35,6.1 136.12,6.1 	"/>
	<path class="st1" d="M136.3,10.79c-0.11,0.53-0.2,0.71-0.26,0.78c-0.15,0.16-0.39,0.15-0.71,0.07l-0.05-0.01l-0.14,0.67l0.04,0.01
		c0.25,0.07,0.47,0.1,0.65,0.1c0.35,0,0.62-0.13,0.82-0.39c0.14-0.19,0.27-0.54,0.38-1.07l0.86-4.12l0.01-0.06h-0.77L136.3,10.79z"
		/>
	<polygon class="st1" points="137.28,6.1 138.04,6.1 138.22,5.25 137.46,5.25 	"/>
	<path class="st1" d="M141.77,7.03c-0.29-0.24-0.69-0.36-1.19-0.36c-0.47,0-0.86,0.11-1.17,0.32c-0.31,0.21-0.54,0.52-0.68,0.93
		l-0.02,0.06l0.78,0.07L139.5,8c0.08-0.22,0.2-0.39,0.38-0.51c0.17-0.12,0.4-0.18,0.67-0.18c0.29,0,0.51,0.06,0.66,0.18
		c0.1,0.08,0.15,0.19,0.15,0.33c0,0.11-0.02,0.25-0.07,0.42c-0.18,0.07-0.47,0.11-0.88,0.12c-0.43,0.02-0.72,0.04-0.87,0.07
		c-0.25,0.05-0.46,0.12-0.63,0.23c-0.17,0.11-0.31,0.25-0.42,0.43c-0.1,0.18-0.16,0.38-0.16,0.61c0,0.35,0.12,0.64,0.35,0.86
		c0.23,0.22,0.54,0.34,0.92,0.34c0.25,0,0.49-0.05,0.71-0.14c0.2-0.09,0.41-0.22,0.62-0.39c0.02,0.16,0.04,0.3,0.07,0.41l0.01,0.03
		h0.77l-0.01-0.06c-0.05-0.23-0.08-0.41-0.08-0.53c0-0.19,0.03-0.45,0.1-0.75l0.22-0.98c0.06-0.28,0.09-0.53,0.09-0.74
		C142.11,7.45,142,7.21,141.77,7.03z M140.9,9.64c-0.11,0.2-0.27,0.36-0.47,0.48c-0.2,0.11-0.41,0.17-0.62,0.17
		c-0.23,0-0.41-0.06-0.53-0.17c-0.12-0.11-0.18-0.26-0.18-0.43c0-0.13,0.04-0.25,0.11-0.36c0.08-0.11,0.19-0.19,0.34-0.24
		c0.16-0.05,0.43-0.1,0.82-0.13c0.26-0.02,0.44-0.04,0.55-0.06c0.08-0.02,0.16-0.04,0.24-0.06C141.1,9.17,141.01,9.44,140.9,9.64z"
		/>
	<path class="st1" d="M145.04,10.79c-0.11,0.53-0.2,0.71-0.26,0.78c-0.15,0.16-0.39,0.15-0.71,0.07l-0.05-0.01l-0.14,0.67l0.04,0.01
		c0.25,0.07,0.47,0.1,0.65,0.1c0.35,0,0.62-0.13,0.82-0.39c0.14-0.19,0.27-0.54,0.38-1.07l0.86-4.12l0.01-0.06h-0.77L145.04,10.79z"
		/>
	<polygon class="st1" points="146.03,6.1 146.79,6.1 146.97,5.25 146.21,5.25 	"/>
	<path class="st1" d="M149.3,6.67c-0.38,0-0.73,0.1-1.06,0.3c-0.32,0.2-0.59,0.51-0.79,0.93c-0.2,0.41-0.3,0.84-0.3,1.28
		c0,0.34,0.07,0.64,0.2,0.9c0.13,0.27,0.33,0.47,0.58,0.61c0.25,0.14,0.53,0.21,0.83,0.21c0.48,0,0.9-0.15,1.24-0.45
		c0.34-0.3,0.57-0.62,0.66-0.95l0.02-0.05l-0.74-0.08l-0.01,0.03c-0.12,0.28-0.29,0.49-0.51,0.64c-0.21,0.15-0.44,0.22-0.66,0.22
		c-0.23,0-0.43-0.09-0.59-0.28c-0.16-0.19-0.24-0.46-0.24-0.82c0-0.05,0-0.1,0.01-0.16h2.91l0.01-0.04c0.03-0.21,0.05-0.41,0.05-0.6
		c0-0.52-0.15-0.93-0.44-1.23C150.17,6.82,149.78,6.67,149.3,6.67z M150.17,8.39h-2.11c0.11-0.36,0.28-0.64,0.5-0.82
		c0.23-0.19,0.48-0.29,0.76-0.29c0.25,0,0.46,0.08,0.62,0.26c0.16,0.17,0.24,0.42,0.24,0.75C150.17,8.31,150.17,8.34,150.17,8.39z"
		/>
	<polygon class="st1" points="157.97,6.75 156.94,6.75 155.06,8.55 155.74,5.3 155.75,5.25 154.99,5.25 153.83,10.75 153.82,10.81 
		154.59,10.81 154.87,9.46 155.63,8.81 156.4,10.78 156.41,10.81 157.25,10.81 156.21,8.29 	"/>
	<path class="st1" d="M161.38,7.03c-0.29-0.24-0.69-0.36-1.19-0.36c-0.47,0-0.86,0.11-1.17,0.32c-0.31,0.21-0.54,0.52-0.68,0.93
		l-0.02,0.06l0.78,0.07L159.11,8c0.08-0.22,0.2-0.39,0.38-0.51c0.17-0.12,0.4-0.18,0.67-0.18c0.29,0,0.51,0.06,0.66,0.18
		c0.1,0.08,0.15,0.19,0.15,0.33c0,0.11-0.02,0.25-0.07,0.42c-0.18,0.07-0.47,0.11-0.88,0.12c-0.43,0.02-0.72,0.04-0.87,0.07
		c-0.25,0.05-0.46,0.12-0.63,0.23c-0.17,0.11-0.31,0.25-0.42,0.43c-0.1,0.18-0.16,0.38-0.16,0.61c0,0.35,0.12,0.64,0.35,0.86
		c0.23,0.22,0.54,0.34,0.92,0.34c0.25,0,0.49-0.05,0.71-0.14c0.2-0.09,0.41-0.22,0.62-0.39c0.02,0.16,0.04,0.3,0.07,0.41l0.01,0.03
		h0.77l-0.01-0.06c-0.05-0.23-0.08-0.41-0.08-0.53c0-0.19,0.03-0.45,0.1-0.75l0.22-0.98c0.06-0.28,0.09-0.53,0.09-0.74
		C161.73,7.45,161.61,7.21,161.38,7.03z M160.52,9.64c-0.11,0.2-0.27,0.36-0.47,0.48c-0.2,0.11-0.41,0.17-0.62,0.17
		c-0.23,0-0.41-0.06-0.53-0.17c-0.12-0.11-0.18-0.26-0.18-0.43c0-0.13,0.04-0.25,0.11-0.36c0.08-0.11,0.19-0.19,0.34-0.24
		c0.16-0.05,0.43-0.1,0.82-0.13c0.26-0.02,0.44-0.04,0.55-0.06c0.08-0.02,0.16-0.04,0.24-0.06C160.71,9.17,160.62,9.44,160.52,9.64z
		"/>
	<path class="st1" d="M164.91,6.67c-0.21,0-0.41,0.05-0.6,0.14c-0.16,0.08-0.33,0.21-0.52,0.4l0.1-0.46h-0.72l-1.15,5.52L162,12.33
		h0.77l0.43-2.07c0.26,0.43,0.63,0.64,1.08,0.64c0.22,0,0.44-0.05,0.65-0.15c0.21-0.1,0.42-0.26,0.62-0.46
		c0.2-0.21,0.37-0.49,0.51-0.83c0.14-0.34,0.21-0.73,0.21-1.15c0-0.52-0.13-0.93-0.38-1.21C165.63,6.81,165.3,6.67,164.91,6.67z
		 M165.15,9.62c-0.23,0.42-0.53,0.63-0.9,0.63c-0.18,0-0.33-0.05-0.47-0.14c-0.13-0.09-0.23-0.22-0.29-0.37
		c-0.04-0.11-0.06-0.31-0.06-0.6c0-0.19,0.04-0.41,0.12-0.67c0.08-0.26,0.18-0.47,0.3-0.65c0.12-0.17,0.25-0.31,0.39-0.39
		c0.14-0.09,0.29-0.13,0.45-0.13c0.23,0,0.41,0.08,0.56,0.26c0.15,0.17,0.23,0.42,0.23,0.75C165.5,8.75,165.39,9.2,165.15,9.62z"/>
	<polygon class="st1" points="167.76,6.1 168.53,6.1 168.71,5.25 167.94,5.25 	"/>
	<polygon class="st1" points="166.79,10.75 166.78,10.81 167.55,10.81 168.38,6.81 168.4,6.75 167.63,6.75 	"/>
	<path class="st1" d="M170.69,5.27l-0.88,0.53l-0.2,0.96h-0.53l-0.13,0.61h0.53l-0.47,2.25c-0.07,0.32-0.1,0.52-0.1,0.61
		c0,0.19,0.07,0.33,0.2,0.44c0.17,0.14,0.39,0.21,0.67,0.21c0.15,0,0.32-0.02,0.48-0.06l0.03-0.01l0.13-0.65l-0.07,0.02
		c-0.11,0.03-0.24,0.04-0.39,0.04c-0.09,0-0.16-0.02-0.19-0.05c-0.04-0.03-0.05-0.08-0.05-0.15c0-0.04,0.01-0.15,0.08-0.49
		l0.45-2.15h0.66l0.13-0.61h-0.66L170.69,5.27z"/>
	<path class="st1" d="M174.6,7.03c-0.29-0.24-0.69-0.36-1.19-0.36c-0.47,0-0.86,0.11-1.17,0.32c-0.31,0.21-0.54,0.52-0.68,0.93
		l-0.02,0.06l0.78,0.07L172.33,8c0.08-0.22,0.2-0.39,0.38-0.51c0.17-0.12,0.4-0.18,0.67-0.18c0.29,0,0.51,0.06,0.66,0.18
		c0.1,0.08,0.15,0.19,0.15,0.33c0,0.11-0.02,0.25-0.07,0.42c-0.18,0.07-0.47,0.11-0.88,0.12c-0.43,0.02-0.72,0.04-0.87,0.07
		c-0.25,0.05-0.46,0.12-0.63,0.23c-0.17,0.11-0.31,0.25-0.42,0.43c-0.1,0.18-0.16,0.38-0.16,0.61c0,0.35,0.12,0.64,0.35,0.86
		c0.23,0.22,0.54,0.34,0.92,0.34c0.25,0,0.49-0.05,0.71-0.14c0.2-0.09,0.41-0.22,0.62-0.39c0.02,0.16,0.04,0.3,0.07,0.41l0.01,0.03
		h0.77l-0.01-0.06c-0.05-0.23-0.08-0.41-0.08-0.53c0-0.19,0.03-0.45,0.1-0.75l0.22-0.98c0.06-0.28,0.09-0.53,0.09-0.74
		C174.95,7.45,174.83,7.21,174.6,7.03z M173.74,9.64c-0.11,0.2-0.27,0.36-0.47,0.48c-0.2,0.11-0.41,0.17-0.62,0.17
		c-0.23,0-0.41-0.06-0.53-0.17c-0.12-0.11-0.18-0.26-0.18-0.43c0-0.13,0.04-0.25,0.11-0.36c0.08-0.11,0.19-0.19,0.34-0.24
		c0.16-0.05,0.43-0.1,0.82-0.13c0.26-0.02,0.44-0.04,0.55-0.06c0.08-0.02,0.16-0.04,0.24-0.06C173.93,9.17,173.84,9.44,173.74,9.64z
		"/>
	<polygon class="st1" points="175.51,10.75 175.5,10.81 176.27,10.81 177.42,5.3 177.43,5.25 176.66,5.25 	"/>
	<polygon class="st1" points="177.65,10.81 178.51,10.81 178.69,9.95 177.83,9.95 	"/>
	<polygon class="st1" points="178.75,5.25 178.5,6.41 178.08,9.43 178.59,9.43 179.39,6.52 179.66,5.25 	"/>
	
		<ellipse transform="matrix(0.9871 -0.1602 0.1602 0.9871 -3.4379 22.8175)" class="st1" cx="139.81" cy="32.73" rx="2.25" ry="2.25"/>
</g>
</svg>
