<svg width="188" height="50" viewBox="0 0 188 50" fill="none" xmlns="http://www.w3.org/2000/svg">
<g clip-path="url(#clip0_255_723)">
<path d="M63.877 17.7469L65.3196 16.5203C65.3196 16.5203 72.052 20.9215 76.9295 29.0745C76.9295 29.0745 86.8906 6.34713 105.851 0.214355L107.225 1.80166C107.225 1.80166 87.0967 13.49 79.8835 39.7527H74.7999C74.7999 39.8249 72.1894 28.2808 63.877 17.7469Z" fill="#69BB43"/>
<path d="M163.213 17.0254H157.305V50.2145H163.213V17.0254Z" fill="white"/>
<path d="M163.213 8.51221H157.305V14.2842H163.213V8.51221Z" fill="white"/>
<path d="M155.107 17.0254H149.199V40.4742H155.107V17.0254Z" fill="white"/>
<path d="M155.107 8.51221H149.199V14.2842H155.107V8.51221Z" fill="white"/>
<path d="M13.6591 40.4748L8.78156 29.9408L5.89627 33.0433V40.4748H-0.0117188V8.51221H5.89627V25.9726L13.2469 17.0981H20.4601L12.9721 25.684L20.254 40.4748H13.6591Z" fill="white"/>
<path d="M30.285 41.1236C28.4988 41.1236 26.8501 40.835 25.4075 40.1857C23.9648 39.6085 22.797 38.7427 21.8352 37.6604C20.8734 36.5782 20.1178 35.2795 19.5682 33.7643C19.0873 32.2491 18.8125 30.5897 18.8125 28.7859C18.8125 26.91 19.0873 25.2506 19.6369 23.7354C20.1865 22.2203 20.9421 20.9216 21.9039 19.8393C22.9344 18.7571 24.1022 17.9634 25.4762 17.314C26.8501 16.7368 28.4988 16.4482 30.285 16.4482C32.0711 16.4482 33.5825 16.7368 35.0251 17.314C36.3991 17.8912 37.5669 18.7571 38.5974 19.7672C39.5591 20.8494 40.3148 22.1481 40.8644 23.6633C41.414 25.1784 41.6888 26.91 41.6888 28.7859C41.6888 30.6618 41.414 32.3213 40.8644 33.8365C40.3148 35.3516 39.5591 36.6503 38.5974 37.7326C37.6356 38.8148 36.3991 39.6085 35.0251 40.2578C33.6512 40.9072 32.0024 41.1236 30.285 41.1236ZM30.285 35.9288C33.8573 35.9288 35.7121 33.5479 35.7121 28.7859C35.7121 24.024 33.9259 21.7152 30.285 21.7152C26.7127 21.7152 24.8579 24.0962 24.8579 28.7859C24.9266 33.5479 26.7127 35.9288 30.285 35.9288Z" fill="white"/>
<path d="M57.8324 40.4747V26.2611C57.8324 24.4573 57.5576 23.2307 56.9393 22.5814C56.3897 21.932 55.3593 21.6434 53.9853 21.6434C50.9626 21.6434 49.3826 23.4472 49.3826 27.0547V40.4747H43.4746V17.0258H49.1078V20.4169C49.7948 19.1182 50.7565 18.1081 51.8557 17.3866C53.0236 16.7372 54.4662 16.3765 56.321 16.3765C57.3515 16.3765 58.382 16.5208 59.275 16.8815C60.1681 17.2423 60.9925 17.7473 61.6108 18.3967C62.229 19.046 62.7786 19.9118 63.1221 20.8498C63.4656 21.7877 63.6717 22.9421 63.6717 24.2408V40.4747H57.8324Z" fill="white"/>
<path d="M97.1954 30.3736C97.2641 32.1774 97.745 33.5482 98.6381 34.6305C99.5311 35.7127 100.699 36.2178 102.142 36.2178C103.103 36.2178 103.928 36.0013 104.683 35.4963C105.439 35.0634 105.92 34.414 106.126 33.5482H112.171C111.485 35.9292 110.248 37.8051 108.531 39.1038C106.813 40.4025 104.752 41.0519 102.348 41.0519C94.9284 41.0519 91.2188 36.795 91.2188 28.2813C91.2188 26.4775 91.4935 24.818 91.9744 23.375C92.4553 21.932 93.1423 20.6333 94.104 19.6232C94.9971 18.541 96.165 17.7473 97.4702 17.2423C98.7755 16.6651 100.356 16.3765 102.073 16.3765C105.508 16.3765 108.118 17.5309 109.904 19.8397C111.691 22.1485 112.584 25.6117 112.584 30.3015H97.1954V30.3736ZM106.47 26.4775C106.47 25.6117 106.263 24.8902 106.057 24.2408C105.783 23.5915 105.439 23.0864 105.027 22.6535C104.615 22.2206 104.134 21.932 103.584 21.7156C103.035 21.4991 102.485 21.427 101.936 21.427C100.768 21.427 99.7372 21.8599 98.8442 22.7978C97.9511 23.7358 97.4702 24.9623 97.4015 26.5496H106.47V26.4775Z" fill="white"/>
<path d="M127.902 40.4742V35.7123L139.306 21.9316H128.727V17.0254H146.863V22.0038L135.459 35.3516H147.138V40.4021H127.902V40.4742Z" fill="white"/>
<path d="M179.976 40.4743C179.77 39.8971 179.701 39.1756 179.632 38.3819C178.945 39.1756 177.983 39.8971 176.884 40.33C175.716 40.835 174.411 41.0515 172.9 41.0515C170.358 41.0515 168.434 40.4743 167.267 39.2477C166.099 38.0933 165.48 36.506 165.48 34.6301C165.48 32.9707 165.755 31.5998 166.236 30.5897C166.717 29.5796 167.473 28.7859 168.366 28.2087C169.259 27.6315 170.358 27.1986 171.595 26.9822C172.831 26.6936 174.205 26.4771 175.716 26.2607C177.228 26.0442 178.19 25.7556 178.739 25.3949C179.22 25.0341 179.495 24.4569 179.495 23.5911C179.495 22.7975 179.151 22.2203 178.464 21.7874C177.777 21.3545 176.884 21.138 175.716 21.138C174.342 21.138 173.381 21.4266 172.762 22.076C172.144 22.7253 171.801 23.519 171.663 24.6012H166.167C166.167 23.3747 166.374 22.2924 166.717 21.2823C167.061 20.2722 167.61 19.4064 168.366 18.6849C169.121 17.9634 170.152 17.3862 171.388 17.0254C172.625 16.6647 174.136 16.4482 175.922 16.4482C177.709 16.4482 179.151 16.6647 180.388 17.0976C181.624 17.5305 182.586 18.1077 183.342 18.9014C184.097 19.695 184.647 20.633 184.922 21.7874C185.265 22.9418 185.403 24.2405 185.403 25.6835V40.4743H179.976ZM179.563 29.0024C179.289 29.291 178.808 29.5796 178.258 29.796C177.709 30.0125 176.884 30.2289 175.785 30.4454C174.068 30.8061 172.9 31.239 172.282 31.7441C171.663 32.2492 171.32 33.0428 171.32 34.0529C171.32 35.7845 172.282 36.6503 174.205 36.6503C174.961 36.6503 175.648 36.506 176.335 36.2174C176.953 35.9288 177.571 35.5681 177.983 35.1352C178.464 34.7023 178.808 34.1251 179.083 33.5479C179.357 32.8985 179.495 32.2492 179.495 31.5998L179.563 29.0024Z" fill="white"/>
<path d="M127.422 17.0981H121.033C117.323 17.0981 114.301 20.2728 114.301 24.1689V28.3536V34.3421V40.4748H120.209V34.3421V28.3536V24.241C120.209 23.0145 121.171 22.0044 122.338 22.0044H127.422V17.0981Z" fill="white"/>
</g>
<defs>
<clipPath id="clip0_255_723">
<rect width="188" height="50" fill="white"/>
</clipPath>
</defs>
</svg>
