<svg width="278" height="72" viewBox="0 0 278 72" fill="none" xmlns="http://www.w3.org/2000/svg">
<g clip-path="url(#clip0_498_2756)">
<path d="M94.7256 25.5554L96.8468 23.7892C96.8468 23.7892 106.746 30.1269 113.918 41.8672C113.918 41.8672 128.564 9.13979 156.443 0.308594L158.463 2.59431C158.463 2.59431 128.867 19.4255 118.261 57.2438H110.786C110.786 57.3477 106.948 40.7243 94.7256 25.5554Z" fill="#69BB43"/>
<path d="M240.787 24.5166H232.1V72.3089H240.787V24.5166Z" fill="black"/>
<path d="M240.787 12.2568H232.1V20.5685H240.787V12.2568Z" fill="black"/>
<path d="M228.868 24.5166H220.181V58.2829H228.868V24.5166Z" fill="black"/>
<path d="M228.868 12.2568H220.181V20.5685H228.868V12.2568Z" fill="black"/>
<path d="M20.8872 58.2829L13.7155 43.1141L9.47303 47.5816V58.2829H0.786133V12.2568H9.47303V37.3998L20.2811 24.6205H30.8872L19.8771 36.9842L30.5842 58.2829H20.8872Z" fill="black"/>
<path d="M45.3316 59.2181C42.7054 59.2181 40.2811 58.8025 38.1599 57.8675C36.0387 57.0363 34.3215 55.7895 32.9073 54.2311C31.4932 52.6726 30.3821 50.8025 29.574 48.6207C28.8669 46.4389 28.4629 44.0492 28.4629 41.4518C28.4629 38.7505 28.8669 36.3609 29.675 34.1791C30.4831 31.9973 31.5942 30.1271 33.0084 28.5687C34.5235 27.0102 36.2407 25.8674 38.2609 24.9323C40.2811 24.1011 42.7054 23.6855 45.3316 23.6855C47.9579 23.6855 50.1801 24.1011 52.3013 24.9323C54.3215 25.7635 56.0387 27.0102 57.5539 28.4648C58.968 30.0232 60.0791 31.8934 60.8872 34.0752C61.6953 36.257 62.0993 38.7505 62.0993 41.4518C62.0993 44.1531 61.6953 46.5428 60.8872 48.7246C60.0791 50.9064 58.968 52.7765 57.5539 54.335C56.1397 55.8934 54.3215 57.0363 52.3013 57.9714C50.2811 58.9064 47.8569 59.2181 45.3316 59.2181ZM45.3316 51.7376C50.5842 51.7376 53.3114 48.309 53.3114 41.4518C53.3114 34.5947 50.6852 31.27 45.3316 31.27C40.0791 31.27 37.3518 34.6986 37.3518 41.4518C37.4528 48.309 40.0791 51.7376 45.3316 51.7376Z" fill="black"/>
<path d="M85.8368 58.2834V37.8158C85.8368 35.2184 85.4327 33.4522 84.5236 32.5171C83.7155 31.5821 82.2004 31.1665 80.1802 31.1665C75.7357 31.1665 73.4125 33.7639 73.4125 38.9587V58.2834H64.7256V24.5171H73.0084V29.4002C74.0185 27.5301 75.4327 26.0755 77.0489 25.0366C78.766 24.1015 80.8872 23.582 83.6145 23.582C85.1297 23.582 86.6448 23.7898 87.958 24.3093C89.2711 24.8288 90.4832 25.5561 91.3923 26.4911C92.3014 27.4262 93.1095 28.673 93.6146 30.0236C94.1196 31.3743 94.4226 33.0366 94.4226 34.9067V58.2834H85.8368Z" fill="black"/>
<path d="M143.716 43.7379C143.817 46.3353 144.524 48.3094 145.837 49.8678C147.15 51.4263 148.867 52.1535 150.988 52.1535C152.403 52.1535 153.615 51.8419 154.726 51.1146C155.837 50.4912 156.544 49.5561 156.847 48.3094H165.736C164.726 51.738 162.908 54.4393 160.382 56.3094C157.857 58.1795 154.827 59.1146 151.291 59.1146C140.382 59.1146 134.928 52.9847 134.928 40.7249C134.928 38.1275 135.332 35.7379 136.039 33.66C136.746 31.5821 137.756 29.7119 139.17 28.2574C140.483 26.6989 142.2 25.5561 144.12 24.8288C146.039 23.9976 148.362 23.582 150.887 23.582C155.938 23.582 159.776 25.2444 162.403 28.5691C165.029 31.8937 166.342 36.8808 166.342 43.634H143.716V43.7379ZM157.352 38.1275C157.352 36.8808 157.049 35.8418 156.746 34.9067C156.342 33.9717 155.837 33.2444 155.231 32.621C154.625 31.9976 153.918 31.5821 153.11 31.2704C152.302 30.9587 151.493 30.8548 150.685 30.8548C148.968 30.8548 147.453 31.4782 146.14 32.8288C144.827 34.1795 144.12 35.9457 144.019 38.2314H157.352V38.1275Z" fill="black"/>
<path d="M188.867 58.2829V51.4258L205.635 31.5816H190.079V24.5166H216.746V31.6855L199.978 50.9063H217.15V58.179H188.867V58.2829Z" fill="black"/>
<path d="M265.433 58.283C265.13 57.4519 265.029 56.4129 264.928 55.2701C263.918 56.4129 262.504 57.4519 260.888 58.0753C259.171 58.8025 257.251 59.1142 255.029 59.1142C251.292 59.1142 248.464 58.283 246.746 56.5168C245.029 54.8545 244.12 52.5687 244.12 49.8674C244.12 47.4778 244.524 45.5038 245.231 44.0492C245.938 42.5947 247.049 41.4518 248.363 40.6207C249.676 39.7895 251.292 39.1661 253.11 38.8544C254.928 38.4388 256.948 38.1271 259.171 37.8155C261.393 37.5038 262.807 37.0882 263.615 36.5687C264.322 36.0492 264.726 35.218 264.726 33.9713C264.726 32.8284 264.221 31.9973 263.211 31.3739C262.201 30.7505 260.888 30.4388 259.171 30.4388C257.15 30.4388 255.736 30.8544 254.827 31.7895C253.918 32.7245 253.413 33.8674 253.211 35.4258H245.13C245.13 33.6596 245.433 32.1012 245.938 30.6466C246.443 29.1921 247.251 27.9453 248.363 26.9063C249.474 25.8674 250.989 25.0362 252.807 24.5167C254.625 23.9972 256.847 23.6855 259.474 23.6855C262.1 23.6855 264.221 23.9972 266.039 24.6206C267.858 25.244 269.272 26.0752 270.383 27.218C271.494 28.3609 272.302 29.7115 272.706 31.3739C273.211 33.0362 273.413 34.9064 273.413 36.9843V58.283H265.433ZM264.827 41.7635C264.423 42.1791 263.716 42.5947 262.908 42.9064C262.1 43.2181 260.888 43.5298 259.272 43.8414C256.746 44.3609 255.029 44.9843 254.12 45.7116C253.211 46.4389 252.706 47.5817 252.706 49.0363C252.706 51.5298 254.12 52.7765 256.948 52.7765C258.06 52.7765 259.07 52.5687 260.08 52.1532C260.989 51.7376 261.898 51.2181 262.504 50.5947C263.211 49.9713 263.716 49.1402 264.12 48.309C264.524 47.3739 264.726 46.4389 264.726 45.5038L264.827 41.7635Z" fill="black"/>
<path d="M188.161 24.6211H178.767C173.313 24.6211 168.868 29.1925 168.868 34.8029V40.8289V49.4523V58.2835H177.555V49.4523V40.8289V34.9068C177.555 33.1406 178.969 31.686 180.686 31.686H188.161V24.6211Z" fill="black"/>
</g>
<defs>
<clipPath id="clip0_498_2756">
<rect width="276.429" height="72" fill="white" transform="translate(0.786133)"/>
</clipPath>
</defs>
</svg>
