<?xml version="1.0" encoding="utf-8"?>
<!-- Generator: Adobe Illustrator 23.0.1, SVG Export Plug-In . SVG Version: 6.00 Build 0)  -->
<svg version="1.1" id="Warstwa_1" xmlns="http://www.w3.org/2000/svg" xmlns:xlink="http://www.w3.org/1999/xlink" x="0px" y="0px"
	 viewBox="0 0 340.157 85.039" style="enable-background:new 0 0 340.157 85.039;" xml:space="preserve">
<style type="text/css">
	.st0{fill:#DB1547;}
</style>
<path id="press" class="st0" d="M199.36,58.52c2.5-2.1,4.4-4.9,5.6-8c1.4-3.6,2-7.5,2-11.3c0-3.4-0.8-6.1-2.3-8s-3.9-2.9-6.3-2.8
	c-3.7,0-7.3,2.2-10.8,6.6h-0.2l0.8-6.1h-4l-9.8,46.2h4.8c2.1-9.9,3.2-15.2,3.3-16.1s0.2-1.6,0.3-2l0.1-1.1h0.3
	c0.7,1.6,1.8,3.1,3.3,4.1s3.2,1.5,4.9,1.5C194.26,61.32,197.06,60.32,199.36,58.52z M201.86,39.02c0,3.1-0.5,6.3-1.5,9.2
	c-0.8,2.5-2.2,4.8-4,6.7c-1.4,1.5-3.3,2.3-5.4,2.4c-1.7,0.1-3.4-0.5-4.7-1.7c-1.2-1.4-1.7-3.1-1.6-4.9c0-2.9,0.6-5.9,1.7-8.6
	c1-2.6,2.6-5,4.6-7c1.9-1.8,3.8-2.8,5.7-2.8C200.16,32.42,201.86,34.62,201.86,39.02L201.86,39.02L201.86,39.02z M226.86,28.92
	c-1,0.5-2,1.1-2.9,1.9c-1.3,1.2-2.4,2.5-3.5,4h-0.3l0.6-5.9h-4l-6.8,31.9h4.9l3.1-14.6c0.5-2.4,1.4-4.7,2.5-6.9c1-1.9,2.4-3.5,4-4.8
	c1.4-1.1,3.2-1.7,5-1.7c1,0,2.1,0.1,3.1,0.4l1-4.4c-1.1-0.3-2.3-0.4-3.5-0.4C229.06,28.32,227.96,28.52,226.86,28.92z M249.36,60.82
	c1.7-0.4,3.3-1,4.8-1.8v-4.2c-1.5,0.8-3.2,1.4-4.8,1.9c-1.2,0.3-2.5,0.5-3.8,0.5c-2.5,0-4.3-0.7-5.5-2.1c-1.3-1.7-1.9-3.8-1.8-6
	l0.1-2.3h1c6,0,10.6-1,13.8-3c3-1.6,4.9-4.8,4.8-8.2c0.1-2-0.7-4-2.2-5.4c-1.5-1.3-3.7-1.9-6.7-1.9c-2.9,0-5.6,1-7.9,2.8
	c-2.5,2.1-4.5,4.8-5.7,7.8c-1.4,3.3-2.2,6.9-2.2,10.5c0,3.7,1,6.7,3.1,8.8c2.2,2.2,5.3,3.3,8.4,3.2
	C246.26,61.32,247.86,61.22,249.36,60.82L249.36,60.82z M252.06,33.52c0.7,0.7,1.1,1.6,1.1,2.6c0,2.2-1.2,3.9-3.5,5
	c-2.3,1.1-5.7,1.7-10.2,1.7h-0.3c0.7-2.8,2.1-5.4,4-7.6c1.4-1.7,3.4-2.7,5.6-2.7C249.96,32.32,251.16,32.72,252.06,33.52
	L252.06,33.52z M278.96,48.52c-0.5-1-1.2-1.9-2-2.7c-1.4-1.2-2.9-2.2-4.5-3s-3-1.8-4.3-3c-1.5-1.8-1.3-4.5,0.5-6c0,0,0,0,0.1,0
	c1.2-0.9,2.7-1.4,4.2-1.3c2.2,0,4.4,0.4,6.4,1.3l1.6,0.7l1.6-4c-3-1.4-6.3-2.2-9.6-2.2c-2.8-0.1-5.5,0.7-7.7,2.5
	c-1.9,1.6-3,4-2.9,6.5c0,1.7,0.5,3.4,1.6,4.8c1.5,1.7,3.3,3.1,5.3,4.2c1.6,0.8,3.1,1.9,4.4,3.1c0.7,0.8,1,1.8,1,2.8
	c0,1.5-0.7,2.9-1.9,3.7c-1.6,1.1-3.6,1.6-5.5,1.5c-1.5,0-2.9-0.2-4.4-0.7c-1.5-0.4-3-1.1-4.4-1.9v4.6c2.8,1.4,5.8,2.1,8.9,2
	c3.9,0,6.9-0.8,9.1-2.5c2.1-1.7,3.3-4.3,3.2-7.1C279.66,50.62,279.46,49.52,278.96,48.52L278.96,48.52z M302.96,48.52
	c-0.5-1-1.2-1.9-2-2.7c-1.4-1.2-2.9-2.2-4.5-3s-3-1.8-4.3-3c-1.5-1.8-1.3-4.5,0.5-6c0,0,0,0,0.1,0c1.2-0.9,2.7-1.4,4.2-1.3
	c2.2,0,4.4,0.4,6.4,1.3l1.6,0.7l1.6-4c-3-1.4-6.3-2.2-9.6-2.2c-2.8-0.1-5.5,0.7-7.7,2.5c-1.9,1.6-3,4-2.9,6.5c0,1.7,0.5,3.4,1.6,4.8
	c1.5,1.7,3.3,3.1,5.3,4.2c1.6,0.8,3.1,1.9,4.4,3.1c0.7,0.8,1,1.8,1,2.8c0,1.5-0.7,2.9-1.9,3.7c-1.6,1.1-3.6,1.6-5.5,1.5
	c-1.5,0-2.9-0.2-4.4-0.7c-1.5-0.4-3-1.1-4.4-1.9v4.6c2.8,1.4,5.8,2.1,8.9,2c3.9,0,6.9-0.8,9.1-2.5c2.1-1.7,3.3-4.3,3.2-7.1
	C303.66,50.62,303.46,49.52,302.96,48.52L302.96,48.52z"/>
<path id="white" d="M54.56,60.82l9.4-32.5h-8.7l-3.9,14.4c-0.2,0.9-0.5,2.5-1,4.9c-0.4,2.4-0.8,4.3-0.9,5.7h-0.2
	c0-0.5-0.1-1.3-0.2-2.2c-0.1-0.9-0.3-1.8-0.4-2.8c-0.2-0.9-0.3-1.8-0.5-2.7c-0.2-0.8-0.3-1.5-0.4-1.9l-3.8-15.6h-9.8l-4,15.6
	l-0.5,2.5c-0.5,2.3-0.8,4.7-1,7h-0.1c-0.6-4.5-1.2-8.1-1.8-10.7l-3.7-14.3h-8.9l9.2,32.5h9.5l5.9-25.8h0.2l3.4,14.4l2.5,11.4h9.7
	V60.82z M97.66,39.52c0-3.8-1-6.8-3-8.8s-4.9-3.1-8.7-3.1c-4.3,0-7.4,1.6-9.4,4.8h-0.5l0.2-2.6c0.1-2.7,0.2-4.3,0.2-5.1v-9.2h-8.9
	v45.3h9v-15.3c0-3.8,0.6-6.5,1.7-8.2s2.9-2.5,5.4-2.5c3.5,0,5.2,2.3,5.2,7v19h8.9v-21.3H97.66z M109.76,24.22
	c1.3,0.1,2.6-0.3,3.6-1.2c0.8-0.9,1.3-2,1.2-3.2c0-2.9-1.6-4.3-4.8-4.3s-4.8,1.4-4.8,4.3C104.96,22.72,106.56,24.22,109.76,24.22
	L109.76,24.22L109.76,24.22z M114.16,28.22h-8.9v32.5h8.9C114.16,60.82,114.16,28.22,114.16,28.22z M132.86,53.42
	c-0.8-0.7-1.1-1.7-1.1-2.8v-15.7h9.1v-6.7h-9.1v-6.9h-5.7l-2.6,6.9l-4.9,3v3.8h4.2v15.7c0,3.6,0.8,6.3,2.4,8.1
	c1.6,1.8,4.2,2.7,7.7,2.7c2.8,0.1,5.6-0.4,8.1-1.5v-6.6c-1.8,0.6-3.7,1-5.6,1C134.66,54.32,133.66,54.02,132.86,53.42z
	 M164.26,35.72c1.2,1.4,1.8,3.2,1.7,5.1h-12.4c0-1.8,0.7-3.6,1.8-5.1c1.1-1.2,2.8-1.9,4.4-1.8
	C161.46,33.82,163.16,34.52,164.26,35.72z M167.46,60.82c1.7-0.4,3.4-0.9,5-1.7v-6.9c-1.7,0.8-3.6,1.5-5.5,2
	c-1.8,0.4-3.7,0.6-5.6,0.6c-2.2,0.1-4.3-0.6-5.9-2.1c-1.5-1.6-2.3-3.7-2.2-5.9h21v-4.3c0-4.6-1.3-8.2-3.8-10.9s-6.1-3.9-10.7-3.9
	c-4.8,0-8.6,1.5-11.3,4.5s-4.1,7.2-4.1,12.6c0,5.3,1.5,9.4,4.4,12.3s7,4.3,12.3,4.3C163.26,61.42,165.36,61.22,167.46,60.82
	L167.46,60.82z"/>
<path id="_" d="M318.16,21.52h1.5c0.7-0.1,1.3,0.1,1.9,0.5c0.4,0.4,0.7,0.9,0.6,1.5c0,0.6-0.2,1.1-0.7,1.5s-1.2,0.6-1.8,0.6h-1.5
	V21.52L318.16,21.52z M323.16,20.62c-1-0.7-2.2-1-3.4-0.9h-3.7v12.6h2.1v-5h1.9l2.9,5h2.4l-3.4-5.6c0.7-0.2,1.3-0.7,1.7-1.3
	c0.4-0.6,0.6-1.3,0.6-2C324.26,22.42,323.86,21.32,323.16,20.62z M310.76,31.22c2.9,5.1,9.4,6.9,14.5,4c1.7-0.9,3.1-2.3,4-4
	c1.8-3.3,1.8-7.3-0.1-10.5c-0.9-1.6-2.3-3-3.9-3.9c-3.3-1.9-7.3-1.9-10.6,0c-1.6,0.9-3,2.3-3.9,3.9
	C308.86,24.02,308.86,28.02,310.76,31.22L310.76,31.22z M312.06,21.42c0.8-1.4,2-2.5,3.3-3.3c2.8-1.6,6.3-1.6,9.1,0
	c1.4,0.8,2.5,2,3.3,3.3c0.8,1.4,1.2,3,1.2,4.6s-0.4,3.2-1.2,4.6c-0.8,1.4-2,2.5-3.3,3.3c-1.4,0.8-3,1.2-4.5,1.2
	c-3.3,0-6.3-1.7-7.9-4.6c-0.8-1.4-1.2-3-1.2-4.6C310.76,24.42,311.26,22.82,312.06,21.42L312.06,21.42z"/>
</svg>
