<?xml version="1.0" encoding="utf-8"?>
<!-- Generator: Adobe Illustrator 27.0.0, SVG Export Plug-In . SVG Version: 6.00 Build 0)  -->
<svg version="1.1" id="Layer_1" xmlns="http://www.w3.org/2000/svg" xmlns:xlink="http://www.w3.org/1999/xlink" x="0px" y="0px"
	 viewBox="0 0 200.8 32" style="enable-background:new 0 0 200.8 32;" xml:space="preserve">
<style type="text/css">
	.st0{fill-rule:evenodd;clip-rule:evenodd;fill:#005AA9;}
	.st1{fill:#005AA9;}
	.st2{fill-rule:evenodd;clip-rule:evenodd;fill:#00ADEE;}
</style>
<g>
	<path class="st0" d="M15.11,23.82v1.6v6.1H7.97v-3.66v-3.57C10.05,24.44,12.48,24.29,15.11,23.82 M7.97,15.22h7.15v4.4
		c-2.68,0.71-5.12,1.03-7.15,0.98V15.22z"/>
	<path class="st0" d="M33.95,31.56H26.8v-8.38v-1.82v-1.25c2.58-1.16,4.98-2.48,7.15-3.88v2.7v4.18V31.56z"/>
	<path class="st1" d="M144.35,15.22c1.42,0,2.56,0.07,3.42,0.2c0.85,0.14,1.52,0.35,2,0.64c0.61,0.36,1.08,0.84,1.4,1.45
		c0.32,0.61,0.48,1.31,0.48,2.1c0,0.97-0.24,1.81-0.72,2.55c-0.48,0.74-1.14,1.26-1.98,1.59c0.72,0.3,1.23,0.68,1.52,1.12
		c0.29,0.45,0.46,1.23,0.51,2.36c0.01,0.12,0.02,0.3,0.02,0.52c0.1,2.14,0.39,3.32,0.86,3.56v0.25h-7.04
		c-0.22-0.35-0.33-1.01-0.35-2.01c-0.01-0.58-0.04-1.03-0.08-1.35c-0.07-0.6-0.27-1.02-0.6-1.26c-0.33-0.25-0.89-0.37-1.68-0.37
		h-3.78v4.98h-6.42V15.22H144.35z M138.33,22.28h3.69c0.97,0,1.65-0.11,2.04-0.34c0.4-0.23,0.59-0.61,0.59-1.15
		c0-0.53-0.18-0.9-0.56-1.11c-0.37-0.21-1.12-0.31-2.23-0.31h-3.53V22.28z"/>
	<polygon class="st1" points="114.59,31.56 114.59,15.22 131.91,15.22 131.91,19.23 120.92,19.23 120.92,21.18 129.82,21.18 
		129.82,25.21 120.92,25.21 120.92,27.35 132.45,27.35 132.45,31.56 	"/>
	<polygon class="st1" points="54.97,31.56 54.97,15.22 62.46,15.22 68.77,24.63 68.77,15.22 74.91,15.22 74.91,31.56 67.8,31.56 
		60.94,21.99 60.94,31.56 	"/>
	<path class="st1" d="M56.42,31.56l-7.08-16.34H41.3l-6.61,16.34h6.86l3.91-11.38c1.38,3.8,2.78,7.59,4.17,11.38H56.42z"/>
	<path class="st1" d="M95.2,31.56l-7.08-16.34h-8.03l-6.61,16.34h6.86l3.91-11.38c1.38,3.8,2.78,7.59,4.17,11.38H95.2z"/>
	<path class="st1" d="M103.59,31.99l-0.08,0h-0.04h-0.05c-3.63,0-6.37-0.72-8.22-2.17c-1.85-1.44-2.77-3.59-2.77-6.42
		c0-2.84,0.92-4.99,2.77-6.43c1.85-1.45,4.59-2.17,8.22-2.17h0.05l0.1,0c3.06,0.01,5.48,0.54,7.27,1.59
		c0.98,0.56,1.74,1.25,2.26,2.05c0.42,0.6,0.75,1.28,0.98,2.03h-7.22l-0.03-0.05c-0.11-0.15-0.22-0.29-0.35-0.43
		c-0.76-0.81-1.77-1.24-3.02-1.27c-1.24,0.03-2.25,0.45-3.02,1.27c-0.8,0.84-1.19,1.98-1.19,3.41c0,1.44,0.39,2.56,1.18,3.36
		c0.74,0.75,1.75,1.15,3.03,1.2c1.29-0.05,2.3-0.44,3.03-1.2c0.27-0.28,0.5-0.59,0.67-0.94h-3.69v-3.54h3.04h1.06h6.85
		c0.03,0.36,0.05,0.73,0.05,1.12c0,2.84-0.92,4.98-2.77,6.42C109.86,31.25,107.16,31.98,103.59,31.99"/>
	<path class="st2" d="M24.53,21.07v3.48h0v7.01h-7.15v-7.1h0v-1.11c2.19-0.52,4.5-1.24,6.87-2.17L24.53,21.07z"/>
	<polygon class="st2" points="49.63,31.56 43.03,27.28 48.06,27.28 	"/>
	<polygon class="st2" points="88.41,31.56 81.81,27.28 86.84,27.28 	"/>
	<path class="st2" d="M39.52,8.56c-3.73,3.76-9.11,7.53-15.26,10.41c-12.28,5.75-22.99,5.79-23.91,0.09
		c-0.44-2.75,1.48-6.35,4.97-9.97c-2.51,2.88-3.84,5.66-3.49,7.83c0.81,5.06,10.49,4.88,21.6-0.4c5.79-2.75,10.84-6.35,14.22-9.89
		c-1.33-1.2-2.79-2.19-4.38-2.98c4.28-1.22,8.57-2.43,12.85-3.65c-1.22,4.28-2.43,8.57-3.65,12.85C41.59,11.26,40.6,9.82,39.52,8.56
		"/>
	<rect x="153.97" y="27.35" class="st2" width="4.21" height="4.21"/>
	<path class="st1" d="M200.51,31.56l-7.08-16.34h-8.03l-6.61,16.34h6.86l3.91-11.38c1.38,3.8,2.78,7.59,4.17,11.38H200.51z"/>
	<polygon class="st2" points="193.73,31.56 187.12,27.28 192.16,27.28 	"/>
	<path class="st0" d="M173.44,15.22c2.28,0,3.9,0.31,4.85,0.94c0.95,0.63,1.42,1.68,1.42,3.14c0,0.8-0.18,1.51-0.55,2.11
		c-0.37,0.6-0.91,1.09-1.63,1.47c0.94,0.3,1.66,0.8,2.14,1.48c0.48,0.68,0.72,1.53,0.72,2.55c0,1.55-0.51,2.72-1.53,3.5
		c-1.01,0.78-2.55,1.17-4.59,1.17h-13.99V15.22H173.44z M166.62,19.04v2.31h4.25c0.92,0,1.52-0.08,1.79-0.25
		c0.27-0.17,0.41-0.46,0.41-0.9c0-0.44-0.12-0.74-0.38-0.91c-0.25-0.17-0.86-0.25-1.82-0.25H166.62z M166.62,27.49h4.49
		c1.03,0,1.7-0.09,2-0.29c0.31-0.19,0.46-0.54,0.46-1.05c0-0.52-0.16-0.87-0.48-1.07c-0.32-0.2-0.98-0.29-1.99-0.29h-4.49V27.49z"/>
</g>
</svg>
