<?xml version="1.0" encoding="utf-8"?>
<!-- Generator: Adobe Illustrator 23.0.1, SVG Export Plug-In . SVG Version: 6.00 Build 0)  -->
<svg version="1.1" id="Layer_1" xmlns="http://www.w3.org/2000/svg" xmlns:xlink="http://www.w3.org/1999/xlink" x="0px" y="0px"
	 width="112.84px" height="48px" viewBox="0 0 112.84 48" style="enable-background:new 0 0 112.84 48;" xml:space="preserve">
<style type="text/css">
	.st0{fill:#8C0034;}
</style>
<g>
	<path class="st0" d="M17.01,35.68c0.27-0.27,0.4-0.6,0.4-0.97v-3.06h0.8v3.06c0,0.58-0.21,1.08-0.63,1.49
		c-0.42,0.41-0.93,0.62-1.52,0.62c-0.6,0-1.1-0.21-1.52-0.62c-0.42-0.41-0.63-0.91-0.63-1.49v-3.06h0.8v3.06
		c0,0.38,0.13,0.7,0.4,0.98c0.27,0.27,0.58,0.41,0.95,0.41C16.43,36.09,16.74,35.95,17.01,35.68"/>
	<polygon class="st0" points="19.81,31.64 20.65,31.64 22.21,35.72 23.78,31.64 24.62,31.64 22.62,36.74 21.82,36.74 	"/>
	<rect x="26.29" y="31.64" class="st0" width="0.8" height="5.1"/>
	<path class="st0" d="M31.54,31.64v3.57c0,0.48-0.15,0.86-0.46,1.16c-0.31,0.3-0.71,0.44-1.22,0.44c-0.15,0-0.29-0.02-0.43-0.06
		c-0.14-0.04-0.26-0.09-0.35-0.14c-0.09-0.06-0.18-0.12-0.25-0.18c-0.07-0.06-0.12-0.11-0.16-0.15l-0.05-0.06l0.51-0.51
		c0.01,0.03,0.04,0.06,0.07,0.1c0.03,0.04,0.11,0.09,0.24,0.16c0.12,0.07,0.26,0.1,0.42,0.1c0.27,0,0.49-0.08,0.64-0.23
		c0.15-0.16,0.23-0.37,0.23-0.64v-3.57H31.54z"/>
	<polygon class="st0" points="37.17,36.01 37.17,36.74 33.49,36.74 33.49,31.64 37.09,31.64 37.09,32.37 34.29,32.37 34.29,33.72 
		36.51,33.72 36.51,34.45 34.29,34.45 34.29,36.01 	"/>
	<polygon class="st0" points="39.79,34.12 42.08,31.64 43.1,31.64 41.13,33.76 43.25,36.74 42.26,36.74 40.59,34.34 39.79,35.21 
		39.79,36.74 38.99,36.74 38.99,31.64 39.79,31.64 	"/>
	<path class="st0" d="M49.22,34.89c-0.1-0.11-0.23-0.19-0.39-0.25c-0.16-0.06-0.33-0.12-0.53-0.16c-0.19-0.05-0.38-0.11-0.58-0.18
		c-0.19-0.07-0.37-0.16-0.53-0.26c-0.16-0.1-0.29-0.24-0.39-0.43c-0.1-0.18-0.15-0.41-0.15-0.66c0-0.39,0.15-0.72,0.45-0.99
		c0.3-0.26,0.71-0.4,1.22-0.4c0.19,0,0.37,0.02,0.55,0.07c0.17,0.05,0.32,0.1,0.43,0.16c0.11,0.06,0.21,0.13,0.3,0.19
		c0.09,0.06,0.15,0.12,0.19,0.16l0.06,0.07l-0.51,0.51c-0.01-0.01-0.02-0.03-0.04-0.05c-0.02-0.02-0.06-0.06-0.12-0.11
		c-0.06-0.05-0.13-0.09-0.2-0.13c-0.07-0.04-0.17-0.07-0.28-0.1c-0.12-0.03-0.24-0.05-0.37-0.05c-0.26,0-0.48,0.06-0.64,0.2
		c-0.16,0.13-0.24,0.28-0.24,0.46c0,0.16,0.05,0.29,0.15,0.39c0.1,0.11,0.23,0.19,0.39,0.25c0.16,0.06,0.33,0.12,0.52,0.16
		c0.19,0.05,0.38,0.11,0.58,0.18c0.19,0.07,0.37,0.16,0.53,0.25c0.16,0.1,0.29,0.24,0.39,0.43c0.1,0.19,0.15,0.41,0.15,0.66
		c0,0.45-0.16,0.82-0.48,1.1c-0.32,0.28-0.77,0.43-1.34,0.43c-0.23,0-0.45-0.03-0.66-0.08c-0.21-0.06-0.38-0.12-0.52-0.2
		c-0.14-0.08-0.25-0.15-0.35-0.23c-0.1-0.08-0.17-0.14-0.22-0.19l-0.07-0.09l0.51-0.51c0.01,0.01,0.03,0.04,0.05,0.06
		c0.02,0.03,0.07,0.07,0.15,0.14c0.08,0.07,0.17,0.13,0.26,0.18c0.09,0.05,0.21,0.1,0.37,0.14c0.15,0.04,0.31,0.06,0.49,0.06
		c0.32,0,0.56-0.08,0.75-0.23c0.18-0.15,0.27-0.34,0.27-0.57C49.37,35.13,49.32,35,49.22,34.89"/>
	<polygon class="st0" points="54.17,36.74 54.17,31.64 54.97,31.64 54.97,36.01 57.45,36.01 57.45,36.74 	"/>
	<path class="st0" d="M61.38,31.64v3.57c0,0.48-0.15,0.86-0.46,1.16c-0.31,0.3-0.71,0.44-1.22,0.44c-0.15,0-0.29-0.02-0.43-0.06
		c-0.14-0.04-0.26-0.09-0.35-0.14c-0.09-0.06-0.18-0.12-0.25-0.18c-0.07-0.06-0.12-0.11-0.16-0.15l-0.05-0.06l0.51-0.51
		c0.01,0.03,0.04,0.06,0.07,0.1c0.03,0.04,0.11,0.09,0.24,0.16c0.13,0.07,0.26,0.1,0.42,0.1c0.27,0,0.49-0.08,0.64-0.23
		c0.16-0.16,0.23-0.37,0.23-0.64v-3.57H61.38z"/>
	<path class="st0" d="M66.34,35.68c0.27-0.27,0.4-0.6,0.4-0.97v-3.06h0.8v3.06c0,0.58-0.21,1.08-0.63,1.49
		c-0.42,0.41-0.93,0.62-1.52,0.62c-0.6,0-1.1-0.21-1.52-0.62c-0.42-0.41-0.63-0.91-0.63-1.49v-3.06h0.8v3.06
		c0,0.38,0.13,0.7,0.4,0.98c0.27,0.27,0.58,0.41,0.95,0.41C65.75,36.09,66.07,35.95,66.34,35.68"/>
	<path class="st0" d="M69.48,36.74v-5.1h2.07c0.41,0,0.77,0.14,1.06,0.41c0.29,0.27,0.44,0.59,0.44,0.94c0,0.2-0.04,0.39-0.13,0.56
		c-0.08,0.17-0.17,0.29-0.25,0.36l-0.13,0.1c0.02,0.01,0.05,0.03,0.08,0.05c0.03,0.02,0.1,0.07,0.19,0.15
		c0.09,0.07,0.17,0.16,0.23,0.25c0.07,0.09,0.13,0.21,0.18,0.35c0.06,0.14,0.08,0.29,0.08,0.45c0,0.41-0.16,0.76-0.47,1.05
		c-0.31,0.29-0.7,0.44-1.17,0.44H69.48z M70.28,32.34v1.38h1.27c0.2,0,0.36-0.07,0.5-0.2c0.13-0.13,0.2-0.3,0.2-0.49
		c0-0.2-0.07-0.36-0.2-0.49c-0.13-0.13-0.3-0.2-0.5-0.2H70.28z M71.67,36.05c0.24,0,0.44-0.08,0.6-0.24
		c0.16-0.16,0.24-0.36,0.24-0.6c0-0.24-0.08-0.44-0.24-0.6c-0.16-0.16-0.36-0.24-0.6-0.24h-1.38v1.68H71.67z"/>
	<path class="st0" d="M76.79,31.64h0.8l2.11,5.1h-0.84l-0.55-1.35h-2.26l-0.55,1.35h-0.84L76.79,31.64z M76.36,34.67h1.68
		l-0.84-2.11L76.36,34.67z"/>
	<polygon class="st0" points="80,31.64 80.84,31.64 82.41,35.72 83.98,31.64 84.81,31.64 82.81,36.74 82.01,36.74 	"/>
	<polygon class="st0" points="86.49,36.74 86.49,31.64 87.29,31.64 87.29,36.01 89.76,36.01 89.76,36.74 	"/>
	<path class="st0" d="M93.7,31.64v3.57c0,0.48-0.15,0.86-0.46,1.16c-0.31,0.3-0.71,0.44-1.22,0.44c-0.15,0-0.29-0.02-0.43-0.06
		c-0.14-0.04-0.26-0.09-0.35-0.14c-0.09-0.06-0.18-0.12-0.25-0.18c-0.07-0.06-0.12-0.11-0.16-0.15l-0.05-0.06l0.51-0.51
		c0.01,0.03,0.04,0.06,0.07,0.1c0.03,0.04,0.11,0.09,0.24,0.16c0.13,0.07,0.26,0.1,0.42,0.1c0.27,0,0.49-0.08,0.64-0.23
		c0.15-0.16,0.23-0.37,0.23-0.64v-3.57H93.7z"/>
	<path class="st0" d="M98.67,35.68c0.27-0.27,0.4-0.6,0.4-0.97v-3.06h0.8v3.06c0,0.58-0.21,1.08-0.63,1.49
		c-0.42,0.41-0.93,0.62-1.52,0.62c-0.6,0-1.1-0.21-1.52-0.62c-0.42-0.41-0.63-0.91-0.63-1.49v-3.06h0.8v3.06
		c0,0.38,0.13,0.7,0.4,0.98c0.27,0.27,0.58,0.41,0.95,0.41C98.09,36.09,98.4,35.95,98.67,35.68"/>
	<path class="st0" d="M24.4,21.43h-1.56c-0.78,0-1.12-0.44-1.22-1.22L20.28,9.18l-4.61,11.25c-0.34,0.75-0.81,1.15-1.5,1.15h-0.25
		c-0.72,0-1.19-0.41-1.5-1.15L7.78,9.18L6.47,20.21C6.38,20.99,6,21.43,5.22,21.43H3.45c-0.78,0-1.19-0.44-1.09-1.22L4.97,2.07
		C5.07,1.35,5.5,1.01,6.19,1.01h0.25c0.65,0,1.06,0.37,1.37,1.06l6.24,13.84l6.02-13.84c0.31-0.69,0.75-1.06,1.4-1.06h0.25
		c0.65,0,1.09,0.34,1.22,1.06l2.56,18.15C25.61,20.99,25.18,21.43,24.4,21.43"/>
	<path class="st0" d="M48.62,21.43h-2.43c-0.78,0-0.94-0.44-1.28-1.22l-1.09-2.62h-9.23l-1.12,2.62c-0.31,0.78-0.47,1.22-1.28,1.22
		h-2.28c-0.78,0-1.18-0.44-0.81-1.22l8.57-18.18c0.31-0.65,0.75-1.06,1.47-1.06h0.28c0.72,0,1.18,0.41,1.5,1.06l8.54,18.18
		C49.8,20.99,49.43,21.43,48.62,21.43 M42.54,14.57l-3.27-7.86l-3.37,7.86H42.54z"/>
	<path class="st0" d="M70.79,2.38v17.9c0,0.9-0.65,1.31-1.4,1.31h-0.25c-0.72,0-1.25-0.41-1.84-1.12L57.26,8.49v11.69
		c0,0.78-0.41,1.25-1.18,1.25H54.3c-0.78,0-1.22-0.47-1.22-1.25V2.32c0-0.94,0.66-1.31,1.4-1.31h0.25c0.72,0,1.25,0.41,1.84,1.12
		l10.04,11.94V2.38c0-0.78,0.4-1.22,1.18-1.22h1.78C70.35,1.17,70.79,1.6,70.79,2.38"/>
	<path class="st0" d="M74.31,19.28c-0.56-0.56-0.53-1.12,0-1.65l1.06-1.06c0.59-0.56,1.09-0.5,1.65,0.03
		c0.62,0.69,1.56,1.43,2.99,1.43c1.9,0,3.21-1.25,3.21-3.55V2.38c0-0.78,0.44-1.22,1.22-1.22h1.81c0.78,0,1.18,0.44,1.18,1.22v12.07
		c0,4.89-2.9,7.36-7.14,7.36C77.74,21.8,75.65,20.78,74.31,19.28"/>
	<path class="st0" d="M110.48,21.43h-2.43c-0.78,0-0.94-0.44-1.28-1.22l-1.09-2.62h-9.23l-1.12,2.62c-0.31,0.78-0.47,1.22-1.28,1.22
		h-2.28c-0.78,0-1.18-0.44-0.81-1.22l8.57-18.18c0.31-0.65,0.75-1.06,1.47-1.06h0.28c0.72,0,1.18,0.41,1.5,1.06l8.54,18.18
		C111.66,20.99,111.29,21.43,110.48,21.43 M104.4,14.57l-3.27-7.86l-3.37,7.86H104.4z"/>
	<path class="st0" d="M49.96,41.85v5.1H49.6v-4.44c-0.02,0.03-0.06,0.06-0.1,0.11c-0.04,0.04-0.15,0.1-0.32,0.18
		c-0.17,0.07-0.36,0.11-0.56,0.11v-0.29c0.2,0,0.4-0.06,0.57-0.19c0.18-0.13,0.3-0.26,0.37-0.38l0.11-0.19H49.96z"/>
	<path class="st0" d="M52.44,44.58c-0.32-0.32-0.48-0.71-0.48-1.16c0-0.46,0.16-0.84,0.48-1.16c0.32-0.32,0.72-0.48,1.19-0.48
		c0.47,0,0.87,0.16,1.19,0.48c0.32,0.32,0.48,0.71,0.48,1.16c0,0.18-0.03,0.37-0.09,0.55c-0.06,0.18-0.12,0.32-0.19,0.4l-0.08,0.14
		l-1.53,2.44h-0.4l1.27-2.04c-0.17,0.1-0.39,0.15-0.65,0.15C53.16,45.06,52.77,44.9,52.44,44.58 M52.69,44.33
		c0.25,0.24,0.56,0.36,0.94,0.36c0.38,0,0.69-0.12,0.94-0.36c0.25-0.24,0.37-0.55,0.37-0.91c0-0.36-0.12-0.67-0.37-0.91
		c-0.25-0.24-0.56-0.36-0.94-0.36c-0.38,0-0.69,0.12-0.94,0.36c-0.25,0.24-0.37,0.55-0.37,0.91C52.32,43.78,52.45,44.08,52.69,44.33
		"/>
	<path class="st0" d="M57.36,44.58c-0.32-0.32-0.48-0.71-0.48-1.16c0-0.46,0.16-0.84,0.48-1.16c0.32-0.32,0.72-0.48,1.19-0.48
		c0.47,0,0.87,0.16,1.19,0.48c0.32,0.32,0.48,0.71,0.48,1.16c0,0.18-0.03,0.37-0.09,0.55c-0.06,0.18-0.12,0.32-0.19,0.4l-0.09,0.14
		l-1.53,2.44h-0.4l1.27-2.04c-0.17,0.1-0.39,0.15-0.65,0.15C58.08,45.06,57.68,44.9,57.36,44.58 M57.61,44.33
		c0.25,0.24,0.56,0.36,0.94,0.36c0.38,0,0.69-0.12,0.94-0.36c0.25-0.24,0.37-0.55,0.37-0.91c0-0.36-0.12-0.67-0.37-0.91
		c-0.25-0.24-0.56-0.36-0.94-0.36c-0.38,0-0.69,0.12-0.94,0.36c-0.25,0.24-0.37,0.55-0.37,0.91C57.24,43.78,57.36,44.08,57.61,44.33
		"/>
	<path class="st0" d="M64.7,44.19c0.32,0.32,0.48,0.72,0.48,1.19c0,0.46-0.16,0.85-0.49,1.16c-0.33,0.32-0.73,0.48-1.22,0.48
		c-0.2,0-0.39-0.03-0.57-0.08c-0.18-0.05-0.33-0.12-0.45-0.19c-0.12-0.07-0.22-0.15-0.3-0.22c-0.09-0.08-0.15-0.14-0.19-0.19
		l-0.06-0.08L62.15,46c0.01,0.02,0.03,0.04,0.05,0.07c0.02,0.03,0.08,0.08,0.16,0.16c0.08,0.07,0.17,0.14,0.26,0.2
		c0.09,0.06,0.21,0.11,0.36,0.16c0.15,0.05,0.31,0.07,0.48,0.07c0.4,0,0.72-0.12,0.97-0.36c0.25-0.24,0.37-0.55,0.37-0.91
		c0-0.38-0.12-0.69-0.36-0.94c-0.24-0.25-0.55-0.37-0.91-0.37c-0.24,0-0.45,0.05-0.65,0.16c-0.2,0.1-0.33,0.21-0.4,0.31l-0.11,0.15
		h-0.29l0.18-2.84h2.59v0.37h-2.26l-0.11,1.89c0.03-0.03,0.07-0.07,0.13-0.11c0.06-0.04,0.18-0.1,0.36-0.18
		c0.18-0.07,0.37-0.11,0.56-0.11C64,43.71,64.38,43.87,64.7,44.19"/>
	<rect x="39.09" y="44.21" class="st0" width="5.54" height="0.38"/>
	<rect x="69.16" y="44.21" class="st0" width="5.54" height="0.38"/>
</g>
</svg>
