<svg width="24" height="24" viewBox="0 0 24 24" fill="none" xmlns="http://www.w3.org/2000/svg">
<path d="M15.2902 21L8.71523 18.675L4.24023 20.45C3.9569 20.6 3.67773 20.5917 3.40273 20.425C3.12773 20.2583 2.99023 20.0083 2.99023 19.675V5.725C2.99023 5.50833 3.05273 5.31667 3.17773 5.15C3.30273 4.98333 3.46523 4.85833 3.66523 4.775L8.71523 3L15.2902 5.3L19.7402 3.525C20.0236 3.39167 20.3027 3.40417 20.5777 3.5625C20.8527 3.72083 20.9902 3.96667 20.9902 4.3V18.425C20.9902 18.6083 20.9277 18.7667 20.8027 18.9C20.6777 19.0333 20.5236 19.1333 20.3402 19.2L15.2902 21ZM14.4402 19.125V6.5L9.54023 4.85V17.475L14.4402 19.125ZM15.9402 19.125L19.4902 17.95V5.15L15.9402 6.5V19.125ZM4.49023 18.825L8.04023 17.475V4.85L4.49023 6.025V18.825ZM15.9402 6.5V19.125V6.5ZM8.04023 4.85V17.475V4.85Z" fill="white"/>
</svg>
