<?xml version="1.0" encoding="utf-8"?>
<!-- Generator: Adobe Illustrator 27.0.0, SVG Export Plug-In . SVG Version: 6.00 Build 0)  -->
<svg version="1.1" id="Layer_1" xmlns="http://www.w3.org/2000/svg" xmlns:xlink="http://www.w3.org/1999/xlink" x="0px" y="0px"
	 viewBox="0 0 153.77 32" style="enable-background:new 0 0 153.77 32;" xml:space="preserve">
<style type="text/css">
	.st0{fill:#EE4459;}
</style>
<g>
	<g>
		<rect x="0.37" y="8.31" class="st0" width="54.62" height="7.42"/>
		<rect x="0.37" y="0.32" class="st0" width="43.41" height="7.42"/>
		<rect x="0.37" y="16.29" class="st0" width="49.99" height="7.42"/>
		<rect x="0.37" y="24.27" class="st0" width="32.16" height="7.42"/>
	</g>
	<g>
		<path class="st0" d="M116.15,8.27V23.8h-0.08l-10.44-9.43l0.06,8.82h-2.98V7.68h0.12l10.42,9.57l-0.06-8.98H116.15z"/>
		<path class="st0" d="M121.14,8.08h4.58c1.96,0,3.56,0.38,4.83,1.13c1.26,0.76,2.18,1.73,2.76,2.93c0.58,1.2,0.86,2.49,0.86,3.86
			c0,1.47-0.35,2.77-1.04,3.89c-0.69,1.12-1.63,1.99-2.8,2.59c-1.17,0.6-2.46,0.9-3.86,0.9h-5.32V8.08z M125.94,20.48
			c1.57,0,2.81-0.4,3.72-1.21c0.92-0.8,1.37-1.96,1.37-3.47c0-1.22-0.25-2.19-0.76-2.91c-0.51-0.72-1.1-1.22-1.77-1.5
			c-0.67-0.28-1.31-0.42-1.9-0.42h-2.45v9.51H125.94z"/>
		<g>
			<path class="st0" d="M79.8,7.85v15.53h-2.94v-7.12l-4.87,6.91h-0.04l-4.68-6.47v6.67h-2.84V7.85h0.02l7.56,10.72l7.74-10.72H79.8
				z"/>
		</g>
		<path class="st0" d="M152.77,12.44c-0.41-0.95-0.96-1.77-1.65-2.45c-0.7-0.68-1.53-1.22-2.51-1.6c-0.15-0.06-0.31-0.11-0.46-0.16
			l0.28-1.96l-3.21,0.02L145,7.83c-0.94,0.05-1.83,0.25-2.66,0.6c-0.98,0.4-1.81,0.95-2.51,1.63c-0.7,0.69-1.24,1.51-1.64,2.47
			c-0.4,0.96-0.59,1.98-0.59,3.06c0.01,1.08,0.21,2.1,0.62,3.06c0.41,0.96,0.97,1.77,1.67,2.45c0.7,0.68,1.55,1.21,2.53,1.6
			c0.18,0.07,0.36,0.13,0.54,0.19l-0.24,1.79l3.09-0.02l0.2-1.4c0.95-0.05,1.84-0.25,2.69-0.59c0.97-0.4,1.8-0.94,2.49-1.63
			c0.69-0.69,1.23-1.51,1.62-2.47c0.39-0.96,0.59-1.98,0.58-3.07C153.38,14.41,153.18,13.39,152.77,12.44z M148.84,18.89
			c-0.67,0.69-1.47,1.12-2.4,1.29c-0.29,0.05-0.58,0.08-0.89,0.08c-0.8,0-1.52-0.16-2.17-0.49c-0.42-0.21-0.81-0.5-1.16-0.85
			c-0.9-0.9-1.36-2.02-1.36-3.35c-0.01-1.33,0.43-2.45,1.32-3.36c0.68-0.69,1.47-1.12,2.4-1.29c0.29-0.05,0.6-0.08,0.92-0.08
			c0.82,0,1.55,0.16,2.21,0.51c0.4,0.21,0.76,0.48,1.1,0.82c0.89,0.89,1.33,2.01,1.34,3.35C150.15,16.86,149.72,17.99,148.84,18.89z
			"/>
		<g>
			<path class="st0" d="M91.31,23.3c-0.67,0-1.35-0.09-2.02-0.27c-1.97-0.54-3.61-1.8-4.62-3.57c-1.01-1.77-1.27-3.83-0.74-5.79l0,0
				c0.54-1.97,1.8-3.61,3.57-4.62c1.77-1.01,3.83-1.27,5.79-0.74c1.97,0.54,3.61,1.8,4.62,3.57c1.01,1.77,1.27,3.83,0.74,5.79
				c-0.54,1.97-1.8,3.61-3.57,4.62C93.92,22.96,92.62,23.3,91.31,23.3z M86.82,14.45c-0.33,1.2-0.17,2.45,0.45,3.52
				c0.62,1.08,1.61,1.85,2.81,2.17c1.2,0.33,2.45,0.17,3.52-0.45c1.08-0.62,1.85-1.61,2.17-2.81c0.33-1.2,0.17-2.45-0.45-3.52
				c-0.62-1.08-1.61-1.85-2.81-2.17c-1.2-0.33-2.45-0.17-3.52,0.45C87.92,12.26,87.15,13.25,86.82,14.45L86.82,14.45z"/>
		</g>
	</g>
</g>
</svg>
