<?xml version="1.0" encoding="utf-8"?>
<!-- Generator: Adobe Illustrator 23.0.1, SVG Export Plug-In . SVG Version: 6.00 Build 0)  -->
<svg version="1.1" id="Layer_1" xmlns="http://www.w3.org/2000/svg" xmlns:xlink="http://www.w3.org/1999/xlink" x="0px" y="0px"
	 width="165.06px" height="42px" viewBox="0 0 165.06 42" style="enable-background:new 0 0 165.06 42;" xml:space="preserve">
<style type="text/css">
	.st0{fill:#69508D;}
	.st1{fill:#FFFFFF;}
</style>
<g>
	<path class="st0" d="M27.77,21.64c0.01-4.27,0.89-7.61,2.68-10.71c1.82-3.15,4.31-5.64,7.47-7.43c3.13-1.78,6.5-2.65,10.11-2.63
		c3.58,0.03,6.91,0.93,10,2.73c3.07,1.78,5.49,4.23,7.27,7.29c1.83,3.14,2.75,6.55,2.71,10.18c-0.06,5.5-2.01,10.26-5.9,14.16
		c-3.92,3.91-8.71,5.82-14.24,5.9C36.45,41.07,27.69,31.79,27.77,21.64z M48.48,21c0.02,5.13,4.14,8.73,8.71,8.75
		c4.44,0.01,8.71-3.46,8.77-8.6c0.07-5.16-4.15-8.84-8.67-8.88C52.57,12.23,48.52,15.99,48.48,21z M29.52,20.95
		c-0.09,4.77,3.76,8.72,8.58,8.8c4.6,0.07,8.82-3.54,8.89-8.59c0.08-4.98-3.97-8.82-8.6-8.89C33.34,12.19,29.49,16.31,29.52,20.95z"
		/>
	<path d="M13.51,15.7c0.09-0.06,0.18-0.08,0.22-0.14c0.15-0.2,0.28-0.42,0.43-0.62c0.59-0.79,1.3-1.44,2.18-1.9
		c1.06-0.55,2.2-0.74,3.39-0.61c1.08,0.11,2.05,0.48,2.9,1.15c0.71,0.56,1.25,1.26,1.65,2.06c0.47,0.93,0.72,1.92,0.8,2.95
		c0.03,0.33,0.03,0.67,0.03,1c0,2.75,0,5.5,0,8.25c0,0.25,0,0.5-0.03,0.75c-0.03,0.3-0.3,0.59-0.6,0.6c-0.58,0.02-1.16,0.02-1.75,0
		c-0.29-0.01-0.51-0.24-0.56-0.53c-0.03-0.16-0.04-0.33-0.05-0.5c-0.01-0.44,0-0.89,0-1.33c0-2.47,0-4.94,0-7.41
		c0-0.5-0.03-1-0.15-1.49c-0.11-0.41-0.26-0.79-0.46-1.16c-0.45-0.81-1.14-1.27-2.04-1.42c-2.25-0.37-3.86,0.89-4.59,2.3
		c-0.25,0.48-0.39,0.98-0.42,1.51c-0.02,0.3-0.02,0.61-0.02,0.92c0,2.58,0,5.16,0,7.75c0,0.25,0,0.5-0.01,0.75
		c-0.02,0.34-0.25,0.61-0.56,0.62c-0.61,0.02-1.22,0.01-1.83,0c-0.22-0.01-0.41-0.2-0.44-0.44c-0.03-0.27-0.05-0.55-0.05-0.83
		c0-1.58,0-3.17,0-4.75c0-1.25,0-2.5,0-3.75c0-0.64-0.06-1.28-0.29-1.88c-0.12-0.31-0.27-0.61-0.44-0.9
		c-0.44-0.74-1.12-1.14-1.95-1.29c-1.3-0.23-2.48,0.06-3.52,0.88C4.39,17,3.87,17.97,3.82,19.19c-0.01,0.22,0,0.44,0,0.67
		c0,2.64,0,5.28,0,7.91c0,0.3-0.01,0.61-0.04,0.91c-0.03,0.31-0.24,0.52-0.55,0.53c-0.58,0.02-1.17,0.01-1.75,0
		c-0.3-0.01-0.53-0.24-0.55-0.53C0.9,28.39,0.9,28.12,0.9,27.84c0-3.94,0-7.89,0-11.83c0-0.72,0-1.44,0-2.17
		c0-0.19,0.02-0.39,0.05-0.58c0.03-0.22,0.23-0.4,0.45-0.44c0.05-0.01,0.11-0.03,0.16-0.03c0.5,0,1-0.01,1.5,0.01
		c0.33,0.01,0.58,0.24,0.63,0.56c0.04,0.25,0.05,0.5,0.07,0.75c0.02,0.16,0.03,0.33,0.06,0.49c0,0.03,0.1,0.07,0.13,0.05
		c0.09-0.06,0.18-0.12,0.25-0.2c0.44-0.47,0.93-0.87,1.48-1.21c0.75-0.46,1.56-0.72,2.44-0.75c0.67-0.02,1.33-0.01,1.98,0.17
		c0.63,0.18,1.18,0.47,1.67,0.9c0.52,0.47,0.97,0.99,1.36,1.57C13.25,15.32,13.37,15.5,13.51,15.7z"/>
	<path d="M85.73,16.76c0,3.61,0,7.22,0,10.83c0,0.25,0.01,0.5-0.01,0.75c-0.01,0.14-0.03,0.28-0.08,0.41
		c-0.08,0.22-0.24,0.37-0.47,0.43c-0.05,0.01-0.11,0.03-0.16,0.03c-0.5,0-1,0.02-1.5,0c-0.41-0.02-0.66-0.28-0.7-0.69
		c-0.03-0.36-0.03-0.72-0.05-1.08c0-0.02-0.02-0.06-0.04-0.06c-0.05,0-0.12-0.01-0.15,0.02c-0.16,0.15-0.31,0.32-0.47,0.47
		c-0.25,0.22-0.49,0.45-0.75,0.66c-0.64,0.52-1.38,0.84-2.19,0.95c-1.22,0.17-2.44,0.17-3.63-0.18c-1.96-0.58-3.42-1.8-4.4-3.58
		c-0.62-1.13-0.97-2.35-1.09-3.64c-0.14-1.37-0.01-2.72,0.39-4.03c0.3-0.99,0.75-1.91,1.39-2.73c1.1-1.41,2.52-2.33,4.27-2.7
		c1.04-0.22,2.1-0.21,3.15-0.03c0.84,0.14,1.58,0.52,2.23,1.06c0.36,0.3,0.69,0.64,1,1c0.05,0.06,0.13,0.09,0.2,0.12
		c0.07,0.03,0.12-0.08,0.12-0.27c0-0.08,0-0.17,0-0.25c0-0.19,0-0.39,0-0.58c0-2.64,0-5.27,0-7.91c0-0.25,0-0.5,0.02-0.75
		c0.04-0.37,0.26-0.62,0.63-0.68c0.52-0.08,1.05-0.08,1.58,0c0.42,0.06,0.68,0.36,0.71,0.8c0.02,0.25,0.01,0.5,0.01,0.75
		C85.73,9.49,85.73,13.13,85.73,16.76z M77.99,15.34c-0.17,0-0.33-0.01-0.5,0c-1.43,0.12-2.6,0.74-3.44,1.92
		c-0.29,0.41-0.52,0.85-0.68,1.33c-0.54,1.6-0.55,3.22-0.04,4.82c0.25,0.78,0.65,1.47,1.24,2.04c1.06,1.03,2.36,1.42,3.81,1.32
		c1.25-0.08,2.29-0.61,3.14-1.52c0.48-0.51,0.84-1.1,1.09-1.76c0.19-0.49,0.32-1,0.4-1.53c0.23-1.6-0.09-3.1-0.96-4.46
		C81.1,16.06,79.74,15.33,77.99,15.34z"/>
	<path d="M121.3,20.93c0,2.31,0,4.61,0,6.92c0,0.25,0,0.5-0.03,0.75c-0.03,0.31-0.28,0.58-0.6,0.6c-0.53,0.03-1.05,0.02-1.58,0.01
		c-0.29-0.01-0.51-0.23-0.56-0.53c-0.04-0.22-0.04-0.44-0.05-0.66c-0.02-0.25-0.03-0.5-0.04-0.74c0-0.02-0.03-0.04-0.05-0.05
		c-0.02-0.01-0.07-0.03-0.08-0.01c-0.1,0.1-0.2,0.19-0.29,0.3c-0.31,0.36-0.65,0.69-1.01,0.99c-0.63,0.54-1.36,0.87-2.17,0.98
		c-1.28,0.18-2.55,0.16-3.79-0.23c-2.19-0.69-3.77-2.08-4.77-4.13c-0.52-1.06-0.8-2.18-0.87-3.36c-0.09-1.55,0.09-3.05,0.72-4.48
		c0.89-2.03,2.33-3.49,4.4-4.31c1.13-0.45,2.31-0.56,3.52-0.48c1.55,0.1,2.82,0.75,3.82,1.94c0.14,0.17,0.29,0.34,0.44,0.5
		c0.02,0.02,0.06,0.03,0.08,0.02c0.04-0.02,0.11-0.06,0.12-0.09c0.04-0.3,0.07-0.6,0.1-0.91c0.03-0.22,0.04-0.44,0.08-0.66
		c0.07-0.33,0.31-0.54,0.64-0.56c0.39-0.02,0.78-0.02,1.17,0c0.13,0.01,0.27,0.06,0.39,0.12c0.21,0.1,0.35,0.28,0.38,0.51
		c0.03,0.27,0.04,0.55,0.04,0.83C121.3,16.43,121.3,18.68,121.3,20.93z M118.48,21.17c0.01-1.13-0.19-2.15-0.67-3.12
		c-0.32-0.66-0.74-1.24-1.32-1.69c-1.49-1.17-3.14-1.3-4.88-0.73c-1.34,0.44-2.25,1.39-2.83,2.65c-0.63,1.36-0.74,2.77-0.44,4.23
		c0.13,0.6,0.34,1.17,0.65,1.7c1.23,2.11,3.53,2.98,5.87,2.35c1.55-0.41,2.59-1.44,3.18-2.93C118.37,22.83,118.5,21.98,118.48,21.17
		z"/>
	<path d="M157.16,22.28c-1.58,0-3.16,0-4.75,0c-0.19,0-0.39,0.02-0.58,0.05c-0.04,0.01-0.09,0.07-0.1,0.12
		c-0.02,0.08-0.02,0.17,0,0.25c0.39,1.75,1.39,2.99,3.03,3.72c0.65,0.29,1.34,0.38,2.03,0.35c1.25-0.05,2.39-0.46,3.41-1.19
		c0.13-0.1,0.26-0.2,0.4-0.3c0.14-0.1,0.3-0.13,0.47-0.12c0.14,0.01,0.28,0.05,0.36,0.17c0.34,0.5,0.69,1.01,1.02,1.52
		c0.1,0.15,0.06,0.4-0.07,0.54c-0.09,0.1-0.19,0.2-0.31,0.28c-0.91,0.64-1.88,1.18-2.93,1.56c-1.09,0.39-2.21,0.54-3.36,0.38
		c-2.87-0.38-4.9-1.94-6.2-4.49c-0.83-1.63-1.09-3.36-0.88-5.18c0.22-1.97,0.99-3.69,2.34-5.13c1.3-1.39,2.91-2.22,4.8-2.41
		c1.94-0.2,3.69,0.34,5.21,1.54c1.64,1.29,2.6,3,2.97,5.05c0.12,0.69,0.1,1.38,0.06,2.08c-0.03,0.49-0.27,0.82-0.75,1
		c-0.42,0.16-0.87,0.19-1.31,0.21c-0.28,0.02-0.55,0-0.83,0C159.88,22.28,158.52,22.28,157.16,22.28z M156.52,19.79
		c1.31,0,2.61-0.01,3.92,0c0.94,0.01,0.88-0.06,0.62-0.88c-0.08-0.26-0.19-0.52-0.31-0.77c-0.56-1.1-1.34-1.97-2.48-2.49
		c-1.31-0.6-2.59-0.52-3.82,0.2c-0.41,0.24-0.77,0.54-1.09,0.9c-0.63,0.69-1.08,1.48-1.38,2.36c-0.04,0.13-0.07,0.27-0.1,0.4
		c-0.03,0.14,0.08,0.27,0.23,0.27c0.22,0.01,0.44,0.01,0.67,0.01C154.02,19.79,155.27,19.79,156.52,19.79z"/>
	<path d="M124.78,20.95c0-2.28,0-4.55,0-6.83c0-0.25,0-0.5,0.01-0.75c0.02-0.28,0.25-0.53,0.52-0.58c0.11-0.02,0.22-0.04,0.33-0.04
		c0.36-0.01,0.72-0.01,1.08,0c0.6,0.02,0.83,0.26,0.88,0.88c0.02,0.28,0.03,0.55,0.05,0.83c0.01,0.08,0.03,0.16,0.07,0.23
		c0.02,0.03,0.11,0.06,0.14,0.04c0.1-0.05,0.18-0.12,0.27-0.19c1.09-0.95,2.35-1.56,3.74-1.93c2.79-0.75,5.74,0.59,7.01,3.16
		c0.41,0.83,0.68,1.7,0.75,2.63c0.04,0.5,0.08,1,0.08,1.5c0.01,2.64,0,5.28,0,7.92c0,0.17,0,0.33-0.01,0.5
		c-0.01,0.11-0.03,0.22-0.05,0.33c-0.07,0.32-0.31,0.56-0.63,0.57c-0.61,0.02-1.22,0.01-1.83-0.01c-0.23-0.01-0.41-0.2-0.43-0.44
		c-0.03-0.28-0.04-0.55-0.04-0.83c0-2.61,0-5.22,0-7.83c0-0.22,0-0.44,0-0.67c0.01-0.42-0.07-0.83-0.18-1.23
		c-0.43-1.58-1.78-2.73-3.41-2.87c-1.77-0.16-3.27,0.46-4.53,1.68c-0.63,0.61-0.94,1.34-0.93,2.23c0.03,2.05,0.01,4.11,0.01,6.17
		c0,0.92,0,1.83,0,2.75c0,0.22-0.02,0.44-0.06,0.66c-0.04,0.2-0.19,0.33-0.4,0.38c-0.11,0.02-0.22,0.04-0.33,0.04
		c-0.42,0-0.83,0-1.25,0c-0.11,0-0.22-0.01-0.33-0.03c-0.24-0.04-0.47-0.25-0.5-0.5c-0.02-0.25-0.03-0.5-0.03-0.75
		c0-1.81,0-3.61,0-5.42C124.78,22.01,124.78,21.48,124.78,20.95z"/>
	<path d="M146.09,22.26c0,2.56,0,5.11,0,7.67c0,0.42-0.01,0.84-0.07,1.25c-0.3,2.07-1.47,3.49-3.34,4.36
		c-0.56,0.26-1.16,0.38-1.77,0.44c-0.22,0.02-0.44,0-0.65-0.1c-0.15-0.08-0.27-0.19-0.32-0.36c-0.03-0.11-0.07-0.22-0.07-0.32
		c-0.01-0.42,0-0.83,0-1.25c0-0.08,0.03-0.16,0.05-0.24c0.07-0.27,0.24-0.43,0.51-0.49c0.13-0.03,0.28-0.03,0.41-0.04
		c0.64-0.07,1.16-0.36,1.56-0.86c0.43-0.54,0.68-1.14,0.69-1.84c0-0.22,0-0.44,0-0.67c0-5.19,0-10.39,0-15.58
		c0-0.28,0-0.56,0.02-0.83c0.02-0.27,0.18-0.47,0.43-0.56c0.15-0.06,0.32-0.1,0.48-0.11c0.39-0.01,0.78-0.01,1.17,0
		c0.11,0,0.22,0.02,0.33,0.05c0.26,0.08,0.43,0.25,0.5,0.51c0.04,0.13,0.05,0.27,0.06,0.41c0.01,0.22,0.01,0.44,0.01,0.67
		C146.09,16.98,146.09,19.62,146.09,22.26z"/>
	<path d="M96.14,20.92c0-2.25,0-4.5,0-6.74c0-0.22,0-0.44,0.01-0.67c0.02-0.49,0.3-0.79,0.77-0.81c0.39-0.02,0.78-0.01,1.17-0.01
		c0.06,0,0.11,0.01,0.17,0.02c0.26,0.06,0.47,0.19,0.55,0.45c0.06,0.18,0.09,0.37,0.13,0.56c0.03,0.16,0.06,0.33,0.09,0.49
		c0.02,0.09,0.15,0.13,0.2,0.08c0.11-0.12,0.22-0.24,0.34-0.36c0.26-0.25,0.51-0.51,0.78-0.74c0.41-0.35,0.89-0.56,1.42-0.66
		c0.6-0.11,1.21-0.13,1.82-0.03c0.5,0.09,0.96,0.27,1.35,0.61c0.21,0.18,0.27,0.42,0.14,0.67c-0.27,0.52-0.54,1.03-0.83,1.54
		c-0.05,0.09-0.13,0.18-0.23,0.24c-0.09,0.05-0.21,0.08-0.31,0.07c-0.11-0.01-0.2-0.08-0.31-0.12c-1-0.38-1.91-0.2-2.72,0.48
		c-0.71,0.59-1.13,1.36-1.4,2.22c-0.16,0.51-0.24,1.03-0.23,1.56c0.01,0.69,0,1.39,0,2.08c0,2,0,4,0,5.99c0,0.25,0,0.5-0.02,0.75
		c-0.03,0.35-0.25,0.59-0.58,0.6c-0.58,0.01-1.16,0.01-1.75-0.01c-0.29-0.01-0.52-0.25-0.55-0.54c-0.03-0.25-0.03-0.5-0.03-0.75
		c0-1.97,0-3.94,0-5.91C96.14,21.64,96.14,21.28,96.14,20.92z"/>
	<path d="M92.27,20.99c0,2.31,0,4.61,0,6.92c0,0.25,0,0.5-0.02,0.75c-0.02,0.29-0.25,0.54-0.54,0.54c-0.61,0.02-1.22,0.01-1.83-0.01
		c-0.26-0.01-0.45-0.23-0.48-0.5c-0.02-0.19-0.03-0.39-0.03-0.58c0-4.75,0-9.5,0-14.25c0-0.19,0-0.39,0.02-0.58
		c0.03-0.3,0.24-0.51,0.53-0.56c0.05-0.01,0.11-0.02,0.16-0.02c0.5,0,1,0,1.5,0c0.08,0,0.16,0.03,0.24,0.06
		c0.22,0.08,0.38,0.24,0.41,0.48c0.03,0.25,0.03,0.5,0.03,0.75C92.27,16.33,92.27,18.66,92.27,20.99z"/>
	<path class="st1" d="M48.48,21c0.04-5.01,4.09-8.77,8.81-8.73c4.52,0.04,8.74,3.71,8.67,8.88c-0.07,5.14-4.33,8.61-8.77,8.6
		C52.62,29.74,48.5,26.13,48.48,21z M51.43,20.94c0.03,0.39,0.03,0.78,0.1,1.16c0.23,1.17,0.78,2.19,1.62,3.04
		c1.39,1.39,3.09,1.88,5.03,1.63c2.17-0.47,3.68-1.73,4.49-3.8c0.29-0.75,0.42-1.55,0.34-2.37c-0.18-1.71-0.94-3.12-2.29-4.19
		c-1.01-0.8-2.16-1.24-3.46-1.2c-0.11,0-0.22,0-0.33,0c-0.51-0.02-0.99,0.09-1.47,0.25C53.13,16.22,51.48,18.49,51.43,20.94z"/>
	<path class="st1" d="M29.52,20.95c-0.03-4.64,3.82-8.75,8.87-8.68c4.63,0.07,8.68,3.91,8.6,8.89c-0.08,5.05-4.29,8.66-8.89,8.59
		C33.28,29.67,29.43,25.72,29.52,20.95z M38.23,26.82c0.86,0.01,1.44-0.08,2.41-0.52c1.9-0.86,3.39-2.87,3.4-5.22
		c0-1.86-0.77-3.39-2.18-4.57c-1.03-0.86-2.22-1.34-3.59-1.29c-0.22,0.01-0.44,0-0.67,0.02c-0.17,0.01-0.33,0.02-0.49,0.06
		c-1.41,0.31-2.56,1.05-3.42,2.2c-1.11,1.48-1.51,3.14-1.04,4.95C33.36,25.21,35.87,26.89,38.23,26.82z"/>
	<path class="st0" d="M51.43,20.94c0.04-2.45,1.7-4.72,4.02-5.48c0.48-0.16,0.96-0.26,1.47-0.25c0.11,0,0.22,0,0.33,0
		c1.31-0.04,2.45,0.4,3.46,1.2c1.35,1.07,2.11,2.47,2.29,4.19c0.09,0.81-0.04,1.61-0.34,2.37c-0.81,2.07-2.32,3.33-4.49,3.8
		c-1.93,0.25-3.63-0.23-5.03-1.63c-0.84-0.84-1.39-1.87-1.62-3.04C51.46,21.72,51.46,21.32,51.43,20.94z"/>
	<path class="st0" d="M38.23,26.82c-2.36,0.07-4.87-1.6-5.58-4.39c-0.47-1.81-0.07-3.47,1.04-4.95c0.86-1.15,2.01-1.89,3.42-2.2
		c0.16-0.04,0.33-0.05,0.49-0.06c0.22-0.01,0.44-0.01,0.67-0.02c1.37-0.05,2.56,0.43,3.59,1.29c1.41,1.19,2.19,2.71,2.18,4.57
		c-0.01,2.35-1.5,4.36-3.4,5.22C39.67,26.73,39.09,26.83,38.23,26.82z"/>
</g>
</svg>
