<?xml version="1.0" encoding="utf-8"?>
<!-- Generator: Adobe Illustrator 27.0.0, SVG Export Plug-In . SVG Version: 6.00 Build 0)  -->
<svg version="1.1" id="Layer_1" xmlns="http://www.w3.org/2000/svg" xmlns:xlink="http://www.w3.org/1999/xlink" x="0px" y="0px"
	 viewBox="0 0 159.03 48" style="enable-background:new 0 0 159.03 48;" xml:space="preserve">
<style type="text/css">
	.st0{fill:none;}
	.st1{fill:#231F20;}
	
		.st2{clip-path:url(#SVGID_00000137848597935365646070000013687502669534213538_);fill:url(#SVGID_00000063593583839322115820000001146148338255054209_);}
	
		.st3{clip-path:url(#SVGID_00000113332718243640518120000005904275948232746380_);fill:url(#SVGID_00000049206986702938176160000018043852983377510801_);}
	.st4{opacity:0.15;clip-path:url(#SVGID_00000092443889159314437360000017317246327340220559_);}
	.st5{clip-path:url(#SVGID_00000015336365360738618140000010916593829864984492_);}
	
		.st6{clip-path:url(#SVGID_00000016781660619409435950000005897609323449114770_);fill:url(#SVGID_00000140734492670180427830000004850990090013325753_);}
	.st7{clip-path:url(#SVGID_00000006692830722009003230000012524055259092024496_);}
	
		.st8{clip-path:url(#SVGID_00000181803407565686698150000001521334968495187899_);fill:url(#SVGID_00000033354248083301198980000005757780009597699242_);}
</style>
<g>
	<g>
		<rect x="-15.6" y="-42.64" class="st0" width="189.85" height="134.24"/>
		<g>
			<path class="st1" d="M157.78,22.49c-0.32-0.75-0.76-1.41-1.31-1.96c-0.55-0.55-1.21-0.99-1.94-1.31c-1.49-0.65-3.29-0.65-4.79,0
				c-0.74,0.32-1.4,0.76-1.96,1.3c-0.56,0.55-1,1.21-1.32,1.96c-0.32,0.75-0.48,1.56-0.48,2.4c0,0.84,0.16,1.64,0.48,2.38
				c0.32,0.73,0.77,1.39,1.32,1.94c0.56,0.56,1.22,1,1.96,1.32c0.75,0.33,1.56,0.49,2.4,0.49c1.65,0,3.2-0.64,4.36-1.8l0.17-0.17
				l-1.7-1.71l-0.17,0.17c-0.71,0.71-1.65,1.11-2.66,1.11c-0.45,0-0.87-0.07-1.26-0.21c-0.38-0.14-0.74-0.34-1.05-0.6
				c-0.32-0.25-0.59-0.56-0.81-0.89c-0.17-0.25-0.3-0.53-0.4-0.83h9.57l0.02-0.22c0.03-0.33,0.04-0.51,0.04-0.64V24.9
				C158.27,24.06,158.11,23.25,157.78,22.49 M155.64,23.68h-7.01c0.1-0.29,0.23-0.56,0.41-0.82c0.22-0.34,0.49-0.64,0.81-0.9
				c0.3-0.24,0.66-0.44,1.05-0.58c0.39-0.14,0.79-0.22,1.24-0.22c0.44,0,0.86,0.07,1.24,0.22c0.4,0.14,0.75,0.34,1.05,0.58
				c0.31,0.25,0.58,0.56,0.8,0.89C155.4,23.12,155.54,23.39,155.64,23.68"/>
			<path class="st1" d="M73.2,22.49c-0.32-0.75-0.76-1.41-1.31-1.96c-0.55-0.55-1.21-0.99-1.94-1.31c-1.49-0.65-3.29-0.65-4.78,0
				c-0.74,0.32-1.4,0.76-1.96,1.3c-0.55,0.55-1,1.21-1.32,1.96c-0.32,0.75-0.48,1.56-0.48,2.4c0,0.84,0.16,1.64,0.48,2.38
				c0.32,0.73,0.77,1.39,1.32,1.94c0.55,0.56,1.22,1,1.95,1.32c0.75,0.33,1.56,0.49,2.41,0.49c1.65,0,3.19-0.64,4.35-1.8l0.17-0.17
				l-1.7-1.71l-0.17,0.17c-0.71,0.71-1.65,1.11-2.66,1.11c-0.45,0-0.87-0.07-1.26-0.21c-0.38-0.14-0.74-0.34-1.05-0.6
				c-0.32-0.25-0.59-0.56-0.81-0.89c-0.17-0.25-0.31-0.53-0.4-0.83h9.57l0.02-0.22c0.03-0.3,0.05-0.51,0.05-0.64V24.9
				C73.68,24.05,73.52,23.25,73.2,22.49 M64.05,23.68c0.1-0.29,0.23-0.56,0.4-0.82c0.23-0.34,0.5-0.64,0.81-0.9
				c0.31-0.24,0.66-0.44,1.05-0.58c0.39-0.14,0.8-0.22,1.24-0.22c0.44,0,0.86,0.07,1.24,0.22c0.39,0.14,0.75,0.34,1.05,0.58
				c0.31,0.25,0.58,0.56,0.79,0.89c0.17,0.26,0.3,0.54,0.41,0.82H64.05z"/>
			<path class="st1" d="M59.26,24.85v5.9h-2.43v-5.9c0-0.51-0.1-1-0.29-1.45c-0.19-0.45-0.45-0.86-0.79-1.2
				c-0.33-0.33-0.73-0.6-1.18-0.79c-0.89-0.37-2-0.39-2.92,0c-0.45,0.19-0.85,0.46-1.18,0.79c-0.33,0.34-0.6,0.75-0.8,1.2
				c-0.2,0.45-0.3,0.94-0.3,1.45v5.9h-2.4v-5.9c0-0.84,0.16-1.65,0.48-2.4c0.32-0.75,0.77-1.41,1.32-1.96
				c0.55-0.55,1.21-0.99,1.94-1.31c1.47-0.64,3.29-0.64,4.78,0c0.74,0.32,1.4,0.76,1.95,1.31c0.56,0.55,1,1.21,1.32,1.96
				C59.1,23.2,59.26,24.01,59.26,24.85"/>
			<path class="st1" d="M83.93,27.37l1.7,1.7l-0.17,0.17c-0.51,0.52-1.09,0.93-1.72,1.22c-0.64,0.3-1.29,0.45-1.96,0.45
				c-0.84,0-1.65-0.16-2.38-0.49c-0.73-0.32-1.38-0.76-1.94-1.31c-0.56-0.55-1-1.2-1.32-1.94c-0.32-0.74-0.48-1.55-0.48-2.39
				c0-0.84,0.16-1.65,0.48-2.39c0.32-0.74,0.77-1.4,1.32-1.95c0.55-0.56,1.21-1,1.94-1.32c0.74-0.32,1.54-0.48,2.38-0.48
				c0.67,0,1.33,0.16,1.97,0.46c0.62,0.31,1.2,0.72,1.71,1.23l0.17,0.17l-1.69,1.69l-0.17-0.16c-0.31-0.3-0.64-0.54-0.99-0.72
				c-0.33-0.17-0.66-0.25-1-0.25c-0.51,0-0.99,0.1-1.45,0.29c-0.45,0.19-0.85,0.46-1.18,0.79c-0.34,0.34-0.6,0.74-0.8,1.2
				c-0.2,0.45-0.3,0.94-0.3,1.45c0,0.51,0.1,1,0.3,1.45c0.2,0.45,0.47,0.85,0.8,1.18c0.33,0.34,0.73,0.6,1.19,0.8
				c0.45,0.2,0.93,0.3,1.44,0.3c0.34,0,0.68-0.08,1-0.24c0.34-0.17,0.67-0.41,0.98-0.73L83.93,27.37z"/>
			<path class="st1" d="M98.34,22.45c-0.32-0.75-0.77-1.41-1.32-1.96c-0.56-0.55-1.21-0.99-1.95-1.31c-1.49-0.64-3.3-0.64-4.78,0
				c-0.73,0.32-1.39,0.76-1.94,1.31c-0.55,0.55-1,1.21-1.32,1.96c-0.32,0.75-0.48,1.56-0.48,2.4c0,0.85,0.16,1.65,0.49,2.4
				c0.32,0.74,0.76,1.39,1.32,1.94c0.56,0.55,1.21,0.99,1.94,1.31c0.74,0.32,1.54,0.48,2.38,0.48c0.84,0,1.65-0.16,2.39-0.48
				c0.74-0.32,1.4-0.76,1.95-1.31c0.55-0.55,1-1.2,1.32-1.94c0.32-0.75,0.48-1.55,0.48-2.4C98.82,24.01,98.66,23.2,98.34,22.45
				 M92.67,21.13c0.51,0,1,0.1,1.45,0.29c0.45,0.19,0.86,0.46,1.19,0.8c0.34,0.34,0.61,0.74,0.8,1.19c0.19,0.45,0.29,0.94,0.29,1.45
				c0,0.51-0.1,1-0.29,1.45c-0.19,0.45-0.46,0.85-0.79,1.18c-0.34,0.34-0.74,0.6-1.2,0.8c-0.9,0.39-1.99,0.39-2.89,0
				c-0.45-0.2-0.86-0.47-1.2-0.8c-0.34-0.33-0.61-0.73-0.79-1.18c-0.19-0.45-0.29-0.94-0.29-1.45c0-0.51,0.1-1,0.29-1.45
				c0.19-0.45,0.46-0.85,0.79-1.19c0.34-0.34,0.74-0.61,1.2-0.8C91.68,21.22,92.16,21.13,92.67,21.13"/>
			<path class="st1" d="M103.46,21.4v6.12c0,0.26,0.09,0.49,0.28,0.68c0.19,0.19,0.42,0.28,0.7,0.28h2.98v2.43h-2.98
				c-0.46,0-0.9-0.09-1.33-0.27c-0.43-0.19-0.79-0.43-1.09-0.73c-0.31-0.31-0.55-0.67-0.73-1.07c-0.18-0.41-0.27-0.85-0.27-1.32
				V16.23h2.43V19h3.97v2.4H103.46z"/>
			<path class="st1" d="M116.35,18.7v2.43h-0.24c-0.57,0-1.11,0.1-1.61,0.29c-0.5,0.19-0.94,0.46-1.32,0.8
				c-0.37,0.34-0.67,0.74-0.89,1.2c-0.21,0.45-0.32,0.93-0.32,1.44v5.9h-2.43v-5.9c0-0.84,0.17-1.66,0.52-2.41
				c0.34-0.75,0.82-1.41,1.41-1.96c0.59-0.55,1.29-0.99,2.08-1.3c0.79-0.32,1.65-0.48,2.55-0.48H116.35z"/>
			<path class="st1" d="M128.66,22.43c-0.32-0.74-0.76-1.4-1.32-1.95c-0.55-0.56-1.22-1-1.97-1.32c-1.5-0.64-3.32-0.64-4.79,0
				c-0.73,0.32-1.38,0.76-1.94,1.32c-0.55,0.55-1,1.21-1.32,1.95c-0.32,0.75-0.48,1.55-0.48,2.4c0,0.84,0.16,1.65,0.48,2.39
				c0.32,0.74,0.77,1.4,1.32,1.94c0.55,0.55,1.21,0.99,1.94,1.31c0.74,0.32,1.54,0.48,2.38,0.48c0.79,0,1.55-0.14,2.25-0.41
				c0.53-0.21,1.02-0.48,1.47-0.82v1h2.45v-5.9C129.15,23.98,128.98,23.18,128.66,22.43 M126.7,24.83c0,0.51-0.1,1-0.29,1.45
				c-0.19,0.45-0.45,0.85-0.78,1.18c-0.33,0.33-0.73,0.6-1.19,0.8c-0.89,0.39-2,0.4-2.91,0c-0.45-0.2-0.85-0.47-1.19-0.8
				c-0.33-0.33-0.6-0.73-0.8-1.19c-0.2-0.45-0.3-0.93-0.3-1.44c0-0.51,0.1-1,0.3-1.45c0.2-0.45,0.47-0.86,0.8-1.2
				c0.33-0.34,0.73-0.61,1.18-0.8c0.45-0.19,0.94-0.29,1.45-0.29c0.52,0,1.01,0.1,1.47,0.29c0.45,0.19,0.85,0.46,1.18,0.8
				c0.33,0.33,0.6,0.74,0.79,1.19C126.6,23.83,126.7,24.32,126.7,24.83"/>
			<path class="st1" d="M141.35,13.67v6.26c-0.45-0.33-0.94-0.61-1.47-0.83c-0.7-0.28-1.46-0.43-2.25-0.43
				c-0.85,0-1.65,0.16-2.38,0.49c-0.74,0.32-1.39,0.76-1.94,1.32c-0.56,0.55-1,1.21-1.32,1.95c-0.32,0.75-0.48,1.55-0.48,2.4
				c0,0.84,0.16,1.65,0.48,2.39c0.32,0.74,0.77,1.4,1.32,1.94c0.55,0.55,1.21,0.99,1.94,1.31c0.74,0.32,1.54,0.48,2.38,0.48
				c0.84,0,1.65-0.16,2.39-0.48c0.74-0.32,1.39-0.76,1.94-1.31c0.55-0.55,0.99-1.2,1.31-1.94c0.32-0.75,0.48-1.55,0.48-2.39V13.67
				H141.35z M141.35,24.83c0,0.51-0.1,1-0.29,1.45c-0.19,0.45-0.46,0.85-0.79,1.18c-0.34,0.33-0.75,0.6-1.2,0.8
				c-0.9,0.39-1.99,0.39-2.89,0c-0.45-0.2-0.85-0.47-1.18-0.8c-0.34-0.33-0.6-0.73-0.8-1.19c-0.2-0.45-0.3-0.93-0.3-1.44
				c0-0.51,0.1-1,0.3-1.45c0.2-0.45,0.46-0.86,0.8-1.2c0.33-0.34,0.73-0.61,1.18-0.8c0.45-0.19,0.94-0.29,1.45-0.29
				c0.51,0,1,0.1,1.44,0.29c0.45,0.19,0.85,0.46,1.19,0.8c0.34,0.34,0.61,0.74,0.8,1.19C141.25,23.83,141.35,24.32,141.35,24.83"/>
			<g>
				<defs>
					<polygon id="SVGID_1_" points="7.39,10.91 17.32,10.91 17.32,1.04 					"/>
				</defs>
				<clipPath id="SVGID_00000098930312738669828570000007879638270411324062_">
					<use xlink:href="#SVGID_1_"  style="overflow:visible;"/>
				</clipPath>
				
					<linearGradient id="SVGID_00000141437207391725092840000010247880729213340331_" gradientUnits="userSpaceOnUse" x1="-373.6154" y1="320.7186" x2="-373.3899" y2="320.7186" gradientTransform="matrix(0 -204.7703 -204.7703 0 65685.9922 -76457.8906)">
					<stop  offset="0" style="stop-color:#EA2227"/>
					<stop  offset="1" style="stop-color:#F05A2A"/>
				</linearGradient>
				
					<rect x="7.39" y="1.04" style="clip-path:url(#SVGID_00000098930312738669828570000007879638270411324062_);fill:url(#SVGID_00000141437207391725092840000010247880729213340331_);" width="9.93" height="9.87"/>
			</g>
			<g>
				<defs>
					<polygon id="SVGID_00000165229068043115471690000005375771095372748205_" points="27.24,1.04 17.32,10.91 17.31,20.83 
						7.39,10.92 0.41,17.88 0.41,47.64 10.33,37.72 10.33,27.8 20.26,37.72 27.23,30.75 27.23,10.91 37.11,10.91 37.11,1.04 					
						"/>
				</defs>
				<clipPath id="SVGID_00000083054022100941799470000004398335123417130634_">
					<use xlink:href="#SVGID_00000165229068043115471690000005375771095372748205_"  style="overflow:visible;"/>
				</clipPath>
				
					<linearGradient id="SVGID_00000021838532882126601340000000111255778957252785_" gradientUnits="userSpaceOnUse" x1="-373.6154" y1="320.826" x2="-373.3899" y2="320.826" gradientTransform="matrix(0 -204.7703 -204.7703 0 65714.4062 -76457.8906)">
					<stop  offset="0" style="stop-color:#EA2227"/>
					<stop  offset="1" style="stop-color:#F05A2A"/>
				</linearGradient>
				
					<rect x="0.41" y="1.04" style="clip-path:url(#SVGID_00000083054022100941799470000004398335123417130634_);fill:url(#SVGID_00000021838532882126601340000000111255778957252785_);" width="36.7" height="46.6"/>
			</g>
		</g>
		<g>
			<defs>
				<rect id="SVGID_00000108295715446971900610000009740775166601369000_" x="-15.6" y="-42.64" width="189.85" height="134.24"/>
			</defs>
			<clipPath id="SVGID_00000003790212968377571050000001776156870714384003_">
				<use xlink:href="#SVGID_00000108295715446971900610000009740775166601369000_"  style="overflow:visible;"/>
			</clipPath>
			<g style="opacity:0.15;clip-path:url(#SVGID_00000003790212968377571050000001776156870714384003_);">
				<g>
					<defs>
						<rect id="SVGID_00000021096996006547415610000018108829626843349415_" x="17.32" y="10.91" width="9.92" height="19.84"/>
					</defs>
					<clipPath id="SVGID_00000056409200559158053860000006915657155651269526_">
						<use xlink:href="#SVGID_00000021096996006547415610000018108829626843349415_"  style="overflow:visible;"/>
					</clipPath>
					<g style="clip-path:url(#SVGID_00000056409200559158053860000006915657155651269526_);">
						<defs>
							<polygon id="SVGID_00000036959849177609569830000012537280365100741548_" points="27.24,30.75 27.24,10.91 17.32,10.91 
								17.32,20.83 							"/>
						</defs>
						<clipPath id="SVGID_00000032644434905750732640000013808361261365695361_">
							<use xlink:href="#SVGID_00000036959849177609569830000012537280365100741548_"  style="overflow:visible;"/>
						</clipPath>
						
							<linearGradient id="SVGID_00000021837460686320636770000008487687111383078562_" gradientUnits="userSpaceOnUse" x1="-369.0866" y1="316.8895" x2="-368.8611" y2="316.8895" gradientTransform="matrix(23.5786 -23.5786 -23.5786 -23.5786 16194.2861 -1207.568)">
							<stop  offset="0" style="stop-color:#231F20"/>
							<stop  offset="0.05" style="stop-color:#231F20"/>
							<stop  offset="0.75" style="stop-color:#FFFFFF"/>
							<stop  offset="1" style="stop-color:#FFFFFF"/>
						</linearGradient>
						
							<polygon style="clip-path:url(#SVGID_00000032644434905750732640000013808361261365695361_);fill:url(#SVGID_00000021837460686320636770000008487687111383078562_);" points="
							7.4,20.83 22.28,5.95 37.16,20.83 22.28,35.71 						"/>
					</g>
				</g>
			</g>
			<g style="opacity:0.15;clip-path:url(#SVGID_00000003790212968377571050000001776156870714384003_);">
				<g>
					<defs>
						<rect id="SVGID_00000071542358698442466270000006095983779731988127_" x="0.41" y="17.88" width="9.92" height="29.76"/>
					</defs>
					<clipPath id="SVGID_00000028317120644818742000000010130722311708636056_">
						<use xlink:href="#SVGID_00000071542358698442466270000006095983779731988127_"  style="overflow:visible;"/>
					</clipPath>
					<g style="clip-path:url(#SVGID_00000028317120644818742000000010130722311708636056_);">
						<defs>
							<polygon id="SVGID_00000096754759327080158040000006668875750379758477_" points="0.41,17.88 0.41,47.64 10.33,37.72 
								10.33,27.8 							"/>
						</defs>
						<clipPath id="SVGID_00000109717055329227732200000015234487045282888857_">
							<use xlink:href="#SVGID_00000096754759327080158040000006668875750379758477_"  style="overflow:visible;"/>
						</clipPath>
						
							<linearGradient id="SVGID_00000056396514982631109990000003765178486763226035_" gradientUnits="userSpaceOnUse" x1="-380.5402" y1="328.5178" x2="-380.3147" y2="328.5178" gradientTransform="matrix(-21.4843 21.4843 21.4843 21.4843 -15223.3223 1145.5253)">
							<stop  offset="0" style="stop-color:#231F20"/>
							<stop  offset="0.05" style="stop-color:#231F20"/>
							<stop  offset="0.75" style="stop-color:#FFFFFF"/>
							<stop  offset="1" style="stop-color:#FFFFFF"/>
						</linearGradient>
						
							<polygon style="clip-path:url(#SVGID_00000109717055329227732200000015234487045282888857_);fill:url(#SVGID_00000056396514982631109990000003765178486763226035_);" points="
							25.21,32.76 5.37,52.6 -14.47,32.76 5.37,12.93 						"/>
					</g>
				</g>
			</g>
		</g>
	</g>
</g>
</svg>
