<?xml version="1.0" encoding="utf-8"?>
<!-- Generator: Adobe Illustrator 27.0.0, SVG Export Plug-In . SVG Version: 6.00 Build 0)  -->
<svg version="1.1" id="Layer_1" xmlns="http://www.w3.org/2000/svg" xmlns:xlink="http://www.w3.org/1999/xlink" x="0px" y="0px"
	 viewBox="0 0 208.28 48" style="enable-background:new 0 0 208.28 48;" xml:space="preserve">
<style type="text/css">
	.st0{fill:#63666A;}
	.st1{opacity:0;}
	.st2{fill:#230078;}
	.st3{fill:#FFFFFF;}
</style>
<g>
	<g>
		<path class="st0" d="M96.48,12.15h9.92c3.05,0,7.61,0.88,7.61,6.04c0,2.76-1.88,4.76-4.69,5.28v0.07c3.21,0.3,5.53,2.48,5.53,5.38
			c0,5.78-5.34,6.83-8.31,6.83H96.48V12.15z M101.16,21.6h3.56c2,0,4.46-0.58,4.46-3.03c0-2.73-2.4-2.93-4.56-2.93h-3.45v5.96
			H101.16z M101.16,32.06h4.08c2.2,0,4.76-0.47,4.76-3.21c0-3.08-2.4-3.61-4.76-3.61h-4.08V32.06z"/>
		<path class="st0" d="M204.98,28.96c0,2.56-1.65,4.51-4.78,4.51c-1.45,0-3.2-0.98-3.2-2.8c0-3.03,4.24-3.3,5.96-3.3
			c0.67,0,1.35,0.07,2.01,0.07L204.98,28.96L204.98,28.96z M195.76,22.35c1.28-1.08,3.2-1.75,4.98-1.75c3.16,0,4.24,1.51,4.24,4.48
			c-1.25-0.07-2.11-0.07-3.36-0.07c-3.26,0-7.97,1.35-7.97,5.66c0,3.73,2.6,5.36,6.29,5.36c2.9,0,4.58-1.58,5.31-2.63h0.07v2.21
			h2.96c-0.07-0.5-0.13-1.41-0.13-3.36v-7.11c0-4.68-1.98-7.11-6.91-7.11c-2.18,0-4.08,0.67-5.66,1.61L195.76,22.35z M177.71,35.62
			h3.16V26.8l7.67,8.82h4.54l-8.99-9.56l7.97-7.61h-4.31l-6.91,6.97V10.38h-3.16v25.24H177.71z M158.8,35.62h3.16v-7.94
			c0-4.18,1.61-7.07,5.21-7.07c2.76,0.17,3.63,2.11,3.63,6.13v8.89h3.16v-10.2c0-4.61-1.98-7.37-6.43-7.37
			c-2.4,0-4.68,1.18-5.63,3.13h-0.07v-2.73h-3.06v17.18H158.8z M151.93,28.96c0,2.56-1.65,4.51-4.78,4.51c-1.45,0-3.2-0.98-3.2-2.8
			c0-3.03,4.24-3.3,5.96-3.3c0.67,0,1.35,0.07,2.01,0.07V28.96z M142.71,22.35c1.28-1.08,3.2-1.75,4.98-1.75
			c3.16,0,4.24,1.51,4.24,4.48c-1.25-0.07-2.11-0.07-3.36-0.07c-3.26,0-7.97,1.35-7.97,5.66c0,3.73,2.6,5.36,6.29,5.36
			c2.9,0,4.58-1.58,5.31-2.63h0.07v2.21h2.96c-0.07-0.5-0.13-1.41-0.13-3.36v-7.11c0-4.68-1.98-7.11-6.89-7.11
			c-2.18,0-4.08,0.67-5.66,1.61L142.71,22.35z M126.29,14.88h3.53c1.95,0,4.34,0.7,4.34,3.5c0,3.46-2.76,3.76-6.03,3.76h-1.85V14.88
			z M126.29,24.92h2.18c2.9,0,6.09,0.5,6.09,4.15c0,3.16-2.73,3.81-5.76,3.81h-2.53v-7.96H126.29z M122.91,35.62h6.26
			c4.78,0,8.96-1.22,8.96-6.26c0-3.3-2.26-5.39-5.46-5.66v-0.07c2.96-0.73,4.84-2.36,4.84-5.59c0-4.34-3.36-5.93-8.24-5.93h-6.36
			C122.91,12.11,122.91,35.62,122.91,35.62z"/>
		<polygon class="st0" points="56.69,12.15 62.35,12.15 72.27,29.43 72.36,29.43 72.36,12.15 76.79,12.15 76.79,35.74 71.18,35.74 
			61.27,18.37 61.19,18.37 61.19,35.74 56.69,35.74 		"/>
		<polygon class="st0" points="79.97,12.15 84.69,12.15 84.69,31.82 93.52,31.82 93.52,35.74 79.97,35.74 		"/>
	</g>
	<g>
		<g class="st1">
			<path class="st2" d="M24.07,48.2c-13.35,0-24.2-10.85-24.2-24.2S10.72-0.2,24.07-0.2s24.2,10.85,24.2,24.2S37.42,48.2,24.07,48.2
				z"/>
			<path class="st3" d="M24.07,0.41C37.1,0.41,47.65,10.97,47.65,24S37.1,47.59,24.07,47.59S0.48,37.03,0.48,24
				C0.48,10.97,11.05,0.41,24.07,0.41 M24.07-0.82C10.38-0.82-0.75,10.32-0.75,24s11.14,24.82,24.82,24.82S48.89,37.68,48.89,24
				S37.75-0.82,24.07-0.82L24.07-0.82z"/>
		</g>
		<g>
			<circle class="st2" cx="24.07" cy="24" r="24.2"/>
			<path class="st3" d="M24.07,0.41C37.1,0.41,47.65,10.97,47.65,24S37.1,47.59,24.07,47.59S0.48,37.03,0.48,24
				S11.05,0.41,24.07,0.41 M24.07-0.82C10.38-0.82-0.75,10.32-0.75,24s11.14,24.82,24.82,24.82S48.89,37.68,48.89,24
				S37.75-0.82,24.07-0.82L24.07-0.82z"/>
		</g>
		<path class="st3" d="M2.86,31.31l8.37-14.52h6.73L9.57,31.31H2.86z M24.08,31.27c-4.18,0-7.56-3.36-7.56-7.54
			c0-1.37,0.37-2.66,1.02-3.76l1.83-3.16h6.71l-3.5,6.06c-0.15,0.25-0.23,0.57-0.23,0.87c0,0.97,0.78,1.75,1.73,1.75
			s1.75-0.78,1.75-1.75c0-0.85-0.62-1.56-1.41-1.7l2.95-5.11c2.53,1.22,4.28,3.81,4.28,6.81C31.62,27.9,28.24,31.27,24.08,31.27"/>
	</g>
</g>
</svg>
