<?xml version="1.0" encoding="utf-8"?>
<!-- Generator: Adobe Illustrator 27.0.0, SVG Export Plug-In . SVG Version: 6.00 Build 0)  -->
<svg version="1.1" id="Layer_1" xmlns="http://www.w3.org/2000/svg" xmlns:xlink="http://www.w3.org/1999/xlink" x="0px" y="0px"
	 viewBox="0 0 56.13 45" style="enable-background:new 0 0 56.13 45;" xml:space="preserve">
<style type="text/css">
	.st0{fill-rule:evenodd;clip-rule:evenodd;fill:#231F20;}
	.st1{fill:#231F20;}
</style>
<g>
	<polygon class="st0" points="46.23,32.71 48.56,31.22 49.9,32.7 	"/>
	<path class="st0" d="M46.18,42.36v-6.53c0-0.44-0.04-0.78-0.11-1.03c-0.07-0.25-0.21-0.46-0.41-0.64h3.54c0.37,0,0.68,0,0.94-0.02
		c0.26-0.01,0.5-0.05,0.73-0.1v2.25c-0.16-0.24-0.36-0.42-0.59-0.54c-0.23-0.12-0.52-0.17-0.88-0.17h-0.83v2.5h0.83
		c0.3,0,0.5-0.01,0.62-0.04c0.12-0.02,0.22-0.09,0.32-0.2v2.25c-0.1-0.18-0.25-0.32-0.44-0.43c-0.19-0.11-0.39-0.16-0.6-0.16h-0.73
		v2.85c0.53,0.16,1.01,0.25,1.45,0.25c0.88,0,1.55-0.32,1.99-0.96l-0.52,2.49h-6.05C45.94,43.81,46.18,43.22,46.18,42.36
		 M40.55,36.07c0-0.87-0.17-1.5-0.52-1.9h2.92c1.32,0,2.12-0.04,2.4-0.12v2.25c-0.23-0.27-0.43-0.45-0.58-0.55
		c-0.15-0.1-0.41-0.16-0.77-0.16h-0.83v2.5h0.52c0.42,0,0.73-0.04,0.94-0.12v2.25c-0.09-0.11-0.17-0.21-0.23-0.29
		c-0.07-0.08-0.14-0.15-0.22-0.21c-0.08-0.06-0.17-0.09-0.27-0.09h-0.73v2.85c0,0.28,0.06,0.59,0.19,0.92
		c0.12,0.33,0.3,0.58,0.54,0.74h-3.86c0.06-0.1,0.13-0.21,0.19-0.32c0.06-0.11,0.12-0.22,0.16-0.33c0.05-0.11,0.08-0.25,0.12-0.42
		c0.03-0.17,0.05-0.37,0.05-0.59V36.07z M33.67,39.63h1.67l-0.94-2.97L33.67,39.63z M31.27,42.48l1.67-5.7
		c0.02-0.06,0.07-0.23,0.16-0.5c0.09-0.28,0.16-0.49,0.19-0.64c0.04-0.15,0.06-0.3,0.06-0.44c0-0.4-0.2-0.74-0.62-1.03h3.44
		l2.92,8.55c0.03,0.17,0.09,0.34,0.2,0.52c0.11,0.17,0.23,0.33,0.38,0.48c0.14,0.14,0.3,0.28,0.46,0.43h-4.38
		c0.25-0.21,0.42-0.38,0.52-0.5c0.11-0.12,0.16-0.27,0.16-0.43c0-0.08-0.02-0.16-0.06-0.25l-0.52-1.78h-2.61l-0.52,1.54
		c-0.02,0.08-0.03,0.16-0.03,0.25c0,0.22,0.06,0.44,0.17,0.65c0.12,0.21,0.27,0.39,0.48,0.53h-3.13c0.26-0.17,0.48-0.42,0.67-0.73
		C31.1,43.1,31.22,42.79,31.27,42.48 M21.79,39.28c0.04-1.96,0.52-3.34,1.46-4.14c0.94-0.8,2.12-1.2,3.55-1.2
		c0.69,0,1.42,0.08,2.19,0.23v2.14c-0.36-0.25-0.72-0.45-1.07-0.61c-0.35-0.15-0.76-0.23-1.22-0.23c-0.44,0-0.83,0.16-1.17,0.49
		c-0.34,0.33-0.6,0.76-0.78,1.3c-0.18,0.54-0.26,1.1-0.26,1.69c0,0.62,0.1,1.2,0.28,1.74c0.19,0.54,0.48,1,0.88,1.36
		c0.4,0.37,0.89,0.59,1.47,0.66c0.12,0.01,0.21,0.02,0.28,0.02c0.45,0,0.94-0.1,1.48-0.3c0.54-0.2,0.99-0.42,1.37-0.66l-0.62,2.25
		c-0.91,0.22-1.76,0.33-2.55,0.33c-0.66,0-1.28-0.08-1.87-0.25c-0.58-0.16-1.12-0.44-1.61-0.82c-0.49-0.39-0.89-0.91-1.21-1.58
		C22.06,41.04,21.86,40.23,21.79,39.28 M10.64,42.6l0.63-6.41c0.01-0.11,0.02-0.22,0.02-0.32c0-0.51-0.18-1.04-0.54-1.58h3.13
		l1.98,5.7l1.56-5.7h3.23c-0.13,0.15-0.24,0.34-0.32,0.55c-0.08,0.22-0.12,0.49-0.12,0.84c0,0.17,0.01,0.34,0.03,0.51l0.62,6.29
		c0.07,0.69,0.39,1.25,0.94,1.66h-3.96c0.43-0.33,0.65-0.73,0.65-1.2c0-0.07-0.01-0.15-0.02-0.22l-0.63-4.63l-1.67,6.29
		c-1.1-0.5-1.8-1.14-2.09-1.9l-1.56-4.51l-0.42,4.87c0,0.6,0.24,1.03,0.73,1.31H9.91c0.22-0.18,0.39-0.42,0.53-0.69
		C10.57,43.17,10.64,42.89,10.64,42.6 M2.61,39.28c0,0.52,0.1,1.07,0.3,1.62c0.2,0.56,0.48,1.02,0.85,1.39
		c0.37,0.37,0.78,0.55,1.25,0.55c0.5,0,0.91-0.14,1.24-0.42c0.33-0.28,0.57-0.66,0.72-1.13c0.16-0.48,0.24-1.01,0.24-1.61
		c0-0.09,0-0.22-0.01-0.4c0-0.6-0.1-1.17-0.3-1.72c-0.2-0.55-0.47-1-0.82-1.34c-0.35-0.34-0.74-0.5-1.18-0.5
		c-0.47,0-0.88,0.15-1.23,0.46c-0.34,0.31-0.61,0.73-0.79,1.27C2.7,37.98,2.61,38.59,2.61,39.28 M0.01,39.28c0-0.05,0-0.09,0-0.12
		c0-0.03,0-0.07,0-0.1c0-0.81,0.19-1.58,0.56-2.34c0.37-0.75,0.94-1.36,1.69-1.84c0.76-0.47,1.68-0.71,2.76-0.71
		c1.02,0,1.85,0.19,2.51,0.55c0.66,0.37,1.15,0.82,1.47,1.37c0.32,0.54,0.54,1.09,0.65,1.64c0.11,0.55,0.16,1.06,0.16,1.54
		c0,0.5-0.07,1.05-0.21,1.63c-0.14,0.58-0.39,1.13-0.74,1.66c-0.35,0.53-0.84,0.96-1.48,1.3c-0.63,0.34-1.42,0.52-2.36,0.52H4.8
		c-0.85-0.03-1.59-0.2-2.21-0.52c-0.63-0.31-1.13-0.71-1.51-1.2c-0.38-0.49-0.66-1.01-0.83-1.57C0.09,40.54,0,40.01,0,39.51
		C0,39.4,0,39.33,0.01,39.28"/>
	<path class="st0" d="M53.85,42.84l0.01-0.57l0.27,0c0.33,0,0.43,0.12,0.43,0.29c0,0.17-0.14,0.29-0.38,0.28L53.85,42.84z
		 M54.32,42.95c0.24-0.02,0.42-0.15,0.42-0.39c0-0.3-0.25-0.4-0.6-0.4l-0.47-0.01l-0.02,1.36l0.18,0l0.01-0.55l0.29,0l0.44,0.56
		l0.24,0L54.32,42.95z"/>
	<path class="st0" d="M54.23,41.77c0.59,0,1.07,0.48,1.07,1.07c0,0.59-0.48,1.07-1.07,1.07c-0.59,0-1.07-0.48-1.07-1.07
		C53.16,42.25,53.64,41.77,54.23,41.77 M54.23,41.58c0.69,0,1.26,0.56,1.26,1.26s-0.56,1.26-1.26,1.26c-0.69,0-1.26-0.56-1.26-1.26
		S53.54,41.58,54.23,41.58"/>
	<path class="st1" d="M20.72,24.73L20.72,24.73c0.06,0.38,0.17,0.75,0.37,1.08c0.17,0.29,0.43,0.55,0.76,0.65
		c0.65,0.14,1.33,0.13,1.99,0.2c0.5,0.04,1,0.15,1.45,0.38c-0.08-0.13-0.17-0.25-0.25-0.38c-0.28-0.43-0.55-0.87-0.88-1.26
		c-0.12-0.13-0.24-0.27-0.38-0.37c-0.59-0.32-1.24-0.61-1.92-0.59C21.45,24.44,21.07,24.55,20.72,24.73 M33.83,24.04L33.83,24.04
		c-0.52,0.07-1.04,0.18-1.57,0.11c-0.6-0.06-1.2-0.14-1.8-0.14c-0.07,0.01-0.16-0.01-0.22,0.05c0.13,0.09,0.29,0.11,0.43,0.16
		c0.59,0.14,1.18,0.24,1.78,0.33c0.56,0.08,1.12,0.15,1.69,0.15c0.53,0,1.07-0.05,1.57-0.21c0.01-0.01,0.02-0.02,0.03-0.02
		c-0.06-0.13-0.15-0.24-0.27-0.32c-0.18-0.12-0.4-0.16-0.62-0.17C34.5,23.94,34.16,23.99,33.83,24.04 M16.85,22.5L16.85,22.5
		c0.06,0.34,0.21,0.66,0.43,0.92c0.23,0.27,0.53,0.48,0.86,0.61c0.43,0.17,0.91,0.24,1.38,0.2c0.68-0.16,1.38-0.25,2.08-0.25
		c0.32,0,0.64,0.03,0.95,0.05c-0.19-0.16-0.4-0.3-0.63-0.41c-0.69-0.35-1.46-0.45-2.22-0.56c-0.71-0.1-1.44-0.23-2.06-0.6
		c-0.22,0.02-0.44-0.05-0.66-0.02C16.95,22.44,16.89,22.45,16.85,22.5 M20.68,21.65L20.68,21.65c-0.78,0.22-1.57,0.44-2.37,0.59
		c1.18,0.18,2.39,0.24,3.52,0.63c0.34,0.11,0.66,0.28,0.98,0.42c1.42,0.68,2.58,1.82,3.42,3.13c0.02,0.02,0.03,0.07,0.06,0.05
		c0.11-0.08,0.22-0.17,0.33-0.26c0.1-0.08,0.19-0.21,0.16-0.35c-0.04-0.17-0.13-0.33-0.23-0.47c-0.69-0.69-1.37-1.39-2.02-2.1
		c-0.64-0.7-1.26-1.42-1.83-2.18C22.03,21.27,21.35,21.46,20.68,21.65 M28.42,21.04L28.42,21.04c-0.27,0.09-0.55,0.17-0.8,0.32
		c0.09,0.1,0.19,0.2,0.28,0.3c0.02,0.02,0.04,0.05,0.06,0.03c0.48-0.15,0.95-0.3,1.43-0.45c-0.07-0.11-0.14-0.22-0.21-0.33
		C28.92,20.9,28.66,20.98,28.42,21.04 M35.32,19.95L35.32,19.95c0,0.17-0.01,0.36-0.1,0.51c-0.12,0.2-0.3,0.37-0.51,0.47
		c-0.26,0.11-0.57,0.1-0.82-0.03c-0.02,0.12-0.03,0.24-0.04,0.36c0.19,0.07,0.4,0.1,0.6,0.09c0.39-0.02,0.76-0.21,1.05-0.47
		c0.14-0.13,0.26-0.31,0.27-0.51C35.62,20.23,35.47,20.09,35.32,19.95 M37.83,18.12L37.83,18.12c-0.12,0.18-0.24,0.36-0.35,0.54
		c0.25-0.1,0.55-0.09,0.77,0.07c0.2,0.13,0.33,0.36,0.34,0.6c0.01,0.24-0.02,0.49-0.17,0.68c-0.12,0.16-0.33,0.24-0.53,0.25
		c-0.19,0.01-0.38,0.02-0.56,0.09c-0.19,0.07-0.35,0.19-0.48,0.34c-0.01,0.14-0.03,0.27-0.03,0.41c0.2-0.19,0.44-0.39,0.73-0.42
		c0.22,0,0.44,0.05,0.66,0.05c0.2,0,0.41-0.07,0.57-0.2c0.19-0.15,0.31-0.36,0.4-0.58c0.19-0.45,0.17-0.97-0.04-1.41
		c-0.1-0.21-0.28-0.39-0.51-0.46C38.37,17.99,38.09,18.03,37.83,18.12 M29.06,17.34L29.06,17.34c0.15,0.16,0.29,0.32,0.43,0.49
		c0.2,0.26,0.39,0.53,0.5,0.84c0.06,0.18,0.07,0.39-0.04,0.56c-0.14,0.22-0.23,0.47-0.27,0.72c-0.05,0.35-0.05,0.7,0.03,1.04
		c0.11,0.49,0.39,0.93,0.75,1.28c0.01,0.08,0.05,0.16,0.11,0.22c0.15,0.16,0.37,0.25,0.58,0.33c0.48,0.16,0.97,0.23,1.47,0.28
		c0.71,0.07,1.44,0.05,2.14-0.1c0.17-0.03,0.33-0.1,0.5-0.11c0.24-0.03,0.46-0.16,0.66-0.31c0.35-0.29,0.63-0.68,0.76-1.12
		c0.12-0.46,0.02-0.93-0.1-1.38c-0.1-0.34-0.07-0.72,0.07-1.04c0.16-0.39,0.45-0.71,0.74-1.02c-0.17,0.05-0.33,0.11-0.5,0.16
		c-0.31,0.19-0.58,0.46-0.73,0.78c-0.11,0.24-0.16,0.5-0.15,0.76c0.01,0.21,0.1,0.39,0.14,0.59c0.07,0.29,0.07,0.62-0.05,0.9
		c-0.11,0.25-0.32,0.44-0.55,0.57c-0.4,0.23-0.85,0.32-1.3,0.38c-0.58,0.07-1.16,0.04-1.73-0.04c-0.5-0.08-0.99-0.22-1.41-0.49
		c-0.27-0.17-0.52-0.38-0.67-0.66c-0.16-0.29-0.2-0.64-0.15-0.97c0.04-0.23,0.14-0.45,0.21-0.68c0.08-0.22,0.09-0.46,0.04-0.68
		c-0.08-0.36-0.31-0.66-0.59-0.9c-0.07-0.07-0.17-0.09-0.25-0.14C29.48,17.53,29.28,17.43,29.06,17.34 M29.51,16.42L29.51,16.42
		c-0.02,0.18-0.04,0.36-0.04,0.53c0.1,0.07,0.19,0.16,0.29,0.23c0.94,0.71,2.07,1.17,3.23,1.36c0.68,0.12,1.37,0.16,2.05,0.06
		c0.93-0.12,1.82-0.52,2.55-1.13c-0.13-0.07-0.25-0.13-0.38-0.2c-0.06-0.03-0.11,0.04-0.16,0.07c-0.63,0.44-1.37,0.71-2.13,0.8
		c-0.57,0.07-1.14,0.04-1.71-0.04c-0.66-0.09-1.32-0.25-1.94-0.51C30.62,17.32,30.01,16.93,29.51,16.42 M23.98,11.88L23.98,11.88
		c0.02,0.43,0.01,0.86-0.05,1.28c-0.06,0.43-0.18,0.89-0.48,1.22c-0.01,0.03,0.03,0.03,0.05,0.05c0.09,0.06,0.23,0.07,0.31-0.03
		c0.24-0.27,0.51-0.55,0.87-0.64c0.33-0.09,0.68,0.01,1,0.12c0.35,0.14,0.69,0.29,1.04,0.43c0.09,0.04,0.18,0.06,0.25,0.13
		c0.14,0.12,0.32,0.2,0.4,0.37c0.01,0.28-0.11,0.54-0.18,0.81c-0.08,0.24-0.14,0.51-0.02,0.74c0.03-0.01,0.05-0.05,0.07-0.07
		c0.19-0.3,0.4-0.6,0.56-0.92c-0.16-1.06-0.78-2.06-1.68-2.65c-0.13-0.07-0.22-0.19-0.34-0.27c-0.37-0.28-0.83-0.38-1.28-0.47
		C24.31,11.95,24.15,11.91,23.98,11.88 M35.36,8.6L35.36,8.6c-0.34,0.13-0.65,0.33-0.93,0.57c-0.59,0.5-1.04,1.16-1.32,1.88
		c-0.13,0.34-0.21,0.71-0.14,1.06c0.05,0.34,0.25,0.64,0.51,0.86c0.29,0.25,0.64,0.42,1,0.54c0.34,0.12,0.68,0.2,1.03,0.27
		c0.22,0.04,0.46,0.12,0.6,0.3c0.13,0.16,0.13,0.37,0.09,0.56c-0.06,0.27-0.15,0.54-0.25,0.8c-0.82-0.3-1.69-0.45-2.55-0.52
		c-0.01-0.2-0.06-0.4-0.17-0.56c-0.15-0.25-0.41-0.43-0.67-0.55c-0.34-0.12-0.67-0.23-1.01-0.36c-0.25-0.13-0.46-0.33-0.56-0.6
		c-0.1-0.27-0.07-0.56-0.01-0.83c0.09-0.43,0.29-0.82,0.43-1.23c-0.36,0.23-0.67,0.54-0.87,0.93c-0.18,0.36-0.28,0.76-0.26,1.16
		c0.01,0.34,0.17,0.67,0.43,0.89c0.35,0.3,0.77,0.52,1.18,0.75c0.2,0.12,0.41,0.22,0.59,0.36c-0.87,0.01-1.74,0.1-2.6,0.24
		c0.03,0.23,0.08,0.45,0.12,0.68c0.15-0.01,0.3-0.06,0.46-0.08c0.77-0.15,1.55-0.26,2.33-0.28c0.01,0.16,0.01,0.32,0.02,0.48
		c-0.43,0.03-0.86,0.06-1.28,0.19c-0.27,0.08-0.54,0.2-0.77,0.37c0.59,0.55,1.3,1,2.09,1.2c0.64,0.17,1.31,0.14,1.94-0.02
		c0.52-0.13,1.01-0.35,1.47-0.6c-0.17-0.17-0.36-0.32-0.57-0.44c0.2-0.18,0.39-0.37,0.59-0.55c0.02-0.01,0.04-0.05,0.07-0.03
		c0.34,0.2,0.69,0.41,1.03,0.61c0.02,0.01,0.04,0.02,0.06,0.02c0.02-0.09,0.05-0.17,0.07-0.26c-0.32-0.22-0.64-0.43-0.96-0.65
		c0.3-0.39,0.63-0.78,0.75-1.27c0.08-0.32,0.08-0.66-0.06-0.96c-0.14-0.32-0.4-0.58-0.69-0.77c-0.32-0.22-0.69-0.36-1.08-0.43
		c-0.29-0.05-0.58-0.13-0.83-0.28c-0.2-0.11-0.37-0.29-0.45-0.5c-0.1-0.27-0.06-0.58,0.03-0.85c0.13-0.39,0.36-0.73,0.62-1.04
		c0.2-0.23,0.41-0.45,0.64-0.65c0.27-0.23,0.57-0.43,0.91-0.54C36.03,8.41,35.68,8.48,35.36,8.6 M23.74,8.54L23.74,8.54
		c-0.31,0.01-0.62-0.03-0.91-0.14c-0.21,0.76-0.08,1.6,0.36,2.25c0.28,0.05,0.57,0.09,0.85,0.15c0.54,0.11,1.07,0.26,1.57,0.48
		c0.74,0.32,1.41,0.82,1.87,1.48c0.32,0.45,0.54,0.97,0.69,1.51c0.02-0.01,0.04-0.03,0.05-0.05c0.26-0.37,0.53-0.74,0.79-1.1
		c0-0.01,0.01-0.04,0.02-0.05c-0.98-0.65-1.76-1.57-2.38-2.56c-0.48-0.77-0.88-1.59-1.25-2.42C24.88,8.34,24.32,8.52,23.74,8.54
		 M26.51,7.44L26.51,7.44c0.19,1,0.69,1.92,1.3,2.72c0.54,0.71,1.17,1.35,1.8,1.97c0.05,0.02,0.08-0.04,0.12-0.06
		c0.27-0.23,0.5-0.5,0.73-0.77c-1.41-1.19-2.43-2.82-2.99-4.58C27.14,6.96,26.83,7.2,26.51,7.44 M29.26,4.94L29.26,4.94
		c-0.15,0.17-0.32,0.32-0.47,0.49c-0.12,0.13-0.24,0.28-0.31,0.45c-0.01,0.03-0.03,0.06-0.02,0.09C28.63,6.99,29,8,29.53,8.9
		c0.39,0.66,0.88,1.27,1.51,1.72c0.25-0.25,0.51-0.49,0.77-0.74c0.01-0.03-0.03-0.05-0.05-0.07c-1.17-1.04-2.04-2.43-2.35-3.96
		C29.33,5.54,29.3,5.24,29.26,4.94 M30.87,2.89L30.87,2.89c-0.16,0.21-0.31,0.42-0.47,0.63c-0.02,0.02-0.02,0.04-0.02,0.06
		c-0.09,1.3,0.08,2.64,0.61,3.85c0.33,0.73,0.79,1.41,1.42,1.92c0.43-0.36,0.86-0.71,1.28-1.07c-0.62-0.42-1.13-0.99-1.53-1.62
		c-0.72-1.14-1.13-2.47-1.23-3.81C30.9,2.86,30.88,2.87,30.87,2.89 M33.33,15.43l0.02-0.01c0.69,0.03,1.38,0.12,2.05,0.29
		c0.12,0.04,0.26,0.07,0.37,0.12c-0.14,0.2-0.27,0.42-0.41,0.62c-0.68-0.33-1.42-0.49-2.17-0.54
		C33.22,15.75,33.28,15.59,33.33,15.43 M23.1,4.41c0.14-0.09,0.32-0.05,0.46,0.02c0.05,0.15,0.14,0.29,0.3,0.34
		c0.27,0.09,0.58-0.02,0.84,0.13c0.06,0.04,0.14,0.09,0.15,0.17c0.03,0.2,0.03,0.4,0.03,0.61c0.2,0.02,0.4-0.04,0.6,0
		c0.12,0.03,0.25,0.12,0.27,0.25c0.05,0.2,0.03,0.42,0.09,0.62c0.03,0.12,0.11,0.22,0.22,0.27c-0.57,0.05-1.08,0.31-1.63,0.43
		c-0.33,0.02-0.67-0.13-0.86-0.39c-0.31-0.35-0.37-0.88-0.21-1.31c0.17,0.21,0.32,0.44,0.5,0.64c0.17,0.19,0.38,0.37,0.64,0.44
		c0.19,0.05,0.39,0.02,0.57-0.06c-0.01-0.01-0.02-0.03-0.03-0.04c-0.73-0.59-1.41-1.25-1.97-2C23.01,4.49,23.07,4.44,23.1,4.41
		 M28.89,0.79c-0.17,0.42-0.37,0.83-0.55,1.25c0.36,0.32,0.71,0.65,1.14,0.88c0.17,0.1,0.36,0.18,0.55,0.22
		c0.43-0.55,0.82-1.14,1.1-1.78c0.23,0.08,0.46,0.17,0.68,0.26c0.07,1.13,0.17,2.26,0.47,3.35c0.22,0.82,0.59,1.63,1.17,2.26
		c0.23,0.25,0.49,0.47,0.77,0.66c0.02,0.02,0.05,0,0.06-0.01c0.29-0.21,0.57-0.41,0.86-0.62c-0.5-0.49-0.92-1.06-1.26-1.67
		c-0.53-0.95-0.91-1.97-1.27-3c-0.12-0.26-0.22-0.54-0.36-0.79c0.45,0.2,0.89,0.43,1.31,0.68c0.34,0.86,0.62,1.73,0.98,2.58
		c0.29,0.69,0.63,1.35,1.07,1.95c0.62-0.4,1.34-0.6,2-0.92c1.75,2.32,2.79,5.2,2.79,8.33c0,2.87-0.87,5.53-2.37,7.74
		c-0.36-0.08-0.72-0.12-1.09-0.14c-0.03,0.09-0.04,0.19-0.05,0.29c0.32,0.03,0.63,0.06,0.94,0.13c-0.71,1-1.55,1.89-2.49,2.67
		c-0.54,0.01-1.07,0.02-1.61,0.02c-0.57-0.01-1.14-0.02-1.71-0.07c-0.67-0.07-1.33-0.2-1.99-0.33c-0.24-0.04-0.48-0.11-0.72-0.14
		c0.01,0.2,0.01,0.4,0.01,0.6c0.74,0.2,1.49,0.4,2.23,0.59c0.82,0.17,1.66,0.26,2.5,0.27c-1.46,0.94-3.11,1.62-4.87,1.96
		c-0.03-0.37-0.06-0.75-0.09-1.13c-0.01-0.1,0.01-0.21,0.02-0.31c0.07-0.65,0.12-1.31,0.12-1.97c0-0.33,0.01-0.67-0.07-1
		c-0.11-0.43-0.38-0.8-0.66-1.14c-0.39-0.46-0.84-0.87-1.22-1.34c-0.25-0.31-0.43-0.67-0.54-1.05c-0.24-0.77-0.25-1.58-0.22-2.37
		c0.04-0.98,0.18-1.96,0.24-2.94c-0.4,0.85-0.65,1.76-0.83,2.68c-0.16,0.88-0.25,1.78-0.26,2.68c-0.15-0.06-0.24-0.22-0.3-0.36
		c-0.13-0.35-0.12-0.72-0.1-1.09c0.07-1,0.31-1.97,0.58-2.93c0.13-0.43,0.26-0.85,0.41-1.27c-0.32,0.24-0.56,0.58-0.76,0.92
		c-0.24,0.41-0.42,0.85-0.57,1.3c-0.31,0.98-0.44,2.02-0.46,3.04c-0.09-0.02-0.16,0.02-0.24,0.05c-0.08,0.01-0.16-0.07-0.14-0.15
		c-0.02-0.4,0.01-0.79,0.05-1.19c0.13-1.03,0.43-2.04,0.85-2.99c0.19-0.42,0.39-0.83,0.66-1.2c-0.24,0.01-0.45,0.14-0.61,0.29
		c-0.29,0.27-0.5,0.6-0.69,0.95c-0.45,0.86-0.77,1.79-0.97,2.73c-0.06,0.31-0.12,0.63-0.13,0.95c-0.01,0.07,0.03,0.17-0.06,0.2
		c-0.11-0.04-0.2-0.13-0.28-0.22c-0.02-0.81,0.14-1.62,0.42-2.38c0.35-0.94,0.86-1.8,1.45-2.61c0.01-0.02,0.02-0.04,0.03-0.06
		c-0.19,0-0.37,0.07-0.53,0.17c-0.29,0.19-0.51,0.47-0.71,0.76c-0.29,0.44-0.52,0.91-0.71,1.4c-0.16,0.41-0.3,0.83-0.4,1.25
		c-0.12,0.52-0.23,1.06-0.2,1.6c0.01,0.21,0.05,0.42,0.18,0.59c0.38,0.62,0.84,1.2,1.31,1.75c0.71,0.82,1.48,1.57,2.22,2.36
		c0.35,0.36,0.7,0.72,1.03,1.11c0.1,0.24,0.05,0.52-0.02,0.77c-0.14,0.45-0.36,0.87-0.59,1.28c-0.22,0.36-0.43,0.72-0.64,1.09
		c-5.29-0.29-9.79-3.54-11.87-8.12c0.22,0.12,0.44,0.23,0.67,0.34c0.45,0.21,0.95,0.34,1.45,0.38c0.54,0.05,1.09-0.02,1.62-0.15
		c0.5-0.12,0.98-0.3,1.47-0.47c0.91-0.33,1.83-0.68,2.81-0.77c0.06-0.37,0.07-0.75,0.17-1.11c-0.7-0.2-1.44-0.16-2.15-0.01
		c-0.61,0.12-1.21,0.33-1.81,0.5c-0.77,0.24-1.58,0.45-2.39,0.43c-0.46-0.02-0.92-0.12-1.35-0.29c-0.38-0.16-0.75-0.33-1.12-0.52
		c-0.15-0.5-0.28-1.02-0.37-1.54c0.59,0.48,1.29,0.84,2.05,0.95c0.52,0.08,1.05,0.04,1.57-0.05c1.12-0.21,2.19-0.66,3.32-0.81
		c0.78-0.12,1.59-0.06,2.33,0.2c0.23-0.7,0.54-1.38,0.92-2.02c-0.27-0.12-0.54-0.24-0.83-0.31c-0.34-0.08-0.68-0.13-1.01-0.23
		c-1.06-0.44-2.07-1.07-2.83-1.95c-0.37-0.43-0.68-0.92-0.91-1.44c-0.48-1.1-0.59-2.33-0.47-3.52c0.14-1.45,0.58-2.85,1.16-4.18
		c0.04-0.1,0.08-0.19,0.13-0.29c0.58-0.43,1.19-0.81,1.84-1.15c-0.21,0.3-0.4,0.61-0.58,0.93c-0.23,0.4-0.45,0.8-0.66,1.21
		c-0.07,0.13-0.14,0.26-0.19,0.4c-0.4,0.97-0.69,1.99-0.8,3.04c-0.09,0.89-0.03,1.8,0.25,2.65c0.27,0.83,0.76,1.59,1.41,2.17
		c0.75,0.68,1.67,1.13,2.63,1.41c0.29-0.17,0.5-0.45,0.61-0.77c0.17-0.47,0.19-0.98,0.17-1.48c0-0.05-0.01-0.09-0.04-0.13
		c-0.27-0.4-0.48-0.85-0.61-1.32c-0.18-0.66-0.19-1.36-0.11-2.04c-0.45-0.39-0.78-0.91-1.01-1.46c-0.42-1.03-0.52-2.17-0.41-3.28
		c0.03-0.39,0.11-0.78,0.19-1.17c0.06-0.22,0.14-0.44,0.22-0.66c0.29-0.12,0.58-0.23,0.88-0.33c-0.02,0.06-0.03,0.13-0.05,0.19
		c-0.24,0.84-0.46,1.69-0.55,2.56c-0.08,0.81-0.03,1.65,0.3,2.4c0.16,0.34,0.31,0.69,0.55,0.99c0.19,0.26,0.46,0.47,0.78,0.55
		c0.39,0.1,0.8,0.03,1.17-0.09c0.53-0.17,1.03-0.41,1.5-0.7c0.77-0.48,1.47-1.07,2.11-1.71c0.57-0.56,1.1-1.17,1.6-1.79
		c-0.11-0.09-0.24-0.16-0.38-0.19c-0.31-0.07-0.62,0-0.93-0.06C28,3.44,27.82,3.31,27.69,3.15c-0.02,0.02-0.03,0.04-0.05,0.06
		c-0.23,0.37-0.5,0.73-0.83,1.02c-0.29,0.25-0.64,0.45-1.03,0.45c-0.12,0-0.26,0-0.35-0.09c-0.17-0.14-0.29-0.36-0.29-0.59
		c-0.01-0.17-0.02-0.34,0.01-0.51c0.02-0.1,0.06-0.22,0.16-0.27c0.11-0.06,0.23,0.05,0.27,0.15c0.07,0.2,0.02,0.41,0.04,0.61
		c0,0.09,0.04,0.2,0.13,0.24c0.11,0.04,0.25,0.03,0.35-0.04c0.5-0.31,0.87-0.79,1.17-1.29c0.28-0.48,0.51-0.98,0.77-1.46
		c0.12-0.24,0.26-0.47,0.39-0.7C28.58,0.74,28.74,0.77,28.89,0.79 M25.72,0.62c0.03,0.03,0.06,0.05,0.1,0.07
		c0.18,0.09,0.39,0.08,0.57,0.16c0.09,0.04,0.15,0.14,0.17,0.24c-0.13,0.13-0.3,0.25-0.49,0.25c-0.24,0.01-0.44-0.12-0.64-0.23
		c-0.22-0.13-0.45-0.29-0.71-0.3c-0.21,0-0.38,0.13-0.51,0.27c-0.12-0.07-0.23-0.14-0.33-0.23C24.48,0.74,25.1,0.66,25.72,0.62"/>
</g>
</svg>
