<svg width="56" height="56" viewBox="0 0 56 56" fill="none" xmlns="http://www.w3.org/2000/svg">
<path d="M4.66797 51.3333L15.518 21L35.1763 40.425L4.66797 51.3333ZM10.5596 45.4417L28.8763 38.9083L17.0346 27.0083L10.5596 45.4417ZM32.493 30.0416L30.5096 28.0583L44.5096 14.0583C45.7541 12.8139 47.3291 12.1819 49.2346 12.1625C51.1402 12.143 52.7152 12.7555 53.9596 14L54.9513 14.9917L52.968 16.975L51.8596 15.8667C51.1208 15.1278 50.2652 14.7486 49.293 14.7291C48.3208 14.7097 47.4458 15.0889 46.668 15.8667L32.493 30.0416ZM23.218 21L21.2346 19.0166L22.9846 17.2667C23.8791 16.3722 24.2971 15.3514 24.2388 14.2042C24.1805 13.0569 23.7624 12.0944 22.9846 11.3166L21.3513 9.68332L23.3346 7.69998L24.8513 9.21665C26.2124 10.5778 26.8832 12.2792 26.8638 14.3208C26.8444 16.3625 26.1541 18.0639 24.793 19.425L23.218 21ZM27.943 25.4916L25.9596 23.5083L34.8263 14.6417C35.5652 13.9028 35.9249 12.9597 35.9055 11.8125C35.886 10.6653 35.5069 9.72221 34.768 8.98332L31.2096 5.42498L33.193 3.44165L36.868 7.11665C38.0735 8.36109 38.6958 9.92637 38.7346 11.8125C38.7735 13.6986 38.1707 15.2639 36.9263 16.5083L27.943 25.4916ZM37.1596 34.7666L35.1763 32.7833L37.918 30.0416C39.2791 28.6805 40.9124 27.9805 42.818 27.9417C44.7235 27.9028 46.3569 28.5639 47.718 29.925L50.693 32.9L48.7096 34.8833L45.6763 31.85C44.7819 30.9555 43.8485 30.5083 42.8763 30.5083C41.9041 30.5083 40.9707 30.9555 40.0763 31.85L37.1596 34.7666Z" fill="white"/>
</svg>
