<svg width="24" height="24" viewBox="0 0 24 24" fill="none" xmlns="http://www.w3.org/2000/svg">
<path d="M4 21V19.5H19.975V21H4ZM7.775 18C6.725 18 5.83333 17.6375 5.1 16.9125C4.36667 16.1875 4 15.3 4 14.25V3H20.5C20.9167 3 21.2708 3.14583 21.5625 3.4375C21.8542 3.72917 22 4.08333 22 4.5V8.5C22 8.91667 21.8542 9.27083 21.5625 9.5625C21.2708 9.85417 20.9167 10 20.5 10H18.1V14.25C18.1 15.3 17.7333 16.1875 17 16.9125C16.2667 17.6375 15.375 18 14.325 18H7.775ZM7.775 16.5H14.325C14.925 16.5 15.4542 16.2708 15.9125 15.8125C16.3708 15.3542 16.6 14.8333 16.6 14.25V4.5H5.5V14.25C5.5 14.8333 5.73333 15.3542 6.2 15.8125C6.66667 16.2708 7.19167 16.5 7.775 16.5ZM18.1 8.5H20.5V4.5H18.1V8.5Z" fill="#3D74AC"/>
</svg>
