<svg width="24" height="25" viewBox="0 0 24 25" fill="none" xmlns="http://www.w3.org/2000/svg">
<path d="M11.9902 12.25C12.4736 12.25 12.8861 12.0792 13.2277 11.7375C13.5694 11.3958 13.7402 10.9833 13.7402 10.5C13.7402 10.0167 13.5694 9.60417 13.2277 9.2625C12.8861 8.92083 12.4736 8.75 11.9902 8.75C11.5069 8.75 11.0944 8.92083 10.7527 9.2625C10.4111 9.60417 10.2402 10.0167 10.2402 10.5C10.2402 10.9833 10.4111 11.3958 10.7527 11.7375C11.0944 12.0792 11.5069 12.25 11.9902 12.25ZM11.9902 20.525C14.2069 18.5083 15.8444 16.6792 16.9027 15.0375C17.9611 13.3958 18.4902 11.95 18.4902 10.7C18.4902 8.73333 17.8611 7.125 16.6027 5.875C15.3444 4.625 13.8069 4 11.9902 4C10.1736 4 8.63607 4.625 7.37773 5.875C6.1194 7.125 5.49023 8.73333 5.49023 10.7C5.49023 11.95 6.0319 13.3958 7.11523 15.0375C8.19857 16.6792 9.82357 18.5083 11.9902 20.525ZM11.9902 22.5C9.3069 20.2167 7.30273 18.0958 5.97773 16.1375C4.65273 14.1792 3.99023 12.3667 3.99023 10.7C3.99023 8.2 4.7944 6.20833 6.40273 4.725C8.01107 3.24167 9.87357 2.5 11.9902 2.5C14.1069 2.5 15.9694 3.24167 17.5777 4.725C19.1861 6.20833 19.9902 8.2 19.9902 10.7C19.9902 12.3667 19.3277 14.1792 18.0027 16.1375C16.6777 18.0958 14.6736 20.2167 11.9902 22.5Z" fill="white"/>
</svg>
