<?xml version="1.0" encoding="utf-8"?>
<!-- Generator: Adobe Illustrator 23.0.1, SVG Export Plug-In . SVG Version: 6.00 Build 0)  -->
<svg version="1.1" id="Layer_1" xmlns="http://www.w3.org/2000/svg" xmlns:xlink="http://www.w3.org/1999/xlink" x="0px" y="0px"
	 width="241.55px" height="48px" viewBox="0 0 241.55 48" style="enable-background:new 0 0 241.55 48;" xml:space="preserve">
<style type="text/css">
	.st0{fill:#FFAE02;}
	.st1{fill:#383950;}
</style>
<g>
	<path class="st0" d="M58.3,25.24c0.53,1.41,1.83,2.35,4.53,2.35c2.71,0,3.44-0.81,3.44-1.79c0-1.12-0.88-1.65-4.85-2.21
		c-7.63-1.09-8.68-3.9-8.68-6.33c0-3.02,2.28-6.43,9.24-6.43c7.06,0,9.52,3.34,9.8,6.22h-6.22c-0.25-0.95-0.98-2.04-3.83-2.04
		c-2.39,0-2.81,0.91-2.81,1.62c0,0.81,0.63,1.34,4.39,1.86c8.12,1.23,9.21,3.97,9.21,6.75c0,3.62-2.78,6.64-10.05,6.64
		c-5.45,0-9.77-2.32-10.37-6.71L58.3,25.24z"/>
	<path class="st0" d="M93.44,25.76c0,2.57,0.11,5.17,0.14,5.62H87.6c-0.14-0.49-0.18-1.69-0.21-2.25c-1.09,1.72-3.37,2.81-7.13,2.81
		c-5.45,0-7.66-3.34-7.66-6.5c0-5.24,4.6-6.71,10.47-6.71h4.18V18.1c0-1.62-0.7-2.92-3.62-2.92c-2.74,0-3.34,1.02-3.58,2.18h-6.33
		c0.18-2.46,1.9-6.43,9.8-6.43c8.68,0,9.91,4.08,9.91,7.45V25.76z M87.22,22.71c-0.46-0.04-1.83-0.04-4.08-0.04
		c-3.2,0-4.5,0.84-4.5,2.42c0,1.3,1.05,2.35,3.34,2.35c3.48,0,5.2-1.58,5.2-4.43L87.22,22.71z"/>
	<rect x="95.9" y="2.57" class="st0" width="6.33" height="28.78"/>
	<path class="st0" d="M109.78,22.92c0.14,2.42,1.9,4.29,4.88,4.29c2.39,0,3.51-0.7,4.22-1.93h6.32c-1.19,3.55-4.22,6.64-10.61,6.64
		c-8.19,0-11.14-5.41-11.14-10.51c0-5.62,3.8-10.54,11.07-10.54c7.77,0,10.93,5.34,10.93,10.54c0,0.53,0,0.84-0.04,1.51H109.78z
		 M119.09,19.02c-0.11-1.55-0.95-3.8-4.53-3.8c-3.34,0-4.53,1.79-4.71,3.8H119.09z"/>
	<path class="st0" d="M131.6,25.24c0.53,1.41,1.83,2.35,4.53,2.35s3.44-0.81,3.44-1.79c0-1.12-0.88-1.65-4.85-2.21
		c-7.63-1.09-8.68-3.9-8.68-6.33c0-3.02,2.28-6.43,9.24-6.43c7.06,0,9.52,3.34,9.8,6.22h-6.22c-0.25-0.95-0.98-2.04-3.8-2.04
		c-2.39,0-2.81,0.91-2.81,1.62c0,0.81,0.63,1.34,4.39,1.86c8.12,1.23,9.21,3.97,9.21,6.75c0,3.62-2.78,6.64-10.05,6.64
		c-5.45,0-9.77-2.32-10.37-6.71L131.6,25.24z"/>
	<path class="st1" d="M152.05,25.24c0.53,1.41,1.83,2.35,4.53,2.35c2.71,0,3.44-0.81,3.44-1.79c0-1.12-0.88-1.65-4.85-2.21
		c-7.63-1.09-8.68-3.9-8.68-6.33c0-3.02,2.28-6.43,9.24-6.43c7.06,0,9.52,3.34,9.8,6.22h-6.22c-0.25-0.95-0.98-2.04-3.8-2.04
		c-2.39,0-2.81,0.91-2.81,1.62c0,0.81,0.63,1.34,4.39,1.86c8.12,1.23,9.21,3.97,9.21,6.75c0,3.62-2.78,6.64-10.05,6.64
		c-5.45,0-9.77-2.32-10.37-6.71L152.05,25.24z"/>
	<path class="st1" d="M167.23,16.42c0-1.69,0-3.58-0.04-5.06h6.18c0.07,0.56,0.14,1.76,0.18,2.57c0.88-1.37,2.74-3.09,6.61-3.09
		c4.88,0,7.8,3.02,7.8,8.19v12.33h-6.4V20.03c0-2.28-0.88-4.29-3.72-4.29c-2.95,0-4.29,2.04-4.29,5.66v9.98h-6.36L167.23,16.42z"/>
	<path class="st1" d="M210.1,25.76c0,2.57,0.11,5.17,0.14,5.62h-5.97c-0.14-0.49-0.18-1.69-0.21-2.25
		c-1.09,1.72-3.37,2.81-7.13,2.81c-5.45,0-7.66-3.34-7.66-6.5c0-5.24,4.6-6.71,10.47-6.71h4.18V18.1c0-1.62-0.7-2.92-3.62-2.92
		c-2.74,0-3.34,1.02-3.58,2.18h-6.29c0.18-2.46,1.9-6.43,9.8-6.43c8.68,0,9.91,4.08,9.91,7.45L210.1,25.76z M203.91,22.71
		c-0.46-0.04-1.83-0.04-4.08-0.04c-3.23,0-4.5,0.84-4.5,2.42c0,1.3,1.05,2.35,3.34,2.35c3.48,0,5.2-1.58,5.2-4.43L203.91,22.71z"/>
	<path class="st1" d="M218.92,29.42v10.37h-6.33V16.31c0-1.62,0-3.3-0.04-4.88h6.22c0.07,0.39,0.14,1.72,0.14,2.57
		c1.12-1.65,3.13-3.09,6.96-3.09c5.17,0,9.38,4.29,9.38,10.12c0,6.96-4.99,10.93-10.19,10.93C221.8,31.88,219.9,30.61,218.92,29.42
		 M228.76,21.3c0-2.95-1.65-5.59-4.92-5.59c-3.65,0-5.1,2.35-5.1,5.66c0,3.44,1.72,5.55,4.99,5.55
		C227.03,26.92,228.76,24.67,228.76,21.3"/>
	<path class="st1" d="M236.03,12.02v0.67h-0.42v-1.76h0.98c0.42,0,0.63,0.18,0.63,0.49c0,0.21-0.14,0.39-0.28,0.42
		c0.07,0.04,0.25,0.11,0.25,0.42v0.07c0,0.11,0,0.25,0.03,0.35h-0.46c-0.04-0.07-0.04-0.18-0.04-0.39c0-0.18-0.07-0.25-0.35-0.25
		C236.35,12.02,236.03,12.02,236.03,12.02 M236.03,11.71h0.46c0.21,0,0.28-0.07,0.28-0.21c0-0.14-0.07-0.21-0.28-0.21h-0.46V11.71z"
		/>
	<path class="st1" d="M236.35,13.75c-1.09,0-1.93-0.84-1.93-1.93s0.88-1.93,1.93-1.93c1.05,0,1.93,0.84,1.93,1.93
		C238.28,12.87,237.44,13.75,236.35,13.75 M236.35,10.27c-0.88,0-1.55,0.67-1.55,1.55c0,0.84,0.67,1.55,1.55,1.55
		c0.88,0,1.55-0.67,1.55-1.55C237.89,10.93,237.22,10.27,236.35,10.27"/>
	<polygon class="st1" points="86.8,45.33 85.79,45.33 85.79,40.44 86.79,40.44 88.21,42.46 89.63,40.44 90.62,40.44 90.62,45.33 
		89.63,45.33 89.63,41.98 88.51,43.56 87.95,43.56 86.8,41.98 	"/>
	<path class="st1" d="M92.69,45.33h-1.06l2.1-4.92h0.97l2.1,4.92h-1.07l-0.48-1.13h-2.07L92.69,45.33z M94.2,41.67l-0.72,1.7h1.43
		L94.2,41.67z"/>
	<path class="st1" d="M98.8,45.33h-1.01v-4.89h2.27c0.52,0,0.93,0.14,1.23,0.41c0.3,0.27,0.45,0.61,0.45,1.04
		c0,0.33-0.09,0.61-0.27,0.85c-0.18,0.24-0.43,0.41-0.74,0.51l1.51,2.09h-1.17l-1.43-1.98H98.8V45.33z M98.8,41.32v1.19h1.2
		c0.23,0,0.41-0.05,0.53-0.15c0.13-0.1,0.19-0.25,0.19-0.44c0-0.19-0.06-0.33-0.19-0.44c-0.13-0.11-0.31-0.16-0.53-0.16H98.8z"/>
	<polygon class="st1" points="104.25,45.33 103.24,45.33 103.24,40.44 104.25,40.44 104.25,42.37 106.06,40.44 107.29,40.44 
		105.21,42.68 107.64,45.33 106.36,45.33 104.25,43.07 	"/>
	<polygon class="st1" points="112.2,45.33 108.53,45.33 108.53,40.44 112.12,40.44 112.12,41.34 109.54,41.34 109.54,42.28 
		111.62,42.28 111.62,43.17 109.54,43.17 109.54,44.43 112.2,44.43 	"/>
	<polygon class="st1" points="113.03,41.34 113.03,40.44 117.13,40.44 117.13,41.34 115.58,41.34 115.58,45.33 114.57,45.33 
		114.57,41.34 	"/>
	<rect x="118.26" y="40.44" class="st1" width="1" height="4.89"/>
	<polygon class="st1" points="121.71,45.33 120.72,45.33 120.72,40.44 121.58,40.44 124.05,43.57 124.05,40.44 125.03,40.44 
		125.03,45.33 124.2,45.33 121.71,42.18 	"/>
	<path class="st1" d="M128.9,45.43c-0.75,0-1.37-0.24-1.86-0.71c-0.5-0.48-0.75-1.1-0.75-1.83c0-0.75,0.25-1.36,0.75-1.83
		c0.49-0.48,1.13-0.71,1.89-0.71c0.56,0,1.05,0.12,1.47,0.37v0.99c-0.45-0.28-0.92-0.42-1.4-0.42c-0.5,0-0.9,0.15-1.22,0.45
		c-0.31,0.29-0.47,0.69-0.47,1.17c0,0.48,0.15,0.87,0.45,1.16s0.68,0.43,1.13,0.43c0.43,0,0.76-0.11,0.99-0.32v-1.68h1.01v2.16
		c-0.21,0.22-0.49,0.41-0.84,0.55C129.69,45.35,129.31,45.43,128.9,45.43"/>
	<path class="st1" d="M134.95,45.33h-1.06l2.1-4.92h0.97l2.1,4.92h-1.07l-0.48-1.13h-2.07L134.95,45.33z M136.46,41.67l-0.72,1.7
		h1.43L136.46,41.67z"/>
	<path class="st1" d="M142.08,45.43c-0.61,0-1.11-0.19-1.5-0.57c-0.39-0.38-0.59-0.91-0.59-1.59v-2.84h1v2.87
		c0,0.38,0.1,0.67,0.3,0.87c0.2,0.2,0.46,0.3,0.79,0.3c0.34,0,0.6-0.1,0.8-0.3c0.2-0.2,0.3-0.49,0.3-0.87v-2.87h1.01v2.84
		c0,0.68-0.2,1.21-0.59,1.59C143.2,45.24,142.69,45.43,142.08,45.43"/>
	<polygon class="st1" points="145.21,41.34 145.21,40.44 149.31,40.44 149.31,41.34 147.76,41.34 147.76,45.33 146.75,45.33 
		146.75,41.34 	"/>
	<path class="st1" d="M149.89,42.88c0-0.72,0.24-1.32,0.72-1.8c0.48-0.49,1.09-0.74,1.82-0.74c0.73,0,1.33,0.25,1.81,0.74
		c0.48,0.49,0.73,1.1,0.73,1.8c0,0.7-0.24,1.31-0.73,1.8c-0.48,0.49-1.08,0.74-1.81,0.74c-0.73,0-1.34-0.25-1.82-0.74
		C150.13,44.19,149.89,43.59,149.89,42.88 M151.35,44.03c0.29,0.3,0.65,0.45,1.08,0.45c0.43,0,0.79-0.15,1.08-0.45
		c0.29-0.3,0.43-0.69,0.43-1.15c0-0.46-0.14-0.84-0.43-1.15c-0.29-0.3-0.65-0.45-1.08-0.45c-0.43,0-0.79,0.15-1.08,0.45
		c-0.28,0.3-0.43,0.68-0.43,1.15C150.92,43.35,151.06,43.73,151.35,44.03"/>
	<polygon class="st1" points="157.23,45.33 156.23,45.33 156.23,40.44 157.23,40.44 158.65,42.46 160.07,40.44 161.06,40.44 
		161.06,45.33 160.07,45.33 160.07,41.98 158.94,43.56 158.38,43.56 157.23,41.98 	"/>
	<path class="st1" d="M163.12,45.33h-1.06l2.1-4.92h0.97l2.1,4.92h-1.07l-0.48-1.13h-2.07L163.12,45.33z M164.64,41.67l-0.72,1.7
		h1.43L164.64,41.67z"/>
	<polygon class="st1" points="167.2,41.34 167.2,40.44 171.3,40.44 171.3,41.34 169.75,41.34 169.75,45.33 168.74,45.33 
		168.74,41.34 	"/>
	<rect x="172.43" y="40.44" class="st1" width="1" height="4.89"/>
	<path class="st1" d="M174.73,42.88c0-0.72,0.24-1.32,0.72-1.8c0.48-0.49,1.09-0.74,1.82-0.74c0.73,0,1.33,0.25,1.81,0.74
		c0.48,0.49,0.73,1.1,0.73,1.8c0,0.7-0.24,1.31-0.73,1.8c-0.48,0.49-1.08,0.74-1.81,0.74c-0.73,0-1.34-0.25-1.82-0.74
		C174.97,44.19,174.73,43.59,174.73,42.88 M176.18,44.03c0.29,0.3,0.65,0.45,1.08,0.45c0.43,0,0.79-0.15,1.08-0.45
		c0.29-0.3,0.43-0.69,0.43-1.15c0-0.46-0.14-0.84-0.43-1.15c-0.29-0.3-0.65-0.45-1.08-0.45c-0.43,0-0.79,0.15-1.08,0.45
		c-0.28,0.3-0.43,0.68-0.43,1.15C175.76,43.35,175.9,43.73,176.18,44.03"/>
	<polygon class="st1" points="182.05,45.33 181.06,45.33 181.06,40.44 181.92,40.44 184.39,43.57 184.39,40.44 185.37,40.44 
		185.37,45.33 184.54,45.33 182.05,42.18 	"/>
	<path class="st0" d="M18.84,28.01C5.91,27.73,0.25,20,4.85,12.62c3.72-5.97,13.25-10.01,22-10.01c2.18,0,3.76,0.95,3.44,2.21
		c-0.32,1.3-2.53,2.39-4.88,2.39c-4.81-0.04-9.8,2.32-11.31,5.52c-1.69,3.55,1.55,6.85,7.38,6.92c2.92,0.04,4.85,1.79,4.32,4.04
		C25.23,26.08,22.07,28.08,18.84,28.01"/>
	<path class="st1" d="M13.46,45.3c-3.94-0.14-5.94-3.3-4.57-6.78c1.26-3.23,4.99-5.59,8.43-5.52c7.06,0.18,13.6-4.32,14.41-9.38
		c0.7-4.43-3.37-7.73-9-7.8c-2.74-0.04-4.36-1.51-3.69-3.2c0.63-1.62,3.13-2.85,5.62-2.85c10.12,0.07,18.48,5.66,18.48,14.06
		C43.12,34.76,29.62,45.93,13.46,45.3"/>
</g>
</svg>
