<?xml version="1.0" encoding="utf-8"?>
<!-- Generator: Adobe Illustrator 23.0.1, SVG Export Plug-In . SVG Version: 6.00 Build 0)  -->
<svg version="1.1" id="Layer_1" xmlns="http://www.w3.org/2000/svg" xmlns:xlink="http://www.w3.org/1999/xlink" x="0px" y="0px"
	 width="197.48px" height="48px" viewBox="0 0 197.48 48" style="enable-background:new 0 0 197.48 48;" xml:space="preserve">
<style type="text/css">
	.st0{fill:#231F20;}
	.st1{clip-path:url(#SVGID_2_);fill:url(#SVGID_3_);}
	.st2{clip-path:url(#SVGID_5_);fill:url(#SVGID_6_);}
	.st3{clip-path:url(#SVGID_8_);fill:url(#SVGID_9_);}
</style>
<g>
	<path class="st0" d="M65.42,25.11c-1.59-0.48-2.96-0.89-2.96-1.86c0-0.83,0.68-1.25,2.01-1.25c0.88,0,1.93,0.22,2.96,0.63
		c1.08,0.43,2.33-0.07,2.85-1.12l0.42-0.86c0.08-0.16,0.03-0.35-0.11-0.45c-1.48-1.05-3.72-1.7-5.84-1.7
		c-3.82,0-6.29,1.97-6.29,5.02c-0.02,3.59,2.96,4.48,5.36,5.2c1.92,0.58,3.1,0.98,3.1,2.08c0,1.19-1.43,1.37-2.28,1.37
		c-1.18,0-2.59-0.36-3.77-0.97c-0.51-0.26-1.08-0.31-1.61-0.13c-0.52,0.17-0.95,0.54-1.2,1.03l-0.38,0.76
		c-0.07,0.14-0.04,0.31,0.08,0.42c1.59,1.44,4.17,2.34,6.72,2.34c3.97,0,6.54-2.02,6.54-5.14C71.03,26.79,67.92,25.86,65.42,25.11"
		/>
	<path class="st0" d="M152.03,25.11c-1.59-0.48-2.96-0.89-2.96-1.86c0-0.83,0.68-1.25,2.01-1.25c0.88,0,1.93,0.22,2.96,0.63
		c1.08,0.43,2.33-0.07,2.85-1.12l0.42-0.85c0.08-0.16,0.03-0.35-0.11-0.45c-1.48-1.05-3.72-1.7-5.84-1.7
		c-3.82,0-6.29,1.97-6.29,5.02c-0.02,3.59,2.96,4.48,5.36,5.2c1.92,0.58,3.1,0.98,3.1,2.08c0,1.19-1.43,1.37-2.28,1.37
		c-1.18,0-2.59-0.36-3.77-0.97c-0.51-0.26-1.08-0.31-1.62-0.13c-0.52,0.17-0.95,0.54-1.19,1.03l-0.38,0.76
		c-0.07,0.14-0.04,0.31,0.08,0.42c1.59,1.44,4.17,2.34,6.72,2.34c3.97,0,6.54-2.02,6.54-5.14
		C157.63,26.79,154.52,25.86,152.03,25.11"/>
	<path class="st0" d="M81.96,18.53c-2.5,0-4.38,0.81-5.62,2.4v-6.26c0-1.31-1.07-2.38-2.38-2.38H72.5c-0.2,0-0.35,0.16-0.35,0.35
		v22.49c0,0.2,0.16,0.35,0.35,0.35h3.49c0.2,0,0.35-0.16,0.35-0.35V27.2c0-2.77,1.71-4.65,4.25-4.68c2.21,0,3.53,1.33,3.53,3.56
		v9.06c0,0.2,0.16,0.35,0.35,0.35h3.49c0.2,0,0.35-0.16,0.35-0.35V25.1C88.31,21.05,85.88,18.53,81.96,18.53"/>
	<path class="st0" d="M98.33,18.54c-5.17,0-8.78,3.5-8.78,8.51c0,5.04,3.61,8.57,8.78,8.57c5.15,0,8.75-3.52,8.75-8.57
		C107.08,22.03,103.48,18.54,98.33,18.54 M102.88,27.1c0,2.92-1.83,4.89-4.56,4.89c-2.74,0-4.59-1.96-4.59-4.89
		c0-2.88,1.89-4.89,4.59-4.89C101.01,22.21,102.88,24.23,102.88,27.1"/>
	<path class="st0" d="M136.4,18.53c-2.21,0-4.02,0.76-5.29,2.2c-0.07-1.16-1.04-2.08-2.22-2.08h-1.62c-0.2,0-0.35,0.16-0.35,0.35
		v22.01c0,0.2,0.16,0.35,0.35,0.35h1.28c1.41,0,2.56-1.15,2.56-2.56v-5.4c1.28,1.44,3.1,2.2,5.34,2.2c4.78,0,7.99-3.41,7.99-8.48
		C144.46,22.07,141.15,18.53,136.4,18.53 M140.23,27.01c0,2.9-1.87,4.92-4.56,4.92c-2.68,0-4.56-2.02-4.56-4.92
		c0-2.86,1.87-4.86,4.56-4.86C138.32,22.15,140.23,24.2,140.23,27.01"/>
	<path class="st0" d="M117.81,18.53c-2.21,0-4.02,0.76-5.29,2.2c-0.07-1.16-1.04-2.08-2.22-2.08h-1.62c-0.2,0-0.36,0.16-0.36,0.35
		v22.01c0,0.2,0.16,0.35,0.36,0.35h1.28c1.41,0,2.56-1.15,2.56-2.56v-5.4c1.28,1.44,3.1,2.2,5.34,2.2c4.78,0,7.99-3.41,7.99-8.48
		C125.87,22.07,122.56,18.53,117.81,18.53 M121.64,27.01c0,2.9-1.87,4.92-4.56,4.92c-2.68,0-4.56-2.02-4.56-4.92
		c0-2.86,1.87-4.86,4.56-4.86C119.73,22.15,121.64,24.2,121.64,27.01"/>
	<path class="st0" d="M168.34,31.11c-0.09-0.04-0.2-0.04-0.29,0.01c-0.94,0.46-1.65,0.66-2.27,0.66c-0.85,0-1.37-0.31-1.37-1.83
		v-7.37h2.2c1.41,0,2.56-1.15,2.56-2.56v-0.4c0-0.2-0.16-0.35-0.35-0.35h-4.4v-2.12c0-1.27-1.04-2.31-2.31-2.31h-1.5
		c-0.2,0-0.35,0.16-0.35,0.35v4.07h-1.92c-0.2,0-0.35,0.16-0.35,0.35v2.61c0,0.2,0.16,0.36,0.35,0.36h1.92v8.01
		c0,3.73,2.52,5.05,4.87,5.05c1.38,0,2.78-0.41,4.15-1.23c0.14-0.09,0.21-0.26,0.16-0.42l-0.88-2.67
		C168.51,31.23,168.44,31.15,168.34,31.11"/>
	<path class="st0" d="M177.54,18.53c-5.01,0.03-8.51,3.56-8.51,8.57c0,5.09,3.46,8.51,8.6,8.51c2.84,0,5.23-0.98,6.93-2.84
		c0.13-0.14,0.12-0.35,0-0.48l-1.02-1.08c-0.56-0.6-1.47-0.69-2.11-0.23c-1.01,0.73-2.23,1.11-3.52,1.11
		c-2.21,0-3.92-1.26-4.54-3.32h11.73c0.19,0,0.34-0.14,0.35-0.33c0.25-3.42-0.42-6.01-2-7.7C182.09,19.27,180.11,18.53,177.54,18.53
		 M173.27,25.51c0.46-2.15,2.08-3.47,4.31-3.47c2.35,0,3.86,1.29,4.1,3.47H173.27z"/>
	<path class="st0" d="M196.09,18.75c-0.15-0.14-0.34-0.21-0.54-0.2c-2.04,0.1-3.68,0.94-4.8,2.43c-0.02-1.28-1.07-2.32-2.36-2.32
		h-1.48c-0.2,0-0.35,0.16-0.35,0.35v16.13c0,0.2,0.16,0.35,0.35,0.35h1.13c1.49,0,2.71-1.22,2.71-2.71l0-6.04
		c0.27-2.69,2.31-4.33,5.2-4.17c0.1,0,0.19-0.03,0.26-0.1c0.07-0.07,0.11-0.16,0.11-0.26V19.3
		C196.32,19.09,196.24,18.89,196.09,18.75"/>
	<g>
		<defs>
			<path id="SVGID_1_" d="M13.77,11.71c0,0.01,0,0.37,0,0.78l-6.25-0.06c-2.68,0-4.88,2.18-4.9,4.82L1.15,41.69
				c0,0.04,0,0.08,0,0.12c0,2.7,2.2,4.9,4.9,4.9h15.38c1,0,1.89-0.71,2.02-1.7c0.15-1.2-0.78-2.22-1.95-2.22H6.05
				c-0.53,0-0.96-0.43-0.98-0.9l1.47-24.42c0-0.04,0-0.08,0-0.12c0-0.54,0.43-0.98,0.96-0.98l9.53,0.09h0.66l0.01-3.26l-0.02-1.48
				c0-3.71,3.08-6.73,6.86-6.73c3.78,0,6.86,3.02,6.86,6.73c0,0.14,0,1.8-0.01,1.94l0.04,2.72h10.94c0.54,0,0.98,0.44,0.98,0.98
				c0,0.04,0,0.08,0,0.12l1.28,23.58c0,0,0.1,4.54,0.09,4.84c0,0.26,0,0.53-0.02,0.79c1.18-0.26,2.11-0.69,2.85-1.25
				c0.91-0.69,1.39-1.81,1.32-2.95l0-0.01l-1.6-25.17c-0.03-2.68-2.23-4.85-4.9-4.85h-7.05l0-0.73c0-5.88-4.84-10.66-10.78-10.66
				C18.6,1.05,13.77,5.83,13.77,11.71"/>
		</defs>
		<clipPath id="SVGID_2_">
			<use xlink:href="#SVGID_1_"  style="overflow:visible;"/>
		</clipPath>
		
			<linearGradient id="SVGID_3_" gradientUnits="userSpaceOnUse" x1="-45.1178" y1="441.7212" x2="-44.1749" y2="441.7212" gradientTransform="matrix(68.3663 61.6309 61.6309 -68.3663 -24130.5684 32988.5547)">
			<stop  offset="0" style="stop-color:#EA2127"/>
			<stop  offset="0.2074" style="stop-color:#DA2028"/>
			<stop  offset="0.6098" style="stop-color:#B11F2C"/>
			<stop  offset="0.8367" style="stop-color:#971E2E"/>
			<stop  offset="1" style="stop-color:#971E2E"/>
		</linearGradient>
		<polygon class="st1" points="22.58,-22.72 71.66,21.52 27.53,70.49 -21.55,26.24 		"/>
	</g>
	<g>
		<defs>
			<path id="SVGID_4_" d="M44.64,41.04C44.64,41.04,44.64,41.04,44.64,41.04L44.64,41.04z"/>
		</defs>
		<clipPath id="SVGID_5_">
			<use xlink:href="#SVGID_4_"  style="overflow:visible;"/>
		</clipPath>
		
			<linearGradient id="SVGID_6_" gradientUnits="userSpaceOnUse" x1="44.6434" y1="41.0391" x2="44.6453" y2="41.0391" gradientTransform="matrix(2.476400e-03 2.232500e-03 2.232500e-03 -2.476400e-03 191.1123 -238.1233)">
			<stop  offset="0" style="stop-color:#EA2127"/>
			<stop  offset="0.1864" style="stop-color:#EA2527"/>
			<stop  offset="0.3763" style="stop-color:#EC3126"/>
			<stop  offset="0.5679" style="stop-color:#EE4625"/>
			<stop  offset="0.7605" style="stop-color:#F06223"/>
			<stop  offset="0.9523" style="stop-color:#F48721"/>
			<stop  offset="1" style="stop-color:#F59120"/>
		</linearGradient>
		<polygon class="st2" points="44.64,41.04 44.65,41.04 44.64,41.04 44.64,41.04 		"/>
	</g>
	<g>
		<defs>
			<path id="SVGID_7_" d="M17.26,19.7c-0.65,0.53-1.03,1.32-1.04,2.18L16.06,36.7c-0.01,1.32,0.81,2.54,2.06,2.86
				c0.22,0.06,0.45,0.09,0.67,0.09c0.48,0,0.96-0.13,1.38-0.38l1.94-1.16l0.07-0.07c0.29-0.21,0.55-0.4,0.77-0.56
				c0.45,0.51,0.93,1.02,1.45,1.55l0.07,0.07c0.28,0.29,0.58,0.6,0.88,0.92c0.2,0.22,2.32,2.62,6.51,4.64
				c2.18,1.05,4.53,1.72,6.92,2.06c4.33,0.61,7.02,0.01,8.71-1.23c0.94-0.69,1.46-1.83,1.39-3l0-0.01l-0.16-2.45
				c-0.05,0.86-0.42,1.53-1.07,2.09c-1.25,1.09-9.37,4.2-19.02-4.47c-2.14-1.93-3.61-4.28-3.61-4.28c-0.14-0.21-0.34-0.35-0.57-0.4
				c-0.23-0.05-0.47-0.02-0.68,0.11l-4.52,2.95l0.14-13.4l12.49,5.46l-0.73,0.47c-0.03,0.02-0.05,0.03-0.08,0.04l-1.52,0.93
				c-0.48,0.28-0.97,0.57-1.44,0.86c-0.5,0.31-0.66,0.96-0.36,1.46c0.86,1.41,3.97,4.38,5.76,6.03c0.73,0.67,1.85,0.65,2.55-0.03
				c0.76-0.74,0.75-1.97-0.03-2.69c-0.31-0.29-0.68-0.63-1.09-1.02c-1.5-1.4-2.5-2.39-2.67-2.6l2.04-1.14
				c0.87-0.56,1.36-1.56,1.29-2.61c-0.08-1.05-0.71-1.97-1.66-2.38l-13.92-6.09c-0.15-0.07-0.31-0.12-0.47-0.16
				c-0.2-0.05-0.4-0.07-0.6-0.07C18.35,19.09,17.75,19.3,17.26,19.7"/>
		</defs>
		<clipPath id="SVGID_8_">
			<use xlink:href="#SVGID_7_"  style="overflow:visible;"/>
		</clipPath>
		
			<linearGradient id="SVGID_9_" gradientUnits="userSpaceOnUse" x1="-44.8267" y1="440.5818" x2="-43.8838" y2="440.5818" gradientTransform="matrix(50.8801 45.8675 45.8675 -50.8801 -17910.1543 24492.5605)">
			<stop  offset="0" style="stop-color:#EA2127"/>
			<stop  offset="0.1864" style="stop-color:#EA2527"/>
			<stop  offset="0.3763" style="stop-color:#EC3126"/>
			<stop  offset="0.5679" style="stop-color:#EE4625"/>
			<stop  offset="0.7605" style="stop-color:#F06223"/>
			<stop  offset="0.9523" style="stop-color:#F48721"/>
			<stop  offset="1" style="stop-color:#F59120"/>
		</linearGradient>
		<polygon class="st3" points="30.81,2.73 63,31.74 34.21,63.68 2.02,34.66 		"/>
	</g>
</g>
</svg>
