<?xml version="1.0" encoding="utf-8"?>
<!-- Generator: Adobe Illustrator 25.2.3, SVG Export Plug-In . SVG Version: 6.00 Build 0)  -->
<svg version="1.1" id="Layer_1" xmlns="http://www.w3.org/2000/svg" xmlns:xlink="http://www.w3.org/1999/xlink" x="0px" y="0px"
	 width="239.1px" height="42px" viewBox="0 0 239.1 42" style="enable-background:new 0 0 239.1 42;" xml:space="preserve">
<path id="XMLID_181_" d="M33.5,40.7v-0.9h-25c-1.7,0-3.3-0.7-4.4-1.8c-1.1-1.1-1.8-2.7-1.8-4.4v-25c0-1.7,0.7-3.3,1.8-4.4
	C5.2,3,6.7,2.3,8.4,2.3h25c1.7,0,3.3,0.7,4.4,1.8c1.1,1.1,1.8,2.7,1.8,4.4v25c0,1.7-0.7,3.3-1.8,4.4c-1.1,1.1-2.7,1.8-4.4,1.8V40.7
	v0.9c2.2,0,4.3-0.9,5.7-2.4c1.5-1.5,2.4-3.5,2.4-5.7v-25c0-2.2-0.9-4.3-2.4-5.7c-1.5-1.5-3.5-2.4-5.7-2.4h-25
	c-2.2,0-4.3,0.9-5.7,2.4C1.3,4.3,0.4,6.3,0.4,8.5v25c0,2.2,0.9,4.3,2.4,5.7c1.5,1.5,3.5,2.4,5.7,2.4h25V40.7z"/>
<path id="XMLID_177_" d="M23.3,15.9v13.9h-4.6V15.9h-3.5v-4h11.6v4H23.3z"/>
<path id="XMLID_174_" d="M72.8,40.7v-0.9h-25c-1.7,0-3.3-0.7-4.4-1.8c-1.1-1.1-1.8-2.7-1.8-4.4v-25c0-1.7,0.7-3.3,1.8-4.4
	C44.5,3,46,2.3,47.8,2.3h25c1.7,0,3.3,0.7,4.4,1.8C78.3,5.3,79,6.8,79,8.5v25c0,1.7-0.7,3.3-1.8,4.4c-1.1,1.1-2.7,1.8-4.4,1.8V40.7
	v0.9c2.2,0,4.3-0.9,5.7-2.4c1.5-1.5,2.4-3.5,2.4-5.7v-25c0-2.2-0.9-4.3-2.4-5.7c-1.5-1.5-3.5-2.4-5.7-2.4h-25
	c-2.2,0-4.3,0.9-5.7,2.4c-1.5,1.5-2.4,3.5-2.4,5.7v25c0,2.2,0.9,4.3,2.4,5.7c1.5,1.5,3.5,2.4,5.7,2.4h25V40.7z"/>
<path id="XMLID_170_" d="M63.7,29.7l-0.9-2.6h-6.2l-0.9,2.6h-4.9l7.2-17.9h3.6l7.1,17.9H63.7z M59.7,17.4L59.7,17.4L59.7,17.4
	l-1.9,6.1h3.7L59.7,17.4z"/>
<path id="XMLID_168_" d="M112.1,40.7v-0.9h-25c-1.7,0-3.3-0.7-4.4-1.8c-1.1-1.1-1.8-2.7-1.8-4.4v-25c0-1.7,0.7-3.3,1.8-4.4
	c1.1-1.1,2.7-1.8,4.4-1.8h25c1.7,0,3.3,0.7,4.4,1.8c1.1,1.1,1.8,2.7,1.8,4.4v25c0,1.7-0.7,3.3-1.8,4.4c-1.1,1.1-2.7,1.8-4.4,1.8
	V40.7v0.9c2.2,0,4.3-0.9,5.7-2.4c1.5-1.5,2.4-3.5,2.4-5.7v-25c0-2.2-0.9-4.3-2.4-5.7c-1.5-1.5-3.5-2.4-5.7-2.4h-25
	c-2.2,0-4.3,0.9-5.7,2.4C79.9,4.3,79,6.3,79,8.5v25c0,2.2,0.9,4.3,2.4,5.7c1.5,1.5,3.5,2.4,5.7,2.4h25V40.7z"/>
<path id="XMLID_149_" d="M99.4,30.1c-3.6,0-6.5-1.9-6.5-5.7v-0.6h4.5c0,1.2,0.5,2.4,1.9,2.4c0.9,0,1.7-0.7,1.7-1.7
	c0-1.2-1-1.5-1.9-2c-0.5-0.2-1.1-0.5-1.6-0.7c-2.3-1-4.4-2.3-4.4-5.1c0-3.3,3.2-5.3,6.3-5.3c1.7,0,3.7,0.7,4.8,2
	c0.9,1.1,1.1,2.1,1.2,3.5H101c-0.1-1-0.5-1.7-1.6-1.7c-0.8,0-1.6,0.6-1.6,1.4c0,0.3,0,0.5,0.2,0.7c0.4,0.7,2.8,1.6,3.5,2
	c2.4,1.1,4.2,2.3,4.2,5.1C105.6,28.3,102.9,30.1,99.4,30.1z"/>
<path id="XMLID_147_" d="M151.4,40.7v-0.9h-25c-1.7,0-3.3-0.7-4.4-1.8c-1.1-1.1-1.8-2.7-1.8-4.4v-25c0-1.7,0.7-3.3,1.8-4.4
	c1.1-1.1,2.7-1.8,4.4-1.8h25c1.7,0,3.3,0.7,4.4,1.8c1.1,1.1,1.8,2.7,1.8,4.4v25c0,1.7-0.7,3.3-1.8,4.4c-1.1,1.1-2.7,1.8-4.4,1.8
	V40.7v0.9c2.2,0,4.3-0.9,5.7-2.4c1.5-1.5,2.4-3.5,2.4-5.7v-25c0-2.2-0.9-4.3-2.4-5.7c-1.5-1.5-3.5-2.4-5.7-2.4h-25
	c-2.2,0-4.3,0.9-5.7,2.4c-1.5,1.5-2.4,3.5-2.4,5.7v25c0,2.2,0.9,4.3,2.4,5.7c1.5,1.5,3.5,2.4,5.7,2.4h25V40.7z"/>
<path id="XMLID_145_" d="M140.8,15.9v13.9h-4.6V15.9h-3.5v-4h11.6v4H140.8z"/>
<path id="XMLID_143_" d="M190.8,40.7v-0.9h-25c-1.7,0-3.3-0.7-4.4-1.8c-1.1-1.1-1.8-2.7-1.8-4.4v-25c0-1.7,0.7-3.3,1.8-4.4
	c1.1-1.1,2.7-1.8,4.4-1.8h25c1.7,0,3.3,0.7,4.4,1.8c1.1,1.1,1.8,2.7,1.8,4.4v25c0,1.7-0.7,3.3-1.8,4.4c-1.1,1.1-2.7,1.8-4.4,1.8
	V40.7v0.9c2.2,0,4.3-0.9,5.7-2.4c1.5-1.5,2.4-3.5,2.4-5.7v-25c0-2.2-0.9-4.3-2.4-5.7c-1.5-1.5-3.5-2.4-5.7-2.4h-25
	c-2.2,0-4.3,0.9-5.7,2.4c-1.5,1.5-2.4,3.5-2.4,5.7v25c0,2.2,0.9,4.3,2.4,5.7c1.5,1.5,3.5,2.4,5.7,2.4h25V40.7z"/>
<path id="XMLID_141_" d="M173.2,29.7V11.9h9.9v4h-5.6v2.8h5.4v4h-5.4v3.1h5.6v4H173.2z"/>
<path id="XMLID_139_" d="M230.1,40.7v-0.9h-25c-1.7,0-3.3-0.7-4.4-1.8c-1.1-1.1-1.8-2.7-1.8-4.4v-25c0-1.7,0.7-3.3,1.8-4.4
	c1.1-1.1,2.7-1.8,4.4-1.8h25c1.7,0,3.3,0.7,4.4,1.8c1.1,1.1,1.8,2.7,1.8,4.4v25c0,1.7-0.7,3.3-1.8,4.4c-1.1,1.1-2.7,1.8-4.4,1.8
	V40.7v0.9c2.2,0,4.3-0.9,5.7-2.4c1.5-1.5,2.4-3.5,2.4-5.7v-25c0-2.2-0.9-4.3-2.4-5.7c-1.5-1.5-3.5-2.4-5.7-2.4h-25
	c-2.2,0-4.3,0.9-5.7,2.4c-1.5,1.5-2.4,3.5-2.4,5.7v25c0,2.2,0.9,4.3,2.4,5.7c1.5,1.5,3.5,2.4,5.7,2.4h25V40.7z"/>
<path id="XMLID_136_" d="M220.2,29.7L216,24h0v5.8h-4.4V11.9h5.7c1.9,0,4,0,5.5,1.3c1.5,1.2,2.2,3,2.2,4.9c0,2.8-1.6,5.2-4.4,5.6
	l4.9,6.1H220.2z M217.6,15.9H216v5h1.6c1.7,0,3-0.7,3-2.6C220.6,16.5,219.2,15.9,217.6,15.9z"/>
</svg>
