<svg width="64" height="64" viewBox="0 0 64 64" fill="none" xmlns="http://www.w3.org/2000/svg">
<g clip-path="url(#clip0_830_530)">
<path d="M19.6779 39.2337C18.4061 38.6487 17.0071 38.318 15.5064 38.318C9.88506 38.318 5.33203 42.8711 5.33203 48.4924C5.33203 54.1137 9.88506 58.6667 15.5064 58.6667C21.1277 58.6667 25.6807 54.1137 25.6807 48.4924C25.6807 46.9917 25.3501 45.5927 24.7651 44.3209L30.7679 38.318L36.7708 44.3209C36.1858 45.5927 35.8551 46.9917 35.8551 48.4924C35.8551 54.1137 40.4081 58.6667 46.0295 58.6667C51.6508 58.6667 56.2038 54.1137 56.2038 48.4924C56.2038 42.8711 51.6508 38.318 46.0295 38.318C44.5288 38.318 43.1298 38.6487 41.858 39.2337L35.8551 33.2308L53.6602 15.4257L53.6602 7.79495L51.1166 7.79495L19.6779 39.2337ZM20.5936 48.4924C20.5936 51.2903 18.3298 53.5796 15.5064 53.5796C12.683 53.5796 10.4192 51.2903 10.4192 48.4924C10.4192 45.6944 12.683 43.4052 15.5064 43.4052C18.3298 43.4052 20.5936 45.6944 20.5936 48.4924ZM51.1166 48.4924C51.1166 51.2903 48.8529 53.5796 46.0295 53.5796C43.2061 53.5796 40.9423 51.2903 40.9423 48.4924C40.9423 45.6944 43.2061 43.4052 46.0295 43.4052C48.8529 43.4052 51.1166 45.6944 51.1166 48.4924ZM32.0397 33.2308C32.0397 33.9431 31.4801 34.5026 30.7679 34.5026C30.0557 34.5026 29.4961 33.9431 29.4961 33.2308C29.4961 32.5186 30.0557 31.9591 30.7679 31.9591C31.4801 31.9591 32.0397 32.5186 32.0397 33.2308ZM7.87562 15.4257L25.6807 33.2308L30.7679 28.1437L10.4192 7.79495L7.87562 7.79495L7.87562 15.4257Z" fill="#3D74AC"/>
<path d="M8.84371 19.0563L4.62974 13.9438C4.09209 13.2915 4.55608 12.3077 5.4014 12.3077H56.956C57.8013 12.3077 58.2653 13.2915 57.7276 13.9438L53.5137 19.0563C53.2092 19.4257 53.2092 19.959 53.5137 20.3284L57.7276 25.4409C58.2653 26.0932 57.8013 27.077 56.956 27.077H5.4014C4.55608 27.077 4.09209 26.0932 4.62974 25.4409L8.84372 20.3284C9.14817 19.959 9.14817 19.4257 8.84371 19.0563Z" fill="white" stroke="#3D74AC"/>
<path d="M19.4689 39.688L19.7852 39.8335L20.0314 39.5873L51.3238 8.29495L53.1602 8.29495L53.1602 15.2186L35.5016 32.8773L35.148 33.2308L35.5016 33.5844L41.5044 39.5873L41.7506 39.8335L42.0669 39.688C43.276 39.1318 44.604 38.818 46.0295 38.818C51.3747 38.818 55.7038 43.1472 55.7038 48.4924C55.7038 53.8376 51.3747 58.1667 46.0295 58.1667C40.6843 58.1667 36.3551 53.8376 36.3551 48.4924C36.3551 47.0669 36.6689 45.739 37.225 44.5299L37.3705 44.2135L37.1244 43.9673L31.1215 37.9645L30.7679 37.6109L30.4144 37.9645L24.4115 43.9673L24.1653 44.2135L24.3108 44.5299C24.867 45.739 25.1807 47.0669 25.1807 48.4924C25.1807 53.8376 20.8516 58.1667 15.5064 58.1667C10.1612 58.1667 5.83203 53.8376 5.83203 48.4924C5.83203 43.1472 10.1612 38.818 15.5064 38.818C16.9319 38.818 18.2598 39.1318 19.4689 39.688ZM15.5064 54.0796C18.6075 54.0796 21.0936 51.5648 21.0936 48.4924C21.0936 45.4199 18.6075 42.9052 15.5064 42.9052C12.4052 42.9052 9.91921 45.4199 9.91921 48.4924C9.91921 51.5649 12.4052 54.0796 15.5064 54.0796ZM46.0295 54.0796C49.1306 54.0796 51.6166 51.5648 51.6166 48.4924C51.6166 45.4199 49.1306 42.9052 46.0295 42.9052C42.9283 42.9052 40.4423 45.4199 40.4423 48.4924C40.4423 51.5648 42.9283 54.0796 46.0295 54.0796ZM30.7679 35.0026C31.7563 35.0026 32.5397 34.2192 32.5397 33.2308C32.5397 32.2425 31.7563 31.4591 30.7679 31.4591C29.7796 31.4591 28.9961 32.2425 28.9961 33.2308C28.9961 34.2192 29.7796 35.0026 30.7679 35.0026Z" fill="#3D74AC" stroke="#3D74AC"/>
</g>
<defs>
<clipPath id="clip0_830_530">
<rect width="64" height="64" fill="white"/>
</clipPath>
</defs>
</svg>
