<?xml version="1.0" encoding="utf-8"?>
<!-- Generator: Adobe Illustrator 23.0.1, SVG Export Plug-In . SVG Version: 6.00 Build 0)  -->
<svg version="1.1" id="Layer_1" xmlns="http://www.w3.org/2000/svg" xmlns:xlink="http://www.w3.org/1999/xlink" x="0px" y="0px"
	 viewBox="0 0 19.67 24" style="enable-background:new 0 0 19.67 24;" xml:space="preserve">
<path fill="#232323" d="M19.18,9.91C19,9.93,18.82,9.94,18.64,9.94c-1.97,0-3.8-0.99-4.88-2.64v8.98c0,3.67-2.97,6.64-6.64,6.64
	c-3.67,0-6.64-2.97-6.64-6.64c0-3.67,2.97-6.64,6.64-6.64l0,0c0.14,0,0.27,0.01,0.41,0.02v3.27C7.4,12.92,7.26,12.9,7.12,12.9
	c-1.87,0-3.39,1.52-3.39,3.39c0,1.87,1.52,3.39,3.39,3.39c1.87,0,3.52-1.47,3.52-3.35l0.03-15.26h3.13c0.3,2.81,2.56,5,5.37,5.21
	L19.18,9.91"/>
</svg>
