<svg width="29" height="24" viewBox="0 0 29 24" fill="none" xmlns="http://www.w3.org/2000/svg">
<g clip-path="url(#clip0_261_194)">
<path d="M10.2472 23.3902C20.5948 23.3902 26.2534 14.6267 26.2534 7.02722C26.2534 6.77833 26.2485 6.53057 26.2375 6.28385C27.3385 5.46944 28.2887 4.46102 29.0437 3.30585C28.0357 3.76393 26.951 4.07226 25.8132 4.21129C26.9745 3.49924 27.8662 2.37304 28.2869 1.0304C27.1825 1.70014 25.9744 2.17225 24.7146 2.42637C23.6881 1.30854 22.2267 0.609375 20.6083 0.609375C17.5016 0.609375 14.9824 3.18488 14.9824 6.35957C14.9824 6.81088 15.0318 7.24986 15.1283 7.67089C10.4528 7.43037 6.30683 5.14194 3.53215 1.66221C3.03241 2.53979 2.76954 3.53728 2.77039 4.55273C2.77039 6.54797 3.76356 8.30938 5.27382 9.33983C4.38049 9.31197 3.50675 9.06529 2.72604 8.62053C2.72521 8.64471 2.72521 8.66822 2.72521 8.694C2.72521 11.4792 4.66434 13.8046 7.23844 14.3315C6.75498 14.4661 6.25611 14.5342 5.75504 14.5339C5.40019 14.5337 5.04616 14.4989 4.69774 14.4302C5.41396 16.7152 7.49074 18.378 9.95295 18.4245C8.02753 19.9673 5.60203 20.8862 2.96591 20.8862C2.51239 20.8862 2.06439 20.8599 1.62402 20.8066C4.11375 22.438 7.07006 23.3899 10.2475 23.3899" fill="#232323"/>
</g>
<defs>
<clipPath id="clip0_261_194">
<rect width="28" height="23" fill="white" transform="translate(0.613281 0.5)"/>
</clipPath>
</defs>
</svg>
