<?xml version="1.0" encoding="utf-8"?>
<!-- Generator: Adobe Illustrator 27.0.0, SVG Export Plug-In . SVG Version: 6.00 Build 0)  -->
<svg version="1.1" id="Layer_1" xmlns="http://www.w3.org/2000/svg" xmlns:xlink="http://www.w3.org/1999/xlink" x="0px" y="0px"
	 viewBox="0 0 499.38 48" style="enable-background:new 0 0 499.38 48;" xml:space="preserve">
<style type="text/css">
	.st0{fill-rule:evenodd;clip-rule:evenodd;fill:#E11F26;}
	.st1{fill-rule:evenodd;clip-rule:evenodd;fill:#FFFFFF;}
</style>
<g>
	<path d="M331.29,19.85v0.16c3.27,0.65,7.69,3.44,7.69,8.43c0,6.71-5.4,9.74-13.26,9.74c-7.53,0-10.31-0.16-10.31-0.16V5.61
		c2.13-1.06,5.65-1.88,9.9-1.88c8.35,0,12.52,3.6,12.52,8.59C337.84,16.98,334.24,19.19,331.29,19.85 M331.62,12.73
		c0-3.76-2.13-5.48-6.3-5.48c-1.55,0-2.7,0.16-3.85,0.57v10.72l1.96,0.08C329.57,18.7,331.62,16.82,331.62,12.73 M323.44,21.57
		l-1.96,0.08v12.6h4.01c4.17,0,7.12-1.55,7.12-5.89C332.6,23.61,329.98,21.4,323.44,21.57"/>
	<path d="M353.72,22.22v-1.64c0-3.19-1.96-4.01-4.83-4.01c-2.37,0-4.75,0.9-7.45,2.29v-4.01c1.55-0.74,4.5-1.88,8.43-1.88
		c5.07,0,9.33,2.54,9.33,8.84v15.96c-1.64,0.33-5.48,0.65-7.86,0.65h-1.23c-6.63,0-10.07-2.78-10.07-7.53
		C339.97,24.43,346.27,22.96,353.72,22.22 M353.72,25c-5.24,0.49-8.43,1.55-8.43,5.73c0,3.11,1.88,4.5,5.16,4.5
		c1.23,0,2.7-0.08,3.36-0.25V25H353.72z"/>
	<path d="M371.31,12.89c8.43,0,9.74,4.75,9.74,7.53v17.59h-0.25c-3.11,0-5.73-2.62-5.73-5.73V20.5c0-1.64-0.65-3.6-3.93-3.6
		c-1.55,0-2.46,0.16-3.44,0.57V38.1h-6.06V14.78C364.27,13.63,368.36,12.89,371.31,12.89"/>
	<path d="M379.58,48v-4.17c2.54-0.82,4.09-2.7,4.09-7.53V18.62c0-3.11,2.54-5.73,5.73-5.73h0.25v22.83
		C389.64,43.34,385.22,47.59,379.58,48 M386.7,10.19c-1.8,0-3.27-1.31-3.27-2.95c0-1.72,1.47-3.03,3.27-3.03s3.27,1.31,3.27,3.03
		C390.05,8.88,388.58,10.19,386.7,10.19"/>
	<path d="M405.03,22.22v-1.64c0-3.19-1.96-4.01-4.83-4.01c-2.37,0-4.75,0.9-7.45,2.29v-4.01c1.55-0.74,4.5-1.88,8.43-1.88
		c5.07,0,9.33,2.54,9.33,8.84v15.96c-1.64,0.33-5.48,0.65-7.86,0.65h-1.31c-6.63,0-10.07-2.78-10.07-7.53
		C391.2,24.43,397.5,22.96,405.03,22.22 M405.03,25c-5.24,0.49-8.43,1.55-8.43,5.73c0,3.11,1.88,4.5,5.16,4.5
		c1.23,0,2.7-0.08,3.36-0.25V25H405.03z"/>
	<path d="M422.05,38.1V10.36c0-3.44,2.7-6.22,6.22-6.22h0.08v29.54h9.9v0.25c0,2.37-1.8,4.09-4.17,4.09h-12.03V38.1z"/>
	<path d="M458.38,12.89v24.8c-2.21,0.25-5.89,0.65-8.1,0.65h-1.47c-6.38,0-9.66-2.86-9.66-8.51V18.7c0-3.27,2.54-5.81,5.81-5.81
		h0.25v17.35c0,2.46,1.39,3.76,3.76,3.76c1.15,0,2.21-0.08,3.36-0.25V18.7c0-3.27,2.54-5.81,5.73-5.81H458.38z"/>
	<path d="M467.06,32.21c0,3.27-2.54,5.81-5.89,5.81h-0.08V10.03c0-3.27,2.54-5.81,5.89-5.81h0.08V24.6l7.45-11.05h5.65l-7.69,11.21
		l9,13.26h-6.3l-8.1-12.44L467.06,32.21L467.06,32.21z"/>
	<path d="M493.9,22.22v-1.64c0-3.19-1.96-4.01-4.83-4.01c-2.37,0-4.75,0.9-7.45,2.29v-4.01c1.55-0.74,4.5-1.88,8.43-1.88
		c5.07,0,9.33,2.54,9.33,8.84v15.96c-1.64,0.33-5.48,0.65-7.86,0.65h-1.23c-6.63,0-10.07-2.78-10.07-7.53
		C480.15,24.43,486.37,22.96,493.9,22.22 M493.9,25c-5.24,0.49-8.43,1.55-8.43,5.73c0,3.11,1.88,4.5,5.16,4.5
		c1.23,0,2.7-0.08,3.36-0.25V25H493.9z"/>
	<path d="M68.85,4.05v24.8c0,5.48-4.75,9.66-11.13,9.66c-6.3,0-11.13-4.17-11.13-9.66V9.95c0-3.19,2.54-5.81,5.81-5.81h0.41v24.71
		c0,2.95,2.62,4.75,5.16,4.75c2.46,0,5.07-1.64,5.07-4.75V9.62c0-3.03,2.46-5.48,5.48-5.48h0.33V4.05z"/>
	<path d="M81.04,12.81c8.43,0,9.82,4.75,9.82,7.61V38.1h-0.25c-3.11,0-5.81-2.62-5.81-5.73V20.5c0-1.64-0.65-3.68-4.01-3.68
		c-1.55,0-2.46,0.16-3.44,0.57v20.7H71.3v-23.4C73.92,13.55,78.1,12.81,81.04,12.81"/>
	<path d="M96.51,4.05c1.8,0,3.27,1.39,3.27,3.03c0,1.64-1.47,2.95-3.27,2.95s-3.27-1.31-3.27-2.95C93.24,5.45,94.71,4.05,96.51,4.05
		 M99.54,12.81v19.56c0,3.11-2.54,5.73-5.73,5.73h-0.25V12.81H99.54z"/>
	<path d="M116.72,3.56c2.86,0,5.48,0.65,7.69,1.96v5.97c-1.39-1.8-3.27-2.95-6.38-2.95c-6.14,0-9.9,6.06-9.9,12.36
		c0,5.89,4.01,12.36,9.9,12.36c2.62,0,4.99-0.74,6.38-2.7v5.89c-1.8,1.31-4.5,2.05-7.77,2.05c-9.74,0-14.89-8.92-14.89-17.59
		C101.75,12.4,106.9,3.56,116.72,3.56"/>
	<path d="M135.14,12.81c0.98,0,2.29,0.08,3.36,0.25v4.83c-2.05-1.47-4.83-0.98-6.06-0.33v14.89c0,3.11-2.54,5.73-5.73,5.73h-0.33
		v-23.4C128.83,13.63,131.21,12.81,135.14,12.81"/>
	<path d="M159.44,25.74l-15.06,2.05c0.49,4.09,2.54,6.3,6.38,6.3c4.17,0,6.3-1.39,7.86-2.46v5.07c-1.55,0.82-4.42,1.8-8.43,1.8
		c-7.37,0-11.7-4.99-11.7-12.93c0-7.69,4.09-12.77,10.72-12.77c6.63,0,10.23,4.42,10.23,11.95L159.44,25.74L159.44,25.74z
		 M154.2,22.3c-0.16-4.99-3.27-5.56-4.99-5.56h-0.25c-3.36,0.08-4.99,2.46-4.99,6.96L154.2,22.3z"/>
	<path d="M181.13,4.05v33.72c-1.47,0.33-6.22,0.65-8.18,0.65h-0.41c-7.37-0.08-11.38-4.34-11.38-11.95
		c0-7.69,4.17-12.68,10.72-12.68c1.23,0,2.37,0.16,3.27,0.33V9.7c0-3.19,2.54-5.73,5.73-5.73h0.25V4.05z M175.23,17.72
		c-0.65-0.16-1.31-0.25-2.05-0.25c-4.99,0-5.97,4.75-5.97,8.76c0,5.56,1.88,8.35,5.56,8.35c0.65,0,2.05-0.16,2.46-0.25V17.72z"/>
	<path d="M186.94,4.05c1.8,0,3.27,1.39,3.27,3.03c0,1.64-1.47,2.95-3.27,2.95c-1.8,0-3.27-1.31-3.27-2.95
		C183.66,5.45,185.14,4.05,186.94,4.05 M189.96,12.81v19.56c0,3.11-2.54,5.73-5.73,5.73h-0.25V12.81H189.96z"/>
	<path d="M200.52,4.05v8.76h3.85v4.83h-3.85v13.42c0,1.64,0.57,2.13,2.29,2.13c0.49,0,1.15-0.16,1.55-0.33v4.99
		c-0.25,0.08-1.47,0.57-3.03,0.57c-4.42,0-6.87-2.13-6.87-6.06V17.64h-2.62v-4.83h2.62V9.7c0-3.11,2.54-5.73,5.65-5.73h0.41V4.05z"
		/>
	<path d="M231.62,19.93v0.16c3.27,0.65,7.69,3.44,7.69,8.43c0,6.71-5.4,9.74-13.26,9.74c-7.53,0-10.31-0.16-10.31-0.16V5.69
		c2.13-1.06,5.65-1.88,9.9-1.88c8.35,0,12.52,3.6,12.52,8.59C238.17,17.07,234.56,19.28,231.62,19.93 M231.95,12.81
		c0-3.76-2.13-5.48-6.3-5.48c-1.55,0-2.7,0.16-3.85,0.57v10.72l1.96,0.08C229.9,18.78,231.95,16.9,231.95,12.81 M223.76,21.65
		l-1.96,0.08v12.52h4.01c4.09,0,7.12-1.55,7.12-5.89C232.93,23.7,230.31,21.49,223.76,21.65"/>
	<path d="M254.12,22.3v-1.64c0-3.19-1.96-4.01-4.83-4.01c-2.37,0-4.75,0.9-7.45,2.29v-4.01c1.55-0.74,4.5-1.88,8.43-1.88
		c5.07,0,9.33,2.54,9.33,8.84v15.96c-1.64,0.33-5.56,0.65-7.86,0.65h-1.23c-6.63,0-10.07-2.78-10.07-7.53
		C240.29,24.51,246.59,23.04,254.12,22.3 M254.12,25.09c-5.24,0.49-8.43,1.55-8.43,5.73c0,3.11,1.88,4.5,5.16,4.5
		c1.23,0,2.7-0.08,3.36-0.25v-9.98H254.12z"/>
	<path d="M271.72,12.97c8.43,0,9.74,4.75,9.74,7.53V38.1h-0.25c-3.11,0-5.73-2.62-5.73-5.73v-11.7c0-1.64-0.65-3.6-3.93-3.6
		c-1.55,0-2.46,0.16-3.44,0.57v20.62h-6.06v-23.4C264.68,13.71,268.77,12.97,271.72,12.97"/>
	<path d="M290.05,32.29c0,3.27-2.54,5.81-5.89,5.81h-0.08V10.11c0-3.27,2.54-5.81,5.89-5.81h0.08v20.38l7.45-11.05h5.65l-7.69,11.21
		l9,13.26h-6.3l-8.1-12.36V32.29z"/>
	<path class="st0" d="M21.06,11.01C21.06,11.01,21.06,10.93,21.06,11.01c0.33-0.49,0.25-0.82,0-0.98c-0.16-0.08-3.19-1.96-3.19-1.96
		c-0.25-0.16-0.33-0.41-0.33-0.65c0-0.49,0.25-0.82,0.9-0.98c1.96-0.57,8.84-0.82,11.21-0.82c0.82,0,2.21,0,3.44,0l-0.08-0.08
		c-3.44-2.95-7.94-4.75-12.77-4.75C9.36,0.78,0.52,9.62,0.52,20.5c0,4.75,1.72,9.17,4.5,12.6c2.46-3.52,8.59-12.36,9.9-14.08
		c1.55-2.05,5.07-6.63,5.65-7.45l0,0L21.06,11.01z"/>
	<path class="st0" d="M8.21,36.13c3.36,2.54,7.45,4.09,12.03,4.09c10.88,0,19.72-8.84,19.72-19.72c0-3.27-0.82-6.38-2.21-9.08l0,0
		c0.65-0.65,1.47-1.72,0.98-2.95c-0.16-0.41-0.9-1.23-1.15-1.47v0.08c0.49,1.47-0.49,2.37-1.15,2.95
		c-0.41,0.33-5.4,5.07-11.21,10.15c-5.24,4.5-11.05,9.08-14.32,11.62c-4.75,3.52-5.65,4.01-5.65,4.01
		c-0.16,0.08-0.33,0.16-0.49,0.16c-0.33,0-0.57-0.16-0.74-0.33l0,0c0,0.08,0,0.08,0,0.16c0.49,0.82,1.31,1.8,1.8,1.8
		c0.16,0,0.33-0.08,0.49-0.08C6.41,37.36,6.74,37.2,8.21,36.13"/>
	<path class="st1" d="M21.06,10.93c0.33-0.41,0.16-0.74,0-0.98c-0.16-0.08-3.19-1.96-3.19-1.96c-0.25-0.16-0.33-0.41-0.33-0.65
		c0-0.49,0.25-0.82,0.9-0.98c1.96-0.57,8.84-0.82,11.21-0.82c1.15,0,3.27,0,4.75,0.08c1.64,0.08,2.86,0.41,3.19,1.23
		c0.57,1.55-0.41,2.46-1.06,3.11c-0.41,0.33-5.4,5.07-11.21,10.15c-5.32,4.58-11.13,9.17-14.4,11.7c-4.75,3.52-5.65,4.01-5.65,4.01
		c-0.16,0.08-0.33,0.16-0.49,0.16c-0.49,0-0.9-0.41-0.9-0.9c0-0.16,0.08-0.33,0.16-0.49c0,0,9.25-13.34,10.97-15.63
		s5.73-7.53,5.73-7.53S20.81,11.34,21.06,10.93"/>
</g>
</svg>
