<?xml version="1.0" encoding="utf-8"?>
<!-- Generator: Adobe Illustrator 25.2.3, SVG Export Plug-In . SVG Version: 6.00 Build 0)  -->
<svg version="1.1" id="Layer_1" xmlns="http://www.w3.org/2000/svg" xmlns:xlink="http://www.w3.org/1999/xlink" x="0px" y="0px"
	 width="205px" height="42px" viewBox="0 0 205 42" style="enable-background:new 0 0 205 42;" xml:space="preserve">
<style type="text/css">
	.st0{display:none;}
	.st1{display:inline;fill:#0A515A;}
	.st2{display:inline;}
	.st3{fill:#FFFFFF;}
	.st4{fill:#050505;}
	.st5{fill:#163598;}
	.st6{fill:#F2F2F2;}
	.st7{fill:#127DC4;}
	.st8{fill:#F8200A;}
	.st9{fill:#00193D;}
</style>
<g>
	<path class="st7" d="M185,15.9c-0.4-1.1-1-2-1.7-2.7c-0.7-0.7-1.6-1.2-2.5-1.6c-1-0.3-2-0.5-3.1-0.5c-1.1,0-2,0.2-2.8,0.5
		c-0.8,0.3-1.3,0.6-1.6,1l-0.1-0.1c0.3-0.8,0.7-1.5,1.3-2.2c0.6-0.6,1.2-1.2,1.9-1.7c0.7-0.5,1.6-0.9,2.5-1.2
		c0.9-0.3,1.9-0.5,2.9-0.6c0.1-0.3,0.2-0.7,0.3-1.2c0.1-0.5,0.1-1,0.1-1.7c0-0.7-0.1-1.4-0.3-1.9c-0.2-0.5-0.4-0.9-0.6-1.1
		c-2.7,0.2-5,0.9-6.9,1.9c-1.9,1-3.5,2.3-4.8,3.9c-1.2,1.6-2.2,3.3-2.8,5.3c-0.2,0.7-0.4,1.4-0.5,2.1c0.8,1.4,1.3,3,1.3,4.9
		c0,1.7-0.3,3.2-0.9,4.5c0.4,1.2,1,2.2,1.8,3.1c1.7,1.9,4.2,2.8,7.4,2.8c1.3,0,2.6-0.2,3.8-0.6c1.2-0.4,2.2-1,3.1-1.8
		c0.9-0.8,1.6-1.8,2.1-3c0.5-1.2,0.8-2.6,0.8-4.2C185.6,18.3,185.4,17,185,15.9z M178.1,23.2c-0.6,0.6-1.4,1-2.4,1
		c-0.9,0-1.7-0.3-2.3-1c-0.6-0.7-0.9-1.7-0.9-3.1c0-1.2,0.3-2.2,0.9-2.8c0.6-0.6,1.4-1,2.4-1c0.9,0,1.7,0.3,2.3,0.9
		c0.6,0.6,0.9,1.6,0.9,3C179.1,21.5,178.8,22.5,178.1,23.2z"/>
	<g>
		<g>
			<path class="st8" d="M17.6,28.5l7-24.8c0.8-0.1,1.6-0.2,2.4-0.3c0.8-0.1,1.6-0.1,2.5-0.1c0.6,0,1.3,0,2.2,0.1
				c0.9,0.1,1.6,0.2,2.3,0.3L22.1,40.3c-0.9,0.1-1.7,0.2-2.5,0.3c-0.8,0.1-1.5,0.1-2.2,0.1c-0.7,0-1.4,0-2.1-0.1
				c-0.7-0.1-1.6-0.2-2.6-0.3L1,3.7c0.6-0.1,1.4-0.2,2.3-0.3c1-0.1,1.9-0.1,2.8-0.1c0.7,0,1.5,0,2.4,0.1c0.9,0.1,1.6,0.2,2.3,0.3
				L17.6,28.5z"/>
			<path class="st8" d="M40,40.7c-1.3,0-2.8-0.2-4.6-0.5V3.7c0.9-0.1,1.8-0.2,2.5-0.3c0.8-0.1,1.4-0.1,2-0.1c0.6,0,1.3,0,2.1,0.1
				c0.8,0.1,1.6,0.2,2.5,0.3v36.6C42.7,40.6,41.2,40.7,40,40.7z"/>
			<path class="st8" d="M47.5,32.6c0.3,0.1,0.8,0.2,1.4,0.3c0.6,0.1,1.3,0.2,1.9,0.2c0.4,0,0.9,0,1.3-0.1c0.5-0.1,0.9-0.2,1.3-0.5
				c0.4-0.3,0.7-0.6,1-1.2c0.3-0.5,0.4-1.2,0.4-2.2V11.6h-5.6c-0.3-1.4-0.5-2.8-0.5-4.1c0-1.2,0.2-2.5,0.5-3.9H64v26.7
				c0,1.9-0.3,3.6-0.9,5c-0.6,1.4-1.5,2.5-2.5,3.4c-1.1,0.9-2.3,1.5-3.7,1.9c-1.4,0.4-2.9,0.6-4.6,0.6c-1,0-2-0.1-3-0.2
				c-1-0.2-1.9-0.4-2.7-0.6c0-0.3-0.1-0.5-0.1-0.8c0-0.3,0-0.6,0-0.9C46.5,36.5,46.8,34.6,47.5,32.6z"/>
			<path class="st8" d="M87.5,21.2c0,1.2-0.2,2.5-0.5,4h-9.9v7.3H90c0.3,1.4,0.5,2.7,0.5,3.9c0,1.3-0.2,2.6-0.5,4.1H68V3.5h21.6
				C89.8,4.3,89.9,5,90,5.7c0.1,0.6,0.1,1.3,0.1,1.8c0,1.1-0.1,2.5-0.4,4.1H77.1v5.6H87C87.3,18.7,87.5,20,87.5,21.2z"/>
			<path class="st8" d="M107.6,17.9c1.4,0.6,2.7,1.2,3.9,1.8c1.1,0.6,2.1,1.3,2.9,2.2c0.8,0.8,1.5,1.8,1.9,3
				c0.4,1.2,0.7,2.6,0.7,4.3c0,1.8-0.3,3.4-0.9,4.9c-0.6,1.5-1.6,2.7-2.8,3.7c-1.2,1-2.7,1.8-4.5,2.4c-1.8,0.6-3.9,0.8-6.2,0.8
				c-2.1,0-4-0.2-5.6-0.5c-1.6-0.3-3.4-0.9-5.3-1.6c0.1-1.2,0.4-2.5,0.7-3.8c0.3-1.4,0.8-2.7,1.2-4.1c3.1,1.4,5.9,2.1,8.2,2.1
				c1.7,0,3.1-0.3,4.1-0.8c1-0.5,1.5-1.4,1.5-2.7c0-0.5-0.1-1-0.3-1.4c-0.2-0.4-0.5-0.7-0.8-1c-0.3-0.3-0.7-0.5-1.2-0.7
				c-0.4-0.2-0.9-0.4-1.3-0.5l-2.9-1.1c-1.2-0.4-2.4-1-3.4-1.6c-1-0.6-1.9-1.3-2.6-2.2c-0.7-0.8-1.3-1.8-1.7-2.9
				c-0.4-1.1-0.6-2.4-0.6-3.8c0-1.8,0.3-3.4,0.9-4.8C94.2,8,95,6.9,96.2,5.9c1.1-1,2.5-1.7,4-2.2c1.6-0.5,3.3-0.7,5.3-0.7
				c1.7,0,3.4,0.2,5.1,0.5c1.6,0.3,3.4,0.8,5.2,1.5c-0.1,1.1-0.4,2.3-0.7,3.6c-0.4,1.3-0.8,2.6-1.4,3.7c-0.9-0.4-1.9-0.8-3.1-1.2
				c-1.2-0.4-2.7-0.6-4.5-0.6c-0.5,0-1.1,0.1-1.6,0.2c-0.5,0.1-0.9,0.3-1.3,0.5c-0.4,0.2-0.7,0.5-0.9,0.9c-0.2,0.4-0.4,0.9-0.4,1.5
				c0,1,0.3,1.7,1,2.2s1.4,0.9,2.3,1.2L107.6,17.9z"/>
			<path class="st8" d="M125.7,11.6h-8.6c-0.3-1.5-0.5-2.8-0.5-4.1c0-1.1,0.2-2.4,0.5-3.9h26.2c0.1,0.8,0.2,1.5,0.3,2.1
				c0.1,0.6,0.1,1.3,0.1,1.8c0,1.1-0.1,2.5-0.4,4.1h-8.6v28.7c-1.8,0.3-3.3,0.5-4.5,0.5c-1.3,0-2.8-0.2-4.6-0.5V11.6z"/>
		</g>
		<g>
			<path class="st9" d="M159.7,36.3c0.3,0,0.6,0,0.9,0c0.3,0,0.6,0.1,1,0.1c0.1,0.3,0.1,0.7,0.1,1c0,0.3,0,0.6,0,0.9
				c0,0.3,0,0.6,0,0.9c0,0.3-0.1,0.6-0.1,1c-0.3,0.1-0.7,0.1-1,0.1c-0.3,0-0.6,0-0.9,0c-0.3,0-0.6,0-0.9,0c-0.3,0-0.6-0.1-1-0.1
				c-0.1-0.3-0.1-0.7-0.1-1c0-0.3,0-0.6,0-0.9c0-0.3,0-0.6,0-0.9c0-0.3,0.1-0.6,0.1-1c0.3,0,0.7-0.1,1-0.1
				C159.1,36.3,159.4,36.3,159.7,36.3z"/>
		</g>
		<path class="st7" d="M201.1,15.7c-0.4-1-1-1.9-1.7-2.6c-0.7-0.7-1.6-1.2-2.7-1.6c-1.1-0.4-2.2-0.5-3.5-0.5c-0.3,0-0.5,0-0.7,0
			c-0.2,0-0.4,0-0.7,0.1l0.1-4h8.1c0.2-1.1,0.3-2.1,0.3-3c0-0.8-0.1-1.7-0.3-2.8H186l-0.5,12.9c0.2,0.4,0.5,0.8,0.6,1.3
			c0.2,0.5,0.4,1.1,0.5,1.7c0.7-0.3,1.4-0.5,2-0.7c0.7-0.1,1.4-0.2,2-0.2c1.5,0,2.6,0.3,3.3,0.9c0.7,0.6,1,1.4,1,2.4
			c0,0.5-0.1,0.9-0.3,1.3c-0.2,0.4-0.4,0.8-0.8,1.1c-0.4,0.3-0.9,0.6-1.5,0.8c-0.6,0.2-1.4,0.3-2.4,0.3c-0.8,0-1.6-0.1-2.4-0.3
			c-0.3-0.1-0.7-0.2-1-0.3c-0.1,0.7-0.3,1.4-0.6,2c-0.6,1.3-1.3,2.4-2.3,3.3c0.5,0.2,1,0.3,1.6,0.5c0.7,0.2,1.3,0.3,1.9,0.4
			c0.6,0.1,1.2,0.2,1.7,0.2c0.5,0.1,0.9,0.1,1.3,0.1c1.8,0,3.4-0.2,4.8-0.6c1.4-0.4,2.7-1,3.7-1.9c1-0.8,1.8-1.8,2.3-3
			c0.5-1.2,0.8-2.6,0.8-4.2C201.8,17.9,201.6,16.7,201.1,15.7z"/>
		<path class="st8" d="M153,30.1c-0.7,0-1.3-0.1-2-0.3c-0.6-0.1-1.3-0.3-1.9-0.4c-0.6-0.2-1.3-0.4-2.1-0.7l-0.8-0.3l0-0.8
			c0.1-1.1,0.3-2.1,0.6-3.2c0.3-1,0.8-2,1.2-2.8l0.5-0.9l0.9,0.3c0.9,0.3,1.9,0.6,2.7,0.8c0.8,0.2,1.6,0.3,2.5,0.3V8.3H148l-0.2-0.9
			c-0.3-1.1-0.4-2.2-0.4-3.2c0-0.2,0-0.5,0-0.7c-0.5,0.1-1.1,0.1-1.7,0.2v36.6c1.8,0.3,3.3,0.5,4.6,0.5c1.2,0,2.7-0.2,4.5-0.5V30.2
			C154.2,30.2,153.6,30.2,153,30.1z"/>
		<path class="st7" d="M164.9,14.2c-1-1.3-2.5-2.1-4.3-2.4l5.5-9.5l-0.7-1.1H149c-0.2,1-0.3,2-0.3,2.9c0,1,0.1,1.9,0.3,2.9h7.8
			l-0.7,1.2v8c0.4,0,0.8,0.1,1.2,0.2c0.5,0.1,0.9,0.3,1.3,0.6c0.4,0.3,0.7,0.6,0.9,1c0.2,0.4,0.3,0.9,0.3,1.4c0,1.3-0.4,2.2-1.3,2.8
			c-0.9,0.6-2.1,0.9-3.6,0.9c-1,0-2-0.1-2.9-0.3c-0.9-0.2-1.8-0.5-2.8-0.8c-0.4,0.8-0.8,1.6-1.1,2.6c-0.3,1-0.5,1.9-0.6,2.9
			c0.7,0.3,1.3,0.5,1.9,0.7s1.2,0.3,1.8,0.4c0.6,0.1,1.2,0.2,1.8,0.2c0.6,0,1.3,0.1,2,0.1c1.6,0,3-0.2,4.4-0.6
			c1.4-0.4,2.6-1.1,3.6-1.9c1-0.8,1.8-1.9,2.4-3.1c0.6-1.2,0.9-2.7,0.9-4.2C166.4,17.1,165.9,15.5,164.9,14.2z"/>
		<path class="st9" d="M171.8,36.9c-0.4,0.2-0.8,0.3-1.1,0.4c-0.3,0.1-0.7,0.1-1.1,0.1c-0.3,0-0.7,0-1-0.1c-0.3-0.1-0.6-0.2-0.8-0.4
			c-0.2-0.2-0.4-0.5-0.6-0.9c-0.1-0.4-0.2-0.8-0.2-1.4c0-1,0.2-1.8,0.7-2.2c0.5-0.4,1.1-0.6,1.8-0.6c0.2,0,0.4,0,0.5,0
			c0.2,0,0.3,0,0.5,0.1s0.4,0.1,0.6,0.1c0.2,0.1,0.4,0.1,0.7,0.2c0.3-0.5,0.4-1,0.6-1.5c0-0.1,0-0.2,0.1-0.4
			c-1.4-0.4-2.7-0.9-3.7-1.8c-0.8,0-1.6,0.2-2.2,0.4c-0.7,0.3-1.3,0.7-1.8,1.2c-0.5,0.5-0.9,1.2-1.1,1.9c-0.3,0.7-0.4,1.6-0.4,2.5
			c0,0.9,0.1,1.7,0.4,2.5c0.3,0.7,0.6,1.4,1.1,1.9c0.5,0.5,1.1,0.9,1.8,1.2c0.7,0.3,1.6,0.4,2.5,0.4c0.6,0,1.1,0,1.7-0.1
			c0.6-0.1,1.2-0.2,1.9-0.5c0-0.6-0.1-1.2-0.2-1.7C172.2,37.7,172,37.3,171.8,36.9z"/>
		<path class="st9" d="M182.8,30.2c-0.3-0.4-0.7-0.7-1.1-0.9c-0.5,0.3-1,0.5-1.6,0.7c-1.3,0.5-2.7,0.7-4.2,0.7c-0.7,0-1.3-0.1-2-0.1
			c-0.3,0.5-0.6,1-0.8,1.5c-0.2,0.8-0.4,1.6-0.4,2.5c0,0.9,0.1,1.7,0.4,2.4c0.2,0.7,0.6,1.4,1.1,1.9c0.5,0.5,1.1,0.9,1.8,1.2
			c0.7,0.3,1.5,0.4,2.5,0.4c1,0,1.8-0.1,2.5-0.4c0.7-0.3,1.3-0.7,1.8-1.2c0.5-0.5,0.8-1.2,1.1-1.9s0.4-1.5,0.4-2.4
			c0-0.9-0.1-1.7-0.4-2.5C183.6,31.3,183.3,30.7,182.8,30.2z M180,36.7c-0.3,0.5-0.8,0.8-1.5,0.8c-0.7,0-1.1-0.3-1.4-0.8
			c-0.3-0.5-0.5-1.2-0.5-2.2c0-1,0.2-1.7,0.5-2.2c0.3-0.5,0.8-0.8,1.4-0.8c0.7,0,1.1,0.3,1.5,0.8c0.3,0.5,0.5,1.2,0.5,2.2
			C180.4,35.5,180.3,36.2,180,36.7z"/>
		<path class="st9" d="M200.3,29.4c-0.5-0.4-1.1-0.6-1.7-0.7c-0.4-0.1-0.7-0.1-1.1-0.1c-0.7,0.4-1.5,0.7-2.3,0.9
			c-1.5,0.4-3.3,0.7-5.2,0.7c-0.4,0-0.8,0-1.4-0.1c-0.5-0.1-1.1-0.1-1.7-0.2c-0.4-0.1-0.9-0.2-1.4-0.3v10.7c0.4,0.1,0.7,0.1,1,0.1
			c0.3,0,0.6,0,0.8,0c0.2,0,0.5,0,0.8,0c0.3,0,0.7-0.1,1-0.1v-8.3c0,0,0.2-0.1,0.3-0.1c0.2,0,0.4,0,0.5,0c0.6,0,1,0.2,1.3,0.5
			c0.3,0.3,0.4,0.9,0.4,1.7v6.3c0.4,0.1,0.7,0.1,1,0.1c0.3,0,0.6,0,0.8,0c0.2,0,0.5,0,0.8,0c0.3,0,0.7-0.1,1-0.1v-6.5
			c0-0.7-0.1-1.3-0.2-1.8c0.1,0,0.2-0.1,0.4-0.1s0.4-0.1,0.6-0.1c0.6,0,1,0.2,1.3,0.5c0.3,0.3,0.4,0.9,0.4,1.7v6.3
			c0.4,0.1,0.7,0.1,1,0.1c0.3,0,0.6,0,0.8,0c0.2,0,0.5,0,0.8,0c0.3,0,0.7-0.1,1-0.1v-6.7c0-1.1-0.2-2-0.5-2.7
			C201.2,30.3,200.8,29.8,200.3,29.4z"/>
	</g>
</g>
</svg>
