<?xml version="1.0" encoding="utf-8"?>
<!-- Generator: Adobe Illustrator 27.0.0, SVG Export Plug-In . SVG Version: 6.00 Build 0)  -->
<svg version="1.1" id="Layer_1" xmlns="http://www.w3.org/2000/svg" xmlns:xlink="http://www.w3.org/1999/xlink" x="0px" y="0px"
	 viewBox="0 0 228.33 48" style="enable-background:new 0 0 228.33 48;" xml:space="preserve">
<style type="text/css">
	.st0{fill:#221F1F;}
</style>
<g id="Layer_1_00000139981250763855532790000014239820596267377301_">
	<g>
		<path class="st0" d="M23.63,14.14h7.25L18.43,45.79H12.4L0,14.14h7.19l8.22,22.24L23.63,14.14z M33.05,45.79h6.61V14.14h-6.61
			V45.79z M60.14,40.29c-1.25,0-2.26-0.2-3.04-0.61c-0.78-0.41-1.34-0.99-1.7-1.76c-0.35-0.76-0.53-1.69-0.53-2.78V20.17h7.2v-6.02
			h-7.2V6.89h-6.61v2.46c0,1.48-0.42,2.65-1.26,3.51c-0.84,0.86-2,1.29-3.48,1.29h-0.88v6.02h5.61v15.27c0,3.39,0.92,6.03,2.75,7.9
			c1.83,1.87,4.41,2.81,7.72,2.81c0.51,0,1.09-0.04,1.76-0.12c0.66-0.08,1.27-0.16,1.81-0.23v-5.67c-0.35,0.04-0.72,0.08-1.11,0.12
			C60.8,40.27,60.45,40.29,60.14,40.29z M138.05,14.96c-1.78-1.01-3.75-1.52-5.94-1.52c-2.5,0-4.71,0.62-6.64,1.87
			c-1.34,0.86-2.42,2.06-3.28,3.54c-0.74-1.33-1.75-2.47-3.1-3.39c-1.97-1.34-4.22-2.02-6.76-2.02c-2.26,0-4.27,0.55-6.02,1.64
			c-1.2,0.75-2.12,1.76-2.81,2.99v-3.92h-6.32v31.65h6.61V27.13c0-1.56,0.28-2.89,0.85-4.01c0.56-1.11,1.35-1.98,2.37-2.6
			c1.01-0.62,2.18-0.94,3.51-0.94c1.37,0,2.54,0.31,3.51,0.94c0.97,0.62,1.74,1.49,2.31,2.6c0.56,1.11,0.85,2.45,0.85,4.01v18.66
			h6.61V27.13c0-1.56,0.29-2.89,0.88-4.01c0.58-1.11,1.39-1.98,2.4-2.6c1.02-0.62,2.18-0.94,3.51-0.94c1.33,0,2.49,0.31,3.48,0.94
			c0.99,0.62,1.78,1.49,2.34,2.6c0.57,1.11,0.85,2.45,0.85,4.01v18.66h6.61V25.32c0-2.3-0.53-4.35-1.58-6.14
			C141.24,17.38,139.83,15.98,138.05,14.96z M213.61,1.51v44.28h-6.32v-4.07c-1.02,1.36-2.3,2.45-3.89,3.25
			c-2.01,1.01-4.24,1.52-6.7,1.52c-3,0-5.7-0.73-8.1-2.19c-2.4-1.46-4.29-3.44-5.67-5.94c-1.38-2.5-2.08-5.3-2.08-8.42
			c0-3.12,0.69-5.93,2.08-8.42c1.38-2.49,3.28-4.46,5.67-5.91c2.4-1.44,5.1-2.16,8.1-2.16c2.5,0,4.73,0.51,6.7,1.52
			c1.42,0.73,2.61,1.67,3.6,2.81V1.51H213.61z M206.99,29.94c0-1.95-0.42-3.71-1.26-5.29c-0.84-1.58-1.98-2.82-3.42-3.71
			c-1.44-0.9-3.08-1.35-4.91-1.35c-1.83,0-3.49,0.46-4.97,1.38c-1.48,0.92-2.63,2.14-3.45,3.68c-0.82,1.54-1.23,3.31-1.23,5.29
			c0,1.99,0.41,3.77,1.23,5.35c0.82,1.58,1.96,2.82,3.42,3.71c1.46,0.9,3.13,1.34,5,1.34c1.83,0,3.47-0.45,4.91-1.34
			c1.44-0.9,2.59-2.14,3.42-3.71C206.57,33.71,206.99,31.93,206.99,29.94z M178.04,28.77c0,0.51,0.01,2.6-0.1,3.07l-23.72,0.04
			c0.08,1.35,0.38,2.59,0.92,3.69c0.8,1.6,1.93,2.85,3.39,3.74c1.46,0.9,3.11,1.34,4.94,1.34c1.95,0,3.59-0.43,4.91-1.29
			c1.33-0.86,2.22-1.97,3.04-3.34h6.2c-0.57,2.05-1.62,4.69-3.66,6.48c-1.32,1.16-2.74,2.29-4.55,2.97
			c-1.81,0.68-3.81,1.02-5.99,1.02c-3.16,0-5.95-0.73-8.37-2.19c-2.42-1.46-4.31-3.45-5.68-5.97c-1.37-2.52-2.05-5.33-2.05-8.45
			c0-3.2,0.68-6.02,2.05-8.48c1.37-2.46,3.23-4.4,5.59-5.82c2.36-1.42,5-2.13,7.93-2.13c2.42,0,4.56,0.41,6.43,1.23
			c1.87,0.82,3.45,1.94,4.74,3.36c1.29,1.42,2.27,3.05,2.96,4.88C177.7,24.75,178.04,26.7,178.04,28.77z M171.01,26.6
			c-0.04-0.97-0.23-1.88-0.57-2.72c-0.62-1.5-1.6-2.69-2.92-3.57c-1.33-0.88-2.87-1.32-4.62-1.32c-1.72,0-3.26,0.44-4.62,1.32
			c-1.37,0.88-2.42,2.13-3.16,3.77c-0.35,0.77-0.59,1.61-0.74,2.52H171.01z M90.59,18.74c1.07,1.66,1.61,3.58,1.61,5.76v21.29h-6.32
			v-3.73c-0.46,0.54-0.97,1.05-1.52,1.51c-1.13,0.94-2.44,1.66-3.92,2.16c-1.48,0.51-3.1,0.76-4.86,0.76
			c-2.14,0-4.03-0.37-5.64-1.11c-1.62-0.74-2.88-1.79-3.77-3.16c-0.9-1.36-1.35-2.96-1.35-4.8c0-1.71,0.38-3.26,1.14-4.62
			c0.76-1.36,1.93-2.52,3.51-3.45c1.58-0.94,3.6-1.6,6.05-1.99l10.06-1.66V24.5c0-1.52-0.59-2.78-1.76-3.77
			c-1.17-0.99-2.71-1.49-4.62-1.49c-1.72,0-3.67,0.54-4.98,1.44c-1.31,0.9-1.67,1.91-2.19,3.47l-6.43,0c0.35-2.75,2.2-5.69,3.51-6.9
			c1.31-1.21,2.84-2.15,4.62-2.81c1.77-0.66,3.68-0.99,5.7-0.99c2.5,0,4.71,0.47,6.64,1.4C88.01,15.78,89.51,17.08,90.59,18.74z
			 M85.58,30.97l-8.77,1.48c-1.76,0.31-3.04,0.88-3.86,1.7c-0.82,0.82-1.23,1.84-1.23,3.04c0,1.21,0.46,2.19,1.38,2.95
			c0.92,0.76,2.1,1.14,3.54,1.14c1.75,0,3.31-0.39,4.65-1.17c1.35-0.78,2.4-1.82,3.16-3.13c0.76-1.31,1.14-2.76,1.14-4.36V30.97z
			 M36.36,4.34c-1.83,0-3.31,1.48-3.31,3.31c0,1.82,1.48,3.31,3.31,3.31c1.83,0,3.31-1.48,3.31-3.31
			C39.66,5.81,38.18,4.34,36.36,4.34z"/>
		<g>
			<path class="st0" d="M217.67,6.96V2.39h-1.41V1.51h3.8v0.88h-1.39v4.57H217.67z"/>
			<path class="st0" d="M221.25,6.96V1.51h0.95l1.81,2.46l1.78-2.46h0.95v5.45h-1v-3.7l-1.68,2.24h-0.12l-1.69-2.3v3.77H221.25z"/>
		</g>
	</g>
</g>
</svg>
