<?xml version="1.0" encoding="utf-8"?>
<!-- Generator: Adobe Illustrator 27.0.0, SVG Export Plug-In . SVG Version: 6.00 Build 0)  -->
<svg version="1.1" id="Layer_1" xmlns="http://www.w3.org/2000/svg" xmlns:xlink="http://www.w3.org/1999/xlink" x="0px" y="0px"
	 viewBox="0 0 133.17 48" style="enable-background:new 0 0 133.17 48;" xml:space="preserve">
<style type="text/css">
	.st0{fill:#CE0E2D;}
	.st1{fill:#FFFFFF;}
</style>
<g>
	<rect x="0" y="0.07" class="st0" width="133.17" height="47.86"/>
	<path class="st1" d="M38.18,14.55h-1.67h-3.49c0,0-0.15,0-0.27,0c-0.28,0-0.44,0.3-0.15,0.59c0.26,0.26,0.72,0.67,0.41,2.36
		l-2.62,13.23c-0.37,1.85,0.26,3.49,1.53,4.53c0.89,0.73,2.09,1.16,3.49,1.16c0.85,0,1.69-0.16,2.48-0.45
		c0.12-0.05,0.24-0.2,0.27-0.34c0.03-0.14,0.65-3.26,0.65-3.26c0.02-0.09,0.01-0.28-0.24-0.29c-0.95-0.09-2.7,0.21-2.14-2.74
		c0.2-1.07,0.85-4.29,0.85-4.29l1.78-8.99C39.25,15.09,38.89,14.55,38.18,14.55"/>
	<path class="st1" d="M47.52,25.05l1.27-6.44c0,0,3.41,0,3.65,0c0.23,0,0.4-0.09,0.45-0.33c0.05-0.24,0.63-3.17,0.68-3.4
		c0.04-0.18-0.1-0.3-0.34-0.3c-0.19,0-3.64,0-3.64,0l0.92-4.67c0.2-0.98-0.15-1.52-0.87-1.52h-1.67h-3.49c0,0-0.15,0-0.27,0
		c-0.28,0-0.44,0.3-0.15,0.59c0.26,0.26,0.72,0.67,0.41,2.36l-3.83,19.39c-0.37,1.85,0.26,3.49,1.53,4.53
		c0.89,0.73,2.09,1.16,3.49,1.16c0.85,0,1.69-0.16,2.48-0.45c0.12-0.05,0.24-0.2,0.27-0.34c0.03-0.14,0.65-3.26,0.65-3.26
		c0.02-0.09,0.01-0.28-0.24-0.29c-0.95-0.09-2.7,0.21-2.14-2.74C46.87,28.27,47.52,25.05,47.52,25.05"/>
	<path class="st1" d="M60.76,14.55h-1.67H55.6c0,0-0.15,0-0.27,0c-0.28,0-0.44,0.3-0.15,0.59c0.26,0.26,0.72,0.67,0.41,2.36
		l-2.62,13.23c-0.37,1.85,0.26,3.49,1.53,4.53c0.89,0.73,2.09,1.16,3.49,1.16c0.85,0,1.69-0.16,2.48-0.45
		c0.12-0.05,0.24-0.2,0.27-0.34c0.03-0.14,0.65-3.26,0.65-3.26c0.02-0.09,0.01-0.28-0.24-0.29c-0.95-0.09-2.7,0.21-2.14-2.74
		c0.2-1.07,0.85-4.29,0.85-4.29l1.78-8.99C61.83,15.09,61.48,14.55,60.76,14.55"/>
	<path class="st1" d="M60.64,5.48c-1.85-0.01-3.65,1.29-4.02,2.9c-0.37,1.61,0.83,2.92,2.68,2.93c1.85,0.01,3.65-1.29,4.02-2.9
		C63.69,6.8,62.49,5.48,60.64,5.48"/>
	<path class="st1" d="M37.7,5.48c-1.85-0.01-3.65,1.29-4.02,2.9c-0.37,1.61,0.83,2.92,2.68,2.93c1.85,0.01,3.65-1.29,4.02-2.9
		C40.76,6.8,39.56,5.48,37.7,5.48"/>
	<path class="st1" d="M102.14,34.06c-0.26-0.4-0.26-0.39-0.51-0.79l-5.22-9.38l9.75-9.31h-5.86l-8.04,7.54L95.1,7.33
		c0.2-0.97-0.15-1.51-0.87-1.51h-1.67h-3.49c0,0-0.15,0-0.27,0c-0.28,0-0.44,0.3-0.15,0.59c0.26,0.26,0.72,0.67,0.41,2.36
		c0,0-4.94,25.84-5.03,26.27c-0.07,0.28-0.14,0.78,0.49,0.78h4.67c0.46,0,0.53-0.44,0.57-0.66l1.16-6.03l1.51-1.44l3.68,6.61
		c0.33,0.59,0.85,1.47,1.74,1.47l2.25,0l2.93,0c0,0,0.68,0.06,0.65-0.29C103.62,34.87,102.78,35.05,102.14,34.06"/>
	<path class="st1" d="M82.35,15.11c-0.89-0.73-2.09-1.16-3.49-1.16c-2.33,0-4.97,1.89-6.6,3.28l0.23-1.16
		c0.2-0.97-0.16-1.52-0.87-1.52h-1.67h-3.49c0,0-0.15,0-0.27,0c-0.28,0-0.44,0.3-0.15,0.59c0.26,0.26,0.72,0.67,0.41,2.36
		c0,0-3.31,17.11-3.4,17.54c-0.07,0.28-0.14,0.78,0.49,0.78h4.67c0.46,0,0.53-0.44,0.57-0.66c1.72-9.03,1.93-10.11,1.93-10.11
		l0.07-0.34c0.72-3.99,3.44-5.83,5.08-6.1c1.64-0.27,2.46,0,1.98,2.42l-2.6,13.28c-0.2,0.97,0.15,1.52,0.87,1.52h1.67h3.49
		c0,0,0.15,0,0.27,0c0.28,0,0.44-0.3,0.15-0.59c-0.26-0.26-0.72-0.67-0.41-2.36l2.59-13.23C84.25,17.79,83.62,16.15,82.35,15.11"/>
	<path class="st1" d="M124.24,15.33c0.07-0.28,0.14-0.78-0.49-0.78h-4.67c-0.46,0-0.53,0.44-0.57,0.66
		c-0.03,0.17-0.06,0.24-0.09,0.4c-0.72-0.89-2.21-1.57-3.54-1.57c-4.72-0.01-9.16,3.47-10.67,9.74c-3.09,12.91,4.36,12.5,5.26,12.5
		c2.04,0,3.95-0.98,5.41-2.4l-0.08,0.42c-0.2,0.98,0.15,1.52,0.87,1.52h1.67h3.49c0,0,0.15,0,0.27,0c0.28,0,0.44-0.3,0.15-0.59
		c-0.26-0.26-0.72-0.67-0.41-2.36C120.84,32.87,124.15,15.77,124.24,15.33 M112.42,31.76c-2.49,0.8-3.79-0.51-2.33-6.93
		c1.92-8.47,7.9-6.68,7.62-5.41l-1.18,6.17C115.63,29.8,113.56,31.39,112.42,31.76"/>
	<path class="st1" d="M29.86,14.55h-4.11c-0.3,0.01-0.7,0.2-0.77,0.58c-0.49,2.62-1.07,5.78-1.46,7.65
		c-1.94,9.24-8.55,11.35-7.6,6.57c0.21-1.07,0.85-4.29,0.85-4.29l1.78-8.99c0.2-0.97-0.15-1.52-0.87-1.52h-1.67h-3.49
		c0,0-0.15,0-0.27,0c-0.28,0-0.44,0.3-0.15,0.59c0.26,0.26,0.72,0.67,0.41,2.36L9.89,30.73c-0.37,1.85,0.26,3.49,1.53,4.53
		c0.89,0.73,2.1,1.09,3.49,1.16c3.59,0.19,12.24-2.89,14.48-14.02c0.54-2.66,0.77-4.2,1.35-7.17
		C30.74,14.77,30.48,14.55,29.86,14.55"/>
</g>
</svg>
