<?xml version="1.0" encoding="utf-8"?>
<!-- Generator: Adobe Illustrator 27.0.0, SVG Export Plug-In . SVG Version: 6.00 Build 0)  -->
<svg version="1.1" id="Layer_1" xmlns="http://www.w3.org/2000/svg" xmlns:xlink="http://www.w3.org/1999/xlink" x="0px" y="0px"
	 viewBox="0 0 90.87 48" style="enable-background:new 0 0 90.87 48;" xml:space="preserve">
<style type="text/css">
	.st0{fill:#7AC143;}
	.st1{fill:#004990;}
</style>
<g>
	<g>
		<g>
			<path class="st0" d="M81.38,17.51c1.53,22.19-16.11,20.93-24.5,28.18C55.35,23.5,72.99,24.76,81.38,17.51z"/>
			<g>
				<g>
					<path class="st1" d="M12.19,20.16H12.1L7.11,3.05H0.29L6.5,23.27c3.81-1.04,7.09-2.23,11.9-2.98l5.24-17.25h-6.46L12.19,20.16z
						"/>
					<path class="st1" d="M24.89,19.66c1.27-0.06,2.64-0.09,4.12-0.09c0.83,0,1.62,0.01,2.39,0.03V3.05h-6.5V19.66z"/>
					<path class="st1" d="M44.49,20.25H44.4L39.4,3.05h-6.82l5.22,17c5.02,0.61,8.3,1.67,12.12,2.78l6-19.78h-6.46L44.49,20.25z"/>
					<path class="st1" d="M63.68,3.05h-6.5v21.48c1.89,0.31,4.01,0.55,6.5,0.69V3.05z"/>
					<path class="st1" d="M77.48,2.33c-5.31,0-10.97,2.09-11.34,8.83h6.71c0.22-2.86,1.78-3.98,4.3-3.98c2.29,0,4.21,0.87,4.21,2.85
						c0,5.4-16.43,1.22-16.51,12.41c0,0.49-0.02,2.04-0.01,2.14c4.92-3.02,11.99-4.43,16.71-7.51c0.34,2.7,0.33,4.71,0.27,6.96
						c1.96-0.48,4.35-1.2,6.04-1.7V9.84C87.87,3.51,82.19,2.33,77.48,2.33z"/>
				</g>
				<path class="st1" d="M88.11,3.02h0.9c0.35,0,0.64,0.15,0.64,0.54c0,0.27-0.14,0.47-0.42,0.51v0.01c0.26,0.02,0.38,0.13,0.4,0.43
					c0.01,0.13,0.01,0.3,0.02,0.42c0.01,0.1,0.07,0.15,0.12,0.18H89.3c-0.04-0.04-0.06-0.1-0.07-0.18
					c-0.01-0.06-0.01-0.13-0.01-0.19c0-0.06,0-0.13,0-0.2c-0.02-0.23-0.1-0.33-0.37-0.33h-0.33v0.9h-0.4V3.02z M88.84,3.94
					c0.26,0,0.4-0.12,0.4-0.34c0-0.22-0.11-0.34-0.39-0.34h-0.34v0.68H88.84z M88.83,5.82c-0.97,0-1.75-0.79-1.75-1.75
					c0-0.96,0.78-1.75,1.75-1.75c0.96,0,1.75,0.79,1.75,1.75C90.58,5.03,89.79,5.82,88.83,5.82z M88.83,2.55
					c-0.83,0-1.51,0.68-1.51,1.51c0,0.84,0.68,1.51,1.51,1.51c0.83,0,1.51-0.68,1.51-1.51C90.33,3.23,89.66,2.55,88.83,2.55z"/>
			</g>
		</g>
	</g>
</g>
</svg>
