<svg width="27" height="18" viewBox="0 0 27 18" fill="none" xmlns="http://www.w3.org/2000/svg">
<g clip-path="url(#clip0_261_189)">
<path fill-rule="evenodd" clip-rule="evenodd" d="M24.4518 1.02228C25.529 1.30219 26.3782 2.12194 26.6682 3.16161C27.2068 5.06102 27.1861 9.01978 27.1861 9.01978C27.1861 9.01978 27.1861 12.9586 26.6682 14.858C26.3782 15.8976 25.529 16.7174 24.4518 16.9973C22.484 17.4971 14.6126 17.4971 14.6126 17.4971C14.6126 17.4971 6.7619 17.4971 4.77334 16.9773C3.6962 16.6974 2.84692 15.8776 2.55692 14.838C2.03906 12.9586 2.03906 8.99979 2.03906 8.99979C2.03906 8.99979 2.03906 5.06102 2.55692 3.16161C2.84692 2.12194 3.71691 1.2822 4.77334 1.00229C6.74118 0.502441 14.6126 0.502441 14.6126 0.502441C14.6126 0.502441 22.484 0.502441 24.4518 1.02228ZM18.6521 8.99971L12.1064 12.6386V5.36084L18.6521 8.99971Z" fill="#232323"/>
</g>
<defs>
<clipPath id="clip0_261_189">
<rect width="26" height="17" fill="white" transform="translate(0.946289 0.5)"/>
</clipPath>
</defs>
</svg>
