<svg width="16" height="16" viewBox="0 0 16 16" fill="none" xmlns="http://www.w3.org/2000/svg">
<path d="M5.07117 15.4576L5.34847 13.6963L4.73078 13.682H1.78125L3.83102 0.685064C3.83739 0.645829 3.85806 0.609244 3.88829 0.583264C3.91851 0.557284 3.95721 0.542969 3.99751 0.542969H8.97083C10.6219 0.542969 11.7613 0.886542 12.3562 1.56467C12.6351 1.8828 12.8127 2.21524 12.8986 2.58108C12.9887 2.96495 12.9903 3.42357 12.9023 3.98294L12.8959 4.02377V4.38218L13.1748 4.54019C13.4097 4.66478 13.5963 4.80741 13.7395 4.97071C13.9781 5.24271 14.1324 5.5884 14.1976 5.99825C14.2649 6.41976 14.2427 6.92134 14.1324 7.48919C14.0051 8.1424 13.7994 8.71131 13.5216 9.17683C13.266 9.60577 12.9405 9.96154 12.554 10.2372C12.1849 10.4992 11.7465 10.698 11.2507 10.8252C10.7703 10.9504 10.2226 11.0135 9.62192 11.0135H9.23487C8.95811 11.0135 8.68929 11.1131 8.47827 11.2918C8.26672 11.4742 8.12675 11.7234 8.0838 11.9959L8.05464 12.1545L7.56473 15.2588L7.54246 15.3728C7.53663 15.4089 7.52655 15.4269 7.51171 15.4391C7.49845 15.4502 7.47937 15.4576 7.46081 15.4576H5.07117Z" fill="#4F5664"/>
<path d="M13.4391 4.06494C13.4242 4.15985 13.4073 4.25688 13.3882 4.35655C12.7323 7.72389 10.4885 8.88716 7.62273 8.88716H6.16361C5.81314 8.88716 5.51782 9.14166 5.46321 9.48735L4.71615 14.2253L4.5046 15.5683C4.46907 15.7952 4.64404 15.9999 4.87309 15.9999H7.46102C7.76748 15.9999 8.02781 15.7772 8.07606 15.475L8.10151 15.3435L8.58877 12.2513L8.62005 12.0816C8.66777 11.7784 8.92863 11.5557 9.23509 11.5557H9.62214C12.1295 11.5557 14.0923 10.5377 14.666 7.59187C14.9056 6.36126 14.7816 5.33372 14.1474 4.61105C13.9555 4.39314 13.7174 4.21234 13.4391 4.06494Z" fill="#677287"/>
<path d="M12.7527 3.79156C12.6525 3.7624 12.5491 3.73589 12.443 3.71203C12.3365 3.6887 12.2272 3.66803 12.1148 3.65C11.7214 3.58637 11.2904 3.55615 10.8286 3.55615H6.9305C6.83453 3.55615 6.74334 3.57789 6.66168 3.61713C6.48194 3.70355 6.34833 3.87375 6.31599 4.08212L5.48675 9.33433L5.46289 9.48756C5.5175 9.14186 5.81283 8.88737 6.16329 8.88737H7.62242C10.4882 8.88737 12.732 7.72357 13.3879 4.35676C13.4075 4.25708 13.4239 4.16006 13.4388 4.06515C13.2728 3.97714 13.0931 3.90185 12.8995 3.83769C12.8518 3.82179 12.8025 3.80641 12.7527 3.79156Z" fill="#333841"/>
<path d="M6.31614 4.08205C6.34848 3.87368 6.48209 3.70348 6.66183 3.61759C6.74401 3.57836 6.83468 3.55662 6.93064 3.55662H10.8287C11.2905 3.55662 11.7216 3.58684 12.115 3.65046C12.2274 3.66849 12.3366 3.68917 12.4432 3.7125C12.5492 3.73636 12.6526 3.76287 12.7528 3.79203C12.8027 3.80687 12.852 3.82225 12.9002 3.83763C13.0938 3.90178 13.2735 3.9776 13.4394 4.06508C13.6346 2.82069 13.4379 1.97342 12.765 1.20622C12.0233 0.3616 10.6845 0 8.97141 0H3.99808C3.64814 0 3.34964 0.254499 3.29556 0.600723L1.22405 13.7313C1.18322 13.9911 1.38364 14.2254 1.64556 14.2254H4.71598L5.4869 9.33426L6.31614 4.08205Z" fill="#4F5664"/>
</svg>
